<?xml version="1.0" encoding="utf-8" standalone="no"?>
<!DOCTYPE svg PUBLIC "-//W3C//DTD SVG 1.1//EN"
  "http://www.w3.org/Graphics/SVG/1.1/DTD/svg11.dtd">
<svg height="576pt" version="1.1" viewBox="0 0 1296 576" width="1296pt" xmlns="http://www.w3.org/2000/svg" xmlns:xlink="http://www.w3.org/1999/xlink">
 <metadata>
  <rdf:RDF xmlns:cc="http://creativecommons.org/ns#" xmlns:dc="http://purl.org/dc/elements/1.1/" xmlns:rdf="http://www.w3.org/1999/02/22-rdf-syntax-ns#">
   <cc:Work>
    <dc:type rdf:resource="http://purl.org/dc/dcmitype/StillImage"/>
    <dc:date>2021-11-17T00:48:37.165357</dc:date>
    <dc:format>image/svg+xml</dc:format>
    <dc:creator>
     <cc:Agent>
      <dc:title>Matplotlib v3.4.3, https://matplotlib.org/</dc:title>
     </cc:Agent>
    </dc:creator>
   </cc:Work>
  </rdf:RDF>
 </metadata>
 <defs>
  <style type="text/css">*{stroke-linecap:butt;stroke-linejoin:round;}</style>
 </defs>
 <g id="figure_1">
  <g id="patch_1">
   <path d="M 0 576 
L 1296 576 
L 1296 0 
L 0 0 
z
" style="fill:#ffffff;"/>
  </g>
  <g id="axes_1">
   <g id="patch_2">
    <path d="M 162 512.64 
L 1166.4 512.64 
L 1166.4 69.12 
L 162 69.12 
z
" style="fill:#eaeaf2;"/>
   </g>
   <g id="matplotlib.axis_1">
    <g id="xtick_1">
     <g id="line2d_1">
      <path clip-path="url(#p0774e79295)" d="M 207.112973 512.64 
L 207.112973 69.12 
" style="fill:none;stroke:#ffffff;stroke-linecap:round;"/>
     </g>
     <g id="text_1">
      <!-- 2013 -->
      <g style="fill:#262626;" transform="translate(194.878911 530.013594)scale(0.11 -0.11)">
       <defs>
        <path d="M 3222 541 
L 3222 0 
L 194 0 
Q 188 203 259 391 
Q 375 700 629 1000 
Q 884 1300 1366 1694 
Q 2113 2306 2375 2664 
Q 2638 3022 2638 3341 
Q 2638 3675 2398 3904 
Q 2159 4134 1775 4134 
Q 1369 4134 1125 3890 
Q 881 3647 878 3216 
L 300 3275 
Q 359 3922 746 4261 
Q 1134 4600 1788 4600 
Q 2447 4600 2831 4234 
Q 3216 3869 3216 3328 
Q 3216 3053 3103 2787 
Q 2991 2522 2730 2228 
Q 2469 1934 1863 1422 
Q 1356 997 1212 845 
Q 1069 694 975 541 
L 3222 541 
z
" id="ArialMT-32" transform="scale(0.015625)"/>
        <path d="M 266 2259 
Q 266 3072 433 3567 
Q 600 4063 929 4331 
Q 1259 4600 1759 4600 
Q 2128 4600 2406 4451 
Q 2684 4303 2865 4023 
Q 3047 3744 3150 3342 
Q 3253 2941 3253 2259 
Q 3253 1453 3087 958 
Q 2922 463 2592 192 
Q 2263 -78 1759 -78 
Q 1097 -78 719 397 
Q 266 969 266 2259 
z
M 844 2259 
Q 844 1131 1108 757 
Q 1372 384 1759 384 
Q 2147 384 2411 759 
Q 2675 1134 2675 2259 
Q 2675 3391 2411 3762 
Q 2147 4134 1753 4134 
Q 1366 4134 1134 3806 
Q 844 3388 844 2259 
z
" id="ArialMT-30" transform="scale(0.015625)"/>
        <path d="M 2384 0 
L 1822 0 
L 1822 3584 
Q 1619 3391 1289 3197 
Q 959 3003 697 2906 
L 697 3450 
Q 1169 3672 1522 3987 
Q 1875 4303 2022 4600 
L 2384 4600 
L 2384 0 
z
" id="ArialMT-31" transform="scale(0.015625)"/>
        <path d="M 269 1209 
L 831 1284 
Q 928 806 1161 595 
Q 1394 384 1728 384 
Q 2125 384 2398 659 
Q 2672 934 2672 1341 
Q 2672 1728 2419 1979 
Q 2166 2231 1775 2231 
Q 1616 2231 1378 2169 
L 1441 2663 
Q 1497 2656 1531 2656 
Q 1891 2656 2178 2843 
Q 2466 3031 2466 3422 
Q 2466 3731 2256 3934 
Q 2047 4138 1716 4138 
Q 1388 4138 1169 3931 
Q 950 3725 888 3313 
L 325 3413 
Q 428 3978 793 4289 
Q 1159 4600 1703 4600 
Q 2078 4600 2393 4439 
Q 2709 4278 2876 4000 
Q 3044 3722 3044 3409 
Q 3044 3113 2884 2869 
Q 2725 2625 2413 2481 
Q 2819 2388 3044 2092 
Q 3269 1797 3269 1353 
Q 3269 753 2831 336 
Q 2394 -81 1725 -81 
Q 1122 -81 723 278 
Q 325 638 269 1209 
z
" id="ArialMT-33" transform="scale(0.015625)"/>
       </defs>
       <use xlink:href="#ArialMT-32"/>
       <use x="55.615234" xlink:href="#ArialMT-30"/>
       <use x="111.230469" xlink:href="#ArialMT-31"/>
       <use x="166.845703" xlink:href="#ArialMT-33"/>
      </g>
     </g>
    </g>
    <g id="xtick_2">
     <g id="line2d_2">
      <path clip-path="url(#p0774e79295)" d="M 404.786865 512.64 
L 404.786865 69.12 
" style="fill:none;stroke:#ffffff;stroke-linecap:round;"/>
     </g>
     <g id="text_2">
      <!-- 2014 -->
      <g style="fill:#262626;" transform="translate(392.552803 530.013594)scale(0.11 -0.11)">
       <defs>
        <path d="M 2069 0 
L 2069 1097 
L 81 1097 
L 81 1613 
L 2172 4581 
L 2631 4581 
L 2631 1613 
L 3250 1613 
L 3250 1097 
L 2631 1097 
L 2631 0 
L 2069 0 
z
M 2069 1613 
L 2069 3678 
L 634 1613 
L 2069 1613 
z
" id="ArialMT-34" transform="scale(0.015625)"/>
       </defs>
       <use xlink:href="#ArialMT-32"/>
       <use x="55.615234" xlink:href="#ArialMT-30"/>
       <use x="111.230469" xlink:href="#ArialMT-31"/>
       <use x="166.845703" xlink:href="#ArialMT-34"/>
      </g>
     </g>
    </g>
    <g id="xtick_3">
     <g id="line2d_3">
      <path clip-path="url(#p0774e79295)" d="M 602.460757 512.64 
L 602.460757 69.12 
" style="fill:none;stroke:#ffffff;stroke-linecap:round;"/>
     </g>
     <g id="text_3">
      <!-- 2015 -->
      <g style="fill:#262626;" transform="translate(590.226695 530.013594)scale(0.11 -0.11)">
       <defs>
        <path d="M 266 1200 
L 856 1250 
Q 922 819 1161 601 
Q 1400 384 1738 384 
Q 2144 384 2425 690 
Q 2706 997 2706 1503 
Q 2706 1984 2436 2262 
Q 2166 2541 1728 2541 
Q 1456 2541 1237 2417 
Q 1019 2294 894 2097 
L 366 2166 
L 809 4519 
L 3088 4519 
L 3088 3981 
L 1259 3981 
L 1013 2750 
Q 1425 3038 1878 3038 
Q 2478 3038 2890 2622 
Q 3303 2206 3303 1553 
Q 3303 931 2941 478 
Q 2500 -78 1738 -78 
Q 1113 -78 717 272 
Q 322 622 266 1200 
z
" id="ArialMT-35" transform="scale(0.015625)"/>
       </defs>
       <use xlink:href="#ArialMT-32"/>
       <use x="55.615234" xlink:href="#ArialMT-30"/>
       <use x="111.230469" xlink:href="#ArialMT-31"/>
       <use x="166.845703" xlink:href="#ArialMT-35"/>
      </g>
     </g>
    </g>
    <g id="xtick_4">
     <g id="line2d_4">
      <path clip-path="url(#p0774e79295)" d="M 800.134649 512.64 
L 800.134649 69.12 
" style="fill:none;stroke:#ffffff;stroke-linecap:round;"/>
     </g>
     <g id="text_4">
      <!-- 2016 -->
      <g style="fill:#262626;" transform="translate(787.900586 530.013594)scale(0.11 -0.11)">
       <defs>
        <path d="M 3184 3459 
L 2625 3416 
Q 2550 3747 2413 3897 
Q 2184 4138 1850 4138 
Q 1581 4138 1378 3988 
Q 1113 3794 959 3422 
Q 806 3050 800 2363 
Q 1003 2672 1297 2822 
Q 1591 2972 1913 2972 
Q 2475 2972 2870 2558 
Q 3266 2144 3266 1488 
Q 3266 1056 3080 686 
Q 2894 316 2569 119 
Q 2244 -78 1831 -78 
Q 1128 -78 684 439 
Q 241 956 241 2144 
Q 241 3472 731 4075 
Q 1159 4600 1884 4600 
Q 2425 4600 2770 4297 
Q 3116 3994 3184 3459 
z
M 888 1484 
Q 888 1194 1011 928 
Q 1134 663 1356 523 
Q 1578 384 1822 384 
Q 2178 384 2434 671 
Q 2691 959 2691 1453 
Q 2691 1928 2437 2201 
Q 2184 2475 1800 2475 
Q 1419 2475 1153 2201 
Q 888 1928 888 1484 
z
" id="ArialMT-36" transform="scale(0.015625)"/>
       </defs>
       <use xlink:href="#ArialMT-32"/>
       <use x="55.615234" xlink:href="#ArialMT-30"/>
       <use x="111.230469" xlink:href="#ArialMT-31"/>
       <use x="166.845703" xlink:href="#ArialMT-36"/>
      </g>
     </g>
    </g>
    <g id="xtick_5">
     <g id="line2d_5">
      <path clip-path="url(#p0774e79295)" d="M 998.350113 512.64 
L 998.350113 69.12 
" style="fill:none;stroke:#ffffff;stroke-linecap:round;"/>
     </g>
     <g id="text_5">
      <!-- 2017 -->
      <g style="fill:#262626;" transform="translate(986.116051 530.013594)scale(0.11 -0.11)">
       <defs>
        <path d="M 303 3981 
L 303 4522 
L 3269 4522 
L 3269 4084 
Q 2831 3619 2401 2847 
Q 1972 2075 1738 1259 
Q 1569 684 1522 0 
L 944 0 
Q 953 541 1156 1306 
Q 1359 2072 1739 2783 
Q 2119 3494 2547 3981 
L 303 3981 
z
" id="ArialMT-37" transform="scale(0.015625)"/>
       </defs>
       <use xlink:href="#ArialMT-32"/>
       <use x="55.615234" xlink:href="#ArialMT-30"/>
       <use x="111.230469" xlink:href="#ArialMT-31"/>
       <use x="166.845703" xlink:href="#ArialMT-37"/>
      </g>
     </g>
    </g>
    <g id="text_6">
     <!-- date -->
     <g style="fill:#262626;" transform="translate(652.523438 544.789219)scale(0.12 -0.12)">
      <defs>
       <path d="M 2575 0 
L 2575 419 
Q 2259 -75 1647 -75 
Q 1250 -75 917 144 
Q 584 363 401 755 
Q 219 1147 219 1656 
Q 219 2153 384 2558 
Q 550 2963 881 3178 
Q 1213 3394 1622 3394 
Q 1922 3394 2156 3267 
Q 2391 3141 2538 2938 
L 2538 4581 
L 3097 4581 
L 3097 0 
L 2575 0 
z
M 797 1656 
Q 797 1019 1065 703 
Q 1334 388 1700 388 
Q 2069 388 2326 689 
Q 2584 991 2584 1609 
Q 2584 2291 2321 2609 
Q 2059 2928 1675 2928 
Q 1300 2928 1048 2622 
Q 797 2316 797 1656 
z
" id="ArialMT-64" transform="scale(0.015625)"/>
       <path d="M 2588 409 
Q 2275 144 1986 34 
Q 1697 -75 1366 -75 
Q 819 -75 525 192 
Q 231 459 231 875 
Q 231 1119 342 1320 
Q 453 1522 633 1644 
Q 813 1766 1038 1828 
Q 1203 1872 1538 1913 
Q 2219 1994 2541 2106 
Q 2544 2222 2544 2253 
Q 2544 2597 2384 2738 
Q 2169 2928 1744 2928 
Q 1347 2928 1158 2789 
Q 969 2650 878 2297 
L 328 2372 
Q 403 2725 575 2942 
Q 747 3159 1072 3276 
Q 1397 3394 1825 3394 
Q 2250 3394 2515 3294 
Q 2781 3194 2906 3042 
Q 3031 2891 3081 2659 
Q 3109 2516 3109 2141 
L 3109 1391 
Q 3109 606 3145 398 
Q 3181 191 3288 0 
L 2700 0 
Q 2613 175 2588 409 
z
M 2541 1666 
Q 2234 1541 1622 1453 
Q 1275 1403 1131 1340 
Q 988 1278 909 1158 
Q 831 1038 831 891 
Q 831 666 1001 516 
Q 1172 366 1500 366 
Q 1825 366 2078 508 
Q 2331 650 2450 897 
Q 2541 1088 2541 1459 
L 2541 1666 
z
" id="ArialMT-61" transform="scale(0.015625)"/>
       <path d="M 1650 503 
L 1731 6 
Q 1494 -44 1306 -44 
Q 1000 -44 831 53 
Q 663 150 594 308 
Q 525 466 525 972 
L 525 2881 
L 113 2881 
L 113 3319 
L 525 3319 
L 525 4141 
L 1084 4478 
L 1084 3319 
L 1650 3319 
L 1650 2881 
L 1084 2881 
L 1084 941 
Q 1084 700 1114 631 
Q 1144 563 1211 522 
Q 1278 481 1403 481 
Q 1497 481 1650 503 
z
" id="ArialMT-74" transform="scale(0.015625)"/>
       <path d="M 2694 1069 
L 3275 997 
Q 3138 488 2766 206 
Q 2394 -75 1816 -75 
Q 1088 -75 661 373 
Q 234 822 234 1631 
Q 234 2469 665 2931 
Q 1097 3394 1784 3394 
Q 2450 3394 2872 2941 
Q 3294 2488 3294 1666 
Q 3294 1616 3291 1516 
L 816 1516 
Q 847 969 1125 678 
Q 1403 388 1819 388 
Q 2128 388 2347 550 
Q 2566 713 2694 1069 
z
M 847 1978 
L 2700 1978 
Q 2663 2397 2488 2606 
Q 2219 2931 1791 2931 
Q 1403 2931 1139 2672 
Q 875 2413 847 1978 
z
" id="ArialMT-65" transform="scale(0.015625)"/>
      </defs>
      <use xlink:href="#ArialMT-64"/>
      <use x="55.615234" xlink:href="#ArialMT-61"/>
      <use x="111.230469" xlink:href="#ArialMT-74"/>
      <use x="139.013672" xlink:href="#ArialMT-65"/>
     </g>
    </g>
   </g>
   <g id="matplotlib.axis_2">
    <g id="ytick_1">
     <g id="line2d_6">
      <path clip-path="url(#p0774e79295)" d="M 162 418.04939 
L 1166.4 418.04939 
" style="fill:none;stroke:#ffffff;stroke-linecap:round;"/>
     </g>
     <g id="text_7">
      <!-- 5000 -->
      <g style="fill:#262626;" transform="translate(128.031875 421.986187)scale(0.11 -0.11)">
       <use xlink:href="#ArialMT-35"/>
       <use x="55.615234" xlink:href="#ArialMT-30"/>
       <use x="111.230469" xlink:href="#ArialMT-30"/>
       <use x="166.845703" xlink:href="#ArialMT-30"/>
      </g>
     </g>
    </g>
    <g id="ytick_2">
     <g id="line2d_7">
      <path clip-path="url(#p0774e79295)" d="M 162 320.136665 
L 1166.4 320.136665 
" style="fill:none;stroke:#ffffff;stroke-linecap:round;"/>
     </g>
     <g id="text_8">
      <!-- 10000 -->
      <g style="fill:#262626;" transform="translate(121.914844 324.073462)scale(0.11 -0.11)">
       <use xlink:href="#ArialMT-31"/>
       <use x="55.615234" xlink:href="#ArialMT-30"/>
       <use x="111.230469" xlink:href="#ArialMT-30"/>
       <use x="166.845703" xlink:href="#ArialMT-30"/>
       <use x="222.460938" xlink:href="#ArialMT-30"/>
      </g>
     </g>
    </g>
    <g id="ytick_3">
     <g id="line2d_8">
      <path clip-path="url(#p0774e79295)" d="M 162 222.22394 
L 1166.4 222.22394 
" style="fill:none;stroke:#ffffff;stroke-linecap:round;"/>
     </g>
     <g id="text_9">
      <!-- 15000 -->
      <g style="fill:#262626;" transform="translate(121.914844 226.160737)scale(0.11 -0.11)">
       <use xlink:href="#ArialMT-31"/>
       <use x="55.615234" xlink:href="#ArialMT-35"/>
       <use x="111.230469" xlink:href="#ArialMT-30"/>
       <use x="166.845703" xlink:href="#ArialMT-30"/>
       <use x="222.460938" xlink:href="#ArialMT-30"/>
      </g>
     </g>
    </g>
    <g id="ytick_4">
     <g id="line2d_9">
      <path clip-path="url(#p0774e79295)" d="M 162 124.311215 
L 1166.4 124.311215 
" style="fill:none;stroke:#ffffff;stroke-linecap:round;"/>
     </g>
     <g id="text_10">
      <!-- 20000 -->
      <g style="fill:#262626;" transform="translate(121.914844 128.248012)scale(0.11 -0.11)">
       <use xlink:href="#ArialMT-32"/>
       <use x="55.615234" xlink:href="#ArialMT-30"/>
       <use x="111.230469" xlink:href="#ArialMT-30"/>
       <use x="166.845703" xlink:href="#ArialMT-30"/>
       <use x="222.460938" xlink:href="#ArialMT-30"/>
      </g>
     </g>
    </g>
    <g id="text_11">
     <!-- sales -->
     <g style="fill:#262626;" transform="translate(115.529844 304.88625)rotate(-90)scale(0.12 -0.12)">
      <defs>
       <path d="M 197 991 
L 753 1078 
Q 800 744 1014 566 
Q 1228 388 1613 388 
Q 2000 388 2187 545 
Q 2375 703 2375 916 
Q 2375 1106 2209 1216 
Q 2094 1291 1634 1406 
Q 1016 1563 777 1677 
Q 538 1791 414 1992 
Q 291 2194 291 2438 
Q 291 2659 392 2848 
Q 494 3038 669 3163 
Q 800 3259 1026 3326 
Q 1253 3394 1513 3394 
Q 1903 3394 2198 3281 
Q 2494 3169 2634 2976 
Q 2775 2784 2828 2463 
L 2278 2388 
Q 2241 2644 2061 2787 
Q 1881 2931 1553 2931 
Q 1166 2931 1000 2803 
Q 834 2675 834 2503 
Q 834 2394 903 2306 
Q 972 2216 1119 2156 
Q 1203 2125 1616 2013 
Q 2213 1853 2448 1751 
Q 2684 1650 2818 1456 
Q 2953 1263 2953 975 
Q 2953 694 2789 445 
Q 2625 197 2315 61 
Q 2006 -75 1616 -75 
Q 969 -75 630 194 
Q 291 463 197 991 
z
" id="ArialMT-73" transform="scale(0.015625)"/>
       <path d="M 409 0 
L 409 4581 
L 972 4581 
L 972 0 
L 409 0 
z
" id="ArialMT-6c" transform="scale(0.015625)"/>
      </defs>
      <use xlink:href="#ArialMT-73"/>
      <use x="50" xlink:href="#ArialMT-61"/>
      <use x="105.615234" xlink:href="#ArialMT-6c"/>
      <use x="127.832031" xlink:href="#ArialMT-65"/>
      <use x="183.447266" xlink:href="#ArialMT-73"/>
     </g>
    </g>
   </g>
   <g id="line2d_10">
    <path clip-path="url(#p0774e79295)" d="M 207.654545 370.715481 
L 208.196118 400.94905 
L 208.73769 400.035818 
L 209.279262 392.224223 
L 209.820835 472.898395 
L 210.362407 395.511369 
L 210.903979 406.355066 
L 211.445552 382.632811 
L 211.987124 422.793947 
L 212.528696 408.3753 
L 213.070269 408.889009 
L 213.611841 463.209128 
L 214.153413 405.287739 
L 214.694985 414.051143 
L 215.236558 384.101168 
L 215.77813 419.175896 
L 216.319702 399.972273 
L 216.861275 400.520153 
L 217.402847 469.529277 
L 217.944419 413.592363 
L 218.485992 412.194483 
L 219.027564 393.38819 
L 219.569136 420.761103 
L 220.110709 406.736534 
L 220.652281 412.364048 
L 221.193853 468.192886 
L 221.735425 418.503548 
L 222.276998 424.286215 
L 222.81857 396.138735 
L 223.360142 423.677864 
L 223.901715 402.720585 
L 224.443287 404.206117 
L 224.984859 471.549236 
L 225.526432 406.808206 
L 226.068004 416.467395 
L 226.609576 396.363053 
L 227.151148 428.775866 
L 227.692721 406.42104 
L 228.234293 429.102327 
L 228.775865 492.48 
L 229.317438 489.628488 
L 229.85901 479.694948 
L 230.400582 396.08316 
L 230.942155 418.065291 
L 231.483727 410.455514 
L 232.025299 405.80276 
L 232.566872 481.749823 
L 233.108444 411.317322 
L 233.650016 413.550927 
L 234.191588 397.995493 
L 234.733161 411.670748 
L 235.274733 402.745435 
L 235.816305 409.687858 
L 236.357878 471.006232 
L 236.89945 411.523018 
L 237.441022 423.722865 
L 237.982595 397.390921 
L 238.524167 417.859596 
L 239.065739 399.63091 
L 239.607312 402.041306 
L 240.148884 468.242841 
L 240.690456 396.616451 
L 241.232028 418.663616 
L 241.773601 381.909059 
L 242.315173 414.151073 
L 242.856745 398.257782 
L 243.398318 405.016991 
L 243.93989 465.020004 
L 244.481462 408.162203 
L 245.023035 418.733115 
L 245.564607 396.943793 
L 246.106179 426.72105 
L 246.647752 405.546366 
L 247.189324 402.393557 
L 247.730896 471.732764 
L 248.272468 414.889844 
L 248.814041 419.180243 
L 249.355613 394.630194 
L 249.897185 416.14579 
L 250.438758 402.479916 
L 250.98033 407.893961 
L 251.521902 475.68317 
L 252.063475 413.47857 
L 252.605047 421.725504 
L 253.146619 390.87949 
L 253.688192 404.601939 
L 254.229764 476.763167 
L 254.771336 430.712834 
L 255.312908 475.967332 
L 255.854481 395.629706 
L 256.396053 402.888877 
L 256.937625 377.41653 
L 257.479198 420.076223 
L 258.02077 392.495598 
L 258.562342 406.415635 
L 259.103915 469.67407 
L 259.645487 410.643663 
L 260.187059 421.900592 
L 260.728632 382.105883 
L 261.270204 423.895583 
L 261.811776 394.308883 
L 262.353348 408.376553 
L 262.894921 472.686237 
L 263.436493 408.991327 
L 263.978065 410.846734 
L 264.519638 394.4085 
L 265.06121 417.958273 
L 265.602782 411.393303 
L 266.144355 403.175057 
L 266.685927 467.998979 
L 267.227499 408.164689 
L 267.769071 416.380115 
L 268.310644 376.687197 
L 268.852216 423.482313 
L 269.393788 392.267873 
L 269.935361 411.506098 
L 270.476933 468.42862 
L 271.018505 428.062787 
L 271.560078 408.687406 
L 272.10165 463.52143 
L 272.643222 405.351539 
L 273.184795 377.882594 
L 273.726367 402.423753 
L 274.267939 462.621142 
L 274.809511 402.110393 
L 275.351084 406.555239 
L 275.892656 391.585069 
L 276.434228 417.082756 
L 276.975801 395.815486 
L 277.517373 392.800146 
L 278.058945 478.66612 
L 278.600518 405.563285 
L 279.14209 407.702463 
L 279.683662 400.391065 
L 280.225235 409.054559 
L 280.766807 398.054554 
L 281.308379 404.708037 
L 281.849951 476.069886 
L 282.391524 413.710662 
L 282.933096 419.36193 
L 283.474668 400.486726 
L 284.016241 409.704974 
L 284.557813 472.97414 
L 285.099385 432.623151 
L 285.640958 484.203477 
L 286.18253 414.248242 
L 286.724102 415.434004 
L 287.265675 385.041581 
L 287.807247 419.043106 
L 288.348819 395.412203 
L 288.890391 394.932098 
L 289.431964 482.091949 
L 289.973536 392.550077 
L 290.515108 400.550604 
L 291.056681 373.756023 
L 291.598253 406.972876 
L 292.139825 384.668768 
L 292.681398 407.517408 
L 293.22297 470.302494 
L 293.764542 404.270935 
L 294.306115 410.840233 
L 294.847687 394.548417 
L 295.389259 423.196995 
L 295.930831 397.35156 
L 296.472404 409.184646 
L 297.013976 477.128479 
L 297.555548 399.159264 
L 298.097121 416.157618 
L 298.638693 383.821295 
L 299.180265 423.41818 
L 299.721838 406.134665 
L 300.26341 413.00381 
L 300.804982 472.724522 
L 301.346555 413.634251 
L 301.888127 404.378678 
L 302.429699 399.197391 
L 302.971271 421.51926 
L 303.512844 397.596577 
L 304.054416 407.763874 
L 304.595988 473.771502 
L 305.137561 401.648519 
L 305.679133 402.623984 
L 306.220705 385.31887 
L 306.762278 415.574431 
L 307.30385 398.493007 
L 307.845422 414.969565 
L 308.386995 471.759454 
L 308.928567 402.658508 
L 309.470139 412.627022 
L 310.011711 395.674609 
L 310.553284 419.435286 
L 311.094856 406.280653 
L 311.636428 415.379878 
L 312.178001 479.891478 
L 312.719573 411.89064 
L 313.261145 403.234627 
L 313.802718 401.534842 
L 314.34429 422.67467 
L 314.885862 394.302695 
L 315.427434 416.402145 
L 315.969007 478.644247 
L 316.510579 417.117241 
L 317.052151 405.434843 
L 317.593724 401.296699 
L 318.135296 415.843279 
L 318.676868 405.613221 
L 319.218441 417.984043 
L 319.760013 480.808431 
L 320.301585 402.987965 
L 320.843158 428.477115 
L 321.38473 398.538321 
L 321.926302 395.786523 
L 322.467874 407.910351 
L 323.009447 410.314735 
L 323.551019 479.969887 
L 324.092591 406.411581 
L 324.634164 415.491401 
L 325.175736 399.39915 
L 325.717308 423.154677 
L 326.258881 405.703359 
L 327.342025 479.486805 
L 327.883598 407.691575 
L 328.42517 425.615478 
L 328.966742 404.32091 
L 329.508314 418.550625 
L 330.049887 403.95973 
L 330.591459 419.616111 
L 331.133031 479.864435 
L 331.674604 415.557139 
L 332.216176 424.74525 
L 332.757748 407.634178 
L 333.299321 426.496536 
L 333.840893 404.769037 
L 334.382465 425.570145 
L 334.924038 475.24411 
L 335.46561 411.707191 
L 336.007182 414.839596 
L 336.548754 401.125469 
L 337.090327 424.821269 
L 337.631899 399.066169 
L 338.173471 411.921385 
L 338.715044 464.953189 
L 339.256616 405.917749 
L 339.798188 409.096799 
L 340.339761 390.031135 
L 340.881333 414.68689 
L 341.422905 395.419546 
L 341.964478 408.750912 
L 342.50605 472.70911 
L 343.047622 411.311448 
L 343.589194 421.391837 
L 344.130767 396.530053 
L 344.672339 410.722992 
L 345.213911 400.292017 
L 345.755484 411.164226 
L 346.297056 465.935586 
L 346.838628 398.463732 
L 347.380201 417.837135 
L 347.921773 405.461711 
L 348.463345 416.793797 
L 349.004918 405.886535 
L 349.54649 406.819153 
L 350.088062 472.563083 
L 350.629634 408.509381 
L 351.171207 405.859608 
L 351.712779 394.580082 
L 352.254351 413.23369 
L 352.795924 395.916806 
L 353.337496 412.784995 
L 353.879068 463.202842 
L 354.420641 404.012484 
L 355.503785 371.469174 
L 356.045357 409.545552 
L 356.58693 381.919986 
L 357.128502 407.162513 
L 357.670074 466.547306 
L 358.211647 403.057131 
L 358.753219 403.708074 
L 359.294791 396.423074 
L 359.836364 410.809841 
L 360.377936 433.399108 
L 360.919508 437.079002 
L 361.461081 470.352977 
L 362.002653 412.465036 
L 362.544225 409.761861 
L 363.085797 396.096633 
L 363.62737 405.168678 
L 364.168942 387.397753 
L 364.710514 403.885119 
L 365.252087 466.020555 
L 365.793659 400.827345 
L 366.335231 409.644405 
L 366.876804 390.057885 
L 367.418376 421.734766 
L 367.959948 393.335631 
L 368.501521 407.10402 
L 369.043093 463.557756 
L 369.584665 408.372421 
L 370.126237 403.572484 
L 370.66781 401.482948 
L 371.209382 415.353892 
L 371.750954 378.00099 
L 372.292527 415.293832 
L 372.834099 464.7791 
L 373.375671 399.833687 
L 373.917244 391.089317 
L 374.458816 386.793514 
L 375.000388 406.801959 
L 375.541961 367.914628 
L 376.083533 404.120522 
L 376.625105 461.376985 
L 377.166677 401.817106 
L 377.70825 413.441226 
L 378.249822 371.094462 
L 378.791394 401.715609 
L 379.332967 382.223496 
L 379.874539 402.143213 
L 380.416111 469.176615 
L 380.957684 390.711373 
L 381.499256 389.163687 
L 382.040828 376.934701 
L 382.582401 408.628658 
L 383.123973 380.101257 
L 383.665545 407.505913 
L 384.207117 470.341169 
L 384.74869 388.518207 
L 385.290262 400.090101 
L 385.831834 383.442823 
L 386.373407 410.028908 
L 386.914979 388.278928 
L 387.456551 397.548894 
L 387.998124 460.218129 
L 388.539696 384.91684 
L 389.081268 391.94198 
L 389.622841 336.612537 
L 390.705985 455.373035 
L 391.247557 410.458275 
L 391.78913 468.266222 
L 392.330702 389.809363 
L 393.413847 349.782856 
L 393.955419 359.957555 
L 394.496991 366.55276 
L 395.038564 375.78736 
L 395.580136 454.136985 
L 396.121708 366.126546 
L 396.66328 382.55029 
L 397.204853 332.222267 
L 397.746425 360.653225 
L 398.287997 302.379644 
L 399.371142 409.220678 
L 399.912714 291.215537 
L 400.454287 348.80461 
L 401.537431 395.498229 
L 402.079004 370.264475 
L 403.162148 480.336531 
L 403.70372 403.276416 
L 404.245293 425.526926 
L 405.328437 280.28883 
L 405.87001 286.837499 
L 406.411582 303.225532 
L 406.953154 425.205381 
L 407.494727 305.117284 
L 408.036299 328.310321 
L 408.577871 254.09416 
L 409.119444 323.707738 
L 409.661016 306.652916 
L 410.202588 317.720768 
L 410.74416 428.278509 
L 411.285733 308.625164 
L 411.827305 335.559838 
L 412.368877 262.459892 
L 412.91045 345.029448 
L 413.452022 300.27037 
L 413.993594 318.490967 
L 414.535167 425.657796 
L 415.076739 334.582728 
L 415.618311 307.243419 
L 416.159884 274.25485 
L 416.701456 336.694196 
L 417.243028 298.989688 
L 417.7846 345.821503 
L 418.326173 424.394428 
L 418.867745 327.110068 
L 419.409317 339.960917 
L 419.95089 274.028237 
L 420.492462 340.153218 
L 421.034034 308.559664 
L 422.117179 467.188399 
L 422.658751 394.917039 
L 423.200324 404.249394 
L 423.741896 370.793243 
L 424.283468 404.639714 
L 424.82504 388.129556 
L 425.366613 396.864503 
L 425.908185 469.091019 
L 426.449757 402.009249 
L 426.99133 395.820245 
L 427.532902 369.19141 
L 428.074474 405.681427 
L 428.616047 377.691919 
L 429.157619 387.315643 
L 429.699191 461.699901 
L 430.240764 404.647703 
L 430.782336 387.784978 
L 431.323908 383.135063 
L 431.86548 405.626752 
L 432.407053 398.11376 
L 432.948625 393.826702 
L 433.490197 470.255417 
L 434.03177 395.706039 
L 434.573342 400.096348 
L 435.114914 397.593385 
L 435.656487 421.321163 
L 436.739631 353.362037 
L 437.281203 470.111916 
L 437.822776 457.989655 
L 438.364348 440.353204 
L 438.90592 257.023787 
L 439.447493 308.061772 
L 439.989065 284.161658 
L 440.530637 321.772415 
L 441.07221 416.399463 
L 441.613782 320.461872 
L 442.155354 328.048307 
L 442.696927 251.254309 
L 443.238499 345.855792 
L 443.780071 318.806338 
L 444.321643 339.138196 
L 444.863216 409.891772 
L 445.404788 317.784331 
L 445.94636 325.56148 
L 446.487933 282.095094 
L 447.029505 347.631439 
L 447.571077 303.913249 
L 448.11265 318.339888 
L 448.654222 427.756575 
L 449.195794 336.056569 
L 449.737367 330.552405 
L 450.278939 281.043717 
L 450.820511 352.315917 
L 451.362083 314.703863 
L 451.903656 315.078102 
L 452.445228 426.793819 
L 452.9868 328.562721 
L 453.528373 378.288971 
L 454.069945 364.507011 
L 454.611517 407.575822 
L 455.15309 360.164018 
L 455.694662 386.860623 
L 456.236234 454.842446 
L 456.777807 383.871505 
L 457.319379 410.22303 
L 457.860951 377.137752 
L 458.402523 403.880969 
L 458.944096 386.640396 
L 459.485668 395.848952 
L 460.02724 467.73438 
L 460.568813 402.808237 
L 461.110385 399.869445 
L 461.651957 378.437818 
L 462.19353 406.517582 
L 462.735102 457.249691 
L 463.276674 431.120543 
L 463.818247 468.318096 
L 464.359819 394.527228 
L 464.901391 407.218676 
L 465.442963 350.983893 
L 465.984536 402.127077 
L 466.526108 376.681806 
L 467.06768 390.937259 
L 467.609253 469.555792 
L 468.150825 402.818008 
L 468.692397 400.771084 
L 469.23397 370.854967 
L 469.775542 465.645138 
L 470.317114 361.799766 
L 470.858687 377.959808 
L 471.400259 463.307471 
L 472.483403 373.320606 
L 473.024976 371.177707 
L 473.566548 407.343906 
L 474.10812 367.199995 
L 474.649693 377.401569 
L 475.191265 469.288744 
L 475.732837 398.33339 
L 476.27441 384.689545 
L 476.815982 387.559524 
L 477.357554 404.256209 
L 477.899126 372.752606 
L 478.440699 396.869712 
L 478.982271 465.251783 
L 479.523843 382.862592 
L 480.065416 386.594242 
L 480.606988 382.881117 
L 481.14856 404.2163 
L 481.690133 392.032829 
L 482.231705 398.339226 
L 482.773277 469.049739 
L 483.31485 397.170598 
L 483.856422 418.356151 
L 484.397994 380.158771 
L 484.939566 413.212423 
L 485.481139 355.086726 
L 486.022711 397.651702 
L 486.564283 461.077744 
L 487.105856 376.517652 
L 487.647428 385.690938 
L 488.189 369.621364 
L 488.730573 397.748244 
L 489.272145 362.176901 
L 489.813717 398.311223 
L 490.35529 472.596491 
L 490.896862 393.989884 
L 491.438434 400.698393 
L 491.980006 372.734049 
L 492.521579 408.541359 
L 493.063151 373.864544 
L 493.604723 375.246666 
L 494.146296 481.587562 
L 494.687868 389.277011 
L 495.22944 402.17572 
L 495.771013 387.440932 
L 496.312585 406.392018 
L 496.854157 355.331463 
L 497.39573 385.313015 
L 497.937302 467.994103 
L 498.478874 392.196201 
L 499.020446 405.130511 
L 499.562019 379.44863 
L 500.103591 398.23115 
L 500.645163 357.336382 
L 501.186736 396.802819 
L 501.728308 468.635647 
L 502.811453 327.006751 
L 503.353025 225.898683 
L 503.894597 328.100906 
L 504.43617 284.456857 
L 505.519314 429.224502 
L 506.060886 316.840041 
L 506.602459 337.749148 
L 507.144031 278.074514 
L 507.685603 336.678041 
L 508.227176 304.850491 
L 508.768748 333.67776 
L 509.31032 427.856133 
L 509.851893 320.52297 
L 510.393465 335.305774 
L 510.935037 281.556995 
L 511.47661 345.433964 
L 512.018182 304.252225 
L 512.559754 325.75572 
L 513.101326 441.688263 
L 513.642899 317.815859 
L 514.184471 326.414418 
L 514.726043 296.862418 
L 515.267616 347.239926 
L 515.809188 320.12237 
L 516.35076 343.783273 
L 516.892333 441.924272 
L 517.433905 339.352683 
L 517.975477 334.84204 
L 518.517049 301.134958 
L 520.141766 397.339086 
L 520.683339 469.870248 
L 521.224911 380.959697 
L 521.766483 397.798884 
L 522.308056 392.436616 
L 522.849628 413.973636 
L 523.3912 366.090847 
L 523.932773 404.995998 
L 524.474345 470.524658 
L 525.015917 398.08385 
L 525.557489 413.419606 
L 526.099062 375.41537 
L 526.640634 401.797523 
L 527.182206 380.605097 
L 527.723779 402.735781 
L 528.265351 467.234105 
L 528.806923 401.622024 
L 529.348496 413.304559 
L 529.890068 381.220732 
L 530.43164 397.79583 
L 530.973213 380.360393 
L 531.514785 404.343195 
L 532.056357 470.92939 
L 532.597929 406.692101 
L 533.139502 407.432635 
L 533.681074 386.683577 
L 534.222646 420.777336 
L 534.764219 366.932701 
L 535.305791 388.044427 
L 535.847363 458.929245 
L 536.388936 301.159377 
L 536.930508 305.429939 
L 537.47208 268.304253 
L 538.013653 342.704216 
L 538.555225 290.40617 
L 539.096797 316.385119 
L 539.638369 422.210328 
L 540.179942 303.688443 
L 540.721514 315.785267 
L 541.263086 278.343578 
L 541.804659 324.371606 
L 542.346231 317.761185 
L 542.887803 328.430774 
L 543.429376 417.414504 
L 543.970948 332.283737 
L 544.51252 324.642491 
L 545.054093 280.713046 
L 545.595665 348.978013 
L 546.137237 318.446123 
L 546.678809 305.631874 
L 547.220382 421.797509 
L 547.761954 340.8971 
L 548.303526 335.4162 
L 548.845099 269.688367 
L 549.386671 333.416842 
L 549.928243 322.522485 
L 550.469816 304.881823 
L 551.011388 422.903648 
L 551.55296 320.187266 
L 552.094533 333.201591 
L 552.636105 239.981353 
L 553.177677 311.999373 
L 553.719249 261.41621 
L 554.260822 281.310647 
L 554.802394 418.116323 
L 555.343966 320.427329 
L 555.885539 336.788055 
L 556.427111 268.124583 
L 557.510256 409.129932 
L 558.051828 347.44848 
L 558.5934 434.477696 
L 559.134973 320.944582 
L 559.676545 309.74178 
L 560.218117 276.853238 
L 560.759689 332.123395 
L 561.301262 310.744935 
L 561.842834 299.302756 
L 562.384406 409.41478 
L 562.925979 323.38772 
L 563.467551 344.259208 
L 564.009123 268.695572 
L 564.550696 347.869916 
L 565.092268 315.85874 
L 565.63384 326.569002 
L 566.175412 414.894642 
L 566.716985 317.521455 
L 567.258557 351.190352 
L 567.800129 276.543727 
L 568.341702 334.715968 
L 568.883274 297.977449 
L 569.424846 360.692233 
L 569.966419 452.474408 
L 570.507991 428.386624 
L 571.049563 312.54788 
L 571.591136 227.750447 
L 572.132708 326.225994 
L 572.67428 307.556486 
L 573.215852 318.785411 
L 573.757425 422.92611 
L 574.298997 336.002032 
L 574.840569 325.676214 
L 575.382142 277.331826 
L 575.923714 334.577754 
L 576.465286 323.869548 
L 577.006859 310.907588 
L 577.548431 409.819316 
L 578.090003 316.091636 
L 578.631576 302.410095 
L 579.173148 269.551133 
L 579.71472 332.948584 
L 580.256292 316.292905 
L 580.797865 319.972465 
L 581.339437 417.500315 
L 581.881009 329.016507 
L 582.422582 334.333501 
L 582.964154 260.088005 
L 583.505726 351.324237 
L 584.047299 318.090544 
L 584.588871 326.141084 
L 585.130443 420.632484 
L 585.672016 300.365109 
L 586.213588 320.413112 
L 586.75516 249.663589 
L 587.296732 304.136512 
L 587.838305 300.615884 
L 588.379877 342.729165 
L 588.921449 424.428992 
L 589.463022 306.690585 
L 590.004594 303.260778 
L 590.546166 209.637518 
L 591.087739 286.140936 
L 591.629311 307.936034 
L 592.170883 306.752113 
L 592.712456 417.886032 
L 593.254028 286.254084 
L 593.7956 275.356515 
L 594.337172 241.901108 
L 594.878745 281.434976 
L 595.420317 259.756864 
L 595.961889 269.953769 
L 596.503462 365.917187 
L 597.045034 246.833168 
L 597.586606 251.137646 
L 598.128179 264.637755 
L 599.211323 325.978667 
L 600.294468 460.759312 
L 600.83604 328.349878 
L 601.377612 299.793632 
L 601.919185 305.312913 
L 603.002329 422.008922 
L 603.543902 412.743127 
L 604.085474 456.526212 
L 604.627046 349.61004 
L 605.168619 380.231305 
L 605.710191 352.608187 
L 606.251763 392.555071 
L 606.793335 366.693735 
L 607.334908 371.537654 
L 607.87648 458.578972 
L 608.418052 372.607918 
L 608.959625 373.77772 
L 609.501197 369.958282 
L 610.042769 407.756746 
L 610.584342 366.684668 
L 611.125914 368.672571 
L 611.667486 458.870498 
L 612.209059 375.242789 
L 612.750631 393.680519 
L 613.292203 369.174393 
L 613.833775 388.056862 
L 614.375348 373.042102 
L 614.91692 387.939915 
L 615.458492 464.846562 
L 616.000065 390.538245 
L 616.541637 398.671404 
L 617.083209 369.357744 
L 617.624782 383.32705 
L 618.166354 346.836055 
L 618.707926 373.517488 
L 619.249499 452.329379 
L 619.791071 360.946748 
L 620.332643 375.700237 
L 620.874215 372.116749 
L 621.415788 399.756297 
L 621.95736 368.715339 
L 622.498932 383.558047 
L 623.040505 456.523451 
L 623.582077 387.532951 
L 624.123649 382.205049 
L 624.665222 384.399371 
L 625.206794 397.369674 
L 625.748366 372.540515 
L 626.289939 409.82666 
L 626.831511 478.231623 
L 627.373083 475.748928 
L 627.914655 479.566741 
L 628.456228 376.468186 
L 628.9978 410.050195 
L 629.539372 360.274479 
L 630.080945 374.690013 
L 630.622517 458.544624 
L 631.164089 383.397039 
L 631.705662 395.388763 
L 632.247234 376.005412 
L 632.788806 403.070075 
L 633.330379 364.824777 
L 633.871951 379.651936 
L 634.413523 450.857359 
L 634.955095 379.798022 
L 635.496668 377.447842 
L 636.03824 368.299993 
L 636.579812 387.608892 
L 637.662957 362.654698 
L 638.204529 459.580541 
L 638.746102 357.873404 
L 639.287674 382.141817 
L 639.829246 363.710119 
L 640.370819 403.045871 
L 640.912391 352.50481 
L 641.453963 368.739485 
L 641.995535 458.816509 
L 642.537108 381.75516 
L 643.07868 394.179913 
L 643.620252 390.423804 
L 644.161825 387.721178 
L 644.703397 354.502934 
L 645.244969 375.280328 
L 645.786542 457.614258 
L 646.328114 388.842768 
L 646.869686 383.922615 
L 647.411258 377.9217 
L 647.952831 404.259421 
L 648.494403 369.639811 
L 649.035975 382.620297 
L 649.577548 461.454023 
L 650.11912 401.240203 
L 650.660692 383.170978 
L 651.202265 355.114654 
L 651.743837 378.257032 
L 652.285409 462.53729 
L 652.826982 408.659932 
L 653.368554 464.202315 
L 653.910126 371.272506 
L 654.451698 377.252976 
L 654.993271 360.756131 
L 655.534843 394.319027 
L 656.076415 360.026152 
L 656.617988 377.822417 
L 657.15956 463.594611 
L 657.701132 385.174311 
L 658.242705 402.372682 
L 658.784277 380.075193 
L 659.325849 389.934828 
L 659.867422 379.640989 
L 660.408994 374.885211 
L 660.950566 452.704032 
L 661.492138 379.75494 
L 662.033711 374.667356 
L 662.575283 324.935544 
L 663.116855 390.483727 
L 663.658428 364.578781 
L 664.2 382.35744 
L 664.741572 460.001507 
L 665.283145 385.520295 
L 665.824717 404.242305 
L 666.366289 379.126419 
L 666.907862 382.915073 
L 667.449434 462.944372 
L 667.991006 374.3491 
L 668.532578 462.447524 
L 669.074151 373.184742 
L 669.615723 374.09159 
L 670.157295 351.559698 
L 670.698868 384.536195 
L 671.24044 344.644005 
L 671.782012 352.070666 
L 672.323585 469.315984 
L 672.865157 373.199428 
L 673.406729 374.359636 
L 673.948302 356.687838 
L 674.489874 396.574368 
L 675.031446 367.881495 
L 675.573018 373.218502 
L 676.114591 456.907406 
L 676.656163 378.368868 
L 677.197735 368.864715 
L 677.739308 351.943124 
L 678.28088 383.287298 
L 678.822452 353.757349 
L 679.364025 378.323397 
L 679.905597 451.047467 
L 680.447169 363.215992 
L 680.988742 361.305793 
L 681.530314 345.590018 
L 682.071886 371.810811 
L 682.613458 343.641887 
L 683.155031 343.587272 
L 683.696603 440.481235 
L 684.238175 304.105415 
L 684.779748 296.245627 
L 685.32132 217.822077 
L 685.862892 328.355146 
L 686.404465 280.913023 
L 686.946037 301.73152 
L 687.487609 439.464724 
L 688.029181 296.820845 
L 688.570754 334.026682 
L 689.112326 275.783414 
L 689.653898 334.001947 
L 690.195471 302.579503 
L 690.737043 307.358682 
L 691.278615 416.216444 
L 691.820188 312.914387 
L 692.36176 304.818826 
L 692.903332 248.995648 
L 693.444905 329.893903 
L 693.986477 281.063554 
L 694.528049 283.070373 
L 695.069621 436.331067 
L 695.611194 302.015487 
L 696.152766 317.519849 
L 696.694338 278.152374 
L 697.235911 334.597885 
L 697.777483 306.736721 
L 698.319055 307.142726 
L 698.860628 410.994308 
L 699.4022 309.548461 
L 699.943772 307.856255 
L 700.485345 241.47225 
L 701.026917 302.587082 
L 701.568489 228.624808 
L 702.110061 307.320829 
L 702.651634 443.328713 
L 703.193206 370.668304 
L 704.276351 251.80073 
L 704.817923 282.039274 
L 705.359495 284.152094 
L 705.901068 303.923865 
L 706.44264 434.153958 
L 706.984212 306.472121 
L 707.525785 304.489585 
L 708.067357 257.564657 
L 708.608929 321.721911 
L 709.150501 258.928737 
L 709.692074 335.631902 
L 710.233646 441.543137 
L 710.775218 300.321245 
L 711.316791 337.670269 
L 711.858363 281.999482 
L 712.399935 336.557412 
L 712.941508 302.113008 
L 713.48308 333.353943 
L 714.024652 431.441736 
L 714.566225 314.550978 
L 715.107797 315.548122 
L 715.649369 284.574293 
L 716.190941 341.880457 
L 716.732514 296.616011 
L 717.274086 305.794056 
L 717.815658 430.709329 
L 718.357231 296.002412 
L 718.898803 295.231486 
L 719.440375 249.802665 
L 719.981948 327.86897 
L 720.52352 294.201288 
L 721.065092 363.236319 
L 721.606665 449.069551 
L 722.148237 451.397916 
L 722.689809 304.684529 
L 723.231381 262.642274 
L 723.772954 344.027664 
L 724.314526 243.002978 
L 724.856098 273.657122 
L 725.397671 439.078948 
L 725.939243 311.004032 
L 726.480815 322.007914 
L 727.022388 290.666403 
L 727.56396 331.910063 
L 728.105532 298.8438 
L 728.647104 320.835723 
L 729.188677 442.26726 
L 729.730249 318.148214 
L 730.271821 324.422736 
L 730.813394 272.490316 
L 731.354966 331.309447 
L 731.896538 303.778171 
L 732.438111 311.491892 
L 732.979683 433.449887 
L 733.521255 313.826464 
L 734.062828 304.007071 
L 734.6044 238.337357 
L 735.145972 290.314603 
L 735.687544 277.56004 
L 736.229117 299.016714 
L 736.770689 425.375083 
L 737.312261 310.72171 
L 737.853834 316.002829 
L 738.395406 260.597601 
L 738.936978 340.863653 
L 739.478551 291.017753 
L 740.020123 297.132227 
L 740.561695 426.268047 
L 741.103268 299.888724 
L 741.64484 328.273134 
L 742.186412 260.623705 
L 742.727984 329.598833 
L 743.269557 284.962223 
L 743.811129 288.412629 
L 744.352701 422.067004 
L 744.894274 315.532985 
L 745.435846 311.141247 
L 745.977418 276.128655 
L 746.518991 323.478622 
L 747.060563 291.007355 
L 747.602135 284.737729 
L 748.143708 408.695298 
L 748.68528 309.829177 
L 749.226852 321.49258 
L 749.768424 243.278054 
L 750.309997 313.298871 
L 750.851569 271.25642 
L 751.393141 251.179239 
L 751.934714 405.015209 
L 752.476286 261.967243 
L 753.017858 307.885766 
L 753.559431 265.170576 
L 754.101003 310.528137 
L 754.642575 411.855255 
L 755.184148 341.836201 
L 755.72572 436.692717 
L 756.267292 302.638134 
L 756.808864 321.413799 
L 757.350437 268.90761 
L 757.892009 329.44137 
L 758.433581 260.668666 
L 758.975154 279.528224 
L 759.516726 394.739954 
L 760.058298 293.466943 
L 760.599871 305.791669 
L 761.141443 283.391586 
L 761.683015 336.859238 
L 762.224588 282.676607 
L 762.76616 303.670427 
L 763.307732 412.535513 
L 763.849304 310.213406 
L 764.390877 318.00908 
L 764.932449 269.609038 
L 765.474021 336.354224 
L 766.015594 303.853485 
L 766.557166 343.053961 
L 767.098738 457.323946 
L 767.640311 456.500207 
L 768.181883 421.685869 
L 768.723455 224.603944 
L 769.265027 302.890494 
L 769.8066 287.025499 
L 770.348172 293.219223 
L 770.889744 400.682101 
L 771.431317 311.447341 
L 771.972889 325.728637 
L 772.514461 258.0927 
L 773.056034 329.419731 
L 773.597606 295.83739 
L 774.139178 306.060575 
L 774.680751 412.110631 
L 775.222323 300.990106 
L 775.763895 320.235792 
L 776.305467 275.645514 
L 776.84704 313.818886 
L 777.388612 280.538664 
L 777.930184 305.253715 
L 778.471757 409.62637 
L 779.013329 294.856873 
L 779.554901 307.945219 
L 780.096474 273.360917 
L 780.638046 320.409783 
L 781.179618 291.073994 
L 781.721191 313.660991 
L 782.262763 421.999914 
L 782.804335 280.717452 
L 783.345907 267.968765 
L 783.88748 247.024861 
L 784.429052 294.99113 
L 784.970624 261.663695 
L 785.512197 298.90715 
L 786.053769 415.209373 
L 786.595341 270.548432 
L 787.136914 306.196889 
L 787.678486 233.883426 
L 788.220058 284.587649 
L 788.761631 285.559217 
L 789.303203 305.818123 
L 789.844775 413.036337 
L 790.386347 285.426937 
L 790.92792 192.437146 
L 791.469492 206.254805 
L 792.011064 276.697215 
L 792.552637 233.944406 
L 793.094209 254.053839 
L 793.635781 379.037768 
L 794.177354 230.726407 
L 794.718926 225.238261 
L 795.260498 196.952274 
L 795.802071 260.549977 
L 796.885215 359.050256 
L 797.426787 453.640705 
L 797.96836 337.368835 
L 798.509932 322.228002 
L 799.051504 234.862945 
L 799.593077 308.634348 
L 800.676221 342.124436 
L 801.217794 415.713643 
L 801.759366 229.678251 
L 802.300938 279.794527 
L 802.842511 204.038531 
L 803.384083 309.237862 
L 803.925655 274.976711 
L 804.467227 292.268138 
L 805.0088 419.391382 
L 805.550372 304.144972 
L 806.091944 287.959506 
L 806.633517 266.885713 
L 807.175089 287.175462 
L 807.716661 301.704907 
L 808.258234 282.342411 
L 808.799806 411.751487 
L 809.341378 288.667672 
L 809.882951 316.776711 
L 810.424523 248.876077 
L 810.966095 342.573679 
L 811.507667 278.486413 
L 812.04924 307.16785 
L 812.590812 422.673142 
L 813.132384 301.923488 
L 813.673957 319.825087 
L 814.215529 262.86293 
L 814.757101 332.245375 
L 815.298674 295.982496 
L 815.840246 292.903141 
L 816.381818 415.696489 
L 816.92339 287.075846 
L 817.464963 307.294569 
L 818.006535 227.623885 
L 818.548107 315.816423 
L 819.08968 296.309565 
L 819.631252 315.342114 
L 820.172824 459.636351 
L 820.714397 455.788753 
L 821.255969 433.806446 
L 821.797541 252.524227 
L 822.339114 304.217211 
L 822.880686 270.047785 
L 823.422258 296.72358 
L 823.96383 424.165136 
L 824.505403 300.892153 
L 825.046975 281.434056 
L 825.588547 244.761041 
L 826.13012 328.69459 
L 826.671692 276.115456 
L 827.213264 277.019661 
L 827.754837 410.985281 
L 828.296409 302.090508 
L 828.837981 315.998854 
L 829.379554 262.472121 
L 829.921126 340.204603 
L 830.462698 294.924922 
L 831.00427 297.512128 
L 831.545843 429.967562 
L 832.087415 303.216484 
L 832.628987 291.888354 
L 833.17056 237.346292 
L 833.712132 321.944937 
L 834.253704 260.908747 
L 834.795277 276.749382 
L 835.336849 411.647758 
L 835.878421 312.337584 
L 836.419994 321.59298 
L 836.961566 259.406473 
L 837.503138 330.35562 
L 838.04471 285.532487 
L 838.586283 296.190071 
L 839.127855 420.491686 
L 839.669427 312.950595 
L 840.211 311.944151 
L 840.752572 251.585342 
L 841.294144 322.559809 
L 841.835717 294.465867 
L 842.377289 294.24388 
L 842.918861 413.065809 
L 843.460434 314.940065 
L 844.002006 321.034916 
L 844.543578 268.318744 
L 845.08515 272.150755 
L 845.626723 435.421712 
L 846.168295 367.462644 
L 846.709867 431.726055 
L 847.25144 318.369517 
L 847.793012 299.978785 
L 848.334584 277.14027 
L 848.876157 318.229854 
L 849.417729 252.016432 
L 849.959301 279.617423 
L 850.500874 404.446101 
L 851.042446 293.571043 
L 851.584018 309.64091 
L 852.12559 257.155029 
L 852.667163 316.931962 
L 853.208735 293.438763 
L 853.750307 305.455513 
L 854.29188 417.137607 
L 854.833452 313.543477 
L 855.375024 324.529206 
L 855.916597 266.70197 
L 856.458169 331.259394 
L 856.999741 286.355894 
L 857.541313 309.810358 
L 858.082886 364.360749 
L 858.624458 89.28 
L 859.16603 108.413243 
L 859.707603 152.215166 
L 860.249175 248.899694 
L 860.790747 220.493959 
L 861.33232 286.818179 
L 861.873892 403.924755 
L 862.415464 323.316949 
L 862.957037 312.085223 
L 863.498609 271.338353 
L 864.040181 306.225186 
L 864.581753 279.148303 
L 865.123326 283.103429 
L 865.664898 403.394479 
L 866.20647 291.360487 
L 866.748043 307.688862 
L 867.289615 236.216941 
L 867.831187 301.240096 
L 868.37276 259.232404 
L 868.914332 264.298761 
L 869.455904 432.946478 
L 869.997477 285.886069 
L 870.539049 334.304264 
L 871.080621 260.736422 
L 871.622193 331.346203 
L 872.163766 291.504811 
L 872.705338 297.415586 
L 873.24691 410.487453 
L 873.788483 275.078874 
L 874.330055 302.80905 
L 874.871627 266.034225 
L 875.4132 332.6664 
L 875.954772 279.173151 
L 876.496344 292.314314 
L 877.037917 419.631053 
L 877.579489 319.091368 
L 878.121061 336.551126 
L 878.662633 277.424725 
L 879.204206 309.167542 
L 879.745778 403.68622 
L 880.28735 352.056664 
L 880.828923 429.268426 
L 881.370495 300.950862 
L 881.912067 275.754432 
L 882.45364 232.830179 
L 882.995212 325.900415 
L 883.536784 253.376832 
L 884.078357 291.432375 
L 884.619929 419.432819 
L 885.161501 298.586309 
L 885.703073 314.588088 
L 886.244646 250.881937 
L 886.786218 356.93211 
L 887.32779 279.251151 
L 887.869363 304.692695 
L 888.410935 420.694346 
L 888.952507 309.238332 
L 889.49408 330.631166 
L 890.035652 257.013408 
L 890.577224 323.409868 
L 891.118797 287.831439 
L 891.660369 291.672868 
L 892.201941 422.641771 
L 892.743513 304.366684 
L 893.285086 327.531954 
L 893.826658 260.286434 
L 894.36823 333.158255 
L 894.909803 306.638045 
L 895.451375 303.328007 
L 895.992947 413.961455 
L 896.53452 306.763314 
L 897.076092 303.431971 
L 897.617664 285.547978 
L 898.159236 337.825989 
L 898.700809 255.061596 
L 899.242381 296.852823 
L 899.783953 414.328197 
L 900.325526 284.829062 
L 900.867098 317.572096 
L 901.40867 252.724459 
L 901.950243 328.328944 
L 902.491815 275.958541 
L 903.033387 318.544408 
L 903.57496 428.721642 
L 904.116532 320.449144 
L 904.658104 338.040105 
L 905.199676 258.49704 
L 905.741249 335.614493 
L 906.282821 279.49274 
L 906.824393 288.546887 
L 907.365966 421.667422 
L 907.907538 306.193305 
L 908.44911 321.541321 
L 908.990683 277.949029 
L 909.532255 327.23802 
L 910.073827 290.926322 
L 910.6154 319.807541 
L 911.156972 423.668915 
L 911.698544 331.176187 
L 912.240116 328.859788 
L 912.781689 265.784567 
L 913.323261 329.090744 
L 913.864833 324.873252 
L 914.406406 289.45301 
L 914.947978 431.52224 
L 915.48955 278.137452 
L 916.031123 330.045237 
L 916.572695 243.27171 
L 917.114267 331.486434 
L 917.65584 275.642675 
L 918.197412 311.631124 
L 918.738984 434.307171 
L 919.280556 304.391359 
L 919.822129 316.716182 
L 920.363701 283.778772 
L 920.905273 311.013823 
L 921.446846 412.956264 
L 921.988418 372.76121 
L 922.52999 446.480426 
L 923.071563 282.774187 
L 923.613135 321.330985 
L 924.154707 271.216706 
L 924.69628 340.546044 
L 925.237852 305.062315 
L 925.779424 318.222804 
L 926.320996 434.373125 
L 926.862569 315.356625 
L 927.404141 320.262777 
L 927.945713 264.56571 
L 928.487286 345.759426 
L 929.028858 304.370856 
L 929.57043 325.120403 
L 930.112003 425.972037 
L 930.653575 325.799682 
L 931.195147 333.466249 
L 931.73672 266.225468 
L 932.278292 296.600815 
L 932.819864 281.353415 
L 933.361436 302.256961 
L 933.903009 417.230565 
L 934.444581 302.884267 
L 934.986153 298.203294 
L 935.527726 273.447863 
L 936.069298 326.326531 
L 936.61087 283.70005 
L 937.152443 304.16849 
L 937.694015 429.944278 
L 938.235587 290.75991 
L 938.777159 322.001726 
L 939.318732 279.442726 
L 939.860304 337.327672 
L 940.401876 283.273366 
L 940.943449 294.219637 
L 941.485021 413.812432 
L 942.026593 302.828104 
L 942.568166 316.09426 
L 943.109738 273.848659 
L 943.65131 331.245099 
L 944.192883 304.16706 
L 944.734455 308.196169 
L 945.276027 420.999951 
L 945.817599 329.383719 
L 946.359172 338.516352 
L 946.900744 264.628257 
L 947.442316 353.388277 
L 948.525461 252.164711 
L 949.067033 398.76916 
L 949.608606 274.071822 
L 950.150178 296.255301 
L 950.69175 228.8072 
L 951.233323 312.825169 
L 951.774895 292.38814 
L 952.316467 290.964234 
L 952.858039 402.032474 
L 953.399612 300.200851 
L 953.941184 329.192143 
L 954.482756 248.805482 
L 955.024329 341.753053 
L 955.565901 277.458936 
L 956.107473 295.554305 
L 956.649046 393.924243 
L 957.190618 290.299015 
L 957.73219 319.544685 
L 958.273763 243.564371 
L 958.815335 320.213878 
L 959.356907 283.647549 
L 959.898479 289.033063 
L 960.440052 408.75947 
L 960.981624 326.000678 
L 961.523196 303.633847 
L 962.064769 275.77658 
L 962.606341 311.914013 
L 963.147913 277.003133 
L 963.689486 304.070734 
L 964.231058 411.643548 
L 964.77263 346.169935 
L 965.314203 250.720146 
L 965.855775 422.050398 
L 966.397347 436.445017 
L 966.938919 362.726664 
L 967.480492 364.018583 
L 968.022064 418.007797 
L 968.563636 283.663862 
L 969.105209 281.303832 
L 969.646781 160.565477 
L 970.188353 314.806766 
L 970.729926 292.685677 
L 971.271498 294.422845 
L 971.81307 401.243944 
L 972.354643 287.757553 
L 972.896215 301.446085 
L 973.437787 233.033407 
L 973.979359 315.14153 
L 974.520932 273.062067 
L 975.062504 281.653047 
L 975.604076 405.930654 
L 976.145649 269.857599 
L 976.687221 313.454337 
L 977.228793 240.930891 
L 977.770366 328.395368 
L 978.311938 278.618497 
L 978.85351 305.403678 
L 979.395082 420.573933 
L 979.936655 281.312507 
L 980.478227 311.561606 
L 981.019799 235.00627 
L 981.561372 292.307166 
L 982.102944 208.831692 
L 982.644516 294.242744 
L 983.186089 398.156971 
L 983.727661 302.295576 
L 984.269233 424.234028 
L 984.810806 205.647805 
L 985.352378 293.531682 
L 985.89395 234.932953 
L 986.435522 289.529167 
L 986.977095 406.17005 
L 987.518667 288.610412 
L 988.060239 236.154923 
L 988.601812 219.13072 
L 989.143384 279.399958 
L 989.684956 242.849099 
L 990.226529 259.418047 
L 990.768101 360.619504 
L 991.309673 227.656549 
L 991.851246 228.404563 
L 992.392818 164.921987 
L 992.93439 203.841766 
L 993.475962 152.620877 
L 994.017535 262.101678 
L 995.100679 443.198215 
L 995.642252 277.880999 
L 996.183824 278.133712 
L 996.725396 315.352316 
L 997.266969 249.940663 
L 998.891686 405.829375 
L 999.433258 223.548875 
L 999.97483 195.65399 
L 1000.516402 265.517304 
L 1001.057975 254.244769 
L 1001.599547 285.398327 
L 1002.141119 395.646821 
L 1002.682692 235.689074 
L 1003.224264 279.791022 
L 1003.765836 238.855415 
L 1004.307409 303.858733 
L 1004.848981 252.186291 
L 1005.390553 274.34349 
L 1005.932126 398.739826 
L 1006.473698 284.927504 
L 1007.556842 236.39315 
L 1008.098415 310.229856 
L 1008.639987 305.124255 
L 1009.181559 256.079007 
L 1009.723132 413.246379 
L 1010.264704 261.903032 
L 1010.806276 294.063446 
L 1011.347849 246.884121 
L 1011.889421 312.164689 
L 1012.430993 275.211976 
L 1012.972566 283.771996 
L 1013.514138 413.372745 
L 1014.05571 302.691046 
L 1014.597282 317.687946 
L 1015.138855 222.976301 
L 1015.680427 293.865839 
L 1016.221999 271.937188 
L 1016.763572 267.192709 
L 1017.305144 412.833403 
L 1017.846716 303.324756 
L 1018.388289 292.545936 
L 1018.929861 247.950998 
L 1019.471433 309.807851 
L 1020.013005 264.255954 
L 1020.554578 269.457469 
L 1021.09615 408.354189 
L 1021.637722 269.626663 
L 1022.179295 303.184604 
L 1022.720867 259.748091 
L 1023.262439 314.134302 
L 1023.804012 270.251952 
L 1024.345584 253.952735 
L 1024.887156 422.722138 
L 1025.428729 300.417728 
L 1025.970301 299.069469 
L 1026.511873 261.981049 
L 1027.053445 312.407082 
L 1027.595018 274.896227 
L 1028.13659 310.025707 
L 1028.678162 447.912262 
L 1029.219735 458.173222 
L 1029.761307 407.205419 
L 1030.302879 186.594224 
L 1030.844452 265.660277 
L 1031.386024 257.097966 
L 1031.927596 279.277176 
L 1032.469169 414.982098 
L 1033.010741 304.096367 
L 1033.552313 235.920168 
L 1034.093885 256.537924 
L 1034.635458 308.282508 
L 1035.17703 274.511861 
L 1035.718602 281.020335 
L 1036.260175 400.480342 
L 1036.801747 293.637604 
L 1037.343319 307.943867 
L 1037.884892 234.002351 
L 1038.426464 307.557014 
L 1038.968036 218.657488 
L 1039.509609 286.850392 
L 1040.051181 405.690493 
L 1040.592753 281.878168 
L 1041.134325 274.373276 
L 1041.675898 239.406644 
L 1042.21747 305.623199 
L 1042.759042 251.499101 
L 1043.300615 287.491211 
L 1043.842187 412.042701 
L 1044.383759 284.664177 
L 1044.925332 305.266542 
L 1045.466904 234.572986 
L 1046.008476 314.939301 
L 1046.550049 255.115194 
L 1047.091621 220.376601 
L 1047.633193 407.833531 
L 1048.174765 297.29623 
L 1048.716338 299.993863 
L 1049.25791 211.665619 
L 1049.799482 310.598653 
L 1050.341055 261.105533 
L 1050.882627 270.996853 
L 1051.424199 405.885771 
L 1051.965772 315.800522 
L 1052.507344 311.062329 
L 1053.048916 241.138642 
L 1053.590489 292.821443 
L 1054.132061 433.854403 
L 1054.673633 354.800296 
L 1055.215205 424.013881 
L 1055.756778 262.206621 
L 1056.29835 312.098814 
L 1056.839922 253.561613 
L 1057.381495 319.178981 
L 1057.923067 255.592127 
L 1058.464639 281.060049 
L 1059.006212 421.949058 
L 1059.547784 296.908516 
L 1060.089356 313.232388 
L 1060.630929 244.756595 
L 1061.172501 324.827135 
L 1061.714073 277.064465 
L 1062.255645 309.522456 
L 1062.797218 434.866782 
L 1063.33879 437.022565 
L 1063.880362 225.219834 
L 1064.421935 216.96305 
L 1064.963507 297.627548 
L 1065.505079 267.241959 
L 1066.046652 282.195562 
L 1066.588224 421.720373 
L 1067.129796 283.828512 
L 1067.671368 303.627875 
L 1068.212941 256.479196 
L 1068.754513 338.951966 
L 1069.296085 256.105522 
L 1069.837658 274.969838 
L 1070.37923 436.033216 
L 1070.920802 296.906558 
L 1071.462375 296.515083 
L 1072.003947 249.749635 
L 1072.545519 313.310914 
L 1073.087092 251.917797 
L 1073.628664 305.451479 
L 1074.170236 420.28979 
L 1074.711808 287.672332 
L 1075.253381 295.58499 
L 1075.794953 237.587484 
L 1076.336525 308.640751 
L 1076.878098 399.512455 
L 1077.41967 334.867262 
L 1077.961242 420.564239 
L 1078.502815 286.75481 
L 1079.044387 324.917567 
L 1079.585959 240.545683 
L 1080.127532 294.803686 
L 1080.669104 258.997726 
L 1081.210676 268.171895 
L 1081.752248 415.858417 
L 1082.293821 280.011404 
L 1082.835393 265.78445 
L 1083.376965 227.982559 
L 1083.918538 312.831553 
L 1084.46011 252.451263 
L 1085.001682 291.746674 
L 1085.543255 401.877772 
L 1086.084827 304.501158 
L 1086.626399 304.431679 
L 1087.167972 224.348058 
L 1087.709544 292.066986 
L 1088.251116 272.031653 
L 1088.792688 272.857704 
L 1089.334261 418.879063 
L 1089.875833 282.776322 
L 1090.417405 243.552602 
L 1090.958978 248.015092 
L 1091.50055 318.773034 
L 1092.042122 280.701512 
L 1092.583695 285.486448 
L 1093.125267 417.832631 
L 1093.666839 305.982852 
L 1094.208412 310.377723 
L 1094.749984 253.368333 
L 1095.291556 315.288771 
L 1095.833128 275.625697 
L 1096.374701 284.850211 
L 1096.916273 412.01215 
L 1097.457845 277.031195 
L 1097.999418 301.499879 
L 1098.54099 241.348488 
L 1099.082562 314.031787 
L 1099.624135 280.938285 
L 1100.165707 300.647724 
L 1100.707279 415.47127 
L 1101.248852 288.31546 
L 1101.790424 309.298529 
L 1102.331996 247.164602 
L 1102.873568 314.854411 
L 1103.415141 273.622755 
L 1103.956713 322.658818 
L 1104.498285 425.311166 
L 1105.039858 293.94084 
L 1105.58143 281.399512 
L 1106.123002 261.421576 
L 1106.664575 311.345397 
L 1107.206147 265.683286 
L 1107.747719 298.193953 
L 1108.289291 412.005492 
L 1108.830864 298.696696 
L 1109.372436 313.685332 
L 1109.914008 269.628718 
L 1110.455581 318.596654 
L 1110.997153 293.471329 
L 1111.538725 316.901785 
L 1112.080298 419.024288 
L 1112.62187 288.281249 
L 1113.163442 284.302781 
L 1113.705015 231.476061 
L 1114.246587 338.336291 
L 1114.788159 278.036191 
L 1115.329731 332.129427 
L 1115.871304 429.617818 
L 1116.412876 309.598593 
L 1116.954448 299.168479 
L 1117.496021 269.542183 
L 1118.037593 303.793484 
L 1118.579165 410.143094 
L 1119.120738 368.238778 
L 1119.66231 439.535711 
L 1120.203882 311.651274 
L 1120.745455 323.591985 
L 1120.745455 323.591985 
" style="fill:none;stroke:#4c72b0;stroke-linecap:round;stroke-width:1.5;"/>
   </g>
   <g id="patch_3">
    <path d="M 162 512.64 
L 162 69.12 
" style="fill:none;stroke:#ffffff;stroke-linecap:square;stroke-linejoin:miter;stroke-width:1.25;"/>
   </g>
   <g id="patch_4">
    <path d="M 1166.4 512.64 
L 1166.4 69.12 
" style="fill:none;stroke:#ffffff;stroke-linecap:square;stroke-linejoin:miter;stroke-width:1.25;"/>
   </g>
   <g id="patch_5">
    <path d="M 162 512.64 
L 1166.4 512.64 
" style="fill:none;stroke:#ffffff;stroke-linecap:square;stroke-linejoin:miter;stroke-width:1.25;"/>
   </g>
   <g id="patch_6">
    <path d="M 162 69.12 
L 1166.4 69.12 
" style="fill:none;stroke:#ffffff;stroke-linecap:square;stroke-linejoin:miter;stroke-width:1.25;"/>
   </g>
   <g id="text_12">
    <!-- Store-1 Sales Data aggregated at Daily Level -->
    <g style="fill:#262626;" transform="translate(543.803438 63.12)scale(0.12 -0.12)">
     <defs>
      <path d="M 288 1472 
L 859 1522 
Q 900 1178 1048 958 
Q 1197 738 1509 602 
Q 1822 466 2213 466 
Q 2559 466 2825 569 
Q 3091 672 3220 851 
Q 3350 1031 3350 1244 
Q 3350 1459 3225 1620 
Q 3100 1781 2813 1891 
Q 2628 1963 1997 2114 
Q 1366 2266 1113 2400 
Q 784 2572 623 2826 
Q 463 3081 463 3397 
Q 463 3744 659 4045 
Q 856 4347 1234 4503 
Q 1613 4659 2075 4659 
Q 2584 4659 2973 4495 
Q 3363 4331 3572 4012 
Q 3781 3694 3797 3291 
L 3216 3247 
Q 3169 3681 2898 3903 
Q 2628 4125 2100 4125 
Q 1550 4125 1298 3923 
Q 1047 3722 1047 3438 
Q 1047 3191 1225 3031 
Q 1400 2872 2139 2705 
Q 2878 2538 3153 2413 
Q 3553 2228 3743 1945 
Q 3934 1663 3934 1294 
Q 3934 928 3725 604 
Q 3516 281 3123 101 
Q 2731 -78 2241 -78 
Q 1619 -78 1198 103 
Q 778 284 539 648 
Q 300 1013 288 1472 
z
" id="ArialMT-53" transform="scale(0.015625)"/>
      <path d="M 213 1659 
Q 213 2581 725 3025 
Q 1153 3394 1769 3394 
Q 2453 3394 2887 2945 
Q 3322 2497 3322 1706 
Q 3322 1066 3130 698 
Q 2938 331 2570 128 
Q 2203 -75 1769 -75 
Q 1072 -75 642 372 
Q 213 819 213 1659 
z
M 791 1659 
Q 791 1022 1069 705 
Q 1347 388 1769 388 
Q 2188 388 2466 706 
Q 2744 1025 2744 1678 
Q 2744 2294 2464 2611 
Q 2184 2928 1769 2928 
Q 1347 2928 1069 2612 
Q 791 2297 791 1659 
z
" id="ArialMT-6f" transform="scale(0.015625)"/>
      <path d="M 416 0 
L 416 3319 
L 922 3319 
L 922 2816 
Q 1116 3169 1280 3281 
Q 1444 3394 1641 3394 
Q 1925 3394 2219 3213 
L 2025 2691 
Q 1819 2813 1613 2813 
Q 1428 2813 1281 2702 
Q 1134 2591 1072 2394 
Q 978 2094 978 1738 
L 978 0 
L 416 0 
z
" id="ArialMT-72" transform="scale(0.015625)"/>
      <path d="M 203 1375 
L 203 1941 
L 1931 1941 
L 1931 1375 
L 203 1375 
z
" id="ArialMT-2d" transform="scale(0.015625)"/>
      <path id="ArialMT-20" transform="scale(0.015625)"/>
      <path d="M 494 0 
L 494 4581 
L 2072 4581 
Q 2606 4581 2888 4516 
Q 3281 4425 3559 4188 
Q 3922 3881 4101 3404 
Q 4281 2928 4281 2316 
Q 4281 1794 4159 1391 
Q 4038 988 3847 723 
Q 3656 459 3429 307 
Q 3203 156 2883 78 
Q 2563 0 2147 0 
L 494 0 
z
M 1100 541 
L 2078 541 
Q 2531 541 2789 625 
Q 3047 709 3200 863 
Q 3416 1078 3536 1442 
Q 3656 1806 3656 2325 
Q 3656 3044 3420 3430 
Q 3184 3816 2847 3947 
Q 2603 4041 2063 4041 
L 1100 4041 
L 1100 541 
z
" id="ArialMT-44" transform="scale(0.015625)"/>
      <path d="M 319 -275 
L 866 -356 
Q 900 -609 1056 -725 
Q 1266 -881 1628 -881 
Q 2019 -881 2231 -725 
Q 2444 -569 2519 -288 
Q 2563 -116 2559 434 
Q 2191 0 1641 0 
Q 956 0 581 494 
Q 206 988 206 1678 
Q 206 2153 378 2554 
Q 550 2956 876 3175 
Q 1203 3394 1644 3394 
Q 2231 3394 2613 2919 
L 2613 3319 
L 3131 3319 
L 3131 450 
Q 3131 -325 2973 -648 
Q 2816 -972 2473 -1159 
Q 2131 -1347 1631 -1347 
Q 1038 -1347 672 -1080 
Q 306 -813 319 -275 
z
M 784 1719 
Q 784 1066 1043 766 
Q 1303 466 1694 466 
Q 2081 466 2343 764 
Q 2606 1063 2606 1700 
Q 2606 2309 2336 2618 
Q 2066 2928 1684 2928 
Q 1309 2928 1046 2623 
Q 784 2319 784 1719 
z
" id="ArialMT-67" transform="scale(0.015625)"/>
      <path d="M 425 3934 
L 425 4581 
L 988 4581 
L 988 3934 
L 425 3934 
z
M 425 0 
L 425 3319 
L 988 3319 
L 988 0 
L 425 0 
z
" id="ArialMT-69" transform="scale(0.015625)"/>
      <path d="M 397 -1278 
L 334 -750 
Q 519 -800 656 -800 
Q 844 -800 956 -737 
Q 1069 -675 1141 -563 
Q 1194 -478 1313 -144 
Q 1328 -97 1363 -6 
L 103 3319 
L 709 3319 
L 1400 1397 
Q 1534 1031 1641 628 
Q 1738 1016 1872 1384 
L 2581 3319 
L 3144 3319 
L 1881 -56 
Q 1678 -603 1566 -809 
Q 1416 -1088 1222 -1217 
Q 1028 -1347 759 -1347 
Q 597 -1347 397 -1278 
z
" id="ArialMT-79" transform="scale(0.015625)"/>
      <path d="M 469 0 
L 469 4581 
L 1075 4581 
L 1075 541 
L 3331 541 
L 3331 0 
L 469 0 
z
" id="ArialMT-4c" transform="scale(0.015625)"/>
      <path d="M 1344 0 
L 81 3319 
L 675 3319 
L 1388 1331 
Q 1503 1009 1600 663 
Q 1675 925 1809 1294 
L 2547 3319 
L 3125 3319 
L 1869 0 
L 1344 0 
z
" id="ArialMT-76" transform="scale(0.015625)"/>
     </defs>
     <use xlink:href="#ArialMT-53"/>
     <use x="66.699219" xlink:href="#ArialMT-74"/>
     <use x="94.482422" xlink:href="#ArialMT-6f"/>
     <use x="150.097656" xlink:href="#ArialMT-72"/>
     <use x="183.398438" xlink:href="#ArialMT-65"/>
     <use x="239.013672" xlink:href="#ArialMT-2d"/>
     <use x="272.314453" xlink:href="#ArialMT-31"/>
     <use x="327.929688" xlink:href="#ArialMT-20"/>
     <use x="355.712891" xlink:href="#ArialMT-53"/>
     <use x="422.412109" xlink:href="#ArialMT-61"/>
     <use x="478.027344" xlink:href="#ArialMT-6c"/>
     <use x="500.244141" xlink:href="#ArialMT-65"/>
     <use x="555.859375" xlink:href="#ArialMT-73"/>
     <use x="605.859375" xlink:href="#ArialMT-20"/>
     <use x="633.642578" xlink:href="#ArialMT-44"/>
     <use x="705.859375" xlink:href="#ArialMT-61"/>
     <use x="761.474609" xlink:href="#ArialMT-74"/>
     <use x="789.257812" xlink:href="#ArialMT-61"/>
     <use x="844.873047" xlink:href="#ArialMT-20"/>
     <use x="872.65625" xlink:href="#ArialMT-61"/>
     <use x="928.271484" xlink:href="#ArialMT-67"/>
     <use x="983.886719" xlink:href="#ArialMT-67"/>
     <use x="1039.501953" xlink:href="#ArialMT-72"/>
     <use x="1072.802734" xlink:href="#ArialMT-65"/>
     <use x="1128.417969" xlink:href="#ArialMT-67"/>
     <use x="1184.033203" xlink:href="#ArialMT-61"/>
     <use x="1239.648438" xlink:href="#ArialMT-74"/>
     <use x="1267.431641" xlink:href="#ArialMT-65"/>
     <use x="1323.046875" xlink:href="#ArialMT-64"/>
     <use x="1378.662109" xlink:href="#ArialMT-20"/>
     <use x="1406.445312" xlink:href="#ArialMT-61"/>
     <use x="1462.060547" xlink:href="#ArialMT-74"/>
     <use x="1489.84375" xlink:href="#ArialMT-20"/>
     <use x="1517.626953" xlink:href="#ArialMT-44"/>
     <use x="1589.84375" xlink:href="#ArialMT-61"/>
     <use x="1645.458984" xlink:href="#ArialMT-69"/>
     <use x="1667.675781" xlink:href="#ArialMT-6c"/>
     <use x="1689.892578" xlink:href="#ArialMT-79"/>
     <use x="1739.892578" xlink:href="#ArialMT-20"/>
     <use x="1767.675781" xlink:href="#ArialMT-4c"/>
     <use x="1823.291016" xlink:href="#ArialMT-65"/>
     <use x="1878.90625" xlink:href="#ArialMT-76"/>
     <use x="1928.90625" xlink:href="#ArialMT-65"/>
     <use x="1984.521484" xlink:href="#ArialMT-6c"/>
    </g>
   </g>
  </g>
 </g>
 <defs>
  <clipPath id="p0774e79295">
   <rect height="443.52" width="1004.4" x="162" y="69.12"/>
  </clipPath>
 </defs>
</svg>
