<svg width="286" height="308" viewBox="0 0 286 308" fill="none" xmlns="http://www.w3.org/2000/svg">
<path id="Vector" d="M2.7 94.6074C11.3 91.8074 20.5 95.2074 29 98.2074C47.5 104.507 66.7 108.507 86.1 110.007C77.5 76.1074 59.6 45.5074 41.8 15.4074C39.3 11.1074 34.7 6.20736 30.3 8.50736C29.7 3.70736 35 -0.192636 39.8 0.00736418C44.7 0.207364 48.9 3.20737 52.6 6.30737C69.6 20.0074 83.5 37.1074 99.4 52.2074C121 72.7074 146.3 89.3074 173.6 101.107C172.5 94.0074 171.4 86.8074 170.3 79.7074C173.3 78.5074 175.5 82.7074 176.1 85.9074C183 121.207 189.8 156.507 196.7 191.807C197.3 176.607 199.5 161.507 203 146.707C207.4 157.507 208.6 169.507 206.5 181.007C205 176.107 203.5 171.207 201.9 166.307C202.2 178.007 202.4 189.707 202.7 201.307C202.7 203.107 202.8 205.007 203.9 206.407C205.1 208.007 207.5 208.407 209.6 208.507C222 208.907 233.4 200.607 240 190.107C246.7 179.607 249.3 167.107 251.4 154.907C252.3 149.207 255.8 141.807 261.2 143.607C264.8 144.707 265.8 149.207 266.3 152.907C268.9 171.507 273.2 189.907 279.1 207.807C282.7 218.807 287.1 230.207 285.1 241.607C283.1 253.007 271.8 263.707 260.8 260.207C261.4 265.707 260.9 273.007 255.6 274.707C247.9 277.107 243.9 264.807 236.2 262.007C235.4 275.907 232.2 289.507 227 302.307C225.8 305.107 223.1 308.307 220.6 306.707C219.2 305.907 218.9 304.107 218.7 302.407C218.1 296.007 217.5 289.507 216.9 283.007C216 273.707 213.5 262.407 204.6 259.907C202 259.207 199.3 259.407 196.6 259.607C161.7 262.307 126.9 266.307 92.3 271.507C88.2 272.107 85.6 266.307 87.4 262.607C89.1 258.807 93.3 256.907 97.1 255.207C129.4 241.307 161.6 227.307 193.9 213.407C199.8 210.807 198.1 201.407 193 197.507C188 193.607 181.2 192.607 176 188.907C168.4 183.307 165.8 173.107 164.9 163.707C164.1 154.207 164.5 144.407 160.5 135.807C153.5 120.507 135.6 114.007 119.5 109.007C126 117.007 130.8 126.507 133.4 136.607C134 139.207 134.5 142.107 133.4 144.607C130.3 151.207 120.5 148.607 114.2 145.007C117.1 148.907 119.8 155.107 115.9 158.007C113.7 159.707 110.6 159.107 107.9 158.307C92 153.907 76.7 147.607 62.3 139.507C83.6 167.007 102.4 196.607 118.2 227.607C119.6 230.407 121 233.607 120.2 236.607C119.5 239.607 115.2 241.707 113.1 239.407C105.5 231.407 88.8 235.907 83.8 226.007C63.7 186.107 34.9 150.507 0 122.507C15.8 121.707 21.6 147.907 37.4 148.607C26.6 137.507 18.1 124.307 12.5 109.907C40.6 141.707 64.7 177.007 84.1 214.807C87.8 221.907 97.3 222.907 105.2 223.007C88 187.507 66.5 154.007 41.4 123.607C45.7 118.407 53.9 123.007 59.2 127.207C73 138.107 89.6 145.407 107 148.207C104 145.907 100.9 143.307 99.8 139.607C98.8 136.007 101.2 131.207 105 131.407C106.3 131.407 107.6 132.107 108.8 132.807C114 135.707 119.3 138.607 124.6 141.507C126.8 134.707 120.6 127.707 113.9 125.307C107.2 122.907 99.7 123.207 92.9 121.007C93.3 124.807 93.6 128.707 92.3 132.307C90.9 135.807 87.3 138.807 83.6 138.107C90.5 132.607 87.1 120.507 79.7 115.707C72.3 110.907 62.9 111.007 54.1 110.307C36.1 108.807 18.4 103.407 2.7 94.6074ZM223.9 259.907C227.4 256.607 228 250.707 225.2 246.807C224.2 245.507 225.2 243.507 226.6 242.907C228.1 242.307 229.8 242.707 231.3 243.407C233.1 244.207 235.8 245.207 236.6 243.407C235.1 243.107 233.8 241.907 233.4 240.407C232 240.607 230.5 240.707 229 240.807C228.2 239.707 228.9 237.807 230.3 237.507C230.6 238.107 229.3 238.307 229.1 237.707C229 237.007 229.5 236.407 229.8 235.907C230.2 235.307 230.5 234.507 229.9 234.107C232.3 231.307 232.4 226.807 230.2 223.907C229.1 222.407 227 221.707 225.2 222.107C224.9 223.007 224.6 224.007 224.3 224.907C222.8 224.107 221.1 224.007 219.6 224.707C221.9 228.107 223.3 232.207 223.7 236.407C223.2 243.107 222.8 249.807 222.4 256.607C222.9 257.707 223.4 258.807 223.9 259.907ZM225.2 279.007C225.6 277.507 226.8 276.107 228.4 275.607C229.9 270.907 230.2 265.807 229 260.907C228 266.607 225.3 272.007 221.4 276.307C220.9 277.007 221 278.007 221.1 278.907C221.9 284.007 222.8 289.207 223.6 294.407C224.8 289.207 224.2 283.707 222 278.907C222.8 277.907 224.5 278.007 225.2 279.007ZM206.9 246.307C207.4 236.207 206.7 225.907 204.7 215.907C204.5 214.807 203.2 214.207 202.1 213.907C200 215.407 202 218.607 203.2 220.907C207.4 228.607 200.7 240.007 206.9 246.307ZM189.4 186.007C186.3 167.007 183.2 148.007 180.1 129.007C178.3 117.907 174.6 104.607 163.8 101.607C139.8 94.9074 119.2 79.4074 100.9 62.4074C82.7 45.4074 66.2 26.6074 46.7 10.9074C63.4 43.6074 82.6 74.9074 104.1 104.607C106.1 107.407 109.5 110.507 112.4 108.707C108.2 101.707 104 94.6074 99.7 87.6074C97.9 84.6074 96.2 80.2074 98.9 77.9074C102.4 74.7074 107.3 79.6074 109.9 83.6074C118.9 98.0074 134 108.407 150.7 111.907C165.2 114.907 170.4 132.607 172 147.407C173.6 162.107 176 179.707 189.4 186.007ZM119.5 253.807C119.7 254.907 121.5 255.207 122.1 254.207C123.2 256.507 126.3 256.607 128.9 256.307C151.1 254.107 173.3 251.907 195.5 249.707C196.5 249.607 197.7 249.407 198.5 248.807C199.7 247.707 199.7 245.807 199.6 244.107C199.2 236.807 198.7 229.507 198.3 222.107C194 222.807 190 224.707 186.1 226.607C177 230.907 167.9 235.307 158.8 239.607C151.9 242.907 145 246.107 137.9 248.807C131.9 250.907 125.7 252.607 119.5 253.807ZM253.5 184.507C252 188.407 253.7 192.707 255.3 196.607C261.4 212.107 266 228.307 268.8 244.807C269.3 247.207 269.8 249.907 271.9 251.107C275.2 248.207 274.7 242.907 273.9 238.407C269.8 216.207 264.5 194.207 258.1 172.607C256.6 171.807 255.1 171.007 253.6 170.207C255.2 174.807 255.1 180.007 253.5 184.507ZM86.7 92.0074C87.2 96.6074 88.2 101.007 89.7 105.307C93.4 115.807 105.5 122.507 116.4 120.207C114.8 117.307 112.4 113.907 109.2 114.407C103.7 115.207 99.1 110.107 96.5 105.207C93.9 100.307 91.7 94.6074 86.7 92.0074ZM246.1 246.107C246.8 245.407 247.4 244.807 248.1 244.107C249.3 245.307 250.7 246.407 252 247.507C254.4 253.207 254.4 259.907 251.9 265.607C251.2 267.007 252.5 269.007 254.1 268.907C256.5 265.707 255.7 261.307 256 257.307C256.4 253.307 259.7 248.607 263.4 250.107C263.7 251.507 264.1 253.107 265.2 254.007C266.3 255.007 268.4 254.807 268.8 253.407C262.4 248.607 255.4 244.607 248 241.407C247.2 241.807 246.5 242.107 245.7 242.507C245.4 243.707 245.6 245.007 246.1 246.107ZM213.9 249.607C214.4 249.107 214.9 248.607 215.3 248.007C215.3 249.007 216.1 249.907 217.1 250.107C215.3 239.607 214 229.007 213.1 218.507C211.5 217.607 209.3 219.707 210.1 221.407C212 222.707 212.4 225.907 210.7 227.507C211.1 228.107 211.6 228.807 212.1 229.407C210.4 236.107 211.1 243.307 213.9 249.607ZM222.7 215.407C225.9 218.207 230.2 219.607 234.5 219.407C233.1 217.707 233.2 215.007 234.6 213.407C236.1 211.807 238.8 211.507 240.5 212.807C239.7 211.707 240.3 209.907 241.6 209.607C238.2 208.407 233.4 207.807 231.9 211.107C230.4 214.407 225.7 215.607 222.8 213.407C222.8 214.007 222.8 214.707 222.7 215.407ZM249.5 224.607C248.6 220.907 247.6 217.107 246.6 213.407C244.9 213.907 242.3 213.807 242 212.007C242.1 213.007 241.2 214.007 240.2 214.007C244.3 217.207 246.1 223.107 244.6 228.107C246.2 226.907 247.9 225.707 249.5 224.607ZM257.8 161.007C257.1 161.607 256 162.407 256.6 163.207C258.9 166.507 261.3 169.807 263.7 173.007C261.4 165.907 259.8 158.607 259.1 151.107C256 152.807 260.2 158.407 257.8 161.007ZM124.5 260.207C120.4 259.007 116 258.807 111.7 259.607C110 259.907 108 260.807 107.9 262.607C113.5 262.907 119.2 262.107 124.5 260.207ZM249.4 198.707C248.7 195.207 248 191.607 247.3 188.107C245.3 188.507 245.9 191.407 246.2 193.307C246.9 196.707 245.3 200.507 242.4 202.407C244.1 201.707 246 201.707 247.7 202.307C247.5 200.907 248.2 199.407 249.4 198.707ZM252.5 207.807C253.3 213.807 255.3 219.607 258.4 224.807C258.8 218.707 256.5 212.507 252.5 207.807ZM275.5 217.207C276.7 224.207 277.9 231.207 279.1 238.207C279.2 239.007 279.5 240.007 280.3 240.207C281.2 232.307 279.5 224.107 275.5 217.207ZM256.5 231.607C257.1 232.907 257.2 234.507 256.8 235.807C258.6 236.807 260.8 234.707 260.7 232.607C260.7 230.607 259.3 228.807 258 227.307C256.7 228.207 256.3 230.007 256.8 231.507L256.5 231.607ZM231.4 260.407C234.1 258.707 235.4 255.007 234.2 252.007C233.4 251.807 232.5 252.007 231.8 252.507C231.4 255.007 231 257.407 230.6 259.907L231.4 260.407ZM246 251.507C246.3 253.807 246.5 256.207 246.8 258.507C248 259.507 250 258.907 250.5 257.607C248.8 254.907 247.4 252.007 246.6 248.907C245.8 249.407 245.4 250.607 245.7 251.507H246ZM220.1 259.907C219.2 260.107 218.2 260.207 217.3 260.407C217.9 263.507 222.7 264.707 224.7 262.307C223.2 261.507 221.7 260.707 220.3 259.907" fill="black"/>
</svg>
