<?xml version="1.0" encoding="utf-8" standalone="no"?>
<!DOCTYPE svg PUBLIC "-//W3C//DTD SVG 1.1//EN"
  "http://www.w3.org/Graphics/SVG/1.1/DTD/svg11.dtd">
<svg height="288pt" version="1.1" viewBox="0 0 1152 288" width="1152pt" xmlns="http://www.w3.org/2000/svg" xmlns:xlink="http://www.w3.org/1999/xlink">
 <metadata>
  <rdf:RDF xmlns:cc="http://creativecommons.org/ns#" xmlns:dc="http://purl.org/dc/elements/1.1/" xmlns:rdf="http://www.w3.org/1999/02/22-rdf-syntax-ns#">
   <cc:Work>
    <dc:type rdf:resource="http://purl.org/dc/dcmitype/StillImage"/>
    <dc:date>2021-11-16T22:03:51.902719</dc:date>
    <dc:format>image/svg+xml</dc:format>
    <dc:creator>
     <cc:Agent>
      <dc:title>Matplotlib v3.4.3, https://matplotlib.org/</dc:title>
     </cc:Agent>
    </dc:creator>
   </cc:Work>
  </rdf:RDF>
 </metadata>
 <defs>
  <style type="text/css">*{stroke-linecap:butt;stroke-linejoin:round;}</style>
 </defs>
 <g id="figure_1">
  <g id="patch_1">
   <path d="M 0 288 
L 1152 288 
L 1152 0 
L 0 0 
z
" style="fill:#ffffff;"/>
  </g>
  <g id="axes_1">
   <g id="patch_2">
    <path d="M 144 256.32 
L 1036.8 256.32 
L 1036.8 34.56 
L 144 34.56 
z
" style="fill:#eaeaf2;"/>
   </g>
   <g id="matplotlib.axis_1">
    <g id="xtick_1">
     <g id="line2d_1">
      <path clip-path="url(#p4d64c2b423)" d="M 184.581818 256.32 
L 184.581818 34.56 
" style="fill:none;stroke:#ffffff;stroke-linecap:round;"/>
     </g>
     <g id="text_1">
      <!-- 2013-01 -->
      <g style="fill:#262626;" transform="translate(164.399396 273.693594)scale(0.11 -0.11)">
       <defs>
        <path d="M 3222 541 
L 3222 0 
L 194 0 
Q 188 203 259 391 
Q 375 700 629 1000 
Q 884 1300 1366 1694 
Q 2113 2306 2375 2664 
Q 2638 3022 2638 3341 
Q 2638 3675 2398 3904 
Q 2159 4134 1775 4134 
Q 1369 4134 1125 3890 
Q 881 3647 878 3216 
L 300 3275 
Q 359 3922 746 4261 
Q 1134 4600 1788 4600 
Q 2447 4600 2831 4234 
Q 3216 3869 3216 3328 
Q 3216 3053 3103 2787 
Q 2991 2522 2730 2228 
Q 2469 1934 1863 1422 
Q 1356 997 1212 845 
Q 1069 694 975 541 
L 3222 541 
z
" id="ArialMT-32" transform="scale(0.015625)"/>
        <path d="M 266 2259 
Q 266 3072 433 3567 
Q 600 4063 929 4331 
Q 1259 4600 1759 4600 
Q 2128 4600 2406 4451 
Q 2684 4303 2865 4023 
Q 3047 3744 3150 3342 
Q 3253 2941 3253 2259 
Q 3253 1453 3087 958 
Q 2922 463 2592 192 
Q 2263 -78 1759 -78 
Q 1097 -78 719 397 
Q 266 969 266 2259 
z
M 844 2259 
Q 844 1131 1108 757 
Q 1372 384 1759 384 
Q 2147 384 2411 759 
Q 2675 1134 2675 2259 
Q 2675 3391 2411 3762 
Q 2147 4134 1753 4134 
Q 1366 4134 1134 3806 
Q 844 3388 844 2259 
z
" id="ArialMT-30" transform="scale(0.015625)"/>
        <path d="M 2384 0 
L 1822 0 
L 1822 3584 
Q 1619 3391 1289 3197 
Q 959 3003 697 2906 
L 697 3450 
Q 1169 3672 1522 3987 
Q 1875 4303 2022 4600 
L 2384 4600 
L 2384 0 
z
" id="ArialMT-31" transform="scale(0.015625)"/>
        <path d="M 269 1209 
L 831 1284 
Q 928 806 1161 595 
Q 1394 384 1728 384 
Q 2125 384 2398 659 
Q 2672 934 2672 1341 
Q 2672 1728 2419 1979 
Q 2166 2231 1775 2231 
Q 1616 2231 1378 2169 
L 1441 2663 
Q 1497 2656 1531 2656 
Q 1891 2656 2178 2843 
Q 2466 3031 2466 3422 
Q 2466 3731 2256 3934 
Q 2047 4138 1716 4138 
Q 1388 4138 1169 3931 
Q 950 3725 888 3313 
L 325 3413 
Q 428 3978 793 4289 
Q 1159 4600 1703 4600 
Q 2078 4600 2393 4439 
Q 2709 4278 2876 4000 
Q 3044 3722 3044 3409 
Q 3044 3113 2884 2869 
Q 2725 2625 2413 2481 
Q 2819 2388 3044 2092 
Q 3269 1797 3269 1353 
Q 3269 753 2831 336 
Q 2394 -81 1725 -81 
Q 1122 -81 723 278 
Q 325 638 269 1209 
z
" id="ArialMT-33" transform="scale(0.015625)"/>
        <path d="M 203 1375 
L 203 1941 
L 1931 1941 
L 1931 1375 
L 203 1375 
z
" id="ArialMT-2d" transform="scale(0.015625)"/>
       </defs>
       <use xlink:href="#ArialMT-32"/>
       <use x="55.615234" xlink:href="#ArialMT-30"/>
       <use x="111.230469" xlink:href="#ArialMT-31"/>
       <use x="166.845703" xlink:href="#ArialMT-33"/>
       <use x="222.460938" xlink:href="#ArialMT-2d"/>
       <use x="255.761719" xlink:href="#ArialMT-30"/>
       <use x="311.376953" xlink:href="#ArialMT-31"/>
      </g>
     </g>
    </g>
    <g id="xtick_2">
     <g id="line2d_2">
      <path clip-path="url(#p4d64c2b423)" d="M 277.986084 256.32 
L 277.986084 34.56 
" style="fill:none;stroke:#ffffff;stroke-linecap:round;"/>
     </g>
    </g>
    <g id="xtick_3">
     <g id="line2d_3">
      <path clip-path="url(#p4d64c2b423)" d="M 371.390349 256.32 
L 371.390349 34.56 
" style="fill:none;stroke:#ffffff;stroke-linecap:round;"/>
     </g>
    </g>
    <g id="xtick_4">
     <g id="line2d_4">
      <path clip-path="url(#p4d64c2b423)" d="M 464.794614 256.32 
L 464.794614 34.56 
" style="fill:none;stroke:#ffffff;stroke-linecap:round;"/>
     </g>
    </g>
    <g id="xtick_5">
     <g id="line2d_5">
      <path clip-path="url(#p4d64c2b423)" d="M 558.19888 256.32 
L 558.19888 34.56 
" style="fill:none;stroke:#ffffff;stroke-linecap:round;"/>
     </g>
    </g>
    <g id="xtick_6">
     <g id="line2d_6">
      <path clip-path="url(#p4d64c2b423)" d="M 651.603145 256.32 
L 651.603145 34.56 
" style="fill:none;stroke:#ffffff;stroke-linecap:round;"/>
     </g>
    </g>
    <g id="xtick_7">
     <g id="line2d_7">
      <path clip-path="url(#p4d64c2b423)" d="M 745.00741 256.32 
L 745.00741 34.56 
" style="fill:none;stroke:#ffffff;stroke-linecap:round;"/>
     </g>
    </g>
    <g id="xtick_8">
     <g id="line2d_8">
      <path clip-path="url(#p4d64c2b423)" d="M 838.411676 256.32 
L 838.411676 34.56 
" style="fill:none;stroke:#ffffff;stroke-linecap:round;"/>
     </g>
    </g>
    <g id="xtick_9">
     <g id="line2d_9">
      <path clip-path="url(#p4d64c2b423)" d="M 931.815941 256.32 
L 931.815941 34.56 
" style="fill:none;stroke:#ffffff;stroke-linecap:round;"/>
     </g>
    </g>
    <g id="xtick_10">
     <g id="line2d_10">
      <path clip-path="url(#p4d64c2b423)" d="M 1025.220206 256.32 
L 1025.220206 34.56 
" style="fill:none;stroke:#ffffff;stroke-linecap:round;"/>
     </g>
    </g>
    <g id="text_2">
     <!-- date -->
     <g style="fill:#262626;" transform="translate(578.723437 288.469219)scale(0.12 -0.12)">
      <defs>
       <path d="M 2575 0 
L 2575 419 
Q 2259 -75 1647 -75 
Q 1250 -75 917 144 
Q 584 363 401 755 
Q 219 1147 219 1656 
Q 219 2153 384 2558 
Q 550 2963 881 3178 
Q 1213 3394 1622 3394 
Q 1922 3394 2156 3267 
Q 2391 3141 2538 2938 
L 2538 4581 
L 3097 4581 
L 3097 0 
L 2575 0 
z
M 797 1656 
Q 797 1019 1065 703 
Q 1334 388 1700 388 
Q 2069 388 2326 689 
Q 2584 991 2584 1609 
Q 2584 2291 2321 2609 
Q 2059 2928 1675 2928 
Q 1300 2928 1048 2622 
Q 797 2316 797 1656 
z
" id="ArialMT-64" transform="scale(0.015625)"/>
       <path d="M 2588 409 
Q 2275 144 1986 34 
Q 1697 -75 1366 -75 
Q 819 -75 525 192 
Q 231 459 231 875 
Q 231 1119 342 1320 
Q 453 1522 633 1644 
Q 813 1766 1038 1828 
Q 1203 1872 1538 1913 
Q 2219 1994 2541 2106 
Q 2544 2222 2544 2253 
Q 2544 2597 2384 2738 
Q 2169 2928 1744 2928 
Q 1347 2928 1158 2789 
Q 969 2650 878 2297 
L 328 2372 
Q 403 2725 575 2942 
Q 747 3159 1072 3276 
Q 1397 3394 1825 3394 
Q 2250 3394 2515 3294 
Q 2781 3194 2906 3042 
Q 3031 2891 3081 2659 
Q 3109 2516 3109 2141 
L 3109 1391 
Q 3109 606 3145 398 
Q 3181 191 3288 0 
L 2700 0 
Q 2613 175 2588 409 
z
M 2541 1666 
Q 2234 1541 1622 1453 
Q 1275 1403 1131 1340 
Q 988 1278 909 1158 
Q 831 1038 831 891 
Q 831 666 1001 516 
Q 1172 366 1500 366 
Q 1825 366 2078 508 
Q 2331 650 2450 897 
Q 2541 1088 2541 1459 
L 2541 1666 
z
" id="ArialMT-61" transform="scale(0.015625)"/>
       <path d="M 1650 503 
L 1731 6 
Q 1494 -44 1306 -44 
Q 1000 -44 831 53 
Q 663 150 594 308 
Q 525 466 525 972 
L 525 2881 
L 113 2881 
L 113 3319 
L 525 3319 
L 525 4141 
L 1084 4478 
L 1084 3319 
L 1650 3319 
L 1650 2881 
L 1084 2881 
L 1084 941 
Q 1084 700 1114 631 
Q 1144 563 1211 522 
Q 1278 481 1403 481 
Q 1497 481 1650 503 
z
" id="ArialMT-74" transform="scale(0.015625)"/>
       <path d="M 2694 1069 
L 3275 997 
Q 3138 488 2766 206 
Q 2394 -75 1816 -75 
Q 1088 -75 661 373 
Q 234 822 234 1631 
Q 234 2469 665 2931 
Q 1097 3394 1784 3394 
Q 2450 3394 2872 2941 
Q 3294 2488 3294 1666 
Q 3294 1616 3291 1516 
L 816 1516 
Q 847 969 1125 678 
Q 1403 388 1819 388 
Q 2128 388 2347 550 
Q 2566 713 2694 1069 
z
M 847 1978 
L 2700 1978 
Q 2663 2397 2488 2606 
Q 2219 2931 1791 2931 
Q 1403 2931 1139 2672 
Q 875 2413 847 1978 
z
" id="ArialMT-65" transform="scale(0.015625)"/>
      </defs>
      <use xlink:href="#ArialMT-64"/>
      <use x="55.615234" xlink:href="#ArialMT-61"/>
      <use x="111.230469" xlink:href="#ArialMT-74"/>
      <use x="139.013672" xlink:href="#ArialMT-65"/>
     </g>
    </g>
   </g>
   <g id="matplotlib.axis_2">
    <g id="ytick_1">
     <g id="line2d_11">
      <path clip-path="url(#p4d64c2b423)" d="M 144 235.146754 
L 1036.8 235.146754 
" style="fill:none;stroke:#ffffff;stroke-linecap:round;"/>
     </g>
     <g id="text_3">
      <!-- 150000 -->
      <g style="fill:#262626;" transform="translate(97.797812 239.083551)scale(0.11 -0.11)">
       <defs>
        <path d="M 266 1200 
L 856 1250 
Q 922 819 1161 601 
Q 1400 384 1738 384 
Q 2144 384 2425 690 
Q 2706 997 2706 1503 
Q 2706 1984 2436 2262 
Q 2166 2541 1728 2541 
Q 1456 2541 1237 2417 
Q 1019 2294 894 2097 
L 366 2166 
L 809 4519 
L 3088 4519 
L 3088 3981 
L 1259 3981 
L 1013 2750 
Q 1425 3038 1878 3038 
Q 2478 3038 2890 2622 
Q 3303 2206 3303 1553 
Q 3303 931 2941 478 
Q 2500 -78 1738 -78 
Q 1113 -78 717 272 
Q 322 622 266 1200 
z
" id="ArialMT-35" transform="scale(0.015625)"/>
       </defs>
       <use xlink:href="#ArialMT-31"/>
       <use x="55.615234" xlink:href="#ArialMT-35"/>
       <use x="111.230469" xlink:href="#ArialMT-30"/>
       <use x="166.845703" xlink:href="#ArialMT-30"/>
       <use x="222.460938" xlink:href="#ArialMT-30"/>
       <use x="278.076172" xlink:href="#ArialMT-30"/>
      </g>
     </g>
    </g>
    <g id="ytick_2">
     <g id="line2d_12">
      <path clip-path="url(#p4d64c2b423)" d="M 144 207.668728 
L 1036.8 207.668728 
" style="fill:none;stroke:#ffffff;stroke-linecap:round;"/>
     </g>
     <g id="text_4">
      <!-- 200000 -->
      <g style="fill:#262626;" transform="translate(97.797812 211.605525)scale(0.11 -0.11)">
       <use xlink:href="#ArialMT-32"/>
       <use x="55.615234" xlink:href="#ArialMT-30"/>
       <use x="111.230469" xlink:href="#ArialMT-30"/>
       <use x="166.845703" xlink:href="#ArialMT-30"/>
       <use x="222.460938" xlink:href="#ArialMT-30"/>
       <use x="278.076172" xlink:href="#ArialMT-30"/>
      </g>
     </g>
    </g>
    <g id="ytick_3">
     <g id="line2d_13">
      <path clip-path="url(#p4d64c2b423)" d="M 144 180.190703 
L 1036.8 180.190703 
" style="fill:none;stroke:#ffffff;stroke-linecap:round;"/>
     </g>
     <g id="text_5">
      <!-- 250000 -->
      <g style="fill:#262626;" transform="translate(97.797812 184.127499)scale(0.11 -0.11)">
       <use xlink:href="#ArialMT-32"/>
       <use x="55.615234" xlink:href="#ArialMT-35"/>
       <use x="111.230469" xlink:href="#ArialMT-30"/>
       <use x="166.845703" xlink:href="#ArialMT-30"/>
       <use x="222.460938" xlink:href="#ArialMT-30"/>
       <use x="278.076172" xlink:href="#ArialMT-30"/>
      </g>
     </g>
    </g>
    <g id="ytick_4">
     <g id="line2d_14">
      <path clip-path="url(#p4d64c2b423)" d="M 144 152.712677 
L 1036.8 152.712677 
" style="fill:none;stroke:#ffffff;stroke-linecap:round;"/>
     </g>
     <g id="text_6">
      <!-- 300000 -->
      <g style="fill:#262626;" transform="translate(97.797812 156.649474)scale(0.11 -0.11)">
       <use xlink:href="#ArialMT-33"/>
       <use x="55.615234" xlink:href="#ArialMT-30"/>
       <use x="111.230469" xlink:href="#ArialMT-30"/>
       <use x="166.845703" xlink:href="#ArialMT-30"/>
       <use x="222.460938" xlink:href="#ArialMT-30"/>
       <use x="278.076172" xlink:href="#ArialMT-30"/>
      </g>
     </g>
    </g>
    <g id="ytick_5">
     <g id="line2d_15">
      <path clip-path="url(#p4d64c2b423)" d="M 144 125.234651 
L 1036.8 125.234651 
" style="fill:none;stroke:#ffffff;stroke-linecap:round;"/>
     </g>
     <g id="text_7">
      <!-- 350000 -->
      <g style="fill:#262626;" transform="translate(97.797812 129.171448)scale(0.11 -0.11)">
       <use xlink:href="#ArialMT-33"/>
       <use x="55.615234" xlink:href="#ArialMT-35"/>
       <use x="111.230469" xlink:href="#ArialMT-30"/>
       <use x="166.845703" xlink:href="#ArialMT-30"/>
       <use x="222.460938" xlink:href="#ArialMT-30"/>
       <use x="278.076172" xlink:href="#ArialMT-30"/>
      </g>
     </g>
    </g>
    <g id="ytick_6">
     <g id="line2d_16">
      <path clip-path="url(#p4d64c2b423)" d="M 144 97.756625 
L 1036.8 97.756625 
" style="fill:none;stroke:#ffffff;stroke-linecap:round;"/>
     </g>
     <g id="text_8">
      <!-- 400000 -->
      <g style="fill:#262626;" transform="translate(97.797812 101.693422)scale(0.11 -0.11)">
       <defs>
        <path d="M 2069 0 
L 2069 1097 
L 81 1097 
L 81 1613 
L 2172 4581 
L 2631 4581 
L 2631 1613 
L 3250 1613 
L 3250 1097 
L 2631 1097 
L 2631 0 
L 2069 0 
z
M 2069 1613 
L 2069 3678 
L 634 1613 
L 2069 1613 
z
" id="ArialMT-34" transform="scale(0.015625)"/>
       </defs>
       <use xlink:href="#ArialMT-34"/>
       <use x="55.615234" xlink:href="#ArialMT-30"/>
       <use x="111.230469" xlink:href="#ArialMT-30"/>
       <use x="166.845703" xlink:href="#ArialMT-30"/>
       <use x="222.460938" xlink:href="#ArialMT-30"/>
       <use x="278.076172" xlink:href="#ArialMT-30"/>
      </g>
     </g>
    </g>
    <g id="ytick_7">
     <g id="line2d_17">
      <path clip-path="url(#p4d64c2b423)" d="M 144 70.2786 
L 1036.8 70.2786 
" style="fill:none;stroke:#ffffff;stroke-linecap:round;"/>
     </g>
     <g id="text_9">
      <!-- 450000 -->
      <g style="fill:#262626;" transform="translate(97.797812 74.215397)scale(0.11 -0.11)">
       <use xlink:href="#ArialMT-34"/>
       <use x="55.615234" xlink:href="#ArialMT-35"/>
       <use x="111.230469" xlink:href="#ArialMT-30"/>
       <use x="166.845703" xlink:href="#ArialMT-30"/>
       <use x="222.460938" xlink:href="#ArialMT-30"/>
       <use x="278.076172" xlink:href="#ArialMT-30"/>
      </g>
     </g>
    </g>
    <g id="ytick_8">
     <g id="line2d_18">
      <path clip-path="url(#p4d64c2b423)" d="M 144 42.800574 
L 1036.8 42.800574 
" style="fill:none;stroke:#ffffff;stroke-linecap:round;"/>
     </g>
     <g id="text_10">
      <!-- 500000 -->
      <g style="fill:#262626;" transform="translate(97.797812 46.737371)scale(0.11 -0.11)">
       <use xlink:href="#ArialMT-35"/>
       <use x="55.615234" xlink:href="#ArialMT-30"/>
       <use x="111.230469" xlink:href="#ArialMT-30"/>
       <use x="166.845703" xlink:href="#ArialMT-30"/>
       <use x="222.460938" xlink:href="#ArialMT-30"/>
       <use x="278.076172" xlink:href="#ArialMT-30"/>
      </g>
     </g>
    </g>
    <g id="text_11">
     <!-- sales -->
     <g style="fill:#262626;" transform="translate(91.412812 159.44625)rotate(-90)scale(0.12 -0.12)">
      <defs>
       <path d="M 197 991 
L 753 1078 
Q 800 744 1014 566 
Q 1228 388 1613 388 
Q 2000 388 2187 545 
Q 2375 703 2375 916 
Q 2375 1106 2209 1216 
Q 2094 1291 1634 1406 
Q 1016 1563 777 1677 
Q 538 1791 414 1992 
Q 291 2194 291 2438 
Q 291 2659 392 2848 
Q 494 3038 669 3163 
Q 800 3259 1026 3326 
Q 1253 3394 1513 3394 
Q 1903 3394 2198 3281 
Q 2494 3169 2634 2976 
Q 2775 2784 2828 2463 
L 2278 2388 
Q 2241 2644 2061 2787 
Q 1881 2931 1553 2931 
Q 1166 2931 1000 2803 
Q 834 2675 834 2503 
Q 834 2394 903 2306 
Q 972 2216 1119 2156 
Q 1203 2125 1616 2013 
Q 2213 1853 2448 1751 
Q 2684 1650 2818 1456 
Q 2953 1263 2953 975 
Q 2953 694 2789 445 
Q 2625 197 2315 61 
Q 2006 -75 1616 -75 
Q 969 -75 630 194 
Q 291 463 197 991 
z
" id="ArialMT-73" transform="scale(0.015625)"/>
       <path d="M 409 0 
L 409 4581 
L 972 4581 
L 972 0 
L 409 0 
z
" id="ArialMT-6c" transform="scale(0.015625)"/>
      </defs>
      <use xlink:href="#ArialMT-73"/>
      <use x="50" xlink:href="#ArialMT-61"/>
      <use x="105.615234" xlink:href="#ArialMT-6c"/>
      <use x="127.832031" xlink:href="#ArialMT-65"/>
      <use x="183.447266" xlink:href="#ArialMT-73"/>
     </g>
    </g>
   </g>
   <g id="PolyCollection_1">
    <defs>
     <path d="M 980.61967 -206.09678 
L 980.61967 -152.727456 
L 982.020733 -159.579412 
L 983.4685 -150.846999 
L 984.869564 -180.341433 
L 986.31733 -170.673208 
L 987.765096 -116.726924 
L 989.072756 -166.647468 
L 990.520522 -115.874697 
L 991.921586 -125.297045 
L 993.369352 -157.412164 
L 994.770416 -188.051248 
L 996.218182 -149.047644 
L 996.218182 -183.768134 
L 996.218182 -183.768134 
L 994.770416 -243.36 
L 993.369352 -205.569377 
L 991.921586 -165.723719 
L 990.520522 -154.363211 
L 989.072756 -219.293632 
L 987.765096 -156.534046 
L 986.31733 -225.938139 
L 984.869564 -239.116187 
L 983.4685 -202.108521 
L 982.020733 -214.126036 
L 980.61967 -206.09678 
z
" id="m7d60e565dc" style="stroke:#4c72b0;stroke-opacity:0.2;"/>
    </defs>
    <g clip-path="url(#p4d64c2b423)">
     <use style="fill:#4c72b0;fill-opacity:0.2;stroke:#4c72b0;stroke-opacity:0.2;" x="0" xlink:href="#m7d60e565dc" y="288"/>
    </g>
   </g>
   <g id="line2d_19">
    <path clip-path="url(#p4d64c2b423)" d="M 184.581818 240.515586 
L 184.62852 229.039465 
L 184.675222 239.362866 
L 184.721925 207.640811 
L 184.768627 213.504544 
L 184.815329 230.727049 
L 184.862031 240.629163 
L 184.908733 227.179986 
L 184.955435 240.214527 
L 185.002137 235.741923 
L 185.04884 226.432753 
L 185.095542 226.585832 
L 185.142244 174.289911 
L 185.188946 208.820319 
L 185.235648 176.316435 
L 185.28235 195.444017 
L 185.329052 195.745463 
L 185.375754 218.030621 
L 185.422457 175.831211 
L 185.469159 211.955298 
L 185.515861 171.296336 
L 185.562563 168.880868 
L 185.609265 171.824615 
L 185.655967 170.212988 
L 185.702669 222.667739 
L 185.749371 205.166548 
L 185.796074 216.107868 
L 185.842776 183.873772 
L 185.889478 176.56723 
L 185.93618 145.648262 
L 185.982882 169.03199 
L 186.029584 140.022497 
L 186.076286 159.043564 
L 186.122989 160.970321 
L 186.169691 163.787219 
L 186.216393 156.312313 
L 186.263095 163.465031 
L 186.309797 120.782533 
L 186.356499 155.803373 
L 186.403201 70.185837 
L 186.449903 107.855288 
L 186.496606 144.116629 
L 186.543308 166.883674 
L 186.59001 136.810009 
" style="fill:none;stroke:#0173b2;stroke-linecap:round;stroke-width:1.5;"/>
    <defs>
     <path d="M 0 3 
C 0.795609 3 1.55874 2.683901 2.12132 2.12132 
C 2.683901 1.55874 3 0.795609 3 0 
C 3 -0.795609 2.683901 -1.55874 2.12132 -2.12132 
C 1.55874 -2.683901 0.795609 -3 0 -3 
C -0.795609 -3 -1.55874 -2.683901 -2.12132 -2.12132 
C -2.683901 -1.55874 -3 -0.795609 -3 0 
C -3 0.795609 -2.683901 1.55874 -2.12132 2.12132 
C -1.55874 2.683901 -0.795609 3 0 3 
z
" id="mf92e812a36" style="stroke:#ffffff;stroke-width:0.75;"/>
    </defs>
    <g clip-path="url(#p4d64c2b423)">
     <use style="fill:#0173b2;stroke:#ffffff;stroke-width:0.75;" x="184.581818" xlink:href="#mf92e812a36" y="240.515586"/>
     <use style="fill:#0173b2;stroke:#ffffff;stroke-width:0.75;" x="184.62852" xlink:href="#mf92e812a36" y="229.039465"/>
     <use style="fill:#0173b2;stroke:#ffffff;stroke-width:0.75;" x="184.675222" xlink:href="#mf92e812a36" y="239.362866"/>
     <use style="fill:#0173b2;stroke:#ffffff;stroke-width:0.75;" x="184.721925" xlink:href="#mf92e812a36" y="207.640811"/>
     <use style="fill:#0173b2;stroke:#ffffff;stroke-width:0.75;" x="184.768627" xlink:href="#mf92e812a36" y="213.504544"/>
     <use style="fill:#0173b2;stroke:#ffffff;stroke-width:0.75;" x="184.815329" xlink:href="#mf92e812a36" y="230.727049"/>
     <use style="fill:#0173b2;stroke:#ffffff;stroke-width:0.75;" x="184.862031" xlink:href="#mf92e812a36" y="240.629163"/>
     <use style="fill:#0173b2;stroke:#ffffff;stroke-width:0.75;" x="184.908733" xlink:href="#mf92e812a36" y="227.179986"/>
     <use style="fill:#0173b2;stroke:#ffffff;stroke-width:0.75;" x="184.955435" xlink:href="#mf92e812a36" y="240.214527"/>
     <use style="fill:#0173b2;stroke:#ffffff;stroke-width:0.75;" x="185.002137" xlink:href="#mf92e812a36" y="235.741923"/>
     <use style="fill:#0173b2;stroke:#ffffff;stroke-width:0.75;" x="185.04884" xlink:href="#mf92e812a36" y="226.432753"/>
     <use style="fill:#0173b2;stroke:#ffffff;stroke-width:0.75;" x="185.095542" xlink:href="#mf92e812a36" y="226.585832"/>
     <use style="fill:#0173b2;stroke:#ffffff;stroke-width:0.75;" x="185.142244" xlink:href="#mf92e812a36" y="174.289911"/>
     <use style="fill:#0173b2;stroke:#ffffff;stroke-width:0.75;" x="185.188946" xlink:href="#mf92e812a36" y="208.820319"/>
     <use style="fill:#0173b2;stroke:#ffffff;stroke-width:0.75;" x="185.235648" xlink:href="#mf92e812a36" y="176.316435"/>
     <use style="fill:#0173b2;stroke:#ffffff;stroke-width:0.75;" x="185.28235" xlink:href="#mf92e812a36" y="195.444017"/>
     <use style="fill:#0173b2;stroke:#ffffff;stroke-width:0.75;" x="185.329052" xlink:href="#mf92e812a36" y="195.745463"/>
     <use style="fill:#0173b2;stroke:#ffffff;stroke-width:0.75;" x="185.375754" xlink:href="#mf92e812a36" y="218.030621"/>
     <use style="fill:#0173b2;stroke:#ffffff;stroke-width:0.75;" x="185.422457" xlink:href="#mf92e812a36" y="175.831211"/>
     <use style="fill:#0173b2;stroke:#ffffff;stroke-width:0.75;" x="185.469159" xlink:href="#mf92e812a36" y="211.955298"/>
     <use style="fill:#0173b2;stroke:#ffffff;stroke-width:0.75;" x="185.515861" xlink:href="#mf92e812a36" y="171.296336"/>
     <use style="fill:#0173b2;stroke:#ffffff;stroke-width:0.75;" x="185.562563" xlink:href="#mf92e812a36" y="168.880868"/>
     <use style="fill:#0173b2;stroke:#ffffff;stroke-width:0.75;" x="185.609265" xlink:href="#mf92e812a36" y="171.824615"/>
     <use style="fill:#0173b2;stroke:#ffffff;stroke-width:0.75;" x="185.655967" xlink:href="#mf92e812a36" y="170.212988"/>
     <use style="fill:#0173b2;stroke:#ffffff;stroke-width:0.75;" x="185.702669" xlink:href="#mf92e812a36" y="222.667739"/>
     <use style="fill:#0173b2;stroke:#ffffff;stroke-width:0.75;" x="185.749371" xlink:href="#mf92e812a36" y="205.166548"/>
     <use style="fill:#0173b2;stroke:#ffffff;stroke-width:0.75;" x="185.796074" xlink:href="#mf92e812a36" y="216.107868"/>
     <use style="fill:#0173b2;stroke:#ffffff;stroke-width:0.75;" x="185.842776" xlink:href="#mf92e812a36" y="183.873772"/>
     <use style="fill:#0173b2;stroke:#ffffff;stroke-width:0.75;" x="185.889478" xlink:href="#mf92e812a36" y="176.56723"/>
     <use style="fill:#0173b2;stroke:#ffffff;stroke-width:0.75;" x="185.93618" xlink:href="#mf92e812a36" y="145.648262"/>
     <use style="fill:#0173b2;stroke:#ffffff;stroke-width:0.75;" x="185.982882" xlink:href="#mf92e812a36" y="169.03199"/>
     <use style="fill:#0173b2;stroke:#ffffff;stroke-width:0.75;" x="186.029584" xlink:href="#mf92e812a36" y="140.022497"/>
     <use style="fill:#0173b2;stroke:#ffffff;stroke-width:0.75;" x="186.076286" xlink:href="#mf92e812a36" y="159.043564"/>
     <use style="fill:#0173b2;stroke:#ffffff;stroke-width:0.75;" x="186.122989" xlink:href="#mf92e812a36" y="160.970321"/>
     <use style="fill:#0173b2;stroke:#ffffff;stroke-width:0.75;" x="186.169691" xlink:href="#mf92e812a36" y="163.787219"/>
     <use style="fill:#0173b2;stroke:#ffffff;stroke-width:0.75;" x="186.216393" xlink:href="#mf92e812a36" y="156.312313"/>
     <use style="fill:#0173b2;stroke:#ffffff;stroke-width:0.75;" x="186.263095" xlink:href="#mf92e812a36" y="163.465031"/>
     <use style="fill:#0173b2;stroke:#ffffff;stroke-width:0.75;" x="186.309797" xlink:href="#mf92e812a36" y="120.782533"/>
     <use style="fill:#0173b2;stroke:#ffffff;stroke-width:0.75;" x="186.356499" xlink:href="#mf92e812a36" y="155.803373"/>
     <use style="fill:#0173b2;stroke:#ffffff;stroke-width:0.75;" x="186.403201" xlink:href="#mf92e812a36" y="70.185837"/>
     <use style="fill:#0173b2;stroke:#ffffff;stroke-width:0.75;" x="186.449903" xlink:href="#mf92e812a36" y="107.855288"/>
     <use style="fill:#0173b2;stroke:#ffffff;stroke-width:0.75;" x="186.496606" xlink:href="#mf92e812a36" y="144.116629"/>
     <use style="fill:#0173b2;stroke:#ffffff;stroke-width:0.75;" x="186.543308" xlink:href="#mf92e812a36" y="166.883674"/>
     <use style="fill:#0173b2;stroke:#ffffff;stroke-width:0.75;" x="186.59001" xlink:href="#mf92e812a36" y="136.810009"/>
    </g>
   </g>
   <g id="line2d_20">
    <path clip-path="url(#p4d64c2b423)" d="M 980.61967 111.705661 
L 982.020733 104.333832 
L 983.4685 114.516884 
L 984.869564 81.704749 
L 986.31733 92.922845 
L 987.765096 153.695005 
L 989.072756 98.104983 
L 990.520522 155.129504 
L 991.921586 144.851302 
L 993.369352 109.322523 
L 994.770416 75.525455 
L 996.218182 119.16706 
" style="fill:none;stroke:#4c72b0;stroke-linecap:round;stroke-width:1.5;"/>
    <defs>
     <path d="M 0 3 
C 0.795609 3 1.55874 2.683901 2.12132 2.12132 
C 2.683901 1.55874 3 0.795609 3 0 
C 3 -0.795609 2.683901 -1.55874 2.12132 -2.12132 
C 1.55874 -2.683901 0.795609 -3 0 -3 
C -0.795609 -3 -1.55874 -2.683901 -2.12132 -2.12132 
C -2.683901 -1.55874 -3 -0.795609 -3 0 
C -3 0.795609 -2.683901 1.55874 -2.12132 2.12132 
C -1.55874 2.683901 -0.795609 3 0 3 
z
" id="me8a0b24819" style="stroke:#ffffff;stroke-width:0.75;"/>
    </defs>
    <g clip-path="url(#p4d64c2b423)">
     <use style="fill:#4c72b0;stroke:#ffffff;stroke-width:0.75;" x="980.61967" xlink:href="#me8a0b24819" y="111.705661"/>
     <use style="fill:#4c72b0;stroke:#ffffff;stroke-width:0.75;" x="982.020733" xlink:href="#me8a0b24819" y="104.333832"/>
     <use style="fill:#4c72b0;stroke:#ffffff;stroke-width:0.75;" x="983.4685" xlink:href="#me8a0b24819" y="114.516884"/>
     <use style="fill:#4c72b0;stroke:#ffffff;stroke-width:0.75;" x="984.869564" xlink:href="#me8a0b24819" y="81.704749"/>
     <use style="fill:#4c72b0;stroke:#ffffff;stroke-width:0.75;" x="986.31733" xlink:href="#me8a0b24819" y="92.922845"/>
     <use style="fill:#4c72b0;stroke:#ffffff;stroke-width:0.75;" x="987.765096" xlink:href="#me8a0b24819" y="153.695005"/>
     <use style="fill:#4c72b0;stroke:#ffffff;stroke-width:0.75;" x="989.072756" xlink:href="#me8a0b24819" y="98.104983"/>
     <use style="fill:#4c72b0;stroke:#ffffff;stroke-width:0.75;" x="990.520522" xlink:href="#me8a0b24819" y="155.129504"/>
     <use style="fill:#4c72b0;stroke:#ffffff;stroke-width:0.75;" x="991.921586" xlink:href="#me8a0b24819" y="144.851302"/>
     <use style="fill:#4c72b0;stroke:#ffffff;stroke-width:0.75;" x="993.369352" xlink:href="#me8a0b24819" y="109.322523"/>
     <use style="fill:#4c72b0;stroke:#ffffff;stroke-width:0.75;" x="994.770416" xlink:href="#me8a0b24819" y="75.525455"/>
     <use style="fill:#4c72b0;stroke:#ffffff;stroke-width:0.75;" x="996.218182" xlink:href="#me8a0b24819" y="119.16706"/>
    </g>
   </g>
   <g id="line2d_21">
    <path clip-path="url(#p4d64c2b423)" d="M 918.085514 231.374461 
L 919.53328 246.24 
L 920.84094 234.231061 
L 922.288706 231.932653 
L 923.68977 232.417828 
L 925.137536 232.92025 
L 926.5386 231.433254 
L 927.986366 235.595573 
L 929.434132 234.006152 
L 930.835196 227.224443 
L 932.282962 223.007175 
L 933.684026 209.327938 
L 935.131792 157.2934 
L 936.579558 229.948736 
L 937.887218 167.048213 
L 939.334984 222.430807 
L 940.736048 217.886019 
L 942.183814 220.544427 
L 943.584878 158.891792 
L 945.032644 221.78818 
L 946.480411 159.557518 
L 947.881475 153.404745 
L 949.329241 166.346725 
L 950.730305 142.263555 
L 952.178071 211.409584 
L 953.625837 227.004768 
L 954.933497 209.450324 
L 956.381263 213.41707 
L 957.782327 202.192955 
L 959.230093 149.989841 
L 960.631157 151.280047 
L 962.078923 156.551741 
L 963.526689 146.321504 
L 964.927753 144.670899 
L 966.375519 158.007263 
L 967.776583 125.726511 
L 969.224349 145.184523 
L 970.672115 159.013657 
L 972.026477 145.189309 
L 973.474243 124.849099 
L 974.875307 145.967703 
L 976.323073 148.496884 
L 977.724137 148.875003 
L 979.171903 153.63831 
L 980.61967 152.157164 
L 982.020733 139.421093 
L 983.4685 146.025077 
L 984.869564 117.39834 
L 986.31733 129.741619 
L 987.765096 157.147753 
L 989.072756 120.316138 
L 990.520522 146.032647 
L 991.921586 137.241494 
L 993.369352 132.880408 
L 994.770416 139.558356 
L 996.218182 238.714004 
" style="fill:none;stroke:#dd8452;stroke-dasharray:6,2.25;stroke-dashoffset:0;stroke-width:1.5;"/>
    <defs>
     <path d="M 0 3 
C 0.795609 3 1.55874 2.683901 2.12132 2.12132 
C 2.683901 1.55874 3 0.795609 3 0 
C 3 -0.795609 2.683901 -1.55874 2.12132 -2.12132 
C 1.55874 -2.683901 0.795609 -3 0 -3 
C -0.795609 -3 -1.55874 -2.683901 -2.12132 -2.12132 
C -2.683901 -1.55874 -3 -0.795609 -3 0 
C -3 0.795609 -2.683901 1.55874 -2.12132 2.12132 
C -1.55874 2.683901 -0.795609 3 0 3 
z
" id="m6d930413cf" style="stroke:#ffffff;stroke-width:0.75;"/>
    </defs>
    <g clip-path="url(#p4d64c2b423)">
     <use style="fill:#dd8452;stroke:#ffffff;stroke-width:0.75;" x="918.085514" xlink:href="#m6d930413cf" y="231.374461"/>
     <use style="fill:#dd8452;stroke:#ffffff;stroke-width:0.75;" x="919.53328" xlink:href="#m6d930413cf" y="246.24"/>
     <use style="fill:#dd8452;stroke:#ffffff;stroke-width:0.75;" x="920.84094" xlink:href="#m6d930413cf" y="234.231061"/>
     <use style="fill:#dd8452;stroke:#ffffff;stroke-width:0.75;" x="922.288706" xlink:href="#m6d930413cf" y="231.932653"/>
     <use style="fill:#dd8452;stroke:#ffffff;stroke-width:0.75;" x="923.68977" xlink:href="#m6d930413cf" y="232.417828"/>
     <use style="fill:#dd8452;stroke:#ffffff;stroke-width:0.75;" x="925.137536" xlink:href="#m6d930413cf" y="232.92025"/>
     <use style="fill:#dd8452;stroke:#ffffff;stroke-width:0.75;" x="926.5386" xlink:href="#m6d930413cf" y="231.433254"/>
     <use style="fill:#dd8452;stroke:#ffffff;stroke-width:0.75;" x="927.986366" xlink:href="#m6d930413cf" y="235.595573"/>
     <use style="fill:#dd8452;stroke:#ffffff;stroke-width:0.75;" x="929.434132" xlink:href="#m6d930413cf" y="234.006152"/>
     <use style="fill:#dd8452;stroke:#ffffff;stroke-width:0.75;" x="930.835196" xlink:href="#m6d930413cf" y="227.224443"/>
     <use style="fill:#dd8452;stroke:#ffffff;stroke-width:0.75;" x="932.282962" xlink:href="#m6d930413cf" y="223.007175"/>
     <use style="fill:#dd8452;stroke:#ffffff;stroke-width:0.75;" x="933.684026" xlink:href="#m6d930413cf" y="209.327938"/>
     <use style="fill:#dd8452;stroke:#ffffff;stroke-width:0.75;" x="935.131792" xlink:href="#m6d930413cf" y="157.2934"/>
     <use style="fill:#dd8452;stroke:#ffffff;stroke-width:0.75;" x="936.579558" xlink:href="#m6d930413cf" y="229.948736"/>
     <use style="fill:#dd8452;stroke:#ffffff;stroke-width:0.75;" x="937.887218" xlink:href="#m6d930413cf" y="167.048213"/>
     <use style="fill:#dd8452;stroke:#ffffff;stroke-width:0.75;" x="939.334984" xlink:href="#m6d930413cf" y="222.430807"/>
     <use style="fill:#dd8452;stroke:#ffffff;stroke-width:0.75;" x="940.736048" xlink:href="#m6d930413cf" y="217.886019"/>
     <use style="fill:#dd8452;stroke:#ffffff;stroke-width:0.75;" x="942.183814" xlink:href="#m6d930413cf" y="220.544427"/>
     <use style="fill:#dd8452;stroke:#ffffff;stroke-width:0.75;" x="943.584878" xlink:href="#m6d930413cf" y="158.891792"/>
     <use style="fill:#dd8452;stroke:#ffffff;stroke-width:0.75;" x="945.032644" xlink:href="#m6d930413cf" y="221.78818"/>
     <use style="fill:#dd8452;stroke:#ffffff;stroke-width:0.75;" x="946.480411" xlink:href="#m6d930413cf" y="159.557518"/>
     <use style="fill:#dd8452;stroke:#ffffff;stroke-width:0.75;" x="947.881475" xlink:href="#m6d930413cf" y="153.404745"/>
     <use style="fill:#dd8452;stroke:#ffffff;stroke-width:0.75;" x="949.329241" xlink:href="#m6d930413cf" y="166.346725"/>
     <use style="fill:#dd8452;stroke:#ffffff;stroke-width:0.75;" x="950.730305" xlink:href="#m6d930413cf" y="142.263555"/>
     <use style="fill:#dd8452;stroke:#ffffff;stroke-width:0.75;" x="952.178071" xlink:href="#m6d930413cf" y="211.409584"/>
     <use style="fill:#dd8452;stroke:#ffffff;stroke-width:0.75;" x="953.625837" xlink:href="#m6d930413cf" y="227.004768"/>
     <use style="fill:#dd8452;stroke:#ffffff;stroke-width:0.75;" x="954.933497" xlink:href="#m6d930413cf" y="209.450324"/>
     <use style="fill:#dd8452;stroke:#ffffff;stroke-width:0.75;" x="956.381263" xlink:href="#m6d930413cf" y="213.41707"/>
     <use style="fill:#dd8452;stroke:#ffffff;stroke-width:0.75;" x="957.782327" xlink:href="#m6d930413cf" y="202.192955"/>
     <use style="fill:#dd8452;stroke:#ffffff;stroke-width:0.75;" x="959.230093" xlink:href="#m6d930413cf" y="149.989841"/>
     <use style="fill:#dd8452;stroke:#ffffff;stroke-width:0.75;" x="960.631157" xlink:href="#m6d930413cf" y="151.280047"/>
     <use style="fill:#dd8452;stroke:#ffffff;stroke-width:0.75;" x="962.078923" xlink:href="#m6d930413cf" y="156.551741"/>
     <use style="fill:#dd8452;stroke:#ffffff;stroke-width:0.75;" x="963.526689" xlink:href="#m6d930413cf" y="146.321504"/>
     <use style="fill:#dd8452;stroke:#ffffff;stroke-width:0.75;" x="964.927753" xlink:href="#m6d930413cf" y="144.670899"/>
     <use style="fill:#dd8452;stroke:#ffffff;stroke-width:0.75;" x="966.375519" xlink:href="#m6d930413cf" y="158.007263"/>
     <use style="fill:#dd8452;stroke:#ffffff;stroke-width:0.75;" x="967.776583" xlink:href="#m6d930413cf" y="125.726511"/>
     <use style="fill:#dd8452;stroke:#ffffff;stroke-width:0.75;" x="969.224349" xlink:href="#m6d930413cf" y="145.184523"/>
     <use style="fill:#dd8452;stroke:#ffffff;stroke-width:0.75;" x="970.672115" xlink:href="#m6d930413cf" y="159.013657"/>
     <use style="fill:#dd8452;stroke:#ffffff;stroke-width:0.75;" x="972.026477" xlink:href="#m6d930413cf" y="145.189309"/>
     <use style="fill:#dd8452;stroke:#ffffff;stroke-width:0.75;" x="973.474243" xlink:href="#m6d930413cf" y="124.849099"/>
     <use style="fill:#dd8452;stroke:#ffffff;stroke-width:0.75;" x="974.875307" xlink:href="#m6d930413cf" y="145.967703"/>
     <use style="fill:#dd8452;stroke:#ffffff;stroke-width:0.75;" x="976.323073" xlink:href="#m6d930413cf" y="148.496884"/>
     <use style="fill:#dd8452;stroke:#ffffff;stroke-width:0.75;" x="977.724137" xlink:href="#m6d930413cf" y="148.875003"/>
     <use style="fill:#dd8452;stroke:#ffffff;stroke-width:0.75;" x="979.171903" xlink:href="#m6d930413cf" y="153.63831"/>
     <use style="fill:#dd8452;stroke:#ffffff;stroke-width:0.75;" x="980.61967" xlink:href="#m6d930413cf" y="152.157164"/>
     <use style="fill:#dd8452;stroke:#ffffff;stroke-width:0.75;" x="982.020733" xlink:href="#m6d930413cf" y="139.421093"/>
     <use style="fill:#dd8452;stroke:#ffffff;stroke-width:0.75;" x="983.4685" xlink:href="#m6d930413cf" y="146.025077"/>
     <use style="fill:#dd8452;stroke:#ffffff;stroke-width:0.75;" x="984.869564" xlink:href="#m6d930413cf" y="117.39834"/>
     <use style="fill:#dd8452;stroke:#ffffff;stroke-width:0.75;" x="986.31733" xlink:href="#m6d930413cf" y="129.741619"/>
     <use style="fill:#dd8452;stroke:#ffffff;stroke-width:0.75;" x="987.765096" xlink:href="#m6d930413cf" y="157.147753"/>
     <use style="fill:#dd8452;stroke:#ffffff;stroke-width:0.75;" x="989.072756" xlink:href="#m6d930413cf" y="120.316138"/>
     <use style="fill:#dd8452;stroke:#ffffff;stroke-width:0.75;" x="990.520522" xlink:href="#m6d930413cf" y="146.032647"/>
     <use style="fill:#dd8452;stroke:#ffffff;stroke-width:0.75;" x="991.921586" xlink:href="#m6d930413cf" y="137.241494"/>
     <use style="fill:#dd8452;stroke:#ffffff;stroke-width:0.75;" x="993.369352" xlink:href="#m6d930413cf" y="132.880408"/>
     <use style="fill:#dd8452;stroke:#ffffff;stroke-width:0.75;" x="994.770416" xlink:href="#m6d930413cf" y="139.558356"/>
     <use style="fill:#dd8452;stroke:#ffffff;stroke-width:0.75;" x="996.218182" xlink:href="#m6d930413cf" y="238.714004"/>
    </g>
   </g>
   <g id="line2d_22"/>
   <g id="line2d_23"/>
   <g id="patch_3">
    <path d="M 144 256.32 
L 144 34.56 
" style="fill:none;stroke:#ffffff;stroke-linecap:square;stroke-linejoin:miter;stroke-width:1.25;"/>
   </g>
   <g id="patch_4">
    <path d="M 1036.8 256.32 
L 1036.8 34.56 
" style="fill:none;stroke:#ffffff;stroke-linecap:square;stroke-linejoin:miter;stroke-width:1.25;"/>
   </g>
   <g id="patch_5">
    <path d="M 144 256.32 
L 1036.8 256.32 
" style="fill:none;stroke:#ffffff;stroke-linecap:square;stroke-linejoin:miter;stroke-width:1.25;"/>
   </g>
   <g id="patch_6">
    <path d="M 144 34.56 
L 1036.8 34.56 
" style="fill:none;stroke:#ffffff;stroke-linecap:square;stroke-linejoin:miter;stroke-width:1.25;"/>
   </g>
   <g id="text_12">
    <!-- Final Forecast - Error: 0.15897391980582212 -->
    <g style="fill:#262626;" transform="translate(468.6675 28.56)scale(0.12 -0.12)">
     <defs>
      <path d="M 525 0 
L 525 4581 
L 3616 4581 
L 3616 4041 
L 1131 4041 
L 1131 2622 
L 3281 2622 
L 3281 2081 
L 1131 2081 
L 1131 0 
L 525 0 
z
" id="ArialMT-46" transform="scale(0.015625)"/>
      <path d="M 425 3934 
L 425 4581 
L 988 4581 
L 988 3934 
L 425 3934 
z
M 425 0 
L 425 3319 
L 988 3319 
L 988 0 
L 425 0 
z
" id="ArialMT-69" transform="scale(0.015625)"/>
      <path d="M 422 0 
L 422 3319 
L 928 3319 
L 928 2847 
Q 1294 3394 1984 3394 
Q 2284 3394 2536 3286 
Q 2788 3178 2913 3003 
Q 3038 2828 3088 2588 
Q 3119 2431 3119 2041 
L 3119 0 
L 2556 0 
L 2556 2019 
Q 2556 2363 2490 2533 
Q 2425 2703 2258 2804 
Q 2091 2906 1866 2906 
Q 1506 2906 1245 2678 
Q 984 2450 984 1813 
L 984 0 
L 422 0 
z
" id="ArialMT-6e" transform="scale(0.015625)"/>
      <path id="ArialMT-20" transform="scale(0.015625)"/>
      <path d="M 213 1659 
Q 213 2581 725 3025 
Q 1153 3394 1769 3394 
Q 2453 3394 2887 2945 
Q 3322 2497 3322 1706 
Q 3322 1066 3130 698 
Q 2938 331 2570 128 
Q 2203 -75 1769 -75 
Q 1072 -75 642 372 
Q 213 819 213 1659 
z
M 791 1659 
Q 791 1022 1069 705 
Q 1347 388 1769 388 
Q 2188 388 2466 706 
Q 2744 1025 2744 1678 
Q 2744 2294 2464 2611 
Q 2184 2928 1769 2928 
Q 1347 2928 1069 2612 
Q 791 2297 791 1659 
z
" id="ArialMT-6f" transform="scale(0.015625)"/>
      <path d="M 416 0 
L 416 3319 
L 922 3319 
L 922 2816 
Q 1116 3169 1280 3281 
Q 1444 3394 1641 3394 
Q 1925 3394 2219 3213 
L 2025 2691 
Q 1819 2813 1613 2813 
Q 1428 2813 1281 2702 
Q 1134 2591 1072 2394 
Q 978 2094 978 1738 
L 978 0 
L 416 0 
z
" id="ArialMT-72" transform="scale(0.015625)"/>
      <path d="M 2588 1216 
L 3141 1144 
Q 3050 572 2676 248 
Q 2303 -75 1759 -75 
Q 1078 -75 664 370 
Q 250 816 250 1647 
Q 250 2184 428 2587 
Q 606 2991 970 3192 
Q 1334 3394 1763 3394 
Q 2303 3394 2647 3120 
Q 2991 2847 3088 2344 
L 2541 2259 
Q 2463 2594 2264 2762 
Q 2066 2931 1784 2931 
Q 1359 2931 1093 2626 
Q 828 2322 828 1663 
Q 828 994 1084 691 
Q 1341 388 1753 388 
Q 2084 388 2306 591 
Q 2528 794 2588 1216 
z
" id="ArialMT-63" transform="scale(0.015625)"/>
      <path d="M 506 0 
L 506 4581 
L 3819 4581 
L 3819 4041 
L 1113 4041 
L 1113 2638 
L 3647 2638 
L 3647 2100 
L 1113 2100 
L 1113 541 
L 3925 541 
L 3925 0 
L 506 0 
z
" id="ArialMT-45" transform="scale(0.015625)"/>
      <path d="M 578 2678 
L 578 3319 
L 1219 3319 
L 1219 2678 
L 578 2678 
z
M 578 0 
L 578 641 
L 1219 641 
L 1219 0 
L 578 0 
z
" id="ArialMT-3a" transform="scale(0.015625)"/>
      <path d="M 581 0 
L 581 641 
L 1222 641 
L 1222 0 
L 581 0 
z
" id="ArialMT-2e" transform="scale(0.015625)"/>
      <path d="M 1131 2484 
Q 781 2613 612 2850 
Q 444 3088 444 3419 
Q 444 3919 803 4259 
Q 1163 4600 1759 4600 
Q 2359 4600 2725 4251 
Q 3091 3903 3091 3403 
Q 3091 3084 2923 2848 
Q 2756 2613 2416 2484 
Q 2838 2347 3058 2040 
Q 3278 1734 3278 1309 
Q 3278 722 2862 322 
Q 2447 -78 1769 -78 
Q 1091 -78 675 323 
Q 259 725 259 1325 
Q 259 1772 486 2073 
Q 713 2375 1131 2484 
z
M 1019 3438 
Q 1019 3113 1228 2906 
Q 1438 2700 1772 2700 
Q 2097 2700 2305 2904 
Q 2513 3109 2513 3406 
Q 2513 3716 2298 3927 
Q 2084 4138 1766 4138 
Q 1444 4138 1231 3931 
Q 1019 3725 1019 3438 
z
M 838 1322 
Q 838 1081 952 856 
Q 1066 631 1291 507 
Q 1516 384 1775 384 
Q 2178 384 2440 643 
Q 2703 903 2703 1303 
Q 2703 1709 2433 1975 
Q 2163 2241 1756 2241 
Q 1359 2241 1098 1978 
Q 838 1716 838 1322 
z
" id="ArialMT-38" transform="scale(0.015625)"/>
      <path d="M 350 1059 
L 891 1109 
Q 959 728 1153 556 
Q 1347 384 1650 384 
Q 1909 384 2104 503 
Q 2300 622 2425 820 
Q 2550 1019 2634 1356 
Q 2719 1694 2719 2044 
Q 2719 2081 2716 2156 
Q 2547 1888 2255 1720 
Q 1963 1553 1622 1553 
Q 1053 1553 659 1965 
Q 266 2378 266 3053 
Q 266 3750 677 4175 
Q 1088 4600 1706 4600 
Q 2153 4600 2523 4359 
Q 2894 4119 3086 3673 
Q 3278 3228 3278 2384 
Q 3278 1506 3087 986 
Q 2897 466 2520 194 
Q 2144 -78 1638 -78 
Q 1100 -78 759 220 
Q 419 519 350 1059 
z
M 2653 3081 
Q 2653 3566 2395 3850 
Q 2138 4134 1775 4134 
Q 1400 4134 1122 3828 
Q 844 3522 844 3034 
Q 844 2597 1108 2323 
Q 1372 2050 1759 2050 
Q 2150 2050 2401 2323 
Q 2653 2597 2653 3081 
z
" id="ArialMT-39" transform="scale(0.015625)"/>
      <path d="M 303 3981 
L 303 4522 
L 3269 4522 
L 3269 4084 
Q 2831 3619 2401 2847 
Q 1972 2075 1738 1259 
Q 1569 684 1522 0 
L 944 0 
Q 953 541 1156 1306 
Q 1359 2072 1739 2783 
Q 2119 3494 2547 3981 
L 303 3981 
z
" id="ArialMT-37" transform="scale(0.015625)"/>
     </defs>
     <use xlink:href="#ArialMT-46"/>
     <use x="61.083984" xlink:href="#ArialMT-69"/>
     <use x="83.300781" xlink:href="#ArialMT-6e"/>
     <use x="138.916016" xlink:href="#ArialMT-61"/>
     <use x="194.53125" xlink:href="#ArialMT-6c"/>
     <use x="216.748047" xlink:href="#ArialMT-20"/>
     <use x="244.53125" xlink:href="#ArialMT-46"/>
     <use x="305.615234" xlink:href="#ArialMT-6f"/>
     <use x="361.230469" xlink:href="#ArialMT-72"/>
     <use x="394.53125" xlink:href="#ArialMT-65"/>
     <use x="450.146484" xlink:href="#ArialMT-63"/>
     <use x="500.146484" xlink:href="#ArialMT-61"/>
     <use x="555.761719" xlink:href="#ArialMT-73"/>
     <use x="605.761719" xlink:href="#ArialMT-74"/>
     <use x="633.544922" xlink:href="#ArialMT-20"/>
     <use x="661.328125" xlink:href="#ArialMT-2d"/>
     <use x="694.628906" xlink:href="#ArialMT-20"/>
     <use x="722.412109" xlink:href="#ArialMT-45"/>
     <use x="789.111328" xlink:href="#ArialMT-72"/>
     <use x="822.412109" xlink:href="#ArialMT-72"/>
     <use x="855.712891" xlink:href="#ArialMT-6f"/>
     <use x="911.328125" xlink:href="#ArialMT-72"/>
     <use x="944.628906" xlink:href="#ArialMT-3a"/>
     <use x="972.412109" xlink:href="#ArialMT-20"/>
     <use x="1000.195312" xlink:href="#ArialMT-30"/>
     <use x="1055.810547" xlink:href="#ArialMT-2e"/>
     <use x="1083.59375" xlink:href="#ArialMT-31"/>
     <use x="1139.208984" xlink:href="#ArialMT-35"/>
     <use x="1194.824219" xlink:href="#ArialMT-38"/>
     <use x="1250.439453" xlink:href="#ArialMT-39"/>
     <use x="1306.054688" xlink:href="#ArialMT-37"/>
     <use x="1361.669922" xlink:href="#ArialMT-33"/>
     <use x="1417.285156" xlink:href="#ArialMT-39"/>
     <use x="1472.900391" xlink:href="#ArialMT-31"/>
     <use x="1528.515625" xlink:href="#ArialMT-39"/>
     <use x="1584.130859" xlink:href="#ArialMT-38"/>
     <use x="1639.746094" xlink:href="#ArialMT-30"/>
     <use x="1695.361328" xlink:href="#ArialMT-35"/>
     <use x="1750.976562" xlink:href="#ArialMT-38"/>
     <use x="1806.591797" xlink:href="#ArialMT-32"/>
     <use x="1862.207031" xlink:href="#ArialMT-32"/>
     <use x="1917.822266" xlink:href="#ArialMT-31"/>
     <use x="1973.4375" xlink:href="#ArialMT-32"/>
    </g>
   </g>
   <g id="legend_1">
    <g id="patch_7">
     <path d="M 550.176094 250.82 
L 630.623906 250.82 
Q 632.823906 250.82 632.823906 248.62 
L 632.823906 201.710156 
Q 632.823906 199.510156 630.623906 199.510156 
L 550.176094 199.510156 
Q 547.976094 199.510156 547.976094 201.710156 
L 547.976094 248.62 
Q 547.976094 250.82 550.176094 250.82 
z
" style="fill:#eaeaf2;opacity:0.8;stroke:#cccccc;stroke-linejoin:miter;"/>
    </g>
    <g id="text_13">
     <!-- if_original -->
     <g style="fill:#262626;" transform="translate(564.72 212.645781)scale(0.12 -0.12)">
      <defs>
       <path d="M 556 0 
L 556 2881 
L 59 2881 
L 59 3319 
L 556 3319 
L 556 3672 
Q 556 4006 616 4169 
Q 697 4388 901 4523 
Q 1106 4659 1475 4659 
Q 1713 4659 2000 4603 
L 1916 4113 
Q 1741 4144 1584 4144 
Q 1328 4144 1222 4034 
Q 1116 3925 1116 3625 
L 1116 3319 
L 1763 3319 
L 1763 2881 
L 1116 2881 
L 1116 0 
L 556 0 
z
" id="ArialMT-66" transform="scale(0.015625)"/>
       <path d="M -97 -1272 
L -97 -866 
L 3631 -866 
L 3631 -1272 
L -97 -1272 
z
" id="ArialMT-5f" transform="scale(0.015625)"/>
       <path d="M 319 -275 
L 866 -356 
Q 900 -609 1056 -725 
Q 1266 -881 1628 -881 
Q 2019 -881 2231 -725 
Q 2444 -569 2519 -288 
Q 2563 -116 2559 434 
Q 2191 0 1641 0 
Q 956 0 581 494 
Q 206 988 206 1678 
Q 206 2153 378 2554 
Q 550 2956 876 3175 
Q 1203 3394 1644 3394 
Q 2231 3394 2613 2919 
L 2613 3319 
L 3131 3319 
L 3131 450 
Q 3131 -325 2973 -648 
Q 2816 -972 2473 -1159 
Q 2131 -1347 1631 -1347 
Q 1038 -1347 672 -1080 
Q 306 -813 319 -275 
z
M 784 1719 
Q 784 1066 1043 766 
Q 1303 466 1694 466 
Q 2081 466 2343 764 
Q 2606 1063 2606 1700 
Q 2606 2309 2336 2618 
Q 2066 2928 1684 2928 
Q 1309 2928 1046 2623 
Q 784 2319 784 1719 
z
" id="ArialMT-67" transform="scale(0.015625)"/>
      </defs>
      <use xlink:href="#ArialMT-69"/>
      <use x="22.216797" xlink:href="#ArialMT-66"/>
      <use x="50" xlink:href="#ArialMT-5f"/>
      <use x="105.615234" xlink:href="#ArialMT-6f"/>
      <use x="161.230469" xlink:href="#ArialMT-72"/>
      <use x="194.53125" xlink:href="#ArialMT-69"/>
      <use x="216.748047" xlink:href="#ArialMT-67"/>
      <use x="272.363281" xlink:href="#ArialMT-69"/>
      <use x="294.580078" xlink:href="#ArialMT-6e"/>
      <use x="350.195312" xlink:href="#ArialMT-61"/>
      <use x="405.810547" xlink:href="#ArialMT-6c"/>
     </g>
    </g>
    <g id="line2d_24">
     <path d="M 552.376094 224.695 
L 574.376094 224.695 
" style="fill:none;stroke:#4c72b0;stroke-linecap:round;stroke-width:1.5;"/>
    </g>
    <g id="line2d_25">
     <defs>
      <path d="M 0 3 
C 0.795609 3 1.55874 2.683901 2.12132 2.12132 
C 2.683901 1.55874 3 0.795609 3 0 
C 3 -0.795609 2.683901 -1.55874 2.12132 -2.12132 
C 1.55874 -2.683901 0.795609 -3 0 -3 
C -0.795609 -3 -1.55874 -2.683901 -2.12132 -2.12132 
C -2.683901 -1.55874 -3 -0.795609 -3 0 
C -3 0.795609 -2.683901 1.55874 -2.12132 2.12132 
C -1.55874 2.683901 -0.795609 3 0 3 
z
" id="m0ab8b9f4c8" style="stroke:#4c72b0;"/>
     </defs>
     <g>
      <use style="fill:#4c72b0;stroke:#4c72b0;" x="563.376094" xlink:href="#m0ab8b9f4c8" y="224.695"/>
     </g>
    </g>
    <g id="text_14">
     <!-- predicted -->
     <g style="fill:#262626;" transform="translate(583.176094 228.545)scale(0.11 -0.11)">
      <defs>
       <path d="M 422 -1272 
L 422 3319 
L 934 3319 
L 934 2888 
Q 1116 3141 1344 3267 
Q 1572 3394 1897 3394 
Q 2322 3394 2647 3175 
Q 2972 2956 3137 2557 
Q 3303 2159 3303 1684 
Q 3303 1175 3120 767 
Q 2938 359 2589 142 
Q 2241 -75 1856 -75 
Q 1575 -75 1351 44 
Q 1128 163 984 344 
L 984 -1272 
L 422 -1272 
z
M 931 1641 
Q 931 1000 1190 694 
Q 1450 388 1819 388 
Q 2194 388 2461 705 
Q 2728 1022 2728 1688 
Q 2728 2322 2467 2637 
Q 2206 2953 1844 2953 
Q 1484 2953 1207 2617 
Q 931 2281 931 1641 
z
" id="ArialMT-70" transform="scale(0.015625)"/>
      </defs>
      <use xlink:href="#ArialMT-70"/>
      <use x="55.615234" xlink:href="#ArialMT-72"/>
      <use x="88.916016" xlink:href="#ArialMT-65"/>
      <use x="144.53125" xlink:href="#ArialMT-64"/>
      <use x="200.146484" xlink:href="#ArialMT-69"/>
      <use x="222.363281" xlink:href="#ArialMT-63"/>
      <use x="272.363281" xlink:href="#ArialMT-74"/>
      <use x="300.146484" xlink:href="#ArialMT-65"/>
      <use x="355.761719" xlink:href="#ArialMT-64"/>
     </g>
    </g>
    <g id="line2d_26">
     <path d="M 552.376094 240.254844 
L 574.376094 240.254844 
" style="fill:none;stroke:#dd8452;stroke-dasharray:6,2.25;stroke-dashoffset:0;stroke-width:1.5;"/>
    </g>
    <g id="line2d_27">
     <defs>
      <path d="M 0 3 
C 0.795609 3 1.55874 2.683901 2.12132 2.12132 
C 2.683901 1.55874 3 0.795609 3 0 
C 3 -0.795609 2.683901 -1.55874 2.12132 -2.12132 
C 1.55874 -2.683901 0.795609 -3 0 -3 
C -0.795609 -3 -1.55874 -2.683901 -2.12132 -2.12132 
C -2.683901 -1.55874 -3 -0.795609 -3 0 
C -3 0.795609 -2.683901 1.55874 -2.12132 2.12132 
C -1.55874 2.683901 -0.795609 3 0 3 
z
" id="m48e8b83edf" style="stroke:#dd8452;"/>
     </defs>
     <g>
      <use style="fill:#dd8452;stroke:#dd8452;" x="563.376094" xlink:href="#m48e8b83edf" y="240.254844"/>
     </g>
    </g>
    <g id="text_15">
     <!-- original -->
     <g style="fill:#262626;" transform="translate(583.176094 244.104844)scale(0.11 -0.11)">
      <use xlink:href="#ArialMT-6f"/>
      <use x="55.615234" xlink:href="#ArialMT-72"/>
      <use x="88.916016" xlink:href="#ArialMT-69"/>
      <use x="111.132812" xlink:href="#ArialMT-67"/>
      <use x="166.748047" xlink:href="#ArialMT-69"/>
      <use x="188.964844" xlink:href="#ArialMT-6e"/>
      <use x="244.580078" xlink:href="#ArialMT-61"/>
      <use x="300.195312" xlink:href="#ArialMT-6c"/>
     </g>
    </g>
   </g>
  </g>
 </g>
 <defs>
  <clipPath id="p4d64c2b423">
   <rect height="221.76" width="892.8" x="144" y="34.56"/>
  </clipPath>
 </defs>
</svg>
