<?xml version="1.0" encoding="utf-8" standalone="no"?>
<!DOCTYPE svg PUBLIC "-//W3C//DTD SVG 1.1//EN"
  "http://www.w3.org/Graphics/SVG/1.1/DTD/svg11.dtd">
<svg height="288pt" version="1.1" viewBox="0 0 1152 288" width="1152pt" xmlns="http://www.w3.org/2000/svg" xmlns:xlink="http://www.w3.org/1999/xlink">
 <metadata>
  <rdf:RDF xmlns:cc="http://creativecommons.org/ns#" xmlns:dc="http://purl.org/dc/elements/1.1/" xmlns:rdf="http://www.w3.org/1999/02/22-rdf-syntax-ns#">
   <cc:Work>
    <dc:type rdf:resource="http://purl.org/dc/dcmitype/StillImage"/>
    <dc:date>2021-11-16T22:03:50.671972</dc:date>
    <dc:format>image/svg+xml</dc:format>
    <dc:creator>
     <cc:Agent>
      <dc:title>Matplotlib v3.4.3, https://matplotlib.org/</dc:title>
     </cc:Agent>
    </dc:creator>
   </cc:Work>
  </rdf:RDF>
 </metadata>
 <defs>
  <style type="text/css">*{stroke-linecap:butt;stroke-linejoin:round;}</style>
 </defs>
 <g id="figure_1">
  <g id="patch_1">
   <path d="M 0 288 
L 1152 288 
L 1152 0 
L 0 0 
z
" style="fill:#ffffff;"/>
  </g>
  <g id="axes_1">
   <g id="patch_2">
    <path d="M 144 256.32 
L 1036.8 256.32 
L 1036.8 34.56 
L 144 34.56 
z
" style="fill:#eaeaf2;"/>
   </g>
   <g id="matplotlib.axis_1">
    <g id="xtick_1">
     <g id="line2d_1">
      <path clip-path="url(#p7a5bba4899)" d="M 184.581818 256.32 
L 184.581818 34.56 
" style="fill:none;stroke:#ffffff;stroke-linecap:round;"/>
     </g>
     <g id="text_1">
      <!-- 2013-01 -->
      <g style="fill:#262626;" transform="translate(164.399396 273.693594)scale(0.11 -0.11)">
       <defs>
        <path d="M 3222 541 
L 3222 0 
L 194 0 
Q 188 203 259 391 
Q 375 700 629 1000 
Q 884 1300 1366 1694 
Q 2113 2306 2375 2664 
Q 2638 3022 2638 3341 
Q 2638 3675 2398 3904 
Q 2159 4134 1775 4134 
Q 1369 4134 1125 3890 
Q 881 3647 878 3216 
L 300 3275 
Q 359 3922 746 4261 
Q 1134 4600 1788 4600 
Q 2447 4600 2831 4234 
Q 3216 3869 3216 3328 
Q 3216 3053 3103 2787 
Q 2991 2522 2730 2228 
Q 2469 1934 1863 1422 
Q 1356 997 1212 845 
Q 1069 694 975 541 
L 3222 541 
z
" id="ArialMT-32" transform="scale(0.015625)"/>
        <path d="M 266 2259 
Q 266 3072 433 3567 
Q 600 4063 929 4331 
Q 1259 4600 1759 4600 
Q 2128 4600 2406 4451 
Q 2684 4303 2865 4023 
Q 3047 3744 3150 3342 
Q 3253 2941 3253 2259 
Q 3253 1453 3087 958 
Q 2922 463 2592 192 
Q 2263 -78 1759 -78 
Q 1097 -78 719 397 
Q 266 969 266 2259 
z
M 844 2259 
Q 844 1131 1108 757 
Q 1372 384 1759 384 
Q 2147 384 2411 759 
Q 2675 1134 2675 2259 
Q 2675 3391 2411 3762 
Q 2147 4134 1753 4134 
Q 1366 4134 1134 3806 
Q 844 3388 844 2259 
z
" id="ArialMT-30" transform="scale(0.015625)"/>
        <path d="M 2384 0 
L 1822 0 
L 1822 3584 
Q 1619 3391 1289 3197 
Q 959 3003 697 2906 
L 697 3450 
Q 1169 3672 1522 3987 
Q 1875 4303 2022 4600 
L 2384 4600 
L 2384 0 
z
" id="ArialMT-31" transform="scale(0.015625)"/>
        <path d="M 269 1209 
L 831 1284 
Q 928 806 1161 595 
Q 1394 384 1728 384 
Q 2125 384 2398 659 
Q 2672 934 2672 1341 
Q 2672 1728 2419 1979 
Q 2166 2231 1775 2231 
Q 1616 2231 1378 2169 
L 1441 2663 
Q 1497 2656 1531 2656 
Q 1891 2656 2178 2843 
Q 2466 3031 2466 3422 
Q 2466 3731 2256 3934 
Q 2047 4138 1716 4138 
Q 1388 4138 1169 3931 
Q 950 3725 888 3313 
L 325 3413 
Q 428 3978 793 4289 
Q 1159 4600 1703 4600 
Q 2078 4600 2393 4439 
Q 2709 4278 2876 4000 
Q 3044 3722 3044 3409 
Q 3044 3113 2884 2869 
Q 2725 2625 2413 2481 
Q 2819 2388 3044 2092 
Q 3269 1797 3269 1353 
Q 3269 753 2831 336 
Q 2394 -81 1725 -81 
Q 1122 -81 723 278 
Q 325 638 269 1209 
z
" id="ArialMT-33" transform="scale(0.015625)"/>
        <path d="M 203 1375 
L 203 1941 
L 1931 1941 
L 1931 1375 
L 203 1375 
z
" id="ArialMT-2d" transform="scale(0.015625)"/>
       </defs>
       <use xlink:href="#ArialMT-32"/>
       <use x="55.615234" xlink:href="#ArialMT-30"/>
       <use x="111.230469" xlink:href="#ArialMT-31"/>
       <use x="166.845703" xlink:href="#ArialMT-33"/>
       <use x="222.460938" xlink:href="#ArialMT-2d"/>
       <use x="255.761719" xlink:href="#ArialMT-30"/>
       <use x="311.376953" xlink:href="#ArialMT-31"/>
      </g>
     </g>
    </g>
    <g id="xtick_2">
     <g id="line2d_2">
      <path clip-path="url(#p7a5bba4899)" d="M 278.95814 256.32 
L 278.95814 34.56 
" style="fill:none;stroke:#ffffff;stroke-linecap:round;"/>
     </g>
     <g id="text_2">
      <!-- 2013-06 -->
      <g style="fill:#262626;" transform="translate(258.775718 273.693594)scale(0.11 -0.11)">
       <defs>
        <path d="M 3184 3459 
L 2625 3416 
Q 2550 3747 2413 3897 
Q 2184 4138 1850 4138 
Q 1581 4138 1378 3988 
Q 1113 3794 959 3422 
Q 806 3050 800 2363 
Q 1003 2672 1297 2822 
Q 1591 2972 1913 2972 
Q 2475 2972 2870 2558 
Q 3266 2144 3266 1488 
Q 3266 1056 3080 686 
Q 2894 316 2569 119 
Q 2244 -78 1831 -78 
Q 1128 -78 684 439 
Q 241 956 241 2144 
Q 241 3472 731 4075 
Q 1159 4600 1884 4600 
Q 2425 4600 2770 4297 
Q 3116 3994 3184 3459 
z
M 888 1484 
Q 888 1194 1011 928 
Q 1134 663 1356 523 
Q 1578 384 1822 384 
Q 2178 384 2434 671 
Q 2691 959 2691 1453 
Q 2691 1928 2437 2201 
Q 2184 2475 1800 2475 
Q 1419 2475 1153 2201 
Q 888 1928 888 1484 
z
" id="ArialMT-36" transform="scale(0.015625)"/>
       </defs>
       <use xlink:href="#ArialMT-32"/>
       <use x="55.615234" xlink:href="#ArialMT-30"/>
       <use x="111.230469" xlink:href="#ArialMT-31"/>
       <use x="166.845703" xlink:href="#ArialMT-33"/>
       <use x="222.460938" xlink:href="#ArialMT-2d"/>
       <use x="255.761719" xlink:href="#ArialMT-30"/>
       <use x="311.376953" xlink:href="#ArialMT-36"/>
      </g>
     </g>
    </g>
    <g id="xtick_3">
     <g id="line2d_3">
      <path clip-path="url(#p7a5bba4899)" d="M 373.334461 256.32 
L 373.334461 34.56 
" style="fill:none;stroke:#ffffff;stroke-linecap:round;"/>
     </g>
     <g id="text_3">
      <!-- 2013-11 -->
      <g style="fill:#262626;" transform="translate(353.557664 273.693594)scale(0.11 -0.11)">
       <use xlink:href="#ArialMT-32"/>
       <use x="55.615234" xlink:href="#ArialMT-30"/>
       <use x="111.230469" xlink:href="#ArialMT-31"/>
       <use x="166.845703" xlink:href="#ArialMT-33"/>
       <use x="222.460938" xlink:href="#ArialMT-2d"/>
       <use x="255.761719" xlink:href="#ArialMT-31"/>
       <use x="304.001953" xlink:href="#ArialMT-31"/>
      </g>
     </g>
    </g>
    <g id="xtick_4">
     <g id="line2d_4">
      <path clip-path="url(#p7a5bba4899)" d="M 467.710782 256.32 
L 467.710782 34.56 
" style="fill:none;stroke:#ffffff;stroke-linecap:round;"/>
     </g>
     <g id="text_4">
      <!-- 2014-04 -->
      <g style="fill:#262626;" transform="translate(447.52836 273.693594)scale(0.11 -0.11)">
       <defs>
        <path d="M 2069 0 
L 2069 1097 
L 81 1097 
L 81 1613 
L 2172 4581 
L 2631 4581 
L 2631 1613 
L 3250 1613 
L 3250 1097 
L 2631 1097 
L 2631 0 
L 2069 0 
z
M 2069 1613 
L 2069 3678 
L 634 1613 
L 2069 1613 
z
" id="ArialMT-34" transform="scale(0.015625)"/>
       </defs>
       <use xlink:href="#ArialMT-32"/>
       <use x="55.615234" xlink:href="#ArialMT-30"/>
       <use x="111.230469" xlink:href="#ArialMT-31"/>
       <use x="166.845703" xlink:href="#ArialMT-34"/>
       <use x="222.460938" xlink:href="#ArialMT-2d"/>
       <use x="255.761719" xlink:href="#ArialMT-30"/>
       <use x="311.376953" xlink:href="#ArialMT-34"/>
      </g>
     </g>
    </g>
    <g id="xtick_5">
     <g id="line2d_5">
      <path clip-path="url(#p7a5bba4899)" d="M 562.087104 256.32 
L 562.087104 34.56 
" style="fill:none;stroke:#ffffff;stroke-linecap:round;"/>
     </g>
     <g id="text_5">
      <!-- 2014-09 -->
      <g style="fill:#262626;" transform="translate(541.904682 273.693594)scale(0.11 -0.11)">
       <defs>
        <path d="M 350 1059 
L 891 1109 
Q 959 728 1153 556 
Q 1347 384 1650 384 
Q 1909 384 2104 503 
Q 2300 622 2425 820 
Q 2550 1019 2634 1356 
Q 2719 1694 2719 2044 
Q 2719 2081 2716 2156 
Q 2547 1888 2255 1720 
Q 1963 1553 1622 1553 
Q 1053 1553 659 1965 
Q 266 2378 266 3053 
Q 266 3750 677 4175 
Q 1088 4600 1706 4600 
Q 2153 4600 2523 4359 
Q 2894 4119 3086 3673 
Q 3278 3228 3278 2384 
Q 3278 1506 3087 986 
Q 2897 466 2520 194 
Q 2144 -78 1638 -78 
Q 1100 -78 759 220 
Q 419 519 350 1059 
z
M 2653 3081 
Q 2653 3566 2395 3850 
Q 2138 4134 1775 4134 
Q 1400 4134 1122 3828 
Q 844 3522 844 3034 
Q 844 2597 1108 2323 
Q 1372 2050 1759 2050 
Q 2150 2050 2401 2323 
Q 2653 2597 2653 3081 
z
" id="ArialMT-39" transform="scale(0.015625)"/>
       </defs>
       <use xlink:href="#ArialMT-32"/>
       <use x="55.615234" xlink:href="#ArialMT-30"/>
       <use x="111.230469" xlink:href="#ArialMT-31"/>
       <use x="166.845703" xlink:href="#ArialMT-34"/>
       <use x="222.460938" xlink:href="#ArialMT-2d"/>
       <use x="255.761719" xlink:href="#ArialMT-30"/>
       <use x="311.376953" xlink:href="#ArialMT-39"/>
      </g>
     </g>
    </g>
    <g id="xtick_6">
     <g id="line2d_6">
      <path clip-path="url(#p7a5bba4899)" d="M 656.463425 256.32 
L 656.463425 34.56 
" style="fill:none;stroke:#ffffff;stroke-linecap:round;"/>
     </g>
     <g id="text_6">
      <!-- 2015-02 -->
      <g style="fill:#262626;" transform="translate(636.281003 273.693594)scale(0.11 -0.11)">
       <defs>
        <path d="M 266 1200 
L 856 1250 
Q 922 819 1161 601 
Q 1400 384 1738 384 
Q 2144 384 2425 690 
Q 2706 997 2706 1503 
Q 2706 1984 2436 2262 
Q 2166 2541 1728 2541 
Q 1456 2541 1237 2417 
Q 1019 2294 894 2097 
L 366 2166 
L 809 4519 
L 3088 4519 
L 3088 3981 
L 1259 3981 
L 1013 2750 
Q 1425 3038 1878 3038 
Q 2478 3038 2890 2622 
Q 3303 2206 3303 1553 
Q 3303 931 2941 478 
Q 2500 -78 1738 -78 
Q 1113 -78 717 272 
Q 322 622 266 1200 
z
" id="ArialMT-35" transform="scale(0.015625)"/>
       </defs>
       <use xlink:href="#ArialMT-32"/>
       <use x="55.615234" xlink:href="#ArialMT-30"/>
       <use x="111.230469" xlink:href="#ArialMT-31"/>
       <use x="166.845703" xlink:href="#ArialMT-35"/>
       <use x="222.460938" xlink:href="#ArialMT-2d"/>
       <use x="255.761719" xlink:href="#ArialMT-30"/>
       <use x="311.376953" xlink:href="#ArialMT-32"/>
      </g>
     </g>
    </g>
    <g id="xtick_7">
     <g id="line2d_7">
      <path clip-path="url(#p7a5bba4899)" d="M 750.839746 256.32 
L 750.839746 34.56 
" style="fill:none;stroke:#ffffff;stroke-linecap:round;"/>
     </g>
     <g id="text_7">
      <!-- 2015-07 -->
      <g style="fill:#262626;" transform="translate(730.657324 273.693594)scale(0.11 -0.11)">
       <defs>
        <path d="M 303 3981 
L 303 4522 
L 3269 4522 
L 3269 4084 
Q 2831 3619 2401 2847 
Q 1972 2075 1738 1259 
Q 1569 684 1522 0 
L 944 0 
Q 953 541 1156 1306 
Q 1359 2072 1739 2783 
Q 2119 3494 2547 3981 
L 303 3981 
z
" id="ArialMT-37" transform="scale(0.015625)"/>
       </defs>
       <use xlink:href="#ArialMT-32"/>
       <use x="55.615234" xlink:href="#ArialMT-30"/>
       <use x="111.230469" xlink:href="#ArialMT-31"/>
       <use x="166.845703" xlink:href="#ArialMT-35"/>
       <use x="222.460938" xlink:href="#ArialMT-2d"/>
       <use x="255.761719" xlink:href="#ArialMT-30"/>
       <use x="311.376953" xlink:href="#ArialMT-37"/>
      </g>
     </g>
    </g>
    <g id="xtick_8">
     <g id="line2d_8">
      <path clip-path="url(#p7a5bba4899)" d="M 845.216068 256.32 
L 845.216068 34.56 
" style="fill:none;stroke:#ffffff;stroke-linecap:round;"/>
     </g>
     <g id="text_8">
      <!-- 2015-12 -->
      <g style="fill:#262626;" transform="translate(825.033646 273.693594)scale(0.11 -0.11)">
       <use xlink:href="#ArialMT-32"/>
       <use x="55.615234" xlink:href="#ArialMT-30"/>
       <use x="111.230469" xlink:href="#ArialMT-31"/>
       <use x="166.845703" xlink:href="#ArialMT-35"/>
       <use x="222.460938" xlink:href="#ArialMT-2d"/>
       <use x="255.761719" xlink:href="#ArialMT-31"/>
       <use x="311.376953" xlink:href="#ArialMT-32"/>
      </g>
     </g>
    </g>
    <g id="xtick_9">
     <g id="line2d_9">
      <path clip-path="url(#p7a5bba4899)" d="M 939.592389 256.32 
L 939.592389 34.56 
" style="fill:none;stroke:#ffffff;stroke-linecap:round;"/>
     </g>
     <g id="text_9">
      <!-- 2016-05 -->
      <g style="fill:#262626;" transform="translate(919.409967 273.693594)scale(0.11 -0.11)">
       <use xlink:href="#ArialMT-32"/>
       <use x="55.615234" xlink:href="#ArialMT-30"/>
       <use x="111.230469" xlink:href="#ArialMT-31"/>
       <use x="166.845703" xlink:href="#ArialMT-36"/>
       <use x="222.460938" xlink:href="#ArialMT-2d"/>
       <use x="255.761719" xlink:href="#ArialMT-30"/>
       <use x="311.376953" xlink:href="#ArialMT-35"/>
      </g>
     </g>
    </g>
    <g id="xtick_10">
     <g id="line2d_10">
      <path clip-path="url(#p7a5bba4899)" d="M 1033.96871 256.32 
L 1033.96871 34.56 
" style="fill:none;stroke:#ffffff;stroke-linecap:round;"/>
     </g>
    </g>
   </g>
   <g id="matplotlib.axis_2">
    <g id="ytick_1">
     <g id="line2d_11">
      <path clip-path="url(#p7a5bba4899)" d="M 144 252.074857 
L 1036.8 252.074857 
" style="fill:none;stroke:#ffffff;stroke-linecap:round;"/>
     </g>
     <g id="text_10">
      <!-- −100000 -->
      <g style="fill:#262626;" transform="translate(91.373125 256.011654)scale(0.11 -0.11)">
       <defs>
        <path d="M 3381 1997 
L 356 1997 
L 356 2522 
L 3381 2522 
L 3381 1997 
z
" id="ArialMT-2212" transform="scale(0.015625)"/>
       </defs>
       <use xlink:href="#ArialMT-2212"/>
       <use x="58.398438" xlink:href="#ArialMT-31"/>
       <use x="114.013672" xlink:href="#ArialMT-30"/>
       <use x="169.628906" xlink:href="#ArialMT-30"/>
       <use x="225.244141" xlink:href="#ArialMT-30"/>
       <use x="280.859375" xlink:href="#ArialMT-30"/>
       <use x="336.474609" xlink:href="#ArialMT-30"/>
      </g>
     </g>
    </g>
    <g id="ytick_2">
     <g id="line2d_12">
      <path clip-path="url(#p7a5bba4899)" d="M 144 206.049977 
L 1036.8 206.049977 
" style="fill:none;stroke:#ffffff;stroke-linecap:round;"/>
     </g>
     <g id="text_11">
      <!-- 0 -->
      <g style="fill:#262626;" transform="translate(128.382969 209.986774)scale(0.11 -0.11)">
       <use xlink:href="#ArialMT-30"/>
      </g>
     </g>
    </g>
    <g id="ytick_3">
     <g id="line2d_13">
      <path clip-path="url(#p7a5bba4899)" d="M 144 160.025096 
L 1036.8 160.025096 
" style="fill:none;stroke:#ffffff;stroke-linecap:round;"/>
     </g>
     <g id="text_12">
      <!-- 100000 -->
      <g style="fill:#262626;" transform="translate(97.797812 163.961893)scale(0.11 -0.11)">
       <use xlink:href="#ArialMT-31"/>
       <use x="55.615234" xlink:href="#ArialMT-30"/>
       <use x="111.230469" xlink:href="#ArialMT-30"/>
       <use x="166.845703" xlink:href="#ArialMT-30"/>
       <use x="222.460938" xlink:href="#ArialMT-30"/>
       <use x="278.076172" xlink:href="#ArialMT-30"/>
      </g>
     </g>
    </g>
    <g id="ytick_4">
     <g id="line2d_14">
      <path clip-path="url(#p7a5bba4899)" d="M 144 114.000215 
L 1036.8 114.000215 
" style="fill:none;stroke:#ffffff;stroke-linecap:round;"/>
     </g>
     <g id="text_13">
      <!-- 200000 -->
      <g style="fill:#262626;" transform="translate(97.797812 117.937012)scale(0.11 -0.11)">
       <use xlink:href="#ArialMT-32"/>
       <use x="55.615234" xlink:href="#ArialMT-30"/>
       <use x="111.230469" xlink:href="#ArialMT-30"/>
       <use x="166.845703" xlink:href="#ArialMT-30"/>
       <use x="222.460938" xlink:href="#ArialMT-30"/>
       <use x="278.076172" xlink:href="#ArialMT-30"/>
      </g>
     </g>
    </g>
    <g id="ytick_5">
     <g id="line2d_15">
      <path clip-path="url(#p7a5bba4899)" d="M 144 67.975335 
L 1036.8 67.975335 
" style="fill:none;stroke:#ffffff;stroke-linecap:round;"/>
     </g>
     <g id="text_14">
      <!-- 300000 -->
      <g style="fill:#262626;" transform="translate(97.797812 71.912132)scale(0.11 -0.11)">
       <use xlink:href="#ArialMT-33"/>
       <use x="55.615234" xlink:href="#ArialMT-30"/>
       <use x="111.230469" xlink:href="#ArialMT-30"/>
       <use x="166.845703" xlink:href="#ArialMT-30"/>
       <use x="222.460938" xlink:href="#ArialMT-30"/>
       <use x="278.076172" xlink:href="#ArialMT-30"/>
      </g>
     </g>
    </g>
    <g id="text_15">
     <!-- sales -->
     <g style="fill:#262626;" transform="translate(84.988125 159.44625)rotate(-90)scale(0.12 -0.12)">
      <defs>
       <path d="M 197 991 
L 753 1078 
Q 800 744 1014 566 
Q 1228 388 1613 388 
Q 2000 388 2187 545 
Q 2375 703 2375 916 
Q 2375 1106 2209 1216 
Q 2094 1291 1634 1406 
Q 1016 1563 777 1677 
Q 538 1791 414 1992 
Q 291 2194 291 2438 
Q 291 2659 392 2848 
Q 494 3038 669 3163 
Q 800 3259 1026 3326 
Q 1253 3394 1513 3394 
Q 1903 3394 2198 3281 
Q 2494 3169 2634 2976 
Q 2775 2784 2828 2463 
L 2278 2388 
Q 2241 2644 2061 2787 
Q 1881 2931 1553 2931 
Q 1166 2931 1000 2803 
Q 834 2675 834 2503 
Q 834 2394 903 2306 
Q 972 2216 1119 2156 
Q 1203 2125 1616 2013 
Q 2213 1853 2448 1751 
Q 2684 1650 2818 1456 
Q 2953 1263 2953 975 
Q 2953 694 2789 445 
Q 2625 197 2315 61 
Q 2006 -75 1616 -75 
Q 969 -75 630 194 
Q 291 463 197 991 
z
" id="ArialMT-73" transform="scale(0.015625)"/>
       <path d="M 2588 409 
Q 2275 144 1986 34 
Q 1697 -75 1366 -75 
Q 819 -75 525 192 
Q 231 459 231 875 
Q 231 1119 342 1320 
Q 453 1522 633 1644 
Q 813 1766 1038 1828 
Q 1203 1872 1538 1913 
Q 2219 1994 2541 2106 
Q 2544 2222 2544 2253 
Q 2544 2597 2384 2738 
Q 2169 2928 1744 2928 
Q 1347 2928 1158 2789 
Q 969 2650 878 2297 
L 328 2372 
Q 403 2725 575 2942 
Q 747 3159 1072 3276 
Q 1397 3394 1825 3394 
Q 2250 3394 2515 3294 
Q 2781 3194 2906 3042 
Q 3031 2891 3081 2659 
Q 3109 2516 3109 2141 
L 3109 1391 
Q 3109 606 3145 398 
Q 3181 191 3288 0 
L 2700 0 
Q 2613 175 2588 409 
z
M 2541 1666 
Q 2234 1541 1622 1453 
Q 1275 1403 1131 1340 
Q 988 1278 909 1158 
Q 831 1038 831 891 
Q 831 666 1001 516 
Q 1172 366 1500 366 
Q 1825 366 2078 508 
Q 2331 650 2450 897 
Q 2541 1088 2541 1459 
L 2541 1666 
z
" id="ArialMT-61" transform="scale(0.015625)"/>
       <path d="M 409 0 
L 409 4581 
L 972 4581 
L 972 0 
L 409 0 
z
" id="ArialMT-6c" transform="scale(0.015625)"/>
       <path d="M 2694 1069 
L 3275 997 
Q 3138 488 2766 206 
Q 2394 -75 1816 -75 
Q 1088 -75 661 373 
Q 234 822 234 1631 
Q 234 2469 665 2931 
Q 1097 3394 1784 3394 
Q 2450 3394 2872 2941 
Q 3294 2488 3294 1666 
Q 3294 1616 3291 1516 
L 816 1516 
Q 847 969 1125 678 
Q 1403 388 1819 388 
Q 2128 388 2347 550 
Q 2566 713 2694 1069 
z
M 847 1978 
L 2700 1978 
Q 2663 2397 2488 2606 
Q 2219 2931 1791 2931 
Q 1403 2931 1139 2672 
Q 875 2413 847 1978 
z
" id="ArialMT-65" transform="scale(0.015625)"/>
      </defs>
      <use xlink:href="#ArialMT-73"/>
      <use x="50" xlink:href="#ArialMT-61"/>
      <use x="105.615234" xlink:href="#ArialMT-6c"/>
      <use x="127.832031" xlink:href="#ArialMT-65"/>
      <use x="183.447266" xlink:href="#ArialMT-73"/>
     </g>
    </g>
   </g>
   <g id="line2d_16">
    <path clip-path="url(#p7a5bba4899)" d="M 184.581818 133.853416 
L 203.457082 146.303085 
L 222.332347 136.245776 
L 241.207611 134.320893 
L 260.082875 134.72722 
L 278.95814 135.147991 
L 297.833404 133.902654 
L 316.708668 137.388535 
L 335.583932 136.057419 
L 354.459197 130.377837 
L 373.334461 126.845938 
L 392.209725 115.389779 
L 411.084989 71.811623 
L 429.960254 132.659393 
L 448.835518 79.981134 
L 467.710782 126.363238 
L 486.586047 122.557045 
L 505.461311 124.783423 
L 524.336575 73.150252 
L 543.211839 125.825048 
L 562.087104 73.707788 
L 580.962368 68.554932 
L 599.837632 79.393649 
L 618.712896 59.22435 
L 637.588161 117.133127 
L 656.463425 130.193863 
L 675.338689 115.492276 
L 694.213953 118.814366 
L 713.089218 109.414336 
L 731.964482 65.695 
L 750.839746 66.775529 
L 769.715011 71.190494 
L 788.590275 62.622822 
L 807.465539 61.240464 
L 826.340803 72.409473 
L 845.216068 45.374819 
L 864.091332 61.670617 
L 882.966596 73.252313 
L 901.84186 61.674625 
L 920.717125 44.64 
L 939.592389 62.326519 
L 958.467653 64.444671 
L 977.342918 64.76134 
L 996.218182 68.750539 
" style="fill:none;stroke:#0173b2;stroke-linecap:round;stroke-width:1.5;"/>
    <defs>
     <path d="M 0 3 
C 0.795609 3 1.55874 2.683901 2.12132 2.12132 
C 2.683901 1.55874 3 0.795609 3 0 
C 3 -0.795609 2.683901 -1.55874 2.12132 -2.12132 
C 1.55874 -2.683901 0.795609 -3 0 -3 
C -0.795609 -3 -1.55874 -2.683901 -2.12132 -2.12132 
C -2.683901 -1.55874 -3 -0.795609 -3 0 
C -3 0.795609 -2.683901 1.55874 -2.12132 2.12132 
C -1.55874 2.683901 -0.795609 3 0 3 
z
" id="mdeba3b8ee4" style="stroke:#ffffff;stroke-width:0.75;"/>
    </defs>
    <g clip-path="url(#p7a5bba4899)">
     <use style="fill:#0173b2;stroke:#ffffff;stroke-width:0.75;" x="184.581818" xlink:href="#mdeba3b8ee4" y="133.853416"/>
     <use style="fill:#0173b2;stroke:#ffffff;stroke-width:0.75;" x="203.457082" xlink:href="#mdeba3b8ee4" y="146.303085"/>
     <use style="fill:#0173b2;stroke:#ffffff;stroke-width:0.75;" x="222.332347" xlink:href="#mdeba3b8ee4" y="136.245776"/>
     <use style="fill:#0173b2;stroke:#ffffff;stroke-width:0.75;" x="241.207611" xlink:href="#mdeba3b8ee4" y="134.320893"/>
     <use style="fill:#0173b2;stroke:#ffffff;stroke-width:0.75;" x="260.082875" xlink:href="#mdeba3b8ee4" y="134.72722"/>
     <use style="fill:#0173b2;stroke:#ffffff;stroke-width:0.75;" x="278.95814" xlink:href="#mdeba3b8ee4" y="135.147991"/>
     <use style="fill:#0173b2;stroke:#ffffff;stroke-width:0.75;" x="297.833404" xlink:href="#mdeba3b8ee4" y="133.902654"/>
     <use style="fill:#0173b2;stroke:#ffffff;stroke-width:0.75;" x="316.708668" xlink:href="#mdeba3b8ee4" y="137.388535"/>
     <use style="fill:#0173b2;stroke:#ffffff;stroke-width:0.75;" x="335.583932" xlink:href="#mdeba3b8ee4" y="136.057419"/>
     <use style="fill:#0173b2;stroke:#ffffff;stroke-width:0.75;" x="354.459197" xlink:href="#mdeba3b8ee4" y="130.377837"/>
     <use style="fill:#0173b2;stroke:#ffffff;stroke-width:0.75;" x="373.334461" xlink:href="#mdeba3b8ee4" y="126.845938"/>
     <use style="fill:#0173b2;stroke:#ffffff;stroke-width:0.75;" x="392.209725" xlink:href="#mdeba3b8ee4" y="115.389779"/>
     <use style="fill:#0173b2;stroke:#ffffff;stroke-width:0.75;" x="411.084989" xlink:href="#mdeba3b8ee4" y="71.811623"/>
     <use style="fill:#0173b2;stroke:#ffffff;stroke-width:0.75;" x="429.960254" xlink:href="#mdeba3b8ee4" y="132.659393"/>
     <use style="fill:#0173b2;stroke:#ffffff;stroke-width:0.75;" x="448.835518" xlink:href="#mdeba3b8ee4" y="79.981134"/>
     <use style="fill:#0173b2;stroke:#ffffff;stroke-width:0.75;" x="467.710782" xlink:href="#mdeba3b8ee4" y="126.363238"/>
     <use style="fill:#0173b2;stroke:#ffffff;stroke-width:0.75;" x="486.586047" xlink:href="#mdeba3b8ee4" y="122.557045"/>
     <use style="fill:#0173b2;stroke:#ffffff;stroke-width:0.75;" x="505.461311" xlink:href="#mdeba3b8ee4" y="124.783423"/>
     <use style="fill:#0173b2;stroke:#ffffff;stroke-width:0.75;" x="524.336575" xlink:href="#mdeba3b8ee4" y="73.150252"/>
     <use style="fill:#0173b2;stroke:#ffffff;stroke-width:0.75;" x="543.211839" xlink:href="#mdeba3b8ee4" y="125.825048"/>
     <use style="fill:#0173b2;stroke:#ffffff;stroke-width:0.75;" x="562.087104" xlink:href="#mdeba3b8ee4" y="73.707788"/>
     <use style="fill:#0173b2;stroke:#ffffff;stroke-width:0.75;" x="580.962368" xlink:href="#mdeba3b8ee4" y="68.554932"/>
     <use style="fill:#0173b2;stroke:#ffffff;stroke-width:0.75;" x="599.837632" xlink:href="#mdeba3b8ee4" y="79.393649"/>
     <use style="fill:#0173b2;stroke:#ffffff;stroke-width:0.75;" x="618.712896" xlink:href="#mdeba3b8ee4" y="59.22435"/>
     <use style="fill:#0173b2;stroke:#ffffff;stroke-width:0.75;" x="637.588161" xlink:href="#mdeba3b8ee4" y="117.133127"/>
     <use style="fill:#0173b2;stroke:#ffffff;stroke-width:0.75;" x="656.463425" xlink:href="#mdeba3b8ee4" y="130.193863"/>
     <use style="fill:#0173b2;stroke:#ffffff;stroke-width:0.75;" x="675.338689" xlink:href="#mdeba3b8ee4" y="115.492276"/>
     <use style="fill:#0173b2;stroke:#ffffff;stroke-width:0.75;" x="694.213953" xlink:href="#mdeba3b8ee4" y="118.814366"/>
     <use style="fill:#0173b2;stroke:#ffffff;stroke-width:0.75;" x="713.089218" xlink:href="#mdeba3b8ee4" y="109.414336"/>
     <use style="fill:#0173b2;stroke:#ffffff;stroke-width:0.75;" x="731.964482" xlink:href="#mdeba3b8ee4" y="65.695"/>
     <use style="fill:#0173b2;stroke:#ffffff;stroke-width:0.75;" x="750.839746" xlink:href="#mdeba3b8ee4" y="66.775529"/>
     <use style="fill:#0173b2;stroke:#ffffff;stroke-width:0.75;" x="769.715011" xlink:href="#mdeba3b8ee4" y="71.190494"/>
     <use style="fill:#0173b2;stroke:#ffffff;stroke-width:0.75;" x="788.590275" xlink:href="#mdeba3b8ee4" y="62.622822"/>
     <use style="fill:#0173b2;stroke:#ffffff;stroke-width:0.75;" x="807.465539" xlink:href="#mdeba3b8ee4" y="61.240464"/>
     <use style="fill:#0173b2;stroke:#ffffff;stroke-width:0.75;" x="826.340803" xlink:href="#mdeba3b8ee4" y="72.409473"/>
     <use style="fill:#0173b2;stroke:#ffffff;stroke-width:0.75;" x="845.216068" xlink:href="#mdeba3b8ee4" y="45.374819"/>
     <use style="fill:#0173b2;stroke:#ffffff;stroke-width:0.75;" x="864.091332" xlink:href="#mdeba3b8ee4" y="61.670617"/>
     <use style="fill:#0173b2;stroke:#ffffff;stroke-width:0.75;" x="882.966596" xlink:href="#mdeba3b8ee4" y="73.252313"/>
     <use style="fill:#0173b2;stroke:#ffffff;stroke-width:0.75;" x="901.84186" xlink:href="#mdeba3b8ee4" y="61.674625"/>
     <use style="fill:#0173b2;stroke:#ffffff;stroke-width:0.75;" x="920.717125" xlink:href="#mdeba3b8ee4" y="44.64"/>
     <use style="fill:#0173b2;stroke:#ffffff;stroke-width:0.75;" x="939.592389" xlink:href="#mdeba3b8ee4" y="62.326519"/>
     <use style="fill:#0173b2;stroke:#ffffff;stroke-width:0.75;" x="958.467653" xlink:href="#mdeba3b8ee4" y="64.444671"/>
     <use style="fill:#0173b2;stroke:#ffffff;stroke-width:0.75;" x="977.342918" xlink:href="#mdeba3b8ee4" y="64.76134"/>
     <use style="fill:#0173b2;stroke:#ffffff;stroke-width:0.75;" x="996.218182" xlink:href="#mdeba3b8ee4" y="68.750539"/>
    </g>
   </g>
   <g id="line2d_17">
    <path clip-path="url(#p7a5bba4899)" d="M 184.581818 141.348107 
L 203.457082 139.294336 
L 222.332347 137.240565 
L 241.207611 135.186795 
L 260.082875 133.133024 
L 278.95814 131.079253 
L 297.833404 129.025482 
L 316.708668 126.971712 
L 335.583932 124.917941 
L 354.459197 122.86417 
L 373.334461 120.8104 
L 392.209725 118.756629 
L 411.084989 116.702858 
L 429.960254 114.649088 
L 448.835518 112.595317 
L 467.710782 110.541546 
L 486.586047 108.487776 
L 505.461311 106.434005 
L 524.336575 104.380234 
L 543.211839 102.326463 
L 562.087104 100.272693 
L 580.962368 98.218922 
L 599.837632 96.165151 
L 618.712896 94.111381 
L 637.588161 92.05761 
L 656.463425 90.003839 
L 675.338689 87.950069 
L 694.213953 85.896298 
L 713.089218 83.842527 
L 731.964482 81.788757 
L 750.839746 79.734986 
L 769.715011 77.681215 
L 788.590275 75.627444 
L 807.465539 73.573674 
L 826.340803 71.519903 
L 845.216068 69.466132 
L 864.091332 67.412362 
L 882.966596 65.358591 
L 901.84186 63.30482 
L 920.717125 61.25105 
L 939.592389 59.197279 
L 958.467653 57.143508 
L 977.342918 55.089738 
L 996.218182 53.035967 
" style="fill:none;stroke:#de8f05;stroke-linecap:round;stroke-width:1.5;"/>
    <defs>
     <path d="M 0 3 
C 0.795609 3 1.55874 2.683901 2.12132 2.12132 
C 2.683901 1.55874 3 0.795609 3 0 
C 3 -0.795609 2.683901 -1.55874 2.12132 -2.12132 
C 1.55874 -2.683901 0.795609 -3 0 -3 
C -0.795609 -3 -1.55874 -2.683901 -2.12132 -2.12132 
C -2.683901 -1.55874 -3 -0.795609 -3 0 
C -3 0.795609 -2.683901 1.55874 -2.12132 2.12132 
C -1.55874 2.683901 -0.795609 3 0 3 
z
" id="m2f9f8a8525" style="stroke:#ffffff;stroke-width:0.75;"/>
    </defs>
    <g clip-path="url(#p7a5bba4899)">
     <use style="fill:#de8f05;stroke:#ffffff;stroke-width:0.75;" x="184.581818" xlink:href="#m2f9f8a8525" y="141.348107"/>
     <use style="fill:#de8f05;stroke:#ffffff;stroke-width:0.75;" x="203.457082" xlink:href="#m2f9f8a8525" y="139.294336"/>
     <use style="fill:#de8f05;stroke:#ffffff;stroke-width:0.75;" x="222.332347" xlink:href="#m2f9f8a8525" y="137.240565"/>
     <use style="fill:#de8f05;stroke:#ffffff;stroke-width:0.75;" x="241.207611" xlink:href="#m2f9f8a8525" y="135.186795"/>
     <use style="fill:#de8f05;stroke:#ffffff;stroke-width:0.75;" x="260.082875" xlink:href="#m2f9f8a8525" y="133.133024"/>
     <use style="fill:#de8f05;stroke:#ffffff;stroke-width:0.75;" x="278.95814" xlink:href="#m2f9f8a8525" y="131.079253"/>
     <use style="fill:#de8f05;stroke:#ffffff;stroke-width:0.75;" x="297.833404" xlink:href="#m2f9f8a8525" y="129.025482"/>
     <use style="fill:#de8f05;stroke:#ffffff;stroke-width:0.75;" x="316.708668" xlink:href="#m2f9f8a8525" y="126.971712"/>
     <use style="fill:#de8f05;stroke:#ffffff;stroke-width:0.75;" x="335.583932" xlink:href="#m2f9f8a8525" y="124.917941"/>
     <use style="fill:#de8f05;stroke:#ffffff;stroke-width:0.75;" x="354.459197" xlink:href="#m2f9f8a8525" y="122.86417"/>
     <use style="fill:#de8f05;stroke:#ffffff;stroke-width:0.75;" x="373.334461" xlink:href="#m2f9f8a8525" y="120.8104"/>
     <use style="fill:#de8f05;stroke:#ffffff;stroke-width:0.75;" x="392.209725" xlink:href="#m2f9f8a8525" y="118.756629"/>
     <use style="fill:#de8f05;stroke:#ffffff;stroke-width:0.75;" x="411.084989" xlink:href="#m2f9f8a8525" y="116.702858"/>
     <use style="fill:#de8f05;stroke:#ffffff;stroke-width:0.75;" x="429.960254" xlink:href="#m2f9f8a8525" y="114.649088"/>
     <use style="fill:#de8f05;stroke:#ffffff;stroke-width:0.75;" x="448.835518" xlink:href="#m2f9f8a8525" y="112.595317"/>
     <use style="fill:#de8f05;stroke:#ffffff;stroke-width:0.75;" x="467.710782" xlink:href="#m2f9f8a8525" y="110.541546"/>
     <use style="fill:#de8f05;stroke:#ffffff;stroke-width:0.75;" x="486.586047" xlink:href="#m2f9f8a8525" y="108.487776"/>
     <use style="fill:#de8f05;stroke:#ffffff;stroke-width:0.75;" x="505.461311" xlink:href="#m2f9f8a8525" y="106.434005"/>
     <use style="fill:#de8f05;stroke:#ffffff;stroke-width:0.75;" x="524.336575" xlink:href="#m2f9f8a8525" y="104.380234"/>
     <use style="fill:#de8f05;stroke:#ffffff;stroke-width:0.75;" x="543.211839" xlink:href="#m2f9f8a8525" y="102.326463"/>
     <use style="fill:#de8f05;stroke:#ffffff;stroke-width:0.75;" x="562.087104" xlink:href="#m2f9f8a8525" y="100.272693"/>
     <use style="fill:#de8f05;stroke:#ffffff;stroke-width:0.75;" x="580.962368" xlink:href="#m2f9f8a8525" y="98.218922"/>
     <use style="fill:#de8f05;stroke:#ffffff;stroke-width:0.75;" x="599.837632" xlink:href="#m2f9f8a8525" y="96.165151"/>
     <use style="fill:#de8f05;stroke:#ffffff;stroke-width:0.75;" x="618.712896" xlink:href="#m2f9f8a8525" y="94.111381"/>
     <use style="fill:#de8f05;stroke:#ffffff;stroke-width:0.75;" x="637.588161" xlink:href="#m2f9f8a8525" y="92.05761"/>
     <use style="fill:#de8f05;stroke:#ffffff;stroke-width:0.75;" x="656.463425" xlink:href="#m2f9f8a8525" y="90.003839"/>
     <use style="fill:#de8f05;stroke:#ffffff;stroke-width:0.75;" x="675.338689" xlink:href="#m2f9f8a8525" y="87.950069"/>
     <use style="fill:#de8f05;stroke:#ffffff;stroke-width:0.75;" x="694.213953" xlink:href="#m2f9f8a8525" y="85.896298"/>
     <use style="fill:#de8f05;stroke:#ffffff;stroke-width:0.75;" x="713.089218" xlink:href="#m2f9f8a8525" y="83.842527"/>
     <use style="fill:#de8f05;stroke:#ffffff;stroke-width:0.75;" x="731.964482" xlink:href="#m2f9f8a8525" y="81.788757"/>
     <use style="fill:#de8f05;stroke:#ffffff;stroke-width:0.75;" x="750.839746" xlink:href="#m2f9f8a8525" y="79.734986"/>
     <use style="fill:#de8f05;stroke:#ffffff;stroke-width:0.75;" x="769.715011" xlink:href="#m2f9f8a8525" y="77.681215"/>
     <use style="fill:#de8f05;stroke:#ffffff;stroke-width:0.75;" x="788.590275" xlink:href="#m2f9f8a8525" y="75.627444"/>
     <use style="fill:#de8f05;stroke:#ffffff;stroke-width:0.75;" x="807.465539" xlink:href="#m2f9f8a8525" y="73.573674"/>
     <use style="fill:#de8f05;stroke:#ffffff;stroke-width:0.75;" x="826.340803" xlink:href="#m2f9f8a8525" y="71.519903"/>
     <use style="fill:#de8f05;stroke:#ffffff;stroke-width:0.75;" x="845.216068" xlink:href="#m2f9f8a8525" y="69.466132"/>
     <use style="fill:#de8f05;stroke:#ffffff;stroke-width:0.75;" x="864.091332" xlink:href="#m2f9f8a8525" y="67.412362"/>
     <use style="fill:#de8f05;stroke:#ffffff;stroke-width:0.75;" x="882.966596" xlink:href="#m2f9f8a8525" y="65.358591"/>
     <use style="fill:#de8f05;stroke:#ffffff;stroke-width:0.75;" x="901.84186" xlink:href="#m2f9f8a8525" y="63.30482"/>
     <use style="fill:#de8f05;stroke:#ffffff;stroke-width:0.75;" x="920.717125" xlink:href="#m2f9f8a8525" y="61.25105"/>
     <use style="fill:#de8f05;stroke:#ffffff;stroke-width:0.75;" x="939.592389" xlink:href="#m2f9f8a8525" y="59.197279"/>
     <use style="fill:#de8f05;stroke:#ffffff;stroke-width:0.75;" x="958.467653" xlink:href="#m2f9f8a8525" y="57.143508"/>
     <use style="fill:#de8f05;stroke:#ffffff;stroke-width:0.75;" x="977.342918" xlink:href="#m2f9f8a8525" y="55.089738"/>
     <use style="fill:#de8f05;stroke:#ffffff;stroke-width:0.75;" x="996.218182" xlink:href="#m2f9f8a8525" y="53.035967"/>
    </g>
   </g>
   <g id="line2d_18">
    <path clip-path="url(#p7a5bba4899)" d="M 184.581818 198.555286 
L 203.457082 213.058726 
L 222.332347 205.055188 
L 241.207611 205.184076 
L 260.082875 207.644173 
L 278.95814 210.118715 
L 297.833404 210.927148 
L 316.708668 216.4668 
L 335.583932 217.189454 
L 354.459197 213.563644 
L 373.334461 212.085515 
L 392.209725 202.683127 
L 411.084989 161.158741 
L 429.960254 224.060282 
L 448.835518 173.435794 
L 467.710782 221.871668 
L 486.586047 220.119247 
L 505.461311 224.399395 
L 524.336575 174.819995 
L 543.211839 229.548561 
L 562.087104 179.485072 
L 580.962368 176.385986 
L 599.837632 189.278474 
L 618.712896 171.162946 
L 637.588161 231.125494 
L 656.463425 246.24 
L 675.338689 233.592184 
L 694.213953 238.968045 
L 713.089218 231.621785 
L 731.964482 189.95622 
L 750.839746 193.09052 
L 769.715011 199.559256 
L 788.590275 193.045354 
L 807.465539 193.716767 
L 826.340803 206.939546 
L 845.216068 181.958664 
L 864.091332 200.308232 
L 882.966596 213.943699 
L 901.84186 204.419782 
L 920.717125 189.438927 
L 939.592389 209.179217 
L 958.467653 213.351139 
L 977.342918 215.721579 
L 996.218182 221.764549 
" style="fill:none;stroke:#029e73;stroke-linecap:round;stroke-width:1.5;"/>
    <defs>
     <path d="M 0 3 
C 0.795609 3 1.55874 2.683901 2.12132 2.12132 
C 2.683901 1.55874 3 0.795609 3 0 
C 3 -0.795609 2.683901 -1.55874 2.12132 -2.12132 
C 1.55874 -2.683901 0.795609 -3 0 -3 
C -0.795609 -3 -1.55874 -2.683901 -2.12132 -2.12132 
C -2.683901 -1.55874 -3 -0.795609 -3 0 
C -3 0.795609 -2.683901 1.55874 -2.12132 2.12132 
C -1.55874 2.683901 -0.795609 3 0 3 
z
" id="m34c5d239b9" style="stroke:#ffffff;stroke-width:0.75;"/>
    </defs>
    <g clip-path="url(#p7a5bba4899)">
     <use style="fill:#029e73;stroke:#ffffff;stroke-width:0.75;" x="184.581818" xlink:href="#m34c5d239b9" y="198.555286"/>
     <use style="fill:#029e73;stroke:#ffffff;stroke-width:0.75;" x="203.457082" xlink:href="#m34c5d239b9" y="213.058726"/>
     <use style="fill:#029e73;stroke:#ffffff;stroke-width:0.75;" x="222.332347" xlink:href="#m34c5d239b9" y="205.055188"/>
     <use style="fill:#029e73;stroke:#ffffff;stroke-width:0.75;" x="241.207611" xlink:href="#m34c5d239b9" y="205.184076"/>
     <use style="fill:#029e73;stroke:#ffffff;stroke-width:0.75;" x="260.082875" xlink:href="#m34c5d239b9" y="207.644173"/>
     <use style="fill:#029e73;stroke:#ffffff;stroke-width:0.75;" x="278.95814" xlink:href="#m34c5d239b9" y="210.118715"/>
     <use style="fill:#029e73;stroke:#ffffff;stroke-width:0.75;" x="297.833404" xlink:href="#m34c5d239b9" y="210.927148"/>
     <use style="fill:#029e73;stroke:#ffffff;stroke-width:0.75;" x="316.708668" xlink:href="#m34c5d239b9" y="216.4668"/>
     <use style="fill:#029e73;stroke:#ffffff;stroke-width:0.75;" x="335.583932" xlink:href="#m34c5d239b9" y="217.189454"/>
     <use style="fill:#029e73;stroke:#ffffff;stroke-width:0.75;" x="354.459197" xlink:href="#m34c5d239b9" y="213.563644"/>
     <use style="fill:#029e73;stroke:#ffffff;stroke-width:0.75;" x="373.334461" xlink:href="#m34c5d239b9" y="212.085515"/>
     <use style="fill:#029e73;stroke:#ffffff;stroke-width:0.75;" x="392.209725" xlink:href="#m34c5d239b9" y="202.683127"/>
     <use style="fill:#029e73;stroke:#ffffff;stroke-width:0.75;" x="411.084989" xlink:href="#m34c5d239b9" y="161.158741"/>
     <use style="fill:#029e73;stroke:#ffffff;stroke-width:0.75;" x="429.960254" xlink:href="#m34c5d239b9" y="224.060282"/>
     <use style="fill:#029e73;stroke:#ffffff;stroke-width:0.75;" x="448.835518" xlink:href="#m34c5d239b9" y="173.435794"/>
     <use style="fill:#029e73;stroke:#ffffff;stroke-width:0.75;" x="467.710782" xlink:href="#m34c5d239b9" y="221.871668"/>
     <use style="fill:#029e73;stroke:#ffffff;stroke-width:0.75;" x="486.586047" xlink:href="#m34c5d239b9" y="220.119247"/>
     <use style="fill:#029e73;stroke:#ffffff;stroke-width:0.75;" x="505.461311" xlink:href="#m34c5d239b9" y="224.399395"/>
     <use style="fill:#029e73;stroke:#ffffff;stroke-width:0.75;" x="524.336575" xlink:href="#m34c5d239b9" y="174.819995"/>
     <use style="fill:#029e73;stroke:#ffffff;stroke-width:0.75;" x="543.211839" xlink:href="#m34c5d239b9" y="229.548561"/>
     <use style="fill:#029e73;stroke:#ffffff;stroke-width:0.75;" x="562.087104" xlink:href="#m34c5d239b9" y="179.485072"/>
     <use style="fill:#029e73;stroke:#ffffff;stroke-width:0.75;" x="580.962368" xlink:href="#m34c5d239b9" y="176.385986"/>
     <use style="fill:#029e73;stroke:#ffffff;stroke-width:0.75;" x="599.837632" xlink:href="#m34c5d239b9" y="189.278474"/>
     <use style="fill:#029e73;stroke:#ffffff;stroke-width:0.75;" x="618.712896" xlink:href="#m34c5d239b9" y="171.162946"/>
     <use style="fill:#029e73;stroke:#ffffff;stroke-width:0.75;" x="637.588161" xlink:href="#m34c5d239b9" y="231.125494"/>
     <use style="fill:#029e73;stroke:#ffffff;stroke-width:0.75;" x="656.463425" xlink:href="#m34c5d239b9" y="246.24"/>
     <use style="fill:#029e73;stroke:#ffffff;stroke-width:0.75;" x="675.338689" xlink:href="#m34c5d239b9" y="233.592184"/>
     <use style="fill:#029e73;stroke:#ffffff;stroke-width:0.75;" x="694.213953" xlink:href="#m34c5d239b9" y="238.968045"/>
     <use style="fill:#029e73;stroke:#ffffff;stroke-width:0.75;" x="713.089218" xlink:href="#m34c5d239b9" y="231.621785"/>
     <use style="fill:#029e73;stroke:#ffffff;stroke-width:0.75;" x="731.964482" xlink:href="#m34c5d239b9" y="189.95622"/>
     <use style="fill:#029e73;stroke:#ffffff;stroke-width:0.75;" x="750.839746" xlink:href="#m34c5d239b9" y="193.09052"/>
     <use style="fill:#029e73;stroke:#ffffff;stroke-width:0.75;" x="769.715011" xlink:href="#m34c5d239b9" y="199.559256"/>
     <use style="fill:#029e73;stroke:#ffffff;stroke-width:0.75;" x="788.590275" xlink:href="#m34c5d239b9" y="193.045354"/>
     <use style="fill:#029e73;stroke:#ffffff;stroke-width:0.75;" x="807.465539" xlink:href="#m34c5d239b9" y="193.716767"/>
     <use style="fill:#029e73;stroke:#ffffff;stroke-width:0.75;" x="826.340803" xlink:href="#m34c5d239b9" y="206.939546"/>
     <use style="fill:#029e73;stroke:#ffffff;stroke-width:0.75;" x="845.216068" xlink:href="#m34c5d239b9" y="181.958664"/>
     <use style="fill:#029e73;stroke:#ffffff;stroke-width:0.75;" x="864.091332" xlink:href="#m34c5d239b9" y="200.308232"/>
     <use style="fill:#029e73;stroke:#ffffff;stroke-width:0.75;" x="882.966596" xlink:href="#m34c5d239b9" y="213.943699"/>
     <use style="fill:#029e73;stroke:#ffffff;stroke-width:0.75;" x="901.84186" xlink:href="#m34c5d239b9" y="204.419782"/>
     <use style="fill:#029e73;stroke:#ffffff;stroke-width:0.75;" x="920.717125" xlink:href="#m34c5d239b9" y="189.438927"/>
     <use style="fill:#029e73;stroke:#ffffff;stroke-width:0.75;" x="939.592389" xlink:href="#m34c5d239b9" y="209.179217"/>
     <use style="fill:#029e73;stroke:#ffffff;stroke-width:0.75;" x="958.467653" xlink:href="#m34c5d239b9" y="213.351139"/>
     <use style="fill:#029e73;stroke:#ffffff;stroke-width:0.75;" x="977.342918" xlink:href="#m34c5d239b9" y="215.721579"/>
     <use style="fill:#029e73;stroke:#ffffff;stroke-width:0.75;" x="996.218182" xlink:href="#m34c5d239b9" y="221.764549"/>
    </g>
   </g>
   <g id="patch_3">
    <path d="M 144 256.32 
L 144 34.56 
" style="fill:none;stroke:#ffffff;stroke-linecap:square;stroke-linejoin:miter;stroke-width:1.25;"/>
   </g>
   <g id="patch_4">
    <path d="M 1036.8 256.32 
L 1036.8 34.56 
" style="fill:none;stroke:#ffffff;stroke-linecap:square;stroke-linejoin:miter;stroke-width:1.25;"/>
   </g>
   <g id="patch_5">
    <path d="M 144 256.32 
L 1036.8 256.32 
" style="fill:none;stroke:#ffffff;stroke-linecap:square;stroke-linejoin:miter;stroke-width:1.25;"/>
   </g>
   <g id="patch_6">
    <path d="M 144 34.56 
L 1036.8 34.56 
" style="fill:none;stroke:#ffffff;stroke-linecap:square;stroke-linejoin:miter;stroke-width:1.25;"/>
   </g>
   <g id="legend_1">
    <g id="patch_7">
     <path d="M 151.7 90.168438 
L 268.829375 90.168438 
Q 271.029375 90.168438 271.029375 87.968438 
L 271.029375 42.26 
Q 271.029375 40.06 268.829375 40.06 
L 151.7 40.06 
Q 149.5 40.06 149.5 42.26 
L 149.5 87.968438 
Q 149.5 90.168438 151.7 90.168438 
z
" style="fill:#eaeaf2;opacity:0.8;stroke:#cccccc;stroke-linejoin:miter;"/>
    </g>
    <g id="line2d_19">
     <path d="M 153.9 48.483594 
L 175.9 48.483594 
" style="fill:none;stroke:#0173b2;stroke-linecap:round;stroke-width:1.5;"/>
    </g>
    <g id="line2d_20">
     <g>
      <use style="fill:#0173b2;stroke:#ffffff;stroke-width:0.75;" x="164.9" xlink:href="#mdeba3b8ee4" y="48.483594"/>
     </g>
    </g>
    <g id="text_16">
     <!-- y_train -->
     <g style="fill:#262626;" transform="translate(184.7 52.333594)scale(0.11 -0.11)">
      <defs>
       <path d="M 397 -1278 
L 334 -750 
Q 519 -800 656 -800 
Q 844 -800 956 -737 
Q 1069 -675 1141 -563 
Q 1194 -478 1313 -144 
Q 1328 -97 1363 -6 
L 103 3319 
L 709 3319 
L 1400 1397 
Q 1534 1031 1641 628 
Q 1738 1016 1872 1384 
L 2581 3319 
L 3144 3319 
L 1881 -56 
Q 1678 -603 1566 -809 
Q 1416 -1088 1222 -1217 
Q 1028 -1347 759 -1347 
Q 597 -1347 397 -1278 
z
" id="ArialMT-79" transform="scale(0.015625)"/>
       <path d="M -97 -1272 
L -97 -866 
L 3631 -866 
L 3631 -1272 
L -97 -1272 
z
" id="ArialMT-5f" transform="scale(0.015625)"/>
       <path d="M 1650 503 
L 1731 6 
Q 1494 -44 1306 -44 
Q 1000 -44 831 53 
Q 663 150 594 308 
Q 525 466 525 972 
L 525 2881 
L 113 2881 
L 113 3319 
L 525 3319 
L 525 4141 
L 1084 4478 
L 1084 3319 
L 1650 3319 
L 1650 2881 
L 1084 2881 
L 1084 941 
Q 1084 700 1114 631 
Q 1144 563 1211 522 
Q 1278 481 1403 481 
Q 1497 481 1650 503 
z
" id="ArialMT-74" transform="scale(0.015625)"/>
       <path d="M 416 0 
L 416 3319 
L 922 3319 
L 922 2816 
Q 1116 3169 1280 3281 
Q 1444 3394 1641 3394 
Q 1925 3394 2219 3213 
L 2025 2691 
Q 1819 2813 1613 2813 
Q 1428 2813 1281 2702 
Q 1134 2591 1072 2394 
Q 978 2094 978 1738 
L 978 0 
L 416 0 
z
" id="ArialMT-72" transform="scale(0.015625)"/>
       <path d="M 425 3934 
L 425 4581 
L 988 4581 
L 988 3934 
L 425 3934 
z
M 425 0 
L 425 3319 
L 988 3319 
L 988 0 
L 425 0 
z
" id="ArialMT-69" transform="scale(0.015625)"/>
       <path d="M 422 0 
L 422 3319 
L 928 3319 
L 928 2847 
Q 1294 3394 1984 3394 
Q 2284 3394 2536 3286 
Q 2788 3178 2913 3003 
Q 3038 2828 3088 2588 
Q 3119 2431 3119 2041 
L 3119 0 
L 2556 0 
L 2556 2019 
Q 2556 2363 2490 2533 
Q 2425 2703 2258 2804 
Q 2091 2906 1866 2906 
Q 1506 2906 1245 2678 
Q 984 2450 984 1813 
L 984 0 
L 422 0 
z
" id="ArialMT-6e" transform="scale(0.015625)"/>
      </defs>
      <use xlink:href="#ArialMT-79"/>
      <use x="50" xlink:href="#ArialMT-5f"/>
      <use x="105.615234" xlink:href="#ArialMT-74"/>
      <use x="133.398438" xlink:href="#ArialMT-72"/>
      <use x="166.699219" xlink:href="#ArialMT-61"/>
      <use x="222.314453" xlink:href="#ArialMT-69"/>
      <use x="244.53125" xlink:href="#ArialMT-6e"/>
     </g>
    </g>
    <g id="line2d_21">
     <path d="M 153.9 64.172344 
L 175.9 64.172344 
" style="fill:none;stroke:#de8f05;stroke-linecap:round;stroke-width:1.5;"/>
    </g>
    <g id="line2d_22">
     <g>
      <use style="fill:#de8f05;stroke:#ffffff;stroke-width:0.75;" x="164.9" xlink:href="#m2f9f8a8525" y="64.172344"/>
     </g>
    </g>
    <g id="text_17">
     <!-- fitted linear trend -->
     <g style="fill:#262626;" transform="translate(184.7 68.022344)scale(0.11 -0.11)">
      <defs>
       <path d="M 556 0 
L 556 2881 
L 59 2881 
L 59 3319 
L 556 3319 
L 556 3672 
Q 556 4006 616 4169 
Q 697 4388 901 4523 
Q 1106 4659 1475 4659 
Q 1713 4659 2000 4603 
L 1916 4113 
Q 1741 4144 1584 4144 
Q 1328 4144 1222 4034 
Q 1116 3925 1116 3625 
L 1116 3319 
L 1763 3319 
L 1763 2881 
L 1116 2881 
L 1116 0 
L 556 0 
z
" id="ArialMT-66" transform="scale(0.015625)"/>
       <path d="M 2575 0 
L 2575 419 
Q 2259 -75 1647 -75 
Q 1250 -75 917 144 
Q 584 363 401 755 
Q 219 1147 219 1656 
Q 219 2153 384 2558 
Q 550 2963 881 3178 
Q 1213 3394 1622 3394 
Q 1922 3394 2156 3267 
Q 2391 3141 2538 2938 
L 2538 4581 
L 3097 4581 
L 3097 0 
L 2575 0 
z
M 797 1656 
Q 797 1019 1065 703 
Q 1334 388 1700 388 
Q 2069 388 2326 689 
Q 2584 991 2584 1609 
Q 2584 2291 2321 2609 
Q 2059 2928 1675 2928 
Q 1300 2928 1048 2622 
Q 797 2316 797 1656 
z
" id="ArialMT-64" transform="scale(0.015625)"/>
       <path id="ArialMT-20" transform="scale(0.015625)"/>
      </defs>
      <use xlink:href="#ArialMT-66"/>
      <use x="27.783203" xlink:href="#ArialMT-69"/>
      <use x="50" xlink:href="#ArialMT-74"/>
      <use x="77.783203" xlink:href="#ArialMT-74"/>
      <use x="105.566406" xlink:href="#ArialMT-65"/>
      <use x="161.181641" xlink:href="#ArialMT-64"/>
      <use x="216.796875" xlink:href="#ArialMT-20"/>
      <use x="244.580078" xlink:href="#ArialMT-6c"/>
      <use x="266.796875" xlink:href="#ArialMT-69"/>
      <use x="289.013672" xlink:href="#ArialMT-6e"/>
      <use x="344.628906" xlink:href="#ArialMT-65"/>
      <use x="400.244141" xlink:href="#ArialMT-61"/>
      <use x="455.859375" xlink:href="#ArialMT-72"/>
      <use x="489.160156" xlink:href="#ArialMT-20"/>
      <use x="516.943359" xlink:href="#ArialMT-74"/>
      <use x="544.726562" xlink:href="#ArialMT-72"/>
      <use x="578.027344" xlink:href="#ArialMT-65"/>
      <use x="633.642578" xlink:href="#ArialMT-6e"/>
      <use x="689.257812" xlink:href="#ArialMT-64"/>
     </g>
    </g>
    <g id="line2d_23">
     <path d="M 153.9 79.732188 
L 175.9 79.732188 
" style="fill:none;stroke:#029e73;stroke-linecap:round;stroke-width:1.5;"/>
    </g>
    <g id="line2d_24">
     <g>
      <use style="fill:#029e73;stroke:#ffffff;stroke-width:0.75;" x="164.9" xlink:href="#m34c5d239b9" y="79.732188"/>
     </g>
    </g>
    <g id="text_18">
     <!-- residuals -->
     <g style="fill:#262626;" transform="translate(184.7 83.582188)scale(0.11 -0.11)">
      <defs>
       <path d="M 2597 0 
L 2597 488 
Q 2209 -75 1544 -75 
Q 1250 -75 995 37 
Q 741 150 617 320 
Q 494 491 444 738 
Q 409 903 409 1263 
L 409 3319 
L 972 3319 
L 972 1478 
Q 972 1038 1006 884 
Q 1059 663 1231 536 
Q 1403 409 1656 409 
Q 1909 409 2131 539 
Q 2353 669 2445 892 
Q 2538 1116 2538 1541 
L 2538 3319 
L 3100 3319 
L 3100 0 
L 2597 0 
z
" id="ArialMT-75" transform="scale(0.015625)"/>
      </defs>
      <use xlink:href="#ArialMT-72"/>
      <use x="33.300781" xlink:href="#ArialMT-65"/>
      <use x="88.916016" xlink:href="#ArialMT-73"/>
      <use x="138.916016" xlink:href="#ArialMT-69"/>
      <use x="161.132812" xlink:href="#ArialMT-64"/>
      <use x="216.748047" xlink:href="#ArialMT-75"/>
      <use x="272.363281" xlink:href="#ArialMT-61"/>
      <use x="327.978516" xlink:href="#ArialMT-6c"/>
      <use x="350.195312" xlink:href="#ArialMT-73"/>
     </g>
    </g>
   </g>
  </g>
 </g>
 <defs>
  <clipPath id="p7a5bba4899">
   <rect height="221.76" width="892.8" x="144" y="34.56"/>
  </clipPath>
 </defs>
</svg>
