<?xml version="1.0" encoding="utf-8" standalone="no"?>
<!DOCTYPE svg PUBLIC "-//W3C//DTD SVG 1.1//EN"
  "http://www.w3.org/Graphics/SVG/1.1/DTD/svg11.dtd">
<svg height="576pt" version="1.1" viewBox="0 0 1296 576" width="1296pt" xmlns="http://www.w3.org/2000/svg" xmlns:xlink="http://www.w3.org/1999/xlink">
 <metadata>
  <rdf:RDF xmlns:cc="http://creativecommons.org/ns#" xmlns:dc="http://purl.org/dc/elements/1.1/" xmlns:rdf="http://www.w3.org/1999/02/22-rdf-syntax-ns#">
   <cc:Work>
    <dc:type rdf:resource="http://purl.org/dc/dcmitype/StillImage"/>
    <dc:date>2021-11-16T23:57:20.784379</dc:date>
    <dc:format>image/svg+xml</dc:format>
    <dc:creator>
     <cc:Agent>
      <dc:title>Matplotlib v3.4.3, https://matplotlib.org/</dc:title>
     </cc:Agent>
    </dc:creator>
   </cc:Work>
  </rdf:RDF>
 </metadata>
 <defs>
  <style type="text/css">*{stroke-linecap:butt;stroke-linejoin:round;}</style>
 </defs>
 <g id="figure_1">
  <g id="patch_1">
   <path d="M 0 576 
L 1296 576 
L 1296 0 
L 0 0 
z
" style="fill:#ffffff;"/>
  </g>
  <g id="axes_1">
   <g id="patch_2">
    <path d="M 67.95 132.16 
L 1283.04 132.16 
L 1283.04 27.6 
L 67.95 27.6 
z
" style="fill:#eaeaf2;"/>
   </g>
   <g id="matplotlib.axis_1">
    <g id="xtick_1">
     <g id="line2d_1">
      <path clip-path="url(#p34b2eda695)" d="M 194.716947 132.16 
L 194.716947 27.6 
" style="fill:none;stroke:#ffffff;stroke-linecap:round;"/>
     </g>
     <g id="text_1">
      <!-- 2013-07 -->
      <g style="fill:#262626;" transform="translate(174.534525 149.533594)scale(0.11 -0.11)">
       <defs>
        <path d="M 3222 541 
L 3222 0 
L 194 0 
Q 188 203 259 391 
Q 375 700 629 1000 
Q 884 1300 1366 1694 
Q 2113 2306 2375 2664 
Q 2638 3022 2638 3341 
Q 2638 3675 2398 3904 
Q 2159 4134 1775 4134 
Q 1369 4134 1125 3890 
Q 881 3647 878 3216 
L 300 3275 
Q 359 3922 746 4261 
Q 1134 4600 1788 4600 
Q 2447 4600 2831 4234 
Q 3216 3869 3216 3328 
Q 3216 3053 3103 2787 
Q 2991 2522 2730 2228 
Q 2469 1934 1863 1422 
Q 1356 997 1212 845 
Q 1069 694 975 541 
L 3222 541 
z
" id="ArialMT-32" transform="scale(0.015625)"/>
        <path d="M 266 2259 
Q 266 3072 433 3567 
Q 600 4063 929 4331 
Q 1259 4600 1759 4600 
Q 2128 4600 2406 4451 
Q 2684 4303 2865 4023 
Q 3047 3744 3150 3342 
Q 3253 2941 3253 2259 
Q 3253 1453 3087 958 
Q 2922 463 2592 192 
Q 2263 -78 1759 -78 
Q 1097 -78 719 397 
Q 266 969 266 2259 
z
M 844 2259 
Q 844 1131 1108 757 
Q 1372 384 1759 384 
Q 2147 384 2411 759 
Q 2675 1134 2675 2259 
Q 2675 3391 2411 3762 
Q 2147 4134 1753 4134 
Q 1366 4134 1134 3806 
Q 844 3388 844 2259 
z
" id="ArialMT-30" transform="scale(0.015625)"/>
        <path d="M 2384 0 
L 1822 0 
L 1822 3584 
Q 1619 3391 1289 3197 
Q 959 3003 697 2906 
L 697 3450 
Q 1169 3672 1522 3987 
Q 1875 4303 2022 4600 
L 2384 4600 
L 2384 0 
z
" id="ArialMT-31" transform="scale(0.015625)"/>
        <path d="M 269 1209 
L 831 1284 
Q 928 806 1161 595 
Q 1394 384 1728 384 
Q 2125 384 2398 659 
Q 2672 934 2672 1341 
Q 2672 1728 2419 1979 
Q 2166 2231 1775 2231 
Q 1616 2231 1378 2169 
L 1441 2663 
Q 1497 2656 1531 2656 
Q 1891 2656 2178 2843 
Q 2466 3031 2466 3422 
Q 2466 3731 2256 3934 
Q 2047 4138 1716 4138 
Q 1388 4138 1169 3931 
Q 950 3725 888 3313 
L 325 3413 
Q 428 3978 793 4289 
Q 1159 4600 1703 4600 
Q 2078 4600 2393 4439 
Q 2709 4278 2876 4000 
Q 3044 3722 3044 3409 
Q 3044 3113 2884 2869 
Q 2725 2625 2413 2481 
Q 2819 2388 3044 2092 
Q 3269 1797 3269 1353 
Q 3269 753 2831 336 
Q 2394 -81 1725 -81 
Q 1122 -81 723 278 
Q 325 638 269 1209 
z
" id="ArialMT-33" transform="scale(0.015625)"/>
        <path d="M 203 1375 
L 203 1941 
L 1931 1941 
L 1931 1375 
L 203 1375 
z
" id="ArialMT-2d" transform="scale(0.015625)"/>
        <path d="M 303 3981 
L 303 4522 
L 3269 4522 
L 3269 4084 
Q 2831 3619 2401 2847 
Q 1972 2075 1738 1259 
Q 1569 684 1522 0 
L 944 0 
Q 953 541 1156 1306 
Q 1359 2072 1739 2783 
Q 2119 3494 2547 3981 
L 303 3981 
z
" id="ArialMT-37" transform="scale(0.015625)"/>
       </defs>
       <use xlink:href="#ArialMT-32"/>
       <use x="55.615234" xlink:href="#ArialMT-30"/>
       <use x="111.230469" xlink:href="#ArialMT-31"/>
       <use x="166.845703" xlink:href="#ArialMT-33"/>
       <use x="222.460938" xlink:href="#ArialMT-2d"/>
       <use x="255.761719" xlink:href="#ArialMT-30"/>
       <use x="311.376953" xlink:href="#ArialMT-37"/>
      </g>
     </g>
    </g>
    <g id="xtick_2">
     <g id="line2d_2">
      <path clip-path="url(#p34b2eda695)" d="M 327.246028 132.16 
L 327.246028 27.6 
" style="fill:none;stroke:#ffffff;stroke-linecap:round;"/>
     </g>
     <g id="text_2">
      <!-- 2014-01 -->
      <g style="fill:#262626;" transform="translate(307.063607 149.533594)scale(0.11 -0.11)">
       <defs>
        <path d="M 2069 0 
L 2069 1097 
L 81 1097 
L 81 1613 
L 2172 4581 
L 2631 4581 
L 2631 1613 
L 3250 1613 
L 3250 1097 
L 2631 1097 
L 2631 0 
L 2069 0 
z
M 2069 1613 
L 2069 3678 
L 634 1613 
L 2069 1613 
z
" id="ArialMT-34" transform="scale(0.015625)"/>
       </defs>
       <use xlink:href="#ArialMT-32"/>
       <use x="55.615234" xlink:href="#ArialMT-30"/>
       <use x="111.230469" xlink:href="#ArialMT-31"/>
       <use x="166.845703" xlink:href="#ArialMT-34"/>
       <use x="222.460938" xlink:href="#ArialMT-2d"/>
       <use x="255.761719" xlink:href="#ArialMT-30"/>
       <use x="311.376953" xlink:href="#ArialMT-31"/>
      </g>
     </g>
    </g>
    <g id="xtick_3">
     <g id="line2d_3">
      <path clip-path="url(#p34b2eda695)" d="M 457.614309 132.16 
L 457.614309 27.6 
" style="fill:none;stroke:#ffffff;stroke-linecap:round;"/>
     </g>
     <g id="text_3">
      <!-- 2014-07 -->
      <g style="fill:#262626;" transform="translate(437.431888 149.533594)scale(0.11 -0.11)">
       <use xlink:href="#ArialMT-32"/>
       <use x="55.615234" xlink:href="#ArialMT-30"/>
       <use x="111.230469" xlink:href="#ArialMT-31"/>
       <use x="166.845703" xlink:href="#ArialMT-34"/>
       <use x="222.460938" xlink:href="#ArialMT-2d"/>
       <use x="255.761719" xlink:href="#ArialMT-30"/>
       <use x="311.376953" xlink:href="#ArialMT-37"/>
      </g>
     </g>
    </g>
    <g id="xtick_4">
     <g id="line2d_4">
      <path clip-path="url(#p34b2eda695)" d="M 590.143391 132.16 
L 590.143391 27.6 
" style="fill:none;stroke:#ffffff;stroke-linecap:round;"/>
     </g>
     <g id="text_4">
      <!-- 2015-01 -->
      <g style="fill:#262626;" transform="translate(569.960969 149.533594)scale(0.11 -0.11)">
       <defs>
        <path d="M 266 1200 
L 856 1250 
Q 922 819 1161 601 
Q 1400 384 1738 384 
Q 2144 384 2425 690 
Q 2706 997 2706 1503 
Q 2706 1984 2436 2262 
Q 2166 2541 1728 2541 
Q 1456 2541 1237 2417 
Q 1019 2294 894 2097 
L 366 2166 
L 809 4519 
L 3088 4519 
L 3088 3981 
L 1259 3981 
L 1013 2750 
Q 1425 3038 1878 3038 
Q 2478 3038 2890 2622 
Q 3303 2206 3303 1553 
Q 3303 931 2941 478 
Q 2500 -78 1738 -78 
Q 1113 -78 717 272 
Q 322 622 266 1200 
z
" id="ArialMT-35" transform="scale(0.015625)"/>
       </defs>
       <use xlink:href="#ArialMT-32"/>
       <use x="55.615234" xlink:href="#ArialMT-30"/>
       <use x="111.230469" xlink:href="#ArialMT-31"/>
       <use x="166.845703" xlink:href="#ArialMT-35"/>
       <use x="222.460938" xlink:href="#ArialMT-2d"/>
       <use x="255.761719" xlink:href="#ArialMT-30"/>
       <use x="311.376953" xlink:href="#ArialMT-31"/>
      </g>
     </g>
    </g>
    <g id="xtick_5">
     <g id="line2d_5">
      <path clip-path="url(#p34b2eda695)" d="M 720.511672 132.16 
L 720.511672 27.6 
" style="fill:none;stroke:#ffffff;stroke-linecap:round;"/>
     </g>
     <g id="text_5">
      <!-- 2015-07 -->
      <g style="fill:#262626;" transform="translate(700.32925 149.533594)scale(0.11 -0.11)">
       <use xlink:href="#ArialMT-32"/>
       <use x="55.615234" xlink:href="#ArialMT-30"/>
       <use x="111.230469" xlink:href="#ArialMT-31"/>
       <use x="166.845703" xlink:href="#ArialMT-35"/>
       <use x="222.460938" xlink:href="#ArialMT-2d"/>
       <use x="255.761719" xlink:href="#ArialMT-30"/>
       <use x="311.376953" xlink:href="#ArialMT-37"/>
      </g>
     </g>
    </g>
    <g id="xtick_6">
     <g id="line2d_6">
      <path clip-path="url(#p34b2eda695)" d="M 853.040753 132.16 
L 853.040753 27.6 
" style="fill:none;stroke:#ffffff;stroke-linecap:round;"/>
     </g>
     <g id="text_6">
      <!-- 2016-01 -->
      <g style="fill:#262626;" transform="translate(832.858331 149.533594)scale(0.11 -0.11)">
       <defs>
        <path d="M 3184 3459 
L 2625 3416 
Q 2550 3747 2413 3897 
Q 2184 4138 1850 4138 
Q 1581 4138 1378 3988 
Q 1113 3794 959 3422 
Q 806 3050 800 2363 
Q 1003 2672 1297 2822 
Q 1591 2972 1913 2972 
Q 2475 2972 2870 2558 
Q 3266 2144 3266 1488 
Q 3266 1056 3080 686 
Q 2894 316 2569 119 
Q 2244 -78 1831 -78 
Q 1128 -78 684 439 
Q 241 956 241 2144 
Q 241 3472 731 4075 
Q 1159 4600 1884 4600 
Q 2425 4600 2770 4297 
Q 3116 3994 3184 3459 
z
M 888 1484 
Q 888 1194 1011 928 
Q 1134 663 1356 523 
Q 1578 384 1822 384 
Q 2178 384 2434 671 
Q 2691 959 2691 1453 
Q 2691 1928 2437 2201 
Q 2184 2475 1800 2475 
Q 1419 2475 1153 2201 
Q 888 1928 888 1484 
z
" id="ArialMT-36" transform="scale(0.015625)"/>
       </defs>
       <use xlink:href="#ArialMT-32"/>
       <use x="55.615234" xlink:href="#ArialMT-30"/>
       <use x="111.230469" xlink:href="#ArialMT-31"/>
       <use x="166.845703" xlink:href="#ArialMT-36"/>
       <use x="222.460938" xlink:href="#ArialMT-2d"/>
       <use x="255.761719" xlink:href="#ArialMT-30"/>
       <use x="311.376953" xlink:href="#ArialMT-31"/>
      </g>
     </g>
    </g>
    <g id="xtick_7">
     <g id="line2d_7">
      <path clip-path="url(#p34b2eda695)" d="M 984.129301 132.16 
L 984.129301 27.6 
" style="fill:none;stroke:#ffffff;stroke-linecap:round;"/>
     </g>
     <g id="text_7">
      <!-- 2016-07 -->
      <g style="fill:#262626;" transform="translate(963.946879 149.533594)scale(0.11 -0.11)">
       <use xlink:href="#ArialMT-32"/>
       <use x="55.615234" xlink:href="#ArialMT-30"/>
       <use x="111.230469" xlink:href="#ArialMT-31"/>
       <use x="166.845703" xlink:href="#ArialMT-36"/>
       <use x="222.460938" xlink:href="#ArialMT-2d"/>
       <use x="255.761719" xlink:href="#ArialMT-30"/>
       <use x="311.376953" xlink:href="#ArialMT-37"/>
      </g>
     </g>
    </g>
    <g id="xtick_8">
     <g id="line2d_8">
      <path clip-path="url(#p34b2eda695)" d="M 1116.658382 132.16 
L 1116.658382 27.6 
" style="fill:none;stroke:#ffffff;stroke-linecap:round;"/>
     </g>
     <g id="text_8">
      <!-- 2017-01 -->
      <g style="fill:#262626;" transform="translate(1096.47596 149.533594)scale(0.11 -0.11)">
       <use xlink:href="#ArialMT-32"/>
       <use x="55.615234" xlink:href="#ArialMT-30"/>
       <use x="111.230469" xlink:href="#ArialMT-31"/>
       <use x="166.845703" xlink:href="#ArialMT-37"/>
       <use x="222.460938" xlink:href="#ArialMT-2d"/>
       <use x="255.761719" xlink:href="#ArialMT-30"/>
       <use x="311.376953" xlink:href="#ArialMT-31"/>
      </g>
     </g>
    </g>
    <g id="xtick_9">
     <g id="line2d_9">
      <path clip-path="url(#p34b2eda695)" d="M 1247.026663 132.16 
L 1247.026663 27.6 
" style="fill:none;stroke:#ffffff;stroke-linecap:round;"/>
     </g>
     <g id="text_9">
      <!-- 2017-07 -->
      <g style="fill:#262626;" transform="translate(1226.844241 149.533594)scale(0.11 -0.11)">
       <use xlink:href="#ArialMT-32"/>
       <use x="55.615234" xlink:href="#ArialMT-30"/>
       <use x="111.230469" xlink:href="#ArialMT-31"/>
       <use x="166.845703" xlink:href="#ArialMT-37"/>
       <use x="222.460938" xlink:href="#ArialMT-2d"/>
       <use x="255.761719" xlink:href="#ArialMT-30"/>
       <use x="311.376953" xlink:href="#ArialMT-37"/>
      </g>
     </g>
    </g>
   </g>
   <g id="matplotlib.axis_2">
    <g id="ytick_1">
     <g id="line2d_10">
      <path clip-path="url(#p34b2eda695)" d="M 67.95 122.229048 
L 1283.04 122.229048 
" style="fill:none;stroke:#ffffff;stroke-linecap:round;"/>
     </g>
     <g id="text_10">
      <!-- 25000 -->
      <g style="fill:#262626;" transform="translate(27.864844 126.165845)scale(0.11 -0.11)">
       <use xlink:href="#ArialMT-32"/>
       <use x="55.615234" xlink:href="#ArialMT-35"/>
       <use x="111.230469" xlink:href="#ArialMT-30"/>
       <use x="166.845703" xlink:href="#ArialMT-30"/>
       <use x="222.460938" xlink:href="#ArialMT-30"/>
      </g>
     </g>
    </g>
    <g id="ytick_2">
     <g id="line2d_11">
      <path clip-path="url(#p34b2eda695)" d="M 67.95 94.935789 
L 1283.04 94.935789 
" style="fill:none;stroke:#ffffff;stroke-linecap:round;"/>
     </g>
     <g id="text_11">
      <!-- 50000 -->
      <g style="fill:#262626;" transform="translate(27.864844 98.872586)scale(0.11 -0.11)">
       <use xlink:href="#ArialMT-35"/>
       <use x="55.615234" xlink:href="#ArialMT-30"/>
       <use x="111.230469" xlink:href="#ArialMT-30"/>
       <use x="166.845703" xlink:href="#ArialMT-30"/>
       <use x="222.460938" xlink:href="#ArialMT-30"/>
      </g>
     </g>
    </g>
    <g id="ytick_3">
     <g id="line2d_12">
      <path clip-path="url(#p34b2eda695)" d="M 67.95 67.64253 
L 1283.04 67.64253 
" style="fill:none;stroke:#ffffff;stroke-linecap:round;"/>
     </g>
     <g id="text_12">
      <!-- 75000 -->
      <g style="fill:#262626;" transform="translate(27.864844 71.579327)scale(0.11 -0.11)">
       <use xlink:href="#ArialMT-37"/>
       <use x="55.615234" xlink:href="#ArialMT-35"/>
       <use x="111.230469" xlink:href="#ArialMT-30"/>
       <use x="166.845703" xlink:href="#ArialMT-30"/>
       <use x="222.460938" xlink:href="#ArialMT-30"/>
      </g>
     </g>
    </g>
    <g id="ytick_4">
     <g id="line2d_13">
      <path clip-path="url(#p34b2eda695)" d="M 67.95 40.349271 
L 1283.04 40.349271 
" style="fill:none;stroke:#ffffff;stroke-linecap:round;"/>
     </g>
     <g id="text_13">
      <!-- 100000 -->
      <g style="fill:#262626;" transform="translate(21.747813 44.286068)scale(0.11 -0.11)">
       <use xlink:href="#ArialMT-31"/>
       <use x="55.615234" xlink:href="#ArialMT-30"/>
       <use x="111.230469" xlink:href="#ArialMT-30"/>
       <use x="166.845703" xlink:href="#ArialMT-30"/>
       <use x="222.460938" xlink:href="#ArialMT-30"/>
       <use x="278.076172" xlink:href="#ArialMT-30"/>
      </g>
     </g>
    </g>
   </g>
   <g id="line2d_14">
    <path clip-path="url(#p34b2eda695)" d="M 67.95 119.250652 
L 72.991867 109.160953 
L 78.033734 109.432513 
L 83.075602 111.361021 
L 88.117469 112.133311 
L 93.159336 114.103276 
L 98.201203 119.960507 
L 103.243071 110.84502 
L 108.284938 110.980908 
L 113.326805 108.707612 
L 118.368672 111.528452 
L 123.410539 111.56582 
L 128.452407 116.205668 
L 133.494274 107.869222 
L 138.536141 110.618863 
L 143.578008 110.666517 
L 148.619876 109.671082 
L 153.661743 112.549673 
L 158.70361 108.985261 
L 163.745477 109.929035 
L 168.787344 117.261366 
L 173.829212 110.188794 
L 178.871079 106.292697 
L 183.912946 110.764029 
L 188.954813 110.646847 
L 193.99668 110.838749 
L 199.038548 109.307085 
L 204.080415 111.624041 
L 209.122282 111.442096 
L 214.164149 112.301423 
L 219.206017 111.180128 
L 224.247884 114.098867 
L 229.289751 113.166728 
L 234.331618 114.303894 
L 239.373485 111.428181 
L 244.415353 109.654092 
L 249.45722 110.810128 
L 254.499087 111.171222 
L 259.540954 109.513337 
L 264.582822 105.856348 
L 269.624689 112.899704 
L 274.666556 108.772319 
L 279.708423 109.077059 
L 284.75029 109.110167 
L 289.792158 105.267583 
L 294.834025 106.587809 
L 299.875892 105.571764 
L 304.917759 105.835977 
L 309.959627 106.921514 
L 315.001494 96.761006 
L 320.043361 87.887807 
L 325.085228 105.900699 
L 330.127095 95.36591 
L 335.168963 74.379257 
L 340.21083 76.17507 
L 345.252697 77.618293 
L 350.294564 84.358924 
L 355.336432 105.867112 
L 360.378299 104.235044 
L 365.420166 106.686969 
L 370.462033 105.564073 
L 375.5039 86.749121 
L 380.545768 77.143066 
L 385.587635 77.679688 
L 390.629502 79.545219 
L 395.671369 97.622616 
L 400.713237 105.680489 
L 405.755104 112.313892 
L 410.796971 103.823715 
L 415.838838 106.673916 
L 420.880705 103.507122 
L 425.922573 104.809436 
L 436.006307 105.534264 
L 441.048174 102.186393 
L 446.090041 104.639381 
L 451.131909 103.929224 
L 456.173776 104.144257 
L 461.215643 78.94734 
L 466.25751 78.384597 
L 471.299378 79.432131 
L 476.341245 81.642437 
L 481.383112 89.737326 
L 486.424979 105.760956 
L 491.466846 106.458446 
L 496.508714 107.031825 
L 501.550581 106.246634 
L 506.592448 73.415766 
L 511.634315 75.600948 
L 516.676183 78.204338 
L 521.71805 78.050115 
L 526.759917 68.934197 
L 531.801784 84.938775 
L 536.843651 74.114097 
L 541.885519 78.708431 
L 546.927386 81.472569 
L 551.969253 78.855843 
L 557.01112 77.406636 
L 562.052988 74.986122 
L 567.094855 78.602036 
L 572.136722 73.178993 
L 577.178589 67.378278 
L 582.220456 58.584831 
L 587.262324 84.924876 
L 592.304191 100.961784 
L 597.346058 97.121609 
L 602.387925 99.714742 
L 607.429793 101.590999 
L 612.47166 99.505621 
L 617.513527 99.658348 
L 622.555394 104.942851 
L 627.597261 111.813353 
L 632.639129 101.658581 
L 637.680996 99.22599 
L 642.722863 97.958812 
L 647.76473 101.005312 
L 652.806598 102.520773 
L 657.848465 107.232876 
L 662.890332 98.974124 
L 667.932199 102.30483 
L 672.974066 97.398372 
L 678.015934 107.141596 
L 683.057801 95.872131 
L 688.099668 98.627628 
L 693.141535 96.77469 
L 698.183402 91.424947 
L 703.22527 69.069378 
L 708.267137 74.541257 
L 713.309004 70.655483 
L 718.350871 74.004485 
L 723.392739 67.513996 
L 728.434606 84.348428 
L 733.476473 72.286973 
L 738.51834 77.700596 
L 743.560207 75.817141 
L 748.602075 75.022112 
L 753.643942 77.42376 
L 758.685809 77.370449 
L 763.727676 76.119162 
L 768.769544 67.943213 
L 773.811411 73.193012 
L 778.853278 71.588657 
L 783.895145 71.415589 
L 788.937012 66.098564 
L 793.97888 78.396291 
L 799.020747 68.439414 
L 804.062614 71.843198 
L 809.104481 78.534621 
L 814.146349 81.221233 
L 819.188216 72.975206 
L 824.230083 71.158422 
L 829.27195 72.117249 
L 834.313817 63.374213 
L 839.355685 65.2222 
L 844.397552 50.070531 
L 849.439419 73.166038 
L 854.481286 86.254749 
L 859.523154 60.191044 
L 864.565021 67.58235 
L 869.606888 71.108943 
L 874.648755 72.01307 
L 879.690622 71.325098 
L 884.73249 84.045861 
L 889.774357 66.352377 
L 894.816224 73.224615 
L 899.858091 65.449208 
L 904.899959 72.262156 
L 909.941826 70.863303 
L 914.983693 82.584189 
L 920.02556 68.019092 
L 925.067427 70.446034 
L 930.109295 70.626119 
L 935.151162 32.352727 
L 940.193029 69.625452 
L 945.234896 64.851682 
L 950.276763 71.469048 
L 955.318631 69.017504 
L 960.360498 83.48685 
L 965.402365 65.224867 
L 970.444232 72.246531 
L 975.4861 72.068811 
L 980.527967 73.564699 
L 985.569834 70.807353 
L 990.611701 71.190205 
L 995.653568 73.17651 
L 1000.695436 74.571191 
L 1005.737303 76.435217 
L 1010.77917 71.069933 
L 1015.821037 84.649351 
L 1020.862905 74.916938 
L 1025.904772 76.471346 
L 1030.946639 72.096369 
L 1035.988506 71.858963 
L 1041.030373 71.979534 
L 1046.072241 74.016747 
L 1051.114108 73.09835 
L 1056.155975 65.09477 
L 1061.197842 70.086901 
L 1066.23971 68.312541 
L 1071.281577 71.377714 
L 1076.323444 93.125636 
L 1081.365311 61.267412 
L 1086.407178 65.13268 
L 1091.449046 68.433646 
L 1096.490913 60.861916 
L 1101.53278 68.383859 
L 1106.574647 53.322469 
L 1111.616515 46.037419 
L 1116.658382 81.19255 
L 1121.700249 61.10836 
L 1126.742116 58.745913 
L 1131.783983 63.487564 
L 1136.825851 64.538811 
L 1141.867718 64.639854 
L 1146.909585 65.002939 
L 1151.951452 64.887164 
L 1156.99332 71.191898 
L 1162.035187 74.664067 
L 1167.077054 63.060176 
L 1172.118921 62.697226 
L 1177.160788 62.584337 
L 1182.202656 60.937144 
L 1187.244523 62.875812 
L 1192.28639 80.490024 
L 1197.328257 65.557659 
L 1202.370124 70.883534 
L 1207.411992 67.918324 
L 1212.453859 68.030116 
L 1217.495726 67.146205 
L 1222.537593 75.524802 
L 1227.579461 64.688097 
L 1232.621328 61.490038 
L 1237.663195 64.636055 
L 1242.705062 63.968243 
L 1247.746929 68.448779 
L 1252.788797 66.96933 
L 1257.830664 69.771173 
L 1262.872531 66.580273 
L 1267.914398 72.490614 
L 1272.956266 69.824363 
L 1277.998133 81.96901 
L 1283.04 127.407273 
L 1283.04 127.407273 
" style="fill:none;stroke:#4c72b0;stroke-linecap:round;stroke-width:1.5;"/>
   </g>
   <g id="patch_3">
    <path d="M 67.95 132.16 
L 67.95 27.6 
" style="fill:none;stroke:#ffffff;stroke-linecap:square;stroke-linejoin:miter;stroke-width:1.25;"/>
   </g>
   <g id="patch_4">
    <path d="M 1283.04 132.16 
L 1283.04 27.6 
" style="fill:none;stroke:#ffffff;stroke-linecap:square;stroke-linejoin:miter;stroke-width:1.25;"/>
   </g>
   <g id="patch_5">
    <path d="M 67.95 132.16 
L 1283.04 132.16 
" style="fill:none;stroke:#ffffff;stroke-linecap:square;stroke-linejoin:miter;stroke-width:1.25;"/>
   </g>
   <g id="patch_6">
    <path d="M 67.95 27.6 
L 1283.04 27.6 
" style="fill:none;stroke:#ffffff;stroke-linecap:square;stroke-linejoin:miter;stroke-width:1.25;"/>
   </g>
   <g id="text_14">
    <!-- sales -->
    <g style="fill:#262626;" transform="translate(661.48875 21.6)scale(0.12 -0.12)">
     <defs>
      <path d="M 197 991 
L 753 1078 
Q 800 744 1014 566 
Q 1228 388 1613 388 
Q 2000 388 2187 545 
Q 2375 703 2375 916 
Q 2375 1106 2209 1216 
Q 2094 1291 1634 1406 
Q 1016 1563 777 1677 
Q 538 1791 414 1992 
Q 291 2194 291 2438 
Q 291 2659 392 2848 
Q 494 3038 669 3163 
Q 800 3259 1026 3326 
Q 1253 3394 1513 3394 
Q 1903 3394 2198 3281 
Q 2494 3169 2634 2976 
Q 2775 2784 2828 2463 
L 2278 2388 
Q 2241 2644 2061 2787 
Q 1881 2931 1553 2931 
Q 1166 2931 1000 2803 
Q 834 2675 834 2503 
Q 834 2394 903 2306 
Q 972 2216 1119 2156 
Q 1203 2125 1616 2013 
Q 2213 1853 2448 1751 
Q 2684 1650 2818 1456 
Q 2953 1263 2953 975 
Q 2953 694 2789 445 
Q 2625 197 2315 61 
Q 2006 -75 1616 -75 
Q 969 -75 630 194 
Q 291 463 197 991 
z
" id="ArialMT-73" transform="scale(0.015625)"/>
      <path d="M 2588 409 
Q 2275 144 1986 34 
Q 1697 -75 1366 -75 
Q 819 -75 525 192 
Q 231 459 231 875 
Q 231 1119 342 1320 
Q 453 1522 633 1644 
Q 813 1766 1038 1828 
Q 1203 1872 1538 1913 
Q 2219 1994 2541 2106 
Q 2544 2222 2544 2253 
Q 2544 2597 2384 2738 
Q 2169 2928 1744 2928 
Q 1347 2928 1158 2789 
Q 969 2650 878 2297 
L 328 2372 
Q 403 2725 575 2942 
Q 747 3159 1072 3276 
Q 1397 3394 1825 3394 
Q 2250 3394 2515 3294 
Q 2781 3194 2906 3042 
Q 3031 2891 3081 2659 
Q 3109 2516 3109 2141 
L 3109 1391 
Q 3109 606 3145 398 
Q 3181 191 3288 0 
L 2700 0 
Q 2613 175 2588 409 
z
M 2541 1666 
Q 2234 1541 1622 1453 
Q 1275 1403 1131 1340 
Q 988 1278 909 1158 
Q 831 1038 831 891 
Q 831 666 1001 516 
Q 1172 366 1500 366 
Q 1825 366 2078 508 
Q 2331 650 2450 897 
Q 2541 1088 2541 1459 
L 2541 1666 
z
" id="ArialMT-61" transform="scale(0.015625)"/>
      <path d="M 409 0 
L 409 4581 
L 972 4581 
L 972 0 
L 409 0 
z
" id="ArialMT-6c" transform="scale(0.015625)"/>
      <path d="M 2694 1069 
L 3275 997 
Q 3138 488 2766 206 
Q 2394 -75 1816 -75 
Q 1088 -75 661 373 
Q 234 822 234 1631 
Q 234 2469 665 2931 
Q 1097 3394 1784 3394 
Q 2450 3394 2872 2941 
Q 3294 2488 3294 1666 
Q 3294 1616 3291 1516 
L 816 1516 
Q 847 969 1125 678 
Q 1403 388 1819 388 
Q 2128 388 2347 550 
Q 2566 713 2694 1069 
z
M 847 1978 
L 2700 1978 
Q 2663 2397 2488 2606 
Q 2219 2931 1791 2931 
Q 1403 2931 1139 2672 
Q 875 2413 847 1978 
z
" id="ArialMT-65" transform="scale(0.015625)"/>
     </defs>
     <use xlink:href="#ArialMT-73"/>
     <use x="50" xlink:href="#ArialMT-61"/>
     <use x="105.615234" xlink:href="#ArialMT-6c"/>
     <use x="127.832031" xlink:href="#ArialMT-65"/>
     <use x="183.447266" xlink:href="#ArialMT-73"/>
    </g>
   </g>
  </g>
  <g id="axes_2">
   <g id="patch_7">
    <path d="M 67.95 269.26 
L 1283.04 269.26 
L 1283.04 164.7 
L 67.95 164.7 
z
" style="fill:#eaeaf2;"/>
   </g>
   <g id="matplotlib.axis_3">
    <g id="xtick_10">
     <g id="line2d_15">
      <path clip-path="url(#pc2d3dabddb)" d="M 194.716947 269.26 
L 194.716947 164.7 
" style="fill:none;stroke:#ffffff;stroke-linecap:round;"/>
     </g>
     <g id="text_15">
      <!-- 2013-07 -->
      <g style="fill:#262626;" transform="translate(174.534525 286.633594)scale(0.11 -0.11)">
       <use xlink:href="#ArialMT-32"/>
       <use x="55.615234" xlink:href="#ArialMT-30"/>
       <use x="111.230469" xlink:href="#ArialMT-31"/>
       <use x="166.845703" xlink:href="#ArialMT-33"/>
       <use x="222.460938" xlink:href="#ArialMT-2d"/>
       <use x="255.761719" xlink:href="#ArialMT-30"/>
       <use x="311.376953" xlink:href="#ArialMT-37"/>
      </g>
     </g>
    </g>
    <g id="xtick_11">
     <g id="line2d_16">
      <path clip-path="url(#pc2d3dabddb)" d="M 327.246028 269.26 
L 327.246028 164.7 
" style="fill:none;stroke:#ffffff;stroke-linecap:round;"/>
     </g>
     <g id="text_16">
      <!-- 2014-01 -->
      <g style="fill:#262626;" transform="translate(307.063607 286.633594)scale(0.11 -0.11)">
       <use xlink:href="#ArialMT-32"/>
       <use x="55.615234" xlink:href="#ArialMT-30"/>
       <use x="111.230469" xlink:href="#ArialMT-31"/>
       <use x="166.845703" xlink:href="#ArialMT-34"/>
       <use x="222.460938" xlink:href="#ArialMT-2d"/>
       <use x="255.761719" xlink:href="#ArialMT-30"/>
       <use x="311.376953" xlink:href="#ArialMT-31"/>
      </g>
     </g>
    </g>
    <g id="xtick_12">
     <g id="line2d_17">
      <path clip-path="url(#pc2d3dabddb)" d="M 457.614309 269.26 
L 457.614309 164.7 
" style="fill:none;stroke:#ffffff;stroke-linecap:round;"/>
     </g>
     <g id="text_17">
      <!-- 2014-07 -->
      <g style="fill:#262626;" transform="translate(437.431888 286.633594)scale(0.11 -0.11)">
       <use xlink:href="#ArialMT-32"/>
       <use x="55.615234" xlink:href="#ArialMT-30"/>
       <use x="111.230469" xlink:href="#ArialMT-31"/>
       <use x="166.845703" xlink:href="#ArialMT-34"/>
       <use x="222.460938" xlink:href="#ArialMT-2d"/>
       <use x="255.761719" xlink:href="#ArialMT-30"/>
       <use x="311.376953" xlink:href="#ArialMT-37"/>
      </g>
     </g>
    </g>
    <g id="xtick_13">
     <g id="line2d_18">
      <path clip-path="url(#pc2d3dabddb)" d="M 590.143391 269.26 
L 590.143391 164.7 
" style="fill:none;stroke:#ffffff;stroke-linecap:round;"/>
     </g>
     <g id="text_18">
      <!-- 2015-01 -->
      <g style="fill:#262626;" transform="translate(569.960969 286.633594)scale(0.11 -0.11)">
       <use xlink:href="#ArialMT-32"/>
       <use x="55.615234" xlink:href="#ArialMT-30"/>
       <use x="111.230469" xlink:href="#ArialMT-31"/>
       <use x="166.845703" xlink:href="#ArialMT-35"/>
       <use x="222.460938" xlink:href="#ArialMT-2d"/>
       <use x="255.761719" xlink:href="#ArialMT-30"/>
       <use x="311.376953" xlink:href="#ArialMT-31"/>
      </g>
     </g>
    </g>
    <g id="xtick_14">
     <g id="line2d_19">
      <path clip-path="url(#pc2d3dabddb)" d="M 720.511672 269.26 
L 720.511672 164.7 
" style="fill:none;stroke:#ffffff;stroke-linecap:round;"/>
     </g>
     <g id="text_19">
      <!-- 2015-07 -->
      <g style="fill:#262626;" transform="translate(700.32925 286.633594)scale(0.11 -0.11)">
       <use xlink:href="#ArialMT-32"/>
       <use x="55.615234" xlink:href="#ArialMT-30"/>
       <use x="111.230469" xlink:href="#ArialMT-31"/>
       <use x="166.845703" xlink:href="#ArialMT-35"/>
       <use x="222.460938" xlink:href="#ArialMT-2d"/>
       <use x="255.761719" xlink:href="#ArialMT-30"/>
       <use x="311.376953" xlink:href="#ArialMT-37"/>
      </g>
     </g>
    </g>
    <g id="xtick_15">
     <g id="line2d_20">
      <path clip-path="url(#pc2d3dabddb)" d="M 853.040753 269.26 
L 853.040753 164.7 
" style="fill:none;stroke:#ffffff;stroke-linecap:round;"/>
     </g>
     <g id="text_20">
      <!-- 2016-01 -->
      <g style="fill:#262626;" transform="translate(832.858331 286.633594)scale(0.11 -0.11)">
       <use xlink:href="#ArialMT-32"/>
       <use x="55.615234" xlink:href="#ArialMT-30"/>
       <use x="111.230469" xlink:href="#ArialMT-31"/>
       <use x="166.845703" xlink:href="#ArialMT-36"/>
       <use x="222.460938" xlink:href="#ArialMT-2d"/>
       <use x="255.761719" xlink:href="#ArialMT-30"/>
       <use x="311.376953" xlink:href="#ArialMT-31"/>
      </g>
     </g>
    </g>
    <g id="xtick_16">
     <g id="line2d_21">
      <path clip-path="url(#pc2d3dabddb)" d="M 984.129301 269.26 
L 984.129301 164.7 
" style="fill:none;stroke:#ffffff;stroke-linecap:round;"/>
     </g>
     <g id="text_21">
      <!-- 2016-07 -->
      <g style="fill:#262626;" transform="translate(963.946879 286.633594)scale(0.11 -0.11)">
       <use xlink:href="#ArialMT-32"/>
       <use x="55.615234" xlink:href="#ArialMT-30"/>
       <use x="111.230469" xlink:href="#ArialMT-31"/>
       <use x="166.845703" xlink:href="#ArialMT-36"/>
       <use x="222.460938" xlink:href="#ArialMT-2d"/>
       <use x="255.761719" xlink:href="#ArialMT-30"/>
       <use x="311.376953" xlink:href="#ArialMT-37"/>
      </g>
     </g>
    </g>
    <g id="xtick_17">
     <g id="line2d_22">
      <path clip-path="url(#pc2d3dabddb)" d="M 1116.658382 269.26 
L 1116.658382 164.7 
" style="fill:none;stroke:#ffffff;stroke-linecap:round;"/>
     </g>
     <g id="text_22">
      <!-- 2017-01 -->
      <g style="fill:#262626;" transform="translate(1096.47596 286.633594)scale(0.11 -0.11)">
       <use xlink:href="#ArialMT-32"/>
       <use x="55.615234" xlink:href="#ArialMT-30"/>
       <use x="111.230469" xlink:href="#ArialMT-31"/>
       <use x="166.845703" xlink:href="#ArialMT-37"/>
       <use x="222.460938" xlink:href="#ArialMT-2d"/>
       <use x="255.761719" xlink:href="#ArialMT-30"/>
       <use x="311.376953" xlink:href="#ArialMT-31"/>
      </g>
     </g>
    </g>
    <g id="xtick_18">
     <g id="line2d_23">
      <path clip-path="url(#pc2d3dabddb)" d="M 1247.026663 269.26 
L 1247.026663 164.7 
" style="fill:none;stroke:#ffffff;stroke-linecap:round;"/>
     </g>
     <g id="text_23">
      <!-- 2017-07 -->
      <g style="fill:#262626;" transform="translate(1226.844241 286.633594)scale(0.11 -0.11)">
       <use xlink:href="#ArialMT-32"/>
       <use x="55.615234" xlink:href="#ArialMT-30"/>
       <use x="111.230469" xlink:href="#ArialMT-31"/>
       <use x="166.845703" xlink:href="#ArialMT-37"/>
       <use x="222.460938" xlink:href="#ArialMT-2d"/>
       <use x="255.761719" xlink:href="#ArialMT-30"/>
       <use x="311.376953" xlink:href="#ArialMT-37"/>
      </g>
     </g>
    </g>
   </g>
   <g id="matplotlib.axis_4">
    <g id="ytick_5">
     <g id="line2d_24">
      <path clip-path="url(#pc2d3dabddb)" d="M 67.95 255.676823 
L 1283.04 255.676823 
" style="fill:none;stroke:#ffffff;stroke-linecap:round;"/>
     </g>
     <g id="text_24">
      <!-- 40000 -->
      <g style="fill:#262626;" transform="translate(27.864844 259.61362)scale(0.11 -0.11)">
       <use xlink:href="#ArialMT-34"/>
       <use x="55.615234" xlink:href="#ArialMT-30"/>
       <use x="111.230469" xlink:href="#ArialMT-30"/>
       <use x="166.845703" xlink:href="#ArialMT-30"/>
       <use x="222.460938" xlink:href="#ArialMT-30"/>
      </g>
     </g>
    </g>
    <g id="ytick_6">
     <g id="line2d_25">
      <path clip-path="url(#pc2d3dabddb)" d="M 67.95 205.960422 
L 1283.04 205.960422 
" style="fill:none;stroke:#ffffff;stroke-linecap:round;"/>
     </g>
     <g id="text_25">
      <!-- 60000 -->
      <g style="fill:#262626;" transform="translate(27.864844 209.897219)scale(0.11 -0.11)">
       <use xlink:href="#ArialMT-36"/>
       <use x="55.615234" xlink:href="#ArialMT-30"/>
       <use x="111.230469" xlink:href="#ArialMT-30"/>
       <use x="166.845703" xlink:href="#ArialMT-30"/>
       <use x="222.460938" xlink:href="#ArialMT-30"/>
      </g>
     </g>
    </g>
    <g id="text_26">
     <!-- Trend -->
     <g style="fill:#262626;" transform="translate(21.479844 232.427188)rotate(-90)scale(0.12 -0.12)">
      <defs>
       <path d="M 1659 0 
L 1659 4041 
L 150 4041 
L 150 4581 
L 3781 4581 
L 3781 4041 
L 2266 4041 
L 2266 0 
L 1659 0 
z
" id="ArialMT-54" transform="scale(0.015625)"/>
       <path d="M 416 0 
L 416 3319 
L 922 3319 
L 922 2816 
Q 1116 3169 1280 3281 
Q 1444 3394 1641 3394 
Q 1925 3394 2219 3213 
L 2025 2691 
Q 1819 2813 1613 2813 
Q 1428 2813 1281 2702 
Q 1134 2591 1072 2394 
Q 978 2094 978 1738 
L 978 0 
L 416 0 
z
" id="ArialMT-72" transform="scale(0.015625)"/>
       <path d="M 422 0 
L 422 3319 
L 928 3319 
L 928 2847 
Q 1294 3394 1984 3394 
Q 2284 3394 2536 3286 
Q 2788 3178 2913 3003 
Q 3038 2828 3088 2588 
Q 3119 2431 3119 2041 
L 3119 0 
L 2556 0 
L 2556 2019 
Q 2556 2363 2490 2533 
Q 2425 2703 2258 2804 
Q 2091 2906 1866 2906 
Q 1506 2906 1245 2678 
Q 984 2450 984 1813 
L 984 0 
L 422 0 
z
" id="ArialMT-6e" transform="scale(0.015625)"/>
       <path d="M 2575 0 
L 2575 419 
Q 2259 -75 1647 -75 
Q 1250 -75 917 144 
Q 584 363 401 755 
Q 219 1147 219 1656 
Q 219 2153 384 2558 
Q 550 2963 881 3178 
Q 1213 3394 1622 3394 
Q 1922 3394 2156 3267 
Q 2391 3141 2538 2938 
L 2538 4581 
L 3097 4581 
L 3097 0 
L 2575 0 
z
M 797 1656 
Q 797 1019 1065 703 
Q 1334 388 1700 388 
Q 2069 388 2326 689 
Q 2584 991 2584 1609 
Q 2584 2291 2321 2609 
Q 2059 2928 1675 2928 
Q 1300 2928 1048 2622 
Q 797 2316 797 1656 
z
" id="ArialMT-64" transform="scale(0.015625)"/>
      </defs>
      <use xlink:href="#ArialMT-54"/>
      <use x="57.333984" xlink:href="#ArialMT-72"/>
      <use x="90.634766" xlink:href="#ArialMT-65"/>
      <use x="146.25" xlink:href="#ArialMT-6e"/>
      <use x="201.865234" xlink:href="#ArialMT-64"/>
     </g>
    </g>
   </g>
   <g id="line2d_26">
    <path clip-path="url(#pc2d3dabddb)" d="M 199.038548 264.507273 
L 204.080415 263.222842 
L 214.164149 260.26632 
L 219.206017 258.919477 
L 224.247884 258.131069 
L 234.331618 257.171133 
L 239.373485 256.961502 
L 244.415353 256.362153 
L 249.45722 255.128572 
L 259.540954 252.089317 
L 264.582822 251.062344 
L 269.624689 250.729887 
L 279.708423 250.565881 
L 299.875892 249.451551 
L 304.917759 249.08467 
L 315.001494 248.668868 
L 325.085228 248.09406 
L 330.127095 247.282802 
L 345.252697 243.089757 
L 350.294564 241.949052 
L 355.336432 241.297039 
L 370.462033 240.388881 
L 375.5039 239.482043 
L 385.587635 236.425154 
L 415.838838 228.032152 
L 425.922573 225.631668 
L 451.131909 219.055346 
L 456.173776 217.954553 
L 461.215643 217.617828 
L 466.25751 218.238259 
L 476.341245 220.291774 
L 481.383112 221.148246 
L 486.424979 221.343931 
L 491.466846 221.223494 
L 506.592448 221.565617 
L 511.634315 222.294518 
L 521.71805 224.274648 
L 526.759917 224.988075 
L 531.801784 225.051653 
L 541.885519 224.325877 
L 551.969253 224.038522 
L 562.052988 223.41712 
L 567.094855 222.924658 
L 572.136722 221.890695 
L 587.262324 217.730863 
L 592.304191 216.82067 
L 607.429793 216.432322 
L 612.47166 216.041254 
L 617.513527 215.063499 
L 632.639129 211.160746 
L 637.680996 210.381326 
L 647.76473 210.011231 
L 657.848465 209.513796 
L 667.932199 209.040994 
L 678.015934 208.551819 
L 688.099668 208.49405 
L 698.183402 208.087447 
L 708.267137 207.468938 
L 713.309004 207.235323 
L 718.350871 206.791467 
L 723.392739 206.212029 
L 728.434606 205.081486 
L 733.476473 203.569436 
L 743.560207 200.929284 
L 748.602075 199.707046 
L 753.643942 198.62921 
L 758.685809 197.176382 
L 763.727676 195.558542 
L 773.811411 192.894414 
L 778.853278 191.671894 
L 783.895145 190.575483 
L 788.937012 189.280458 
L 793.97888 187.797331 
L 799.020747 186.479176 
L 804.062614 184.361513 
L 809.104481 182.116047 
L 814.146349 180.615521 
L 824.230083 178.139447 
L 829.27195 177.357942 
L 834.313817 177.099976 
L 839.355685 176.965565 
L 849.439419 176.967583 
L 854.481286 177.030058 
L 864.565021 176.545471 
L 884.73249 176.44012 
L 889.774357 176.544599 
L 894.816224 176.498593 
L 904.899959 176.658953 
L 914.983693 176.703811 
L 920.02556 176.914012 
L 925.067427 176.776043 
L 930.109295 176.520892 
L 935.151162 176.479662 
L 940.193029 176.245671 
L 950.276763 176.353916 
L 955.318631 175.965662 
L 965.402365 175.617436 
L 970.444232 175.631653 
L 975.4861 175.772071 
L 980.527967 175.249319 
L 985.569834 174.54454 
L 995.653568 174.280414 
L 1010.77917 173.279584 
L 1015.821037 172.716297 
L 1020.862905 172.267296 
L 1025.904772 172.190713 
L 1030.946639 172.347957 
L 1035.988506 172.348239 
L 1041.030373 171.967987 
L 1051.114108 170.758405 
L 1056.155975 170.437613 
L 1061.197842 170.48783 
L 1066.23971 171.430771 
L 1071.281577 172.185297 
L 1081.365311 172.27183 
L 1091.449046 171.94028 
L 1101.53278 171.506956 
L 1111.616515 170.735891 
L 1116.658382 170.47415 
L 1126.742116 170.163134 
L 1136.825851 169.652313 
L 1146.909585 169.452727 
L 1151.951452 170.543257 
L 1151.951452 170.543257 
" style="fill:none;stroke:#4c72b0;stroke-linecap:round;stroke-width:1.5;"/>
   </g>
   <g id="patch_8">
    <path d="M 67.95 269.26 
L 67.95 164.7 
" style="fill:none;stroke:#ffffff;stroke-linecap:square;stroke-linejoin:miter;stroke-width:1.25;"/>
   </g>
   <g id="patch_9">
    <path d="M 1283.04 269.26 
L 1283.04 164.7 
" style="fill:none;stroke:#ffffff;stroke-linecap:square;stroke-linejoin:miter;stroke-width:1.25;"/>
   </g>
   <g id="patch_10">
    <path d="M 67.95 269.26 
L 1283.04 269.26 
" style="fill:none;stroke:#ffffff;stroke-linecap:square;stroke-linejoin:miter;stroke-width:1.25;"/>
   </g>
   <g id="patch_11">
    <path d="M 67.95 164.7 
L 1283.04 164.7 
" style="fill:none;stroke:#ffffff;stroke-linecap:square;stroke-linejoin:miter;stroke-width:1.25;"/>
   </g>
  </g>
  <g id="axes_3">
   <g id="patch_12">
    <path d="M 67.95 406.36 
L 1283.04 406.36 
L 1283.04 301.8 
L 67.95 301.8 
z
" style="fill:#eaeaf2;"/>
   </g>
   <g id="matplotlib.axis_5">
    <g id="xtick_19">
     <g id="line2d_27">
      <path clip-path="url(#p76ec7069c2)" d="M 194.716947 406.36 
L 194.716947 301.8 
" style="fill:none;stroke:#ffffff;stroke-linecap:round;"/>
     </g>
     <g id="text_27">
      <!-- 2013-07 -->
      <g style="fill:#262626;" transform="translate(174.534525 423.733594)scale(0.11 -0.11)">
       <use xlink:href="#ArialMT-32"/>
       <use x="55.615234" xlink:href="#ArialMT-30"/>
       <use x="111.230469" xlink:href="#ArialMT-31"/>
       <use x="166.845703" xlink:href="#ArialMT-33"/>
       <use x="222.460938" xlink:href="#ArialMT-2d"/>
       <use x="255.761719" xlink:href="#ArialMT-30"/>
       <use x="311.376953" xlink:href="#ArialMT-37"/>
      </g>
     </g>
    </g>
    <g id="xtick_20">
     <g id="line2d_28">
      <path clip-path="url(#p76ec7069c2)" d="M 327.246028 406.36 
L 327.246028 301.8 
" style="fill:none;stroke:#ffffff;stroke-linecap:round;"/>
     </g>
     <g id="text_28">
      <!-- 2014-01 -->
      <g style="fill:#262626;" transform="translate(307.063607 423.733594)scale(0.11 -0.11)">
       <use xlink:href="#ArialMT-32"/>
       <use x="55.615234" xlink:href="#ArialMT-30"/>
       <use x="111.230469" xlink:href="#ArialMT-31"/>
       <use x="166.845703" xlink:href="#ArialMT-34"/>
       <use x="222.460938" xlink:href="#ArialMT-2d"/>
       <use x="255.761719" xlink:href="#ArialMT-30"/>
       <use x="311.376953" xlink:href="#ArialMT-31"/>
      </g>
     </g>
    </g>
    <g id="xtick_21">
     <g id="line2d_29">
      <path clip-path="url(#p76ec7069c2)" d="M 457.614309 406.36 
L 457.614309 301.8 
" style="fill:none;stroke:#ffffff;stroke-linecap:round;"/>
     </g>
     <g id="text_29">
      <!-- 2014-07 -->
      <g style="fill:#262626;" transform="translate(437.431888 423.733594)scale(0.11 -0.11)">
       <use xlink:href="#ArialMT-32"/>
       <use x="55.615234" xlink:href="#ArialMT-30"/>
       <use x="111.230469" xlink:href="#ArialMT-31"/>
       <use x="166.845703" xlink:href="#ArialMT-34"/>
       <use x="222.460938" xlink:href="#ArialMT-2d"/>
       <use x="255.761719" xlink:href="#ArialMT-30"/>
       <use x="311.376953" xlink:href="#ArialMT-37"/>
      </g>
     </g>
    </g>
    <g id="xtick_22">
     <g id="line2d_30">
      <path clip-path="url(#p76ec7069c2)" d="M 590.143391 406.36 
L 590.143391 301.8 
" style="fill:none;stroke:#ffffff;stroke-linecap:round;"/>
     </g>
     <g id="text_30">
      <!-- 2015-01 -->
      <g style="fill:#262626;" transform="translate(569.960969 423.733594)scale(0.11 -0.11)">
       <use xlink:href="#ArialMT-32"/>
       <use x="55.615234" xlink:href="#ArialMT-30"/>
       <use x="111.230469" xlink:href="#ArialMT-31"/>
       <use x="166.845703" xlink:href="#ArialMT-35"/>
       <use x="222.460938" xlink:href="#ArialMT-2d"/>
       <use x="255.761719" xlink:href="#ArialMT-30"/>
       <use x="311.376953" xlink:href="#ArialMT-31"/>
      </g>
     </g>
    </g>
    <g id="xtick_23">
     <g id="line2d_31">
      <path clip-path="url(#p76ec7069c2)" d="M 720.511672 406.36 
L 720.511672 301.8 
" style="fill:none;stroke:#ffffff;stroke-linecap:round;"/>
     </g>
     <g id="text_31">
      <!-- 2015-07 -->
      <g style="fill:#262626;" transform="translate(700.32925 423.733594)scale(0.11 -0.11)">
       <use xlink:href="#ArialMT-32"/>
       <use x="55.615234" xlink:href="#ArialMT-30"/>
       <use x="111.230469" xlink:href="#ArialMT-31"/>
       <use x="166.845703" xlink:href="#ArialMT-35"/>
       <use x="222.460938" xlink:href="#ArialMT-2d"/>
       <use x="255.761719" xlink:href="#ArialMT-30"/>
       <use x="311.376953" xlink:href="#ArialMT-37"/>
      </g>
     </g>
    </g>
    <g id="xtick_24">
     <g id="line2d_32">
      <path clip-path="url(#p76ec7069c2)" d="M 853.040753 406.36 
L 853.040753 301.8 
" style="fill:none;stroke:#ffffff;stroke-linecap:round;"/>
     </g>
     <g id="text_32">
      <!-- 2016-01 -->
      <g style="fill:#262626;" transform="translate(832.858331 423.733594)scale(0.11 -0.11)">
       <use xlink:href="#ArialMT-32"/>
       <use x="55.615234" xlink:href="#ArialMT-30"/>
       <use x="111.230469" xlink:href="#ArialMT-31"/>
       <use x="166.845703" xlink:href="#ArialMT-36"/>
       <use x="222.460938" xlink:href="#ArialMT-2d"/>
       <use x="255.761719" xlink:href="#ArialMT-30"/>
       <use x="311.376953" xlink:href="#ArialMT-31"/>
      </g>
     </g>
    </g>
    <g id="xtick_25">
     <g id="line2d_33">
      <path clip-path="url(#p76ec7069c2)" d="M 984.129301 406.36 
L 984.129301 301.8 
" style="fill:none;stroke:#ffffff;stroke-linecap:round;"/>
     </g>
     <g id="text_33">
      <!-- 2016-07 -->
      <g style="fill:#262626;" transform="translate(963.946879 423.733594)scale(0.11 -0.11)">
       <use xlink:href="#ArialMT-32"/>
       <use x="55.615234" xlink:href="#ArialMT-30"/>
       <use x="111.230469" xlink:href="#ArialMT-31"/>
       <use x="166.845703" xlink:href="#ArialMT-36"/>
       <use x="222.460938" xlink:href="#ArialMT-2d"/>
       <use x="255.761719" xlink:href="#ArialMT-30"/>
       <use x="311.376953" xlink:href="#ArialMT-37"/>
      </g>
     </g>
    </g>
    <g id="xtick_26">
     <g id="line2d_34">
      <path clip-path="url(#p76ec7069c2)" d="M 1116.658382 406.36 
L 1116.658382 301.8 
" style="fill:none;stroke:#ffffff;stroke-linecap:round;"/>
     </g>
     <g id="text_34">
      <!-- 2017-01 -->
      <g style="fill:#262626;" transform="translate(1096.47596 423.733594)scale(0.11 -0.11)">
       <use xlink:href="#ArialMT-32"/>
       <use x="55.615234" xlink:href="#ArialMT-30"/>
       <use x="111.230469" xlink:href="#ArialMT-31"/>
       <use x="166.845703" xlink:href="#ArialMT-37"/>
       <use x="222.460938" xlink:href="#ArialMT-2d"/>
       <use x="255.761719" xlink:href="#ArialMT-30"/>
       <use x="311.376953" xlink:href="#ArialMT-31"/>
      </g>
     </g>
    </g>
    <g id="xtick_27">
     <g id="line2d_35">
      <path clip-path="url(#p76ec7069c2)" d="M 1247.026663 406.36 
L 1247.026663 301.8 
" style="fill:none;stroke:#ffffff;stroke-linecap:round;"/>
     </g>
     <g id="text_35">
      <!-- 2017-07 -->
      <g style="fill:#262626;" transform="translate(1226.844241 423.733594)scale(0.11 -0.11)">
       <use xlink:href="#ArialMT-32"/>
       <use x="55.615234" xlink:href="#ArialMT-30"/>
       <use x="111.230469" xlink:href="#ArialMT-31"/>
       <use x="166.845703" xlink:href="#ArialMT-37"/>
       <use x="222.460938" xlink:href="#ArialMT-2d"/>
       <use x="255.761719" xlink:href="#ArialMT-30"/>
       <use x="311.376953" xlink:href="#ArialMT-37"/>
      </g>
     </g>
    </g>
   </g>
   <g id="matplotlib.axis_6">
    <g id="ytick_7">
     <g id="line2d_36">
      <path clip-path="url(#p76ec7069c2)" d="M 67.95 403.780228 
L 1283.04 403.780228 
" style="fill:none;stroke:#ffffff;stroke-linecap:round;"/>
     </g>
     <g id="text_36">
      <!-- 0.8 -->
      <g style="fill:#262626;" transform="translate(43.16 407.717025)scale(0.11 -0.11)">
       <defs>
        <path d="M 581 0 
L 581 641 
L 1222 641 
L 1222 0 
L 581 0 
z
" id="ArialMT-2e" transform="scale(0.015625)"/>
        <path d="M 1131 2484 
Q 781 2613 612 2850 
Q 444 3088 444 3419 
Q 444 3919 803 4259 
Q 1163 4600 1759 4600 
Q 2359 4600 2725 4251 
Q 3091 3903 3091 3403 
Q 3091 3084 2923 2848 
Q 2756 2613 2416 2484 
Q 2838 2347 3058 2040 
Q 3278 1734 3278 1309 
Q 3278 722 2862 322 
Q 2447 -78 1769 -78 
Q 1091 -78 675 323 
Q 259 725 259 1325 
Q 259 1772 486 2073 
Q 713 2375 1131 2484 
z
M 1019 3438 
Q 1019 3113 1228 2906 
Q 1438 2700 1772 2700 
Q 2097 2700 2305 2904 
Q 2513 3109 2513 3406 
Q 2513 3716 2298 3927 
Q 2084 4138 1766 4138 
Q 1444 4138 1231 3931 
Q 1019 3725 1019 3438 
z
M 838 1322 
Q 838 1081 952 856 
Q 1066 631 1291 507 
Q 1516 384 1775 384 
Q 2178 384 2440 643 
Q 2703 903 2703 1303 
Q 2703 1709 2433 1975 
Q 2163 2241 1756 2241 
Q 1359 2241 1098 1978 
Q 838 1716 838 1322 
z
" id="ArialMT-38" transform="scale(0.015625)"/>
       </defs>
       <use xlink:href="#ArialMT-30"/>
       <use x="55.615234" xlink:href="#ArialMT-2e"/>
       <use x="83.398438" xlink:href="#ArialMT-38"/>
      </g>
     </g>
    </g>
    <g id="ytick_8">
     <g id="line2d_37">
      <path clip-path="url(#p76ec7069c2)" d="M 67.95 367.203639 
L 1283.04 367.203639 
" style="fill:none;stroke:#ffffff;stroke-linecap:round;"/>
     </g>
     <g id="text_37">
      <!-- 1.0 -->
      <g style="fill:#262626;" transform="translate(43.16 371.140436)scale(0.11 -0.11)">
       <use xlink:href="#ArialMT-31"/>
       <use x="55.615234" xlink:href="#ArialMT-2e"/>
       <use x="83.398438" xlink:href="#ArialMT-30"/>
      </g>
     </g>
    </g>
    <g id="ytick_9">
     <g id="line2d_38">
      <path clip-path="url(#p76ec7069c2)" d="M 67.95 330.627049 
L 1283.04 330.627049 
" style="fill:none;stroke:#ffffff;stroke-linecap:round;"/>
     </g>
     <g id="text_38">
      <!-- 1.2 -->
      <g style="fill:#262626;" transform="translate(43.16 334.563846)scale(0.11 -0.11)">
       <use xlink:href="#ArialMT-31"/>
       <use x="55.615234" xlink:href="#ArialMT-2e"/>
       <use x="83.398438" xlink:href="#ArialMT-32"/>
      </g>
     </g>
    </g>
    <g id="text_39">
     <!-- Seasonal -->
     <g style="fill:#262626;" transform="translate(36.775 379.098125)rotate(-90)scale(0.12 -0.12)">
      <defs>
       <path d="M 288 1472 
L 859 1522 
Q 900 1178 1048 958 
Q 1197 738 1509 602 
Q 1822 466 2213 466 
Q 2559 466 2825 569 
Q 3091 672 3220 851 
Q 3350 1031 3350 1244 
Q 3350 1459 3225 1620 
Q 3100 1781 2813 1891 
Q 2628 1963 1997 2114 
Q 1366 2266 1113 2400 
Q 784 2572 623 2826 
Q 463 3081 463 3397 
Q 463 3744 659 4045 
Q 856 4347 1234 4503 
Q 1613 4659 2075 4659 
Q 2584 4659 2973 4495 
Q 3363 4331 3572 4012 
Q 3781 3694 3797 3291 
L 3216 3247 
Q 3169 3681 2898 3903 
Q 2628 4125 2100 4125 
Q 1550 4125 1298 3923 
Q 1047 3722 1047 3438 
Q 1047 3191 1225 3031 
Q 1400 2872 2139 2705 
Q 2878 2538 3153 2413 
Q 3553 2228 3743 1945 
Q 3934 1663 3934 1294 
Q 3934 928 3725 604 
Q 3516 281 3123 101 
Q 2731 -78 2241 -78 
Q 1619 -78 1198 103 
Q 778 284 539 648 
Q 300 1013 288 1472 
z
" id="ArialMT-53" transform="scale(0.015625)"/>
       <path d="M 213 1659 
Q 213 2581 725 3025 
Q 1153 3394 1769 3394 
Q 2453 3394 2887 2945 
Q 3322 2497 3322 1706 
Q 3322 1066 3130 698 
Q 2938 331 2570 128 
Q 2203 -75 1769 -75 
Q 1072 -75 642 372 
Q 213 819 213 1659 
z
M 791 1659 
Q 791 1022 1069 705 
Q 1347 388 1769 388 
Q 2188 388 2466 706 
Q 2744 1025 2744 1678 
Q 2744 2294 2464 2611 
Q 2184 2928 1769 2928 
Q 1347 2928 1069 2612 
Q 791 2297 791 1659 
z
" id="ArialMT-6f" transform="scale(0.015625)"/>
      </defs>
      <use xlink:href="#ArialMT-53"/>
      <use x="66.699219" xlink:href="#ArialMT-65"/>
      <use x="122.314453" xlink:href="#ArialMT-61"/>
      <use x="177.929688" xlink:href="#ArialMT-73"/>
      <use x="227.929688" xlink:href="#ArialMT-6f"/>
      <use x="283.544922" xlink:href="#ArialMT-6e"/>
      <use x="339.160156" xlink:href="#ArialMT-61"/>
      <use x="394.775391" xlink:href="#ArialMT-6c"/>
     </g>
    </g>
   </g>
   <g id="line2d_39">
    <path clip-path="url(#p76ec7069c2)" d="M 67.95 384.878379 
L 72.991867 335.973337 
L 78.033734 343.687724 
L 83.075602 352.195017 
L 88.117469 358.843317 
L 93.159336 379.043064 
L 98.201203 389.578487 
L 103.243071 386.530668 
L 108.284938 390.629384 
L 113.326805 360.13955 
L 118.368672 353.855582 
L 123.410539 357.480672 
L 128.452407 371.331454 
L 133.494274 386.189874 
L 138.536141 390.119092 
L 143.578008 401.607273 
L 148.619876 358.189767 
L 153.661743 400.369027 
L 158.70361 382.871544 
L 163.745477 392.546981 
L 168.787344 389.922722 
L 173.829212 397.103706 
L 178.871079 358.879196 
L 183.912946 372.686148 
L 188.954813 368.656945 
L 193.99668 373.959677 
L 199.038548 346.671486 
L 204.080415 361.706615 
L 209.122282 355.910113 
L 214.164149 363.893625 
L 219.206017 369.514991 
L 224.247884 382.312596 
L 229.289751 391.975738 
L 234.331618 388.710189 
L 239.373485 385.674668 
L 244.415353 350.817151 
L 249.45722 357.619241 
L 254.499087 359.73007 
L 259.540954 359.608323 
L 264.582822 345.336696 
L 269.624689 369.081616 
L 274.666556 353.418213 
L 279.708423 359.069734 
L 289.792158 376.34466 
L 294.834025 353.88506 
L 299.875892 352.725043 
L 304.917759 358.930391 
L 309.959627 346.905725 
L 315.001494 338.591012 
L 320.043361 306.552727 
L 325.085228 354.638865 
L 330.127095 384.878379 
L 335.168963 335.973337 
L 340.21083 343.687724 
L 345.252697 352.195017 
L 350.294564 358.843317 
L 355.336432 379.043064 
L 360.378299 389.578487 
L 365.420166 386.530668 
L 370.462033 390.629384 
L 375.5039 360.13955 
L 380.545768 353.855582 
L 385.587635 357.480672 
L 390.629502 371.331454 
L 395.671369 386.189874 
L 400.713237 390.119092 
L 405.755104 401.607273 
L 410.796971 358.189767 
L 415.838838 400.369027 
L 420.880705 382.871544 
L 425.922573 392.546981 
L 430.96444 389.922722 
L 436.006307 397.103706 
L 441.048174 358.879196 
L 446.090041 372.686148 
L 451.131909 368.656945 
L 456.173776 373.959677 
L 461.215643 346.671486 
L 466.25751 361.706615 
L 471.299378 355.910113 
L 476.341245 363.893625 
L 481.383112 369.514991 
L 486.424979 382.312596 
L 491.466846 391.975738 
L 496.508714 388.710189 
L 501.550581 385.674668 
L 506.592448 350.817151 
L 511.634315 357.619241 
L 516.676183 359.73007 
L 521.71805 359.608323 
L 526.759917 345.336696 
L 531.801784 369.081616 
L 536.843651 353.418213 
L 541.885519 359.069734 
L 551.969253 376.34466 
L 557.01112 353.88506 
L 562.052988 352.725043 
L 567.094855 358.930391 
L 572.136722 346.905725 
L 577.178589 338.591012 
L 582.220456 306.552727 
L 587.262324 354.638865 
L 592.304191 384.878379 
L 597.346058 335.973337 
L 602.387925 343.687724 
L 607.429793 352.195017 
L 612.47166 358.843317 
L 617.513527 379.043064 
L 622.555394 389.578487 
L 627.597261 386.530668 
L 632.639129 390.629384 
L 637.680996 360.13955 
L 642.722863 353.855582 
L 647.76473 357.480672 
L 652.806598 371.331454 
L 657.848465 386.189874 
L 662.890332 390.119092 
L 667.932199 401.607273 
L 672.974066 358.189767 
L 678.015934 400.369027 
L 683.057801 382.871544 
L 688.099668 392.546981 
L 693.141535 389.922722 
L 698.183402 397.103706 
L 703.22527 358.879196 
L 708.267137 372.686148 
L 713.309004 368.656945 
L 718.350871 373.959677 
L 723.392739 346.671486 
L 728.434606 361.706615 
L 733.476473 355.910113 
L 738.51834 363.893625 
L 743.560207 369.514991 
L 748.602075 382.312596 
L 753.643942 391.975738 
L 758.685809 388.710189 
L 763.727676 385.674668 
L 768.769544 350.817151 
L 773.811411 357.619241 
L 778.853278 359.73007 
L 783.895145 359.608323 
L 788.937012 345.336696 
L 793.97888 369.081616 
L 799.020747 353.418213 
L 804.062614 359.069734 
L 814.146349 376.34466 
L 819.188216 353.88506 
L 824.230083 352.725043 
L 829.27195 358.930391 
L 834.313817 346.905725 
L 839.355685 338.591012 
L 844.397552 306.552727 
L 849.439419 354.638865 
L 854.481286 384.878379 
L 859.523154 335.973337 
L 864.565021 343.687724 
L 869.606888 352.195017 
L 874.648755 358.843317 
L 879.690622 379.043064 
L 884.73249 389.578487 
L 889.774357 386.530668 
L 894.816224 390.629384 
L 899.858091 360.13955 
L 904.899959 353.855582 
L 909.941826 357.480672 
L 914.983693 371.331454 
L 920.02556 386.189874 
L 925.067427 390.119092 
L 930.109295 401.607273 
L 935.151162 358.189767 
L 940.193029 400.369027 
L 945.234896 382.871544 
L 950.276763 392.546981 
L 955.318631 389.922722 
L 960.360498 397.103706 
L 965.402365 358.879196 
L 970.444232 372.686148 
L 975.4861 368.656945 
L 980.527967 373.959677 
L 985.569834 346.671486 
L 990.611701 361.706615 
L 995.653568 355.910113 
L 1000.695436 363.893625 
L 1005.737303 369.514991 
L 1010.77917 382.312596 
L 1015.821037 391.975738 
L 1020.862905 388.710189 
L 1025.904772 385.674668 
L 1030.946639 350.817151 
L 1035.988506 357.619241 
L 1041.030373 359.73007 
L 1046.072241 359.608323 
L 1051.114108 345.336696 
L 1056.155975 369.081616 
L 1061.197842 353.418213 
L 1066.23971 359.069734 
L 1076.323444 376.34466 
L 1081.365311 353.88506 
L 1086.407178 352.725043 
L 1091.449046 358.930391 
L 1096.490913 346.905725 
L 1101.53278 338.591012 
L 1106.574647 306.552727 
L 1111.616515 354.638865 
L 1116.658382 384.878379 
L 1121.700249 335.973337 
L 1126.742116 343.687724 
L 1131.783983 352.195017 
L 1136.825851 358.843317 
L 1141.867718 379.043064 
L 1146.909585 389.578487 
L 1151.951452 386.530668 
L 1156.99332 390.629384 
L 1162.035187 360.13955 
L 1167.077054 353.855582 
L 1172.118921 357.480672 
L 1177.160788 371.331454 
L 1182.202656 386.189874 
L 1187.244523 390.119092 
L 1192.28639 401.607273 
L 1197.328257 358.189767 
L 1202.370124 400.369027 
L 1207.411992 382.871544 
L 1212.453859 392.546981 
L 1217.495726 389.922722 
L 1222.537593 397.103706 
L 1227.579461 358.879196 
L 1232.621328 372.686148 
L 1237.663195 368.656945 
L 1242.705062 373.959677 
L 1247.746929 346.671486 
L 1252.788797 361.706615 
L 1257.830664 355.910113 
L 1262.872531 363.893625 
L 1267.914398 369.514991 
L 1272.956266 382.312596 
L 1277.998133 391.975738 
L 1283.04 388.710189 
L 1283.04 388.710189 
" style="fill:none;stroke:#4c72b0;stroke-linecap:round;stroke-width:1.5;"/>
   </g>
   <g id="patch_13">
    <path d="M 67.95 406.36 
L 67.95 301.8 
" style="fill:none;stroke:#ffffff;stroke-linecap:square;stroke-linejoin:miter;stroke-width:1.25;"/>
   </g>
   <g id="patch_14">
    <path d="M 1283.04 406.36 
L 1283.04 301.8 
" style="fill:none;stroke:#ffffff;stroke-linecap:square;stroke-linejoin:miter;stroke-width:1.25;"/>
   </g>
   <g id="patch_15">
    <path d="M 67.95 406.36 
L 1283.04 406.36 
" style="fill:none;stroke:#ffffff;stroke-linecap:square;stroke-linejoin:miter;stroke-width:1.25;"/>
   </g>
   <g id="patch_16">
    <path d="M 67.95 301.8 
L 1283.04 301.8 
" style="fill:none;stroke:#ffffff;stroke-linecap:square;stroke-linejoin:miter;stroke-width:1.25;"/>
   </g>
  </g>
  <g id="axes_4">
   <g id="patch_17">
    <path d="M 67.95 543.46 
L 1283.04 543.46 
L 1283.04 438.9 
L 67.95 438.9 
z
" style="fill:#eaeaf2;"/>
   </g>
   <g id="line2d_40">
    <path clip-path="url(#p77093db396)" d="M 67.95 538.707273 
L 1283.04 538.707273 
" style="fill:none;stroke:#000000;stroke-linecap:round;stroke-width:1.5;"/>
   </g>
   <g id="matplotlib.axis_7">
    <g id="xtick_28">
     <g id="line2d_41">
      <path clip-path="url(#p77093db396)" d="M 194.716947 543.46 
L 194.716947 438.9 
" style="fill:none;stroke:#ffffff;stroke-linecap:round;"/>
     </g>
     <g id="text_40">
      <!-- 2013-07 -->
      <g style="fill:#262626;" transform="translate(174.534525 560.833594)scale(0.11 -0.11)">
       <use xlink:href="#ArialMT-32"/>
       <use x="55.615234" xlink:href="#ArialMT-30"/>
       <use x="111.230469" xlink:href="#ArialMT-31"/>
       <use x="166.845703" xlink:href="#ArialMT-33"/>
       <use x="222.460938" xlink:href="#ArialMT-2d"/>
       <use x="255.761719" xlink:href="#ArialMT-30"/>
       <use x="311.376953" xlink:href="#ArialMT-37"/>
      </g>
     </g>
    </g>
    <g id="xtick_29">
     <g id="line2d_42">
      <path clip-path="url(#p77093db396)" d="M 327.246028 543.46 
L 327.246028 438.9 
" style="fill:none;stroke:#ffffff;stroke-linecap:round;"/>
     </g>
     <g id="text_41">
      <!-- 2014-01 -->
      <g style="fill:#262626;" transform="translate(307.063607 560.833594)scale(0.11 -0.11)">
       <use xlink:href="#ArialMT-32"/>
       <use x="55.615234" xlink:href="#ArialMT-30"/>
       <use x="111.230469" xlink:href="#ArialMT-31"/>
       <use x="166.845703" xlink:href="#ArialMT-34"/>
       <use x="222.460938" xlink:href="#ArialMT-2d"/>
       <use x="255.761719" xlink:href="#ArialMT-30"/>
       <use x="311.376953" xlink:href="#ArialMT-31"/>
      </g>
     </g>
    </g>
    <g id="xtick_30">
     <g id="line2d_43">
      <path clip-path="url(#p77093db396)" d="M 457.614309 543.46 
L 457.614309 438.9 
" style="fill:none;stroke:#ffffff;stroke-linecap:round;"/>
     </g>
     <g id="text_42">
      <!-- 2014-07 -->
      <g style="fill:#262626;" transform="translate(437.431888 560.833594)scale(0.11 -0.11)">
       <use xlink:href="#ArialMT-32"/>
       <use x="55.615234" xlink:href="#ArialMT-30"/>
       <use x="111.230469" xlink:href="#ArialMT-31"/>
       <use x="166.845703" xlink:href="#ArialMT-34"/>
       <use x="222.460938" xlink:href="#ArialMT-2d"/>
       <use x="255.761719" xlink:href="#ArialMT-30"/>
       <use x="311.376953" xlink:href="#ArialMT-37"/>
      </g>
     </g>
    </g>
    <g id="xtick_31">
     <g id="line2d_44">
      <path clip-path="url(#p77093db396)" d="M 590.143391 543.46 
L 590.143391 438.9 
" style="fill:none;stroke:#ffffff;stroke-linecap:round;"/>
     </g>
     <g id="text_43">
      <!-- 2015-01 -->
      <g style="fill:#262626;" transform="translate(569.960969 560.833594)scale(0.11 -0.11)">
       <use xlink:href="#ArialMT-32"/>
       <use x="55.615234" xlink:href="#ArialMT-30"/>
       <use x="111.230469" xlink:href="#ArialMT-31"/>
       <use x="166.845703" xlink:href="#ArialMT-35"/>
       <use x="222.460938" xlink:href="#ArialMT-2d"/>
       <use x="255.761719" xlink:href="#ArialMT-30"/>
       <use x="311.376953" xlink:href="#ArialMT-31"/>
      </g>
     </g>
    </g>
    <g id="xtick_32">
     <g id="line2d_45">
      <path clip-path="url(#p77093db396)" d="M 720.511672 543.46 
L 720.511672 438.9 
" style="fill:none;stroke:#ffffff;stroke-linecap:round;"/>
     </g>
     <g id="text_44">
      <!-- 2015-07 -->
      <g style="fill:#262626;" transform="translate(700.32925 560.833594)scale(0.11 -0.11)">
       <use xlink:href="#ArialMT-32"/>
       <use x="55.615234" xlink:href="#ArialMT-30"/>
       <use x="111.230469" xlink:href="#ArialMT-31"/>
       <use x="166.845703" xlink:href="#ArialMT-35"/>
       <use x="222.460938" xlink:href="#ArialMT-2d"/>
       <use x="255.761719" xlink:href="#ArialMT-30"/>
       <use x="311.376953" xlink:href="#ArialMT-37"/>
      </g>
     </g>
    </g>
    <g id="xtick_33">
     <g id="line2d_46">
      <path clip-path="url(#p77093db396)" d="M 853.040753 543.46 
L 853.040753 438.9 
" style="fill:none;stroke:#ffffff;stroke-linecap:round;"/>
     </g>
     <g id="text_45">
      <!-- 2016-01 -->
      <g style="fill:#262626;" transform="translate(832.858331 560.833594)scale(0.11 -0.11)">
       <use xlink:href="#ArialMT-32"/>
       <use x="55.615234" xlink:href="#ArialMT-30"/>
       <use x="111.230469" xlink:href="#ArialMT-31"/>
       <use x="166.845703" xlink:href="#ArialMT-36"/>
       <use x="222.460938" xlink:href="#ArialMT-2d"/>
       <use x="255.761719" xlink:href="#ArialMT-30"/>
       <use x="311.376953" xlink:href="#ArialMT-31"/>
      </g>
     </g>
    </g>
    <g id="xtick_34">
     <g id="line2d_47">
      <path clip-path="url(#p77093db396)" d="M 984.129301 543.46 
L 984.129301 438.9 
" style="fill:none;stroke:#ffffff;stroke-linecap:round;"/>
     </g>
     <g id="text_46">
      <!-- 2016-07 -->
      <g style="fill:#262626;" transform="translate(963.946879 560.833594)scale(0.11 -0.11)">
       <use xlink:href="#ArialMT-32"/>
       <use x="55.615234" xlink:href="#ArialMT-30"/>
       <use x="111.230469" xlink:href="#ArialMT-31"/>
       <use x="166.845703" xlink:href="#ArialMT-36"/>
       <use x="222.460938" xlink:href="#ArialMT-2d"/>
       <use x="255.761719" xlink:href="#ArialMT-30"/>
       <use x="311.376953" xlink:href="#ArialMT-37"/>
      </g>
     </g>
    </g>
    <g id="xtick_35">
     <g id="line2d_48">
      <path clip-path="url(#p77093db396)" d="M 1116.658382 543.46 
L 1116.658382 438.9 
" style="fill:none;stroke:#ffffff;stroke-linecap:round;"/>
     </g>
     <g id="text_47">
      <!-- 2017-01 -->
      <g style="fill:#262626;" transform="translate(1096.47596 560.833594)scale(0.11 -0.11)">
       <use xlink:href="#ArialMT-32"/>
       <use x="55.615234" xlink:href="#ArialMT-30"/>
       <use x="111.230469" xlink:href="#ArialMT-31"/>
       <use x="166.845703" xlink:href="#ArialMT-37"/>
       <use x="222.460938" xlink:href="#ArialMT-2d"/>
       <use x="255.761719" xlink:href="#ArialMT-30"/>
       <use x="311.376953" xlink:href="#ArialMT-31"/>
      </g>
     </g>
    </g>
    <g id="xtick_36">
     <g id="line2d_49">
      <path clip-path="url(#p77093db396)" d="M 1247.026663 543.46 
L 1247.026663 438.9 
" style="fill:none;stroke:#ffffff;stroke-linecap:round;"/>
     </g>
     <g id="text_48">
      <!-- 2017-07 -->
      <g style="fill:#262626;" transform="translate(1226.844241 560.833594)scale(0.11 -0.11)">
       <use xlink:href="#ArialMT-32"/>
       <use x="55.615234" xlink:href="#ArialMT-30"/>
       <use x="111.230469" xlink:href="#ArialMT-31"/>
       <use x="166.845703" xlink:href="#ArialMT-37"/>
       <use x="222.460938" xlink:href="#ArialMT-2d"/>
       <use x="255.761719" xlink:href="#ArialMT-30"/>
       <use x="311.376953" xlink:href="#ArialMT-37"/>
      </g>
     </g>
    </g>
   </g>
   <g id="matplotlib.axis_8">
    <g id="ytick_10">
     <g id="line2d_50">
      <path clip-path="url(#p77093db396)" d="M 67.95 538.707273 
L 1283.04 538.707273 
" style="fill:none;stroke:#ffffff;stroke-linecap:round;"/>
     </g>
     <g id="text_49">
      <!-- 0.0 -->
      <g style="fill:#262626;" transform="translate(43.16 542.64407)scale(0.11 -0.11)">
       <use xlink:href="#ArialMT-30"/>
       <use x="55.615234" xlink:href="#ArialMT-2e"/>
       <use x="83.398438" xlink:href="#ArialMT-30"/>
      </g>
     </g>
    </g>
    <g id="ytick_11">
     <g id="line2d_51">
      <path clip-path="url(#p77093db396)" d="M 67.95 505.316798 
L 1283.04 505.316798 
" style="fill:none;stroke:#ffffff;stroke-linecap:round;"/>
     </g>
     <g id="text_50">
      <!-- 0.5 -->
      <g style="fill:#262626;" transform="translate(43.16 509.253595)scale(0.11 -0.11)">
       <use xlink:href="#ArialMT-30"/>
       <use x="55.615234" xlink:href="#ArialMT-2e"/>
       <use x="83.398438" xlink:href="#ArialMT-35"/>
      </g>
     </g>
    </g>
    <g id="ytick_12">
     <g id="line2d_52">
      <path clip-path="url(#p77093db396)" d="M 67.95 471.926323 
L 1283.04 471.926323 
" style="fill:none;stroke:#ffffff;stroke-linecap:round;"/>
     </g>
     <g id="text_51">
      <!-- 1.0 -->
      <g style="fill:#262626;" transform="translate(43.16 475.86312)scale(0.11 -0.11)">
       <use xlink:href="#ArialMT-31"/>
       <use x="55.615234" xlink:href="#ArialMT-2e"/>
       <use x="83.398438" xlink:href="#ArialMT-30"/>
      </g>
     </g>
    </g>
    <g id="text_52">
     <!-- Resid -->
     <g style="fill:#262626;" transform="translate(36.775 506.519375)rotate(-90)scale(0.12 -0.12)">
      <defs>
       <path d="M 503 0 
L 503 4581 
L 2534 4581 
Q 3147 4581 3465 4457 
Q 3784 4334 3975 4021 
Q 4166 3709 4166 3331 
Q 4166 2844 3850 2509 
Q 3534 2175 2875 2084 
Q 3116 1969 3241 1856 
Q 3506 1613 3744 1247 
L 4541 0 
L 3778 0 
L 3172 953 
Q 2906 1366 2734 1584 
Q 2563 1803 2427 1890 
Q 2291 1978 2150 2013 
Q 2047 2034 1813 2034 
L 1109 2034 
L 1109 0 
L 503 0 
z
M 1109 2559 
L 2413 2559 
Q 2828 2559 3062 2645 
Q 3297 2731 3419 2920 
Q 3541 3109 3541 3331 
Q 3541 3656 3305 3865 
Q 3069 4075 2559 4075 
L 1109 4075 
L 1109 2559 
z
" id="ArialMT-52" transform="scale(0.015625)"/>
       <path d="M 425 3934 
L 425 4581 
L 988 4581 
L 988 3934 
L 425 3934 
z
M 425 0 
L 425 3319 
L 988 3319 
L 988 0 
L 425 0 
z
" id="ArialMT-69" transform="scale(0.015625)"/>
      </defs>
      <use xlink:href="#ArialMT-52"/>
      <use x="72.216797" xlink:href="#ArialMT-65"/>
      <use x="127.832031" xlink:href="#ArialMT-73"/>
      <use x="177.832031" xlink:href="#ArialMT-69"/>
      <use x="200.048828" xlink:href="#ArialMT-64"/>
     </g>
    </g>
   </g>
   <g id="line2d_53">
    <defs>
     <path d="M 0 3 
C 0.795609 3 1.55874 2.683901 2.12132 2.12132 
C 2.683901 1.55874 3 0.795609 3 0 
C 3 -0.795609 2.683901 -1.55874 2.12132 -2.12132 
C 1.55874 -2.683901 0.795609 -3 0 -3 
C -0.795609 -3 -1.55874 -2.683901 -2.12132 -2.12132 
C -2.683901 -1.55874 -3 -0.795609 -3 0 
C -3 0.795609 -2.683901 1.55874 -2.12132 2.12132 
C -1.55874 2.683901 -0.795609 3 0 3 
z
" id="md6d27f102d" style="stroke:#4c72b0;"/>
    </defs>
    <g clip-path="url(#p77093db396)">
     <use style="fill:#4c72b0;stroke:#4c72b0;" x="199.038548" xlink:href="#md6d27f102d" y="478.026946"/>
     <use style="fill:#4c72b0;stroke:#4c72b0;" x="204.080415" xlink:href="#md6d27f102d" y="477.822081"/>
     <use style="fill:#4c72b0;stroke:#4c72b0;" x="209.122282" xlink:href="#md6d27f102d" y="480.302864"/>
     <use style="fill:#4c72b0;stroke:#4c72b0;" x="214.164149" xlink:href="#md6d27f102d" y="480.093882"/>
     <use style="fill:#4c72b0;stroke:#4c72b0;" x="219.206017" xlink:href="#md6d27f102d" y="477.320208"/>
     <use style="fill:#4c72b0;stroke:#4c72b0;" x="224.247884" xlink:href="#md6d27f102d" y="478.163358"/>
     <use style="fill:#4c72b0;stroke:#4c72b0;" x="229.289751" xlink:href="#md6d27f102d" y="473.127367"/>
     <use style="fill:#4c72b0;stroke:#4c72b0;" x="234.331618" xlink:href="#md6d27f102d" y="476.740845"/>
     <use style="fill:#4c72b0;stroke:#4c72b0;" x="239.373485" xlink:href="#md6d27f102d" y="473.059072"/>
     <use style="fill:#4c72b0;stroke:#4c72b0;" x="244.415353" xlink:href="#md6d27f102d" y="482.36424"/>
     <use style="fill:#4c72b0;stroke:#4c72b0;" x="249.45722" xlink:href="#md6d27f102d" y="482.763345"/>
     <use style="fill:#4c72b0;stroke:#4c72b0;" x="254.499087" xlink:href="#md6d27f102d" y="483.496015"/>
     <use style="fill:#4c72b0;stroke:#4c72b0;" x="259.540954" xlink:href="#md6d27f102d" y="482.009081"/>
     <use style="fill:#4c72b0;stroke:#4c72b0;" x="264.582822" xlink:href="#md6d27f102d" y="481.708082"/>
     <use style="fill:#4c72b0;stroke:#4c72b0;" x="269.624689" xlink:href="#md6d27f102d" y="484.803071"/>
     <use style="fill:#4c72b0;stroke:#4c72b0;" x="274.666556" xlink:href="#md6d27f102d" y="483.543091"/>
     <use style="fill:#4c72b0;stroke:#4c72b0;" x="279.708423" xlink:href="#md6d27f102d" y="482.385297"/>
     <use style="fill:#4c72b0;stroke:#4c72b0;" x="284.75029" xlink:href="#md6d27f102d" y="479.914119"/>
     <use style="fill:#4c72b0;stroke:#4c72b0;" x="289.792158" xlink:href="#md6d27f102d" y="471.278812"/>
     <use style="fill:#4c72b0;stroke:#4c72b0;" x="294.834025" xlink:href="#md6d27f102d" y="480.906444"/>
     <use style="fill:#4c72b0;stroke:#4c72b0;" x="299.875892" xlink:href="#md6d27f102d" y="480.096273"/>
     <use style="fill:#4c72b0;stroke:#4c72b0;" x="304.917759" xlink:href="#md6d27f102d" y="478.765553"/>
     <use style="fill:#4c72b0;stroke:#4c72b0;" x="309.959627" xlink:href="#md6d27f102d" y="483.813645"/>
     <use style="fill:#4c72b0;stroke:#4c72b0;" x="315.001494" xlink:href="#md6d27f102d" y="473.531474"/>
     <use style="fill:#4c72b0;stroke:#4c72b0;" x="320.043361" xlink:href="#md6d27f102d" y="472.760889"/>
     <use style="fill:#4c72b0;stroke:#4c72b0;" x="325.085228" xlink:href="#md6d27f102d" y="480.710448"/>
     <use style="fill:#4c72b0;stroke:#4c72b0;" x="330.127095" xlink:href="#md6d27f102d" y="454.165482"/>
     <use style="fill:#4c72b0;stroke:#4c72b0;" x="335.168963" xlink:href="#md6d27f102d" y="449.350764"/>
     <use style="fill:#4c72b0;stroke:#4c72b0;" x="340.21083" xlink:href="#md6d27f102d" y="449.394462"/>
     <use style="fill:#4c72b0;stroke:#4c72b0;" x="345.252697" xlink:href="#md6d27f102d" y="448.506369"/>
     <use style="fill:#4c72b0;stroke:#4c72b0;" x="350.294564" xlink:href="#md6d27f102d" y="454.973159"/>
     <use style="fill:#4c72b0;stroke:#4c72b0;" x="355.336432" xlink:href="#md6d27f102d" y="476.345405"/>
     <use style="fill:#4c72b0;stroke:#4c72b0;" x="360.378299" xlink:href="#md6d27f102d" y="469.966607"/>
     <use style="fill:#4c72b0;stroke:#4c72b0;" x="365.420166" xlink:href="#md6d27f102d" y="475.070595"/>
     <use style="fill:#4c72b0;stroke:#4c72b0;" x="370.462033" xlink:href="#md6d27f102d" y="471.882999"/>
     <use style="fill:#4c72b0;stroke:#4c72b0;" x="375.5039" xlink:href="#md6d27f102d" y="459.226824"/>
     <use style="fill:#4c72b0;stroke:#4c72b0;" x="380.545768" xlink:href="#md6d27f102d" y="451.182874"/>
     <use style="fill:#4c72b0;stroke:#4c72b0;" x="385.587635" xlink:href="#md6d27f102d" y="451.309826"/>
     <use style="fill:#4c72b0;stroke:#4c72b0;" x="390.629502" xlink:href="#md6d27f102d" y="448.060531"/>
     <use style="fill:#4c72b0;stroke:#4c72b0;" x="395.671369" xlink:href="#md6d27f102d" y="466.285602"/>
     <use style="fill:#4c72b0;stroke:#4c72b0;" x="400.713237" xlink:href="#md6d27f102d" y="476.750831"/>
     <use style="fill:#4c72b0;stroke:#4c72b0;" x="405.755104" xlink:href="#md6d27f102d" y="482.681035"/>
     <use style="fill:#4c72b0;stroke:#4c72b0;" x="410.796971" xlink:href="#md6d27f102d" y="486.068152"/>
     <use style="fill:#4c72b0;stroke:#4c72b0;" x="415.838838" xlink:href="#md6d27f102d" y="476.078584"/>
     <use style="fill:#4c72b0;stroke:#4c72b0;" x="420.880705" xlink:href="#md6d27f102d" y="479.043333"/>
     <use style="fill:#4c72b0;stroke:#4c72b0;" x="425.922573" xlink:href="#md6d27f102d" y="477.749784"/>
     <use style="fill:#4c72b0;stroke:#4c72b0;" x="430.96444" xlink:href="#md6d27f102d" y="479.812005"/>
     <use style="fill:#4c72b0;stroke:#4c72b0;" x="436.006307" xlink:href="#md6d27f102d" y="478.15566"/>
     <use style="fill:#4c72b0;stroke:#4c72b0;" x="441.048174" xlink:href="#md6d27f102d" y="487.09518"/>
     <use style="fill:#4c72b0;stroke:#4c72b0;" x="446.090041" xlink:href="#md6d27f102d" y="486.5019"/>
     <use style="fill:#4c72b0;stroke:#4c72b0;" x="451.131909" xlink:href="#md6d27f102d" y="487.343299"/>
     <use style="fill:#4c72b0;stroke:#4c72b0;" x="456.173776" xlink:href="#md6d27f102d" y="486.469056"/>
     <use style="fill:#4c72b0;stroke:#4c72b0;" x="461.215643" xlink:href="#md6d27f102d" y="468.53415"/>
     <use style="fill:#4c72b0;stroke:#4c72b0;" x="466.25751" xlink:href="#md6d27f102d" y="461.983022"/>
     <use style="fill:#4c72b0;stroke:#4c72b0;" x="471.299378" xlink:href="#md6d27f102d" y="464.822459"/>
     <use style="fill:#4c72b0;stroke:#4c72b0;" x="476.341245" xlink:href="#md6d27f102d" y="463.508554"/>
     <use style="fill:#4c72b0;stroke:#4c72b0;" x="481.383112" xlink:href="#md6d27f102d" y="469.977778"/>
     <use style="fill:#4c72b0;stroke:#4c72b0;" x="486.424979" xlink:href="#md6d27f102d" y="484.482038"/>
     <use style="fill:#4c72b0;stroke:#4c72b0;" x="491.466846" xlink:href="#md6d27f102d" y="482.136019"/>
     <use style="fill:#4c72b0;stroke:#4c72b0;" x="496.508714" xlink:href="#md6d27f102d" y="483.96653"/>
     <use style="fill:#4c72b0;stroke:#4c72b0;" x="501.550581" xlink:href="#md6d27f102d" y="483.973376"/>
     <use style="fill:#4c72b0;stroke:#4c72b0;" x="506.592448" xlink:href="#md6d27f102d" y="459.176173"/>
     <use style="fill:#4c72b0;stroke:#4c72b0;" x="511.634315" xlink:href="#md6d27f102d" y="458.290708"/>
     <use style="fill:#4c72b0;stroke:#4c72b0;" x="516.676183" xlink:href="#md6d27f102d" y="459.687547"/>
     <use style="fill:#4c72b0;stroke:#4c72b0;" x="521.71805" xlink:href="#md6d27f102d" y="458.954109"/>
     <use style="fill:#4c72b0;stroke:#4c72b0;" x="526.759917" xlink:href="#md6d27f102d" y="454.591358"/>
     <use style="fill:#4c72b0;stroke:#4c72b0;" x="531.801784" xlink:href="#md6d27f102d" y="462.416078"/>
     <use style="fill:#4c72b0;stroke:#4c72b0;" x="536.843651" xlink:href="#md6d27f102d" y="456.953668"/>
     <use style="fill:#4c72b0;stroke:#4c72b0;" x="541.885519" xlink:href="#md6d27f102d" y="459.880635"/>
     <use style="fill:#4c72b0;stroke:#4c72b0;" x="546.927386" xlink:href="#md6d27f102d" y="459.453923"/>
     <use style="fill:#4c72b0;stroke:#4c72b0;" x="551.969253" xlink:href="#md6d27f102d" y="452.41302"/>
     <use style="fill:#4c72b0;stroke:#4c72b0;" x="557.01112" xlink:href="#md6d27f102d" y="460.903752"/>
     <use style="fill:#4c72b0;stroke:#4c72b0;" x="562.052988" xlink:href="#md6d27f102d" y="458.958562"/>
     <use style="fill:#4c72b0;stroke:#4c72b0;" x="567.094855" xlink:href="#md6d27f102d" y="460.65599"/>
     <use style="fill:#4c72b0;stroke:#4c72b0;" x="572.136722" xlink:href="#md6d27f102d" y="460.273632"/>
     <use style="fill:#4c72b0;stroke:#4c72b0;" x="577.178589" xlink:href="#md6d27f102d" y="458.46555"/>
     <use style="fill:#4c72b0;stroke:#4c72b0;" x="582.220456" xlink:href="#md6d27f102d" y="462.349123"/>
     <use style="fill:#4c72b0;stroke:#4c72b0;" x="587.262324" xlink:href="#md6d27f102d" y="471.804342"/>
     <use style="fill:#4c72b0;stroke:#4c72b0;" x="592.304191" xlink:href="#md6d27f102d" y="479.599534"/>
     <use style="fill:#4c72b0;stroke:#4c72b0;" x="597.346058" xlink:href="#md6d27f102d" y="489.536138"/>
     <use style="fill:#4c72b0;stroke:#4c72b0;" x="602.387925" xlink:href="#md6d27f102d" y="490.231631"/>
     <use style="fill:#4c72b0;stroke:#4c72b0;" x="607.429793" xlink:href="#md6d27f102d" y="490.137429"/>
     <use style="fill:#4c72b0;stroke:#4c72b0;" x="612.47166" xlink:href="#md6d27f102d" y="486.409825"/>
     <use style="fill:#4c72b0;stroke:#4c72b0;" x="617.513527" xlink:href="#md6d27f102d" y="480.819196"/>
     <use style="fill:#4c72b0;stroke:#4c72b0;" x="622.555394" xlink:href="#md6d27f102d" y="484.06769"/>
     <use style="fill:#4c72b0;stroke:#4c72b0;" x="627.597261" xlink:href="#md6d27f102d" y="493.758548"/>
     <use style="fill:#4c72b0;stroke:#4c72b0;" x="632.639129" xlink:href="#md6d27f102d" y="480.7198"/>
     <use style="fill:#4c72b0;stroke:#4c72b0;" x="637.680996" xlink:href="#md6d27f102d" y="487.82924"/>
     <use style="fill:#4c72b0;stroke:#4c72b0;" x="642.722863" xlink:href="#md6d27f102d" y="488.277857"/>
     <use style="fill:#4c72b0;stroke:#4c72b0;" x="647.76473" xlink:href="#md6d27f102d" y="490.430106"/>
     <use style="fill:#4c72b0;stroke:#4c72b0;" x="652.806598" xlink:href="#md6d27f102d" y="488.41473"/>
     <use style="fill:#4c72b0;stroke:#4c72b0;" x="657.848465" xlink:href="#md6d27f102d" y="489.424768"/>
     <use style="fill:#4c72b0;stroke:#4c72b0;" x="662.890332" xlink:href="#md6d27f102d" y="478.438415"/>
     <use style="fill:#4c72b0;stroke:#4c72b0;" x="667.932199" xlink:href="#md6d27f102d" y="478.164826"/>
     <use style="fill:#4c72b0;stroke:#4c72b0;" x="672.974066" xlink:href="#md6d27f102d" y="487.09214"/>
     <use style="fill:#4c72b0;stroke:#4c72b0;" x="678.015934" xlink:href="#md6d27f102d" y="484.99585"/>
     <use style="fill:#4c72b0;stroke:#4c72b0;" x="683.057801" xlink:href="#md6d27f102d" y="477.833558"/>
     <use style="fill:#4c72b0;stroke:#4c72b0;" x="688.099668" xlink:href="#md6d27f102d" y="477.432371"/>
     <use style="fill:#4c72b0;stroke:#4c72b0;" x="693.141535" xlink:href="#md6d27f102d" y="476.318993"/>
     <use style="fill:#4c72b0;stroke:#4c72b0;" x="698.183402" xlink:href="#md6d27f102d" y="466.876454"/>
     <use style="fill:#4c72b0;stroke:#4c72b0;" x="703.22527" xlink:href="#md6d27f102d" y="459.314272"/>
     <use style="fill:#4c72b0;stroke:#4c72b0;" x="708.267137" xlink:href="#md6d27f102d" y="459.096677"/>
     <use style="fill:#4c72b0;stroke:#4c72b0;" x="713.309004" xlink:href="#md6d27f102d" y="456.959957"/>
     <use style="fill:#4c72b0;stroke:#4c72b0;" x="718.350871" xlink:href="#md6d27f102d" y="458.315886"/>
     <use style="fill:#4c72b0;stroke:#4c72b0;" x="723.392739" xlink:href="#md6d27f102d" y="463.412107"/>
     <use style="fill:#4c72b0;stroke:#4c72b0;" x="728.434606" xlink:href="#md6d27f102d" y="474.57949"/>
     <use style="fill:#4c72b0;stroke:#4c72b0;" x="733.476473" xlink:href="#md6d27f102d" y="465.715872"/>
     <use style="fill:#4c72b0;stroke:#4c72b0;" x="738.51834" xlink:href="#md6d27f102d" y="468.5563"/>
     <use style="fill:#4c72b0;stroke:#4c72b0;" x="743.560207" xlink:href="#md6d27f102d" y="465.086631"/>
     <use style="fill:#4c72b0;stroke:#4c72b0;" x="748.602075" xlink:href="#md6d27f102d" y="459.246157"/>
     <use style="fill:#4c72b0;stroke:#4c72b0;" x="753.643942" xlink:href="#md6d27f102d" y="457.669973"/>
     <use style="fill:#4c72b0;stroke:#4c72b0;" x="758.685809" xlink:href="#md6d27f102d" y="459.982022"/>
     <use style="fill:#4c72b0;stroke:#4c72b0;" x="763.727676" xlink:href="#md6d27f102d" y="460.892561"/>
     <use style="fill:#4c72b0;stroke:#4c72b0;" x="768.769544" xlink:href="#md6d27f102d" y="467.957206"/>
     <use style="fill:#4c72b0;stroke:#4c72b0;" x="773.811411" xlink:href="#md6d27f102d" y="470.720767"/>
     <use style="fill:#4c72b0;stroke:#4c72b0;" x="778.853278" xlink:href="#md6d27f102d" y="469.04702"/>
     <use style="fill:#4c72b0;stroke:#4c72b0;" x="783.895145" xlink:href="#md6d27f102d" y="469.401878"/>
     <use style="fill:#4c72b0;stroke:#4c72b0;" x="788.937012" xlink:href="#md6d27f102d" y="470.381402"/>
     <use style="fill:#4c72b0;stroke:#4c72b0;" x="793.97888" xlink:href="#md6d27f102d" y="473.395687"/>
     <use style="fill:#4c72b0;stroke:#4c72b0;" x="799.020747" xlink:href="#md6d27f102d" y="470.718247"/>
     <use style="fill:#4c72b0;stroke:#4c72b0;" x="804.062614" xlink:href="#md6d27f102d" y="472.476969"/>
     <use style="fill:#4c72b0;stroke:#4c72b0;" x="809.104481" xlink:href="#md6d27f102d" y="476.14235"/>
     <use style="fill:#4c72b0;stroke:#4c72b0;" x="814.146349" xlink:href="#md6d27f102d" y="476.057104"/>
     <use style="fill:#4c72b0;stroke:#4c72b0;" x="819.188216" xlink:href="#md6d27f102d" y="476.981435"/>
     <use style="fill:#4c72b0;stroke:#4c72b0;" x="824.230083" xlink:href="#md6d27f102d" y="476.314621"/>
     <use style="fill:#4c72b0;stroke:#4c72b0;" x="829.27195" xlink:href="#md6d27f102d" y="475.357167"/>
     <use style="fill:#4c72b0;stroke:#4c72b0;" x="834.313817" xlink:href="#md6d27f102d" y="472.470458"/>
     <use style="fill:#4c72b0;stroke:#4c72b0;" x="839.355685" xlink:href="#md6d27f102d" y="476.486472"/>
     <use style="fill:#4c72b0;stroke:#4c72b0;" x="844.397552" xlink:href="#md6d27f102d" y="474.966854"/>
     <use style="fill:#4c72b0;stroke:#4c72b0;" x="849.439419" xlink:href="#md6d27f102d" y="477.721608"/>
     <use style="fill:#4c72b0;stroke:#4c72b0;" x="854.481286" xlink:href="#md6d27f102d" y="478.905306"/>
     <use style="fill:#4c72b0;stroke:#4c72b0;" x="859.523154" xlink:href="#md6d27f102d" y="473.634466"/>
     <use style="fill:#4c72b0;stroke:#4c72b0;" x="864.565021" xlink:href="#md6d27f102d" y="476.88083"/>
     <use style="fill:#4c72b0;stroke:#4c72b0;" x="869.606888" xlink:href="#md6d27f102d" y="477.0152"/>
     <use style="fill:#4c72b0;stroke:#4c72b0;" x="874.648755" xlink:href="#md6d27f102d" y="475.626035"/>
     <use style="fill:#4c72b0;stroke:#4c72b0;" x="879.690622" xlink:href="#md6d27f102d" y="467.579351"/>
     <use style="fill:#4c72b0;stroke:#4c72b0;" x="884.73249" xlink:href="#md6d27f102d" y="475.215447"/>
     <use style="fill:#4c72b0;stroke:#4c72b0;" x="889.774357" xlink:href="#md6d27f102d" y="459.514823"/>
     <use style="fill:#4c72b0;stroke:#4c72b0;" x="894.816224" xlink:href="#md6d27f102d" y="464.210221"/>
     <use style="fill:#4c72b0;stroke:#4c72b0;" x="899.858091" xlink:href="#md6d27f102d" y="469.756956"/>
     <use style="fill:#4c72b0;stroke:#4c72b0;" x="904.899959" xlink:href="#md6d27f102d" y="477.352289"/>
     <use style="fill:#4c72b0;stroke:#4c72b0;" x="909.941826" xlink:href="#md6d27f102d" y="475.073087"/>
     <use style="fill:#4c72b0;stroke:#4c72b0;" x="914.983693" xlink:href="#md6d27f102d" y="480.337759"/>
     <use style="fill:#4c72b0;stroke:#4c72b0;" x="920.02556" xlink:href="#md6d27f102d" y="461.10265"/>
     <use style="fill:#4c72b0;stroke:#4c72b0;" x="925.067427" xlink:href="#md6d27f102d" y="461.623774"/>
     <use style="fill:#4c72b0;stroke:#4c72b0;" x="930.109295" xlink:href="#md6d27f102d" y="455.967159"/>
     <use style="fill:#4c72b0;stroke:#4c72b0;" x="935.151162" xlink:href="#md6d27f102d" y="443.652727"/>
     <use style="fill:#4c72b0;stroke:#4c72b0;" x="940.193029" xlink:href="#md6d27f102d" y="455.738585"/>
     <use style="fill:#4c72b0;stroke:#4c72b0;" x="945.234896" xlink:href="#md6d27f102d" y="459.93613"/>
     <use style="fill:#4c72b0;stroke:#4c72b0;" x="950.276763" xlink:href="#md6d27f102d" y="461.630864"/>
     <use style="fill:#4c72b0;stroke:#4c72b0;" x="955.318631" xlink:href="#md6d27f102d" y="460.682021"/>
     <use style="fill:#4c72b0;stroke:#4c72b0;" x="960.360498" xlink:href="#md6d27f102d" y="471.780906"/>
     <use style="fill:#4c72b0;stroke:#4c72b0;" x="965.402365" xlink:href="#md6d27f102d" y="470.403568"/>
     <use style="fill:#4c72b0;stroke:#4c72b0;" x="970.444232" xlink:href="#md6d27f102d" y="471.214443"/>
     <use style="fill:#4c72b0;stroke:#4c72b0;" x="975.4861" xlink:href="#md6d27f102d" y="472.509765"/>
     <use style="fill:#4c72b0;stroke:#4c72b0;" x="980.527967" xlink:href="#md6d27f102d" y="472.028079"/>
     <use style="fill:#4c72b0;stroke:#4c72b0;" x="985.569834" xlink:href="#md6d27f102d" y="479.110824"/>
     <use style="fill:#4c72b0;stroke:#4c72b0;" x="990.611701" xlink:href="#md6d27f102d" y="474.699433"/>
     <use style="fill:#4c72b0;stroke:#4c72b0;" x="995.653568" xlink:href="#md6d27f102d" y="478.242832"/>
     <use style="fill:#4c72b0;stroke:#4c72b0;" x="1000.695436" xlink:href="#md6d27f102d" y="476.925291"/>
     <use style="fill:#4c72b0;stroke:#4c72b0;" x="1005.737303" xlink:href="#md6d27f102d" y="476.699409"/>
     <use style="fill:#4c72b0;stroke:#4c72b0;" x="1010.77917" xlink:href="#md6d27f102d" y="467.192473"/>
     <use style="fill:#4c72b0;stroke:#4c72b0;" x="1015.821037" xlink:href="#md6d27f102d" y="476.150667"/>
     <use style="fill:#4c72b0;stroke:#4c72b0;" x="1020.862905" xlink:href="#md6d27f102d" y="468.39463"/>
     <use style="fill:#4c72b0;stroke:#4c72b0;" x="1025.904772" xlink:href="#md6d27f102d" y="471.159018"/>
     <use style="fill:#4c72b0;stroke:#4c72b0;" x="1030.946639" xlink:href="#md6d27f102d" y="479.586408"/>
     <use style="fill:#4c72b0;stroke:#4c72b0;" x="1035.988506" xlink:href="#md6d27f102d" y="477.309207"/>
     <use style="fill:#4c72b0;stroke:#4c72b0;" x="1041.030373" xlink:href="#md6d27f102d" y="476.853444"/>
     <use style="fill:#4c72b0;stroke:#4c72b0;" x="1046.072241" xlink:href="#md6d27f102d" y="478.718959"/>
     <use style="fill:#4c72b0;stroke:#4c72b0;" x="1051.114108" xlink:href="#md6d27f102d" y="482.403185"/>
     <use style="fill:#4c72b0;stroke:#4c72b0;" x="1056.155975" xlink:href="#md6d27f102d" y="468.469191"/>
     <use style="fill:#4c72b0;stroke:#4c72b0;" x="1061.197842" xlink:href="#md6d27f102d" y="477.869021"/>
     <use style="fill:#4c72b0;stroke:#4c72b0;" x="1066.23971" xlink:href="#md6d27f102d" y="474.341126"/>
     <use style="fill:#4c72b0;stroke:#4c72b0;" x="1071.281577" xlink:href="#md6d27f102d" y="473.573635"/>
     <use style="fill:#4c72b0;stroke:#4c72b0;" x="1076.323444" xlink:href="#md6d27f102d" y="489.33509"/>
     <use style="fill:#4c72b0;stroke:#4c72b0;" x="1081.365311" xlink:href="#md6d27f102d" y="470.292396"/>
     <use style="fill:#4c72b0;stroke:#4c72b0;" x="1086.407178" xlink:href="#md6d27f102d" y="473.714571"/>
     <use style="fill:#4c72b0;stroke:#4c72b0;" x="1091.449046" xlink:href="#md6d27f102d" y="474.305316"/>
     <use style="fill:#4c72b0;stroke:#4c72b0;" x="1096.490913" xlink:href="#md6d27f102d" y="472.526291"/>
     <use style="fill:#4c72b0;stroke:#4c72b0;" x="1101.53278" xlink:href="#md6d27f102d" y="480.600531"/>
     <use style="fill:#4c72b0;stroke:#4c72b0;" x="1106.574647" xlink:href="#md6d27f102d" y="479.007161"/>
     <use style="fill:#4c72b0;stroke:#4c72b0;" x="1111.616515" xlink:href="#md6d27f102d" y="458.847628"/>
     <use style="fill:#4c72b0;stroke:#4c72b0;" x="1116.658382" xlink:href="#md6d27f102d" y="476.413704"/>
     <use style="fill:#4c72b0;stroke:#4c72b0;" x="1121.700249" xlink:href="#md6d27f102d" y="476.562659"/>
     <use style="fill:#4c72b0;stroke:#4c72b0;" x="1126.742116" xlink:href="#md6d27f102d" y="472.577103"/>
     <use style="fill:#4c72b0;stroke:#4c72b0;" x="1131.783983" xlink:href="#md6d27f102d" y="473.425028"/>
     <use style="fill:#4c72b0;stroke:#4c72b0;" x="1136.825851" xlink:href="#md6d27f102d" y="472.075008"/>
     <use style="fill:#4c72b0;stroke:#4c72b0;" x="1141.867718" xlink:href="#md6d27f102d" y="464.340075"/>
     <use style="fill:#4c72b0;stroke:#4c72b0;" x="1146.909585" xlink:href="#md6d27f102d" y="459.834283"/>
     <use style="fill:#4c72b0;stroke:#4c72b0;" x="1151.951452" xlink:href="#md6d27f102d" y="460.740061"/>
    </g>
   </g>
   <g id="patch_18">
    <path d="M 67.95 543.46 
L 67.95 438.9 
" style="fill:none;stroke:#ffffff;stroke-linecap:square;stroke-linejoin:miter;stroke-width:1.25;"/>
   </g>
   <g id="patch_19">
    <path d="M 1283.04 543.46 
L 1283.04 438.9 
" style="fill:none;stroke:#ffffff;stroke-linecap:square;stroke-linejoin:miter;stroke-width:1.25;"/>
   </g>
   <g id="patch_20">
    <path d="M 67.95 543.46 
L 1283.04 543.46 
" style="fill:none;stroke:#ffffff;stroke-linecap:square;stroke-linejoin:miter;stroke-width:1.25;"/>
   </g>
   <g id="patch_21">
    <path d="M 67.95 438.9 
L 1283.04 438.9 
" style="fill:none;stroke:#ffffff;stroke-linecap:square;stroke-linejoin:miter;stroke-width:1.25;"/>
   </g>
  </g>
 </g>
 <defs>
  <clipPath id="p34b2eda695">
   <rect height="104.56" width="1215.09" x="67.95" y="27.6"/>
  </clipPath>
  <clipPath id="pc2d3dabddb">
   <rect height="104.56" width="1215.09" x="67.95" y="164.7"/>
  </clipPath>
  <clipPath id="p76ec7069c2">
   <rect height="104.56" width="1215.09" x="67.95" y="301.8"/>
  </clipPath>
  <clipPath id="p77093db396">
   <rect height="104.56" width="1215.09" x="67.95" y="438.9"/>
  </clipPath>
 </defs>
</svg>
