<svg id="TEXT" xmlns="http://www.w3.org/2000/svg" viewBox="0 0 882.2 425.21"><defs><style>.cls-1{fill:#070707;}.cls-2{font-size:304.94px;fill:#fff;font-family:RetrowMentho, Retrow Mentho;}</style></defs><path class="cls-1" d="M264.13,402.29c-26.83,0-46.6-7.51-58.77-22.31C195,367.55,189.49,353.68,189,338.77q-5.24,8.66-10.8,16.79c-21.24,31-47.7,46.73-78.63,46.73-37.85,0-51.07-19.27-55.49-35.44a57.22,57.22,0,0,1-2.19-15.47c0-16.47,7.51-31.54,22.31-44.78l6.86-6.14,7,6c8.45,7.29,16.48,11,23.86,11,5.62,0,15.77-3.64,32.17-21,14.2-15,27.26-39.47,38.82-72.67l.07-.19c4-10.85,7.91-22.05,11.59-33.3,3.33-10.21,6.8-20.45,10.31-30.43l.15-.43.19-.42c9.79-21.52,23.42-33.66,40.54-36.07a36.66,36.66,0,0,1,5.64-.44c11.16,0,26.2,5,34.49,29l2.93,8.46-7.91,4.21c-5.18,2.75-10.1,8.33-14.64,16.59-1.66,3-3.26,6.15-4.8,9.35a109.49,109.49,0,0,0,18-13c10.37-9.11,15.42-20.68,15.42-35.37,0-1.86-.08-3.79-.23-5.76-4.24-16.89-14.6-26.38-32.55-29.85a71.31,71.31,0,0,0-13.37-1.3c-14.49,0-28.08,4.75-41.56,14.52-15,10.79-22.25,28.53-22.25,54.24,0,3.11.11,6.39.31,9.76l.68,11.11H164.76c-38.16,0-48-22.91-50.41-36.63a56.1,56.1,0,0,1-1-10.48c0-18.64,9.43-37.59,28-56.32s48.77-29,92-31a35.25,35.25,0,0,1,5.17-.37,37.13,37.13,0,0,1,4.87.33H247l.33,0C281,62.12,308,73,327.47,92.39c14.65,14.66,22.07,31.81,22.07,51a87.59,87.59,0,0,1-3.17,22.7l-.09.33-.11.32c-5.18,15.17-13.25,27.8-24,37.55A130.49,130.49,0,0,1,290,226.09l-1.11.51a193.56,193.56,0,0,1,27.31,12.52c26.47,14.56,40.45,39.1,41.57,73v.46l0,.47c-1.24,22.08-10.41,42.59-27.25,61C313.29,392.76,291,402.29,264.13,402.29ZM226.24,298.23c0,18.89,7.39,24.55,13,27.16a33,33,0,0,0,14.37,3.47c3.17,0,9-1,19-5.93,7.34-3.63,10.22-15.63,11.34-25.29,0-12.32-3.18-20.81-9.66-26a49.06,49.06,0,0,0-26.46-10.41h-.15a110.33,110.33,0,0,0-12.52-.76,76.46,76.46,0,0,0-9.64.57q-4.08,11.4-8.6,22.28l9.4-8.25Z" transform="translate(0 0)"/><path class="cls-1" d="M405.85,401.76C368,398.51,355,379.59,350.77,364.27a51.49,51.49,0,0,1-2-14c0-16.56,8.35-31.74,24.84-45.1l11.47-9.31,5,13.91c4.61,12.87,10.43,12.87,12.92,12.87,1.72,0,8.92-.95,29.29-13.13,9.8-5.86,26.75-25.2,51.81-84,2.88-7.26,6.75-19.35,11.53-36a39.71,39.71,0,0,1-3.59,2.83l-.2.14c-9.31,6.21-20.26,9.36-32.55,9.36l-8.61-.09c-8.39-.08-17.07-4.78-26.52-14.36-7.85-7.74-11.82-18.95-11.82-33.33A96.91,96.91,0,0,1,413,142.3l.05-.38.07-.38C419.73,108,435.67,85,460.52,73.19c19.6-9.32,37.94-14,54.51-14a81.51,81.51,0,0,1,9.43.54c31.75,2.46,49.24,21.28,49.24,53,0,3.29-.19,6.85-.55,10.59-2.59,29.51-11.67,66.1-27,108.67s-34.84,81.1-58,114.43c-24.62,35.4-51.84,54-80.89,55.4l-.7,0Zm76.73-266.12c0,5.05,1.33,8.89,4.19,12.09s5.61,4.62,9,4.87l8.34.59.12.74c2.08-10.94,3.68-22.07,4.75-33.31v-2.48c0-5.15-.77-7.33-1.08-8a3.23,3.23,0,0,0-1.49-.35,21.11,21.11,0,0,0-5.56,1.57,23.31,23.31,0,0,0-7.6,4.88c-6.71,6.83-10.41,13.22-10.7,18.49Z" transform="translate(0 0)"/><path class="cls-1" d="M771.37,387.1c-8.19,0-17-2.3-26.25-6.85l-5.84-2.88v-6.51c0-34.89-19.41-58.35-59.26-71.52-29,44.11-61.3,66.47-96.16,66.47-17.19,0-30.53-5.06-39.67-15C535.31,341.06,530.8,330,530.8,318c0-29.61,16.18-49.77,46.78-58.29,25-7,48.43-10.82,69.79-11.51,22.32-25.55,44.58-53.45,66.2-83l.09-.12q8.8-11.67,17.08-22.36c-9.75-1.76-19.28-3.59-28.48-5.48l-.23,0-.22-.06c-23.6-5.92-44.07-8.93-60.84-8.93a98.75,98.75,0,0,0-25.14,2.87,21.64,21.64,0,0,0-8.61,6.63,25,25,0,0,0-4.34,9.65,48.81,48.81,0,0,0-1,9.34c0,.41,0,1.56.16,4.66a31.48,31.48,0,0,0,.87,5.93l.06.23,2.84,14.77-10.23,2a91.57,91.57,0,0,1-17.54,1.85c-17,0-29.92-5.88-38.47-17.46a54.47,54.47,0,0,1-10.79-33c0-6.07,1.64-14.92,5-27.06C537.75,94.57,550,82.3,571.27,71.22l.36-.19.39-.16a115.79,115.79,0,0,1,45.35-9.58c6.5,0,16.14,1.16,29.49,3.55,13.18,2.36,29.66,7.39,49,15,7.45,2.69,14.9,5.25,22.15,7.59,18.09,5.88,34.78,9.16,49.7,9.78C786.9,72.36,810.33,59.8,837.4,59.8c16.8,0,28.87,4.43,35.89,13.16l.08.1a40.1,40.1,0,0,1,8.83,25.27v.38l-.21,2.9c-1.28,13.85-9,25.73-22.79,35.3-13,9-28.73,13.49-46.89,13.49-8.27,0-16.78-.16-25.36-.48-13.41,14.53-27.58,33-42.17,55.05-10.47,16.12-21.28,32.27-32.24,48.15,43.77,7.8,76,30.05,95.91,66.31l.41.75.28.81a72.13,72.13,0,0,1,4.56,23.79c0,13-5.07,24.14-14.66,32.14A42.06,42.06,0,0,1,771.37,387.1Z" transform="translate(0 0)"/><path class="cls-1" d="M259.94,398.1c-26.83,0-46.6-7.51-58.76-22.31-10.36-12.42-15.87-26.29-16.38-41.21q-5.24,8.66-10.8,16.79c-21.24,31-47.69,46.73-78.63,46.73-37.85,0-51.06-19.27-55.49-35.44a57.22,57.22,0,0,1-2.19-15.47c0-16.47,7.51-31.53,22.31-44.78l6.86-6.13,7,6c8.45,7.29,16.48,11,23.86,11,5.63,0,15.77-3.64,32.18-21,14.2-15,27.26-39.47,38.82-72.67l.06-.19c4-10.85,7.92-22.05,11.59-33.3,3.33-10.21,6.8-20.45,10.31-30.42l.15-.44.2-.42c9.78-21.52,23.42-33.66,40.53-36.07a38.06,38.06,0,0,1,5.64-.44c11.16,0,26.2,5,34.49,29l2.93,8.47-7.91,4.2c-5.18,2.75-10.1,8.33-14.63,16.59q-2.5,4.54-4.81,9.35a110,110,0,0,0,18-13c10.37-9.12,15.42-20.69,15.42-35.38,0-1.85-.08-3.79-.23-5.75-4.23-16.9-14.6-26.39-32.55-29.86a71.31,71.31,0,0,0-13.37-1.3c-14.48,0-28.08,4.75-41.56,14.52-15,10.79-22.25,28.53-22.25,54.25,0,3.1.11,6.38.31,9.75l.68,11.11H160.57c-38.16,0-48-22.9-50.4-36.63a55.28,55.28,0,0,1-1-10.48c0-18.64,9.43-37.59,28.05-56.32s48.76-28.95,92-31a35.29,35.29,0,0,1,5.18-.37,37.1,37.1,0,0,1,4.86.33h3.56l.33,0c33.7,2.14,60.68,13,80.17,32.4,14.65,14.66,22.07,31.81,22.07,51a87.1,87.1,0,0,1-3.17,22.7l-.09.33-.11.32c-5.18,15.17-13.25,27.81-24,37.55a130.63,130.63,0,0,1-32.14,21.79l-1.12.52A193,193,0,0,1,312,234.93c26.47,14.56,40.45,39.11,41.57,73v.46l0,.47c-1.24,22.09-10.4,42.6-27.25,61C309.1,388.57,286.76,398.1,259.94,398.1ZM222.05,294c0,18.89,7.4,24.55,13,27.17a33.13,33.13,0,0,0,14.37,3.46c3.17,0,9-1,19-5.93,7.34-3.63,10.22-15.63,11.34-25.29,0-12.32-3.18-20.81-9.66-26a49.06,49.06,0,0,0-26.46-10.41h-.15a112.69,112.69,0,0,0-12.52-.76,76.46,76.46,0,0,0-9.64.57q-4.08,11.4-8.59,22.28l9.39-8.24Z" transform="translate(0 0)"/><path class="cls-1" d="M401.67,397.57c-37.9-3.24-50.88-22.17-55.08-37.49a51.13,51.13,0,0,1-2-14.05c0-16.56,8.36-31.74,24.84-45.1l11.47-9.31,5,13.91c4.61,12.87,10.43,12.87,12.92,12.87,1.72,0,8.93-.95,29.29-13.13,9.8-5.86,26.75-25.2,51.81-84,2.88-7.26,6.75-19.35,11.53-36a41.57,41.57,0,0,1-3.59,2.83l-.2.13c-9.31,6.21-20.26,9.36-32.55,9.36l-8.61-.09c-8.39-.08-17.06-4.78-26.52-14.36-7.84-7.74-11.82-18.95-11.82-33.33a99.14,99.14,0,0,1,.73-11.66l.05-.38.07-.37C415.54,103.8,431.48,80.8,456.33,69,475.93,59.68,494.27,55,510.84,55a81.5,81.5,0,0,1,9.43.55c31.76,2.45,49.24,21.27,49.24,53,0,3.28-.18,6.84-.55,10.58-2.59,29.51-11.67,66.1-27,108.67s-34.85,81.1-58,114.43c-24.63,35.4-51.85,54-80.9,55.4l-.69,0Zm76.72-266.12c0,5.05,1.33,8.89,4.19,12.09s5.62,4.62,9,4.87L500,149l.12.74c2.09-10.94,3.68-22.07,4.76-33.31V114c0-5.15-.77-7.33-1.09-8a3.21,3.21,0,0,0-1.48-.34c-.06,0-1.53,0-5.57,1.56a23.31,23.31,0,0,0-7.6,4.88c-6.71,6.84-10.41,13.22-10.7,18.49Z" transform="translate(0 0)"/><path class="cls-1" d="M767.18,382.92c-8.19,0-17-2.31-26.25-6.86l-5.84-2.88v-6.51c0-34.89-19.4-58.35-59.26-71.52-29,44.12-61.3,66.47-96.16,66.47-17.19,0-30.53-5.06-39.66-15-8.89-9.71-13.4-20.72-13.4-32.73,0-29.61,16.18-49.77,46.79-58.29,25-6.95,48.42-10.82,69.78-11.51,22.32-25.55,44.58-53.45,66.2-83l.09-.12c5.87-7.77,11.58-15.25,17.08-22.36-9.74-1.76-19.27-3.59-28.48-5.48l-.23,0-.22-.06c-23.6-5.92-44.07-8.93-60.84-8.93A98.27,98.27,0,0,0,611.64,127a21.62,21.62,0,0,0-8.61,6.62,25,25,0,0,0-4.34,9.65,49.66,49.66,0,0,0-1,9.34c0,.41,0,1.57.15,4.66a30.74,30.74,0,0,0,.88,5.93l.05.24,2.84,14.77-10.23,2A91.41,91.41,0,0,1,573.89,182c-17,0-29.92-5.87-38.46-17.46a54.4,54.4,0,0,1-10.8-32.95c0-6.07,1.64-14.93,5-27.07,3.92-14.16,16.17-26.44,37.44-37.52l.37-.19.38-.16a115.79,115.79,0,0,1,45.35-9.58c6.5,0,16.15,1.16,29.49,3.55,13.18,2.36,29.66,7.39,49,14.95,7.44,2.69,14.89,5.25,22.14,7.59,18.09,5.88,34.78,9.16,49.7,9.78,19.22-24.79,42.65-37.36,69.72-37.36,16.8,0,28.88,4.43,35.89,13.16l.08.1A40.1,40.1,0,0,1,878,94.15v.37l-.21,2.9c-1.28,13.86-8.95,25.73-22.79,35.3-13,8.95-28.73,13.49-46.89,13.49-8.27,0-16.77-.16-25.36-.47-13.41,14.52-27.58,33-42.17,55-10.47,16.12-21.28,32.27-32.23,48.15,43.77,7.8,76,30.06,95.9,66.31l.41.75.28.81a72.17,72.17,0,0,1,4.56,23.79c0,13-5.07,24.15-14.66,32.14A42.07,42.07,0,0,1,767.18,382.92Z" transform="translate(0 0)"/><path class="cls-1" d="M255.75,393.91c-26.83,0-46.6-7.5-58.76-22.31-10.36-12.42-15.87-26.29-16.37-41.21q-5.24,8.66-10.81,16.79c-21.24,31-47.69,46.73-78.63,46.73-37.84,0-51.06-19.27-55.49-35.43A57.28,57.28,0,0,1,33.51,343c0-16.47,7.5-31.53,22.3-44.78l6.86-6.13,7,6c8.44,7.29,16.47,11,23.86,11,5.62,0,15.76-3.64,32.17-21,14.2-15,27.26-39.46,38.82-72.67l.07-.19c4-10.85,7.91-22.05,11.58-33.29,3.33-10.21,6.8-20.45,10.31-30.43l.16-.44.19-.42c9.78-21.52,23.42-33.65,40.53-36.07a38.17,38.17,0,0,1,5.64-.44c11.16,0,26.2,5,34.49,29l2.93,8.47-7.91,4.2c-5.18,2.75-10.1,8.33-14.63,16.59q-2.49,4.54-4.81,9.36a110.08,110.08,0,0,0,18-13c10.38-9.12,15.42-20.69,15.42-35.38,0-1.85-.08-3.78-.23-5.75-4.23-16.9-14.59-26.39-32.55-29.86a71.28,71.28,0,0,0-13.37-1.29c-14.48,0-28.08,4.74-41.56,14.51-15,10.79-22.25,28.53-22.25,54.25,0,3.1.11,6.38.32,9.76l.68,11.11H156.38c-38.15,0-48-22.91-50.4-36.63A55.38,55.38,0,0,1,105,139c0-18.63,9.44-37.58,28.05-56.32s48.76-28.95,92-31a35.29,35.29,0,0,1,5.18-.37,37.1,37.1,0,0,1,4.86.33h3.56l.33,0c33.71,2.14,60.68,13,80.17,32.41,14.65,14.65,22.07,31.81,22.07,51a87.5,87.5,0,0,1-3.16,22.7l-.09.33-.11.33c-5.18,15.16-13.26,27.8-24,37.55a130.67,130.67,0,0,1-32.14,21.78l-1.11.52a193.37,193.37,0,0,1,27.3,12.51c26.47,14.56,40.45,39.11,41.57,73l0,.47,0,.46c-1.23,22.09-10.4,42.6-27.25,61C304.91,384.39,282.57,393.91,255.75,393.91ZM217.86,289.85c0,18.9,7.4,24.55,13,27.17a33.13,33.13,0,0,0,14.37,3.46c3.18,0,9.05-1,19-5.93,7.35-3.63,10.22-15.63,11.34-25.29,0-12.32-3.18-20.81-9.66-26a48.94,48.94,0,0,0-26.46-10.4l-.15,0a112.55,112.55,0,0,0-12.52-.76,76.57,76.57,0,0,0-9.64.57Q213,264.09,208.47,275l9.39-8.24Z" transform="translate(0 0)"/><path class="cls-1" d="M397.48,393.38c-37.9-3.24-50.87-22.16-55.08-37.49a51.44,51.44,0,0,1-2-14c0-16.57,8.36-31.74,24.84-45.11l11.47-9.3,5,13.9c4.61,12.87,10.44,12.87,12.92,12.87,1.73,0,8.93-.95,29.29-13.13,9.81-5.86,26.75-25.2,51.81-84,2.88-7.27,6.75-19.36,11.53-36a40.08,40.08,0,0,1-3.59,2.83l-.2.14c-9.31,6.2-20.26,9.35-32.55,9.35l-8.61-.08c-8.39-.09-17.06-4.79-26.52-14.37-7.84-7.73-11.82-18.95-11.82-33.33a97.11,97.11,0,0,1,.74-11.66l0-.38.08-.37c6.59-33.56,22.53-56.55,47.38-68.35,19.59-9.33,37.93-14,54.5-14a81.38,81.38,0,0,1,9.43.54c31.76,2.45,49.24,21.27,49.24,53,0,3.29-.18,6.85-.54,10.58-2.6,29.51-11.68,66.1-27,108.67S503,304.67,479.76,338c-24.63,35.39-51.85,54-80.9,55.4l-.69,0ZM474.2,127.26c0,5,1.34,8.89,4.2,12.09s5.61,4.63,9,4.87l8.35.59.11.75c2.09-10.94,3.68-22.08,4.76-33.32v-2.47c0-5.16-.77-7.34-1.09-8a3.18,3.18,0,0,0-1.48-.34c-.06,0-1.52,0-5.57,1.56a23.58,23.58,0,0,0-7.6,4.88c-6.71,6.84-10.4,13.22-10.7,18.49Z" transform="translate(0 0)"/><path class="cls-1" d="M763,378.73c-8.19,0-17-2.31-26.26-6.86L730.9,369v-6.51c0-34.89-19.4-58.34-59.25-71.52-29,44.12-61.3,66.47-96.17,66.47-17.18,0-30.53-5.06-39.66-15-8.89-9.71-13.39-20.72-13.39-32.73,0-29.61,16.17-49.76,46.78-58.29,25-7,48.42-10.82,69.78-11.5,22.33-25.56,44.58-53.45,66.21-83l.08-.11c5.87-7.78,11.58-15.26,17.08-22.37-9.74-1.76-19.27-3.59-28.48-5.47l-.22-.05-.23-.06c-23.6-5.92-44.06-8.93-60.83-8.93a98.36,98.36,0,0,0-25.15,2.88,21.71,21.71,0,0,0-8.61,6.63,24.89,24.89,0,0,0-4.34,9.64,49.66,49.66,0,0,0-1,9.34c0,.41,0,1.57.15,4.66a31.75,31.75,0,0,0,.88,5.94l0,.23L597.48,174l-10.24,2a92.14,92.14,0,0,1-17.53,1.84c-17,0-29.93-5.87-38.47-17.46a54.39,54.39,0,0,1-10.79-32.95c0-6.07,1.63-14.92,5-27.06,3.92-14.17,16.17-26.45,37.44-37.53l.37-.19.38-.16A115.79,115.79,0,0,1,609,52.91c6.5,0,16.15,1.16,29.49,3.55,13.19,2.36,29.66,7.39,49,14.95,7.44,2.7,14.89,5.25,22.14,7.59,18.09,5.88,34.78,9.16,49.7,9.79C778.52,64,802,51.43,829,51.43c16.8,0,28.88,4.42,35.89,13.15l.08.1A40.11,40.11,0,0,1,873.83,90v.37l-.21,2.91c-1.29,13.85-9,25.72-22.8,35.29-13,8.95-28.73,13.49-46.89,13.49-8.26,0-16.77-.16-25.35-.47-13.42,14.52-27.59,33-42.18,55-10.46,16.12-21.28,32.28-32.23,48.15,43.77,7.81,76,30.06,95.9,66.31l.41.76.29.8a72.4,72.4,0,0,1,4.55,23.79c0,13-5.07,24.15-14.66,32.14A42,42,0,0,1,763,378.73Z" transform="translate(0 0)"/><path class="cls-1" d="M251.57,389.72c-26.84,0-46.61-7.5-58.77-22.31-10.36-12.42-15.87-26.29-16.37-41.2q-5.24,8.66-10.81,16.79c-21.24,31-47.69,46.72-78.62,46.72-37.85,0-51.07-19.27-55.5-35.43a57.28,57.28,0,0,1-2.18-15.48c0-16.47,7.5-31.53,22.3-44.77l6.86-6.14,7,6c8.44,7.3,16.47,11,23.86,11,5.62,0,15.77-3.64,32.17-21,14.2-15,27.26-39.46,38.82-72.67l.07-.19c4-10.85,7.91-22.05,11.59-33.29,3.33-10.21,6.8-20.45,10.31-30.43l.15-.44.19-.42C192.39,125,206,112.82,223.14,110.4a38.19,38.19,0,0,1,5.65-.44c11.15,0,26.19,5,34.49,29l2.92,8.47-7.91,4.2c-5.18,2.75-10.1,8.34-14.63,16.59q-2.49,4.54-4.81,9.36a109.65,109.65,0,0,0,18-13c10.38-9.11,15.42-20.69,15.42-35.38,0-1.85-.07-3.78-.23-5.75-4.23-16.89-14.59-26.39-32.55-29.86a71.18,71.18,0,0,0-13.36-1.29c-14.49,0-28.08,4.75-41.57,14.51-15,10.8-22.24,28.53-22.24,54.25,0,3.1.1,6.38.31,9.76l.68,11.11H152.2c-38.16,0-48-22.91-50.41-36.63a56.22,56.22,0,0,1-1-10.49c0-18.63,9.44-37.58,28.05-56.32s48.76-28.95,92-31a36.72,36.72,0,0,1,5.18-.37,37.36,37.36,0,0,1,4.87.33h3.55l.33,0c33.71,2.14,60.68,13,80.17,32.41,14.66,14.65,22.07,31.81,22.07,51a87.5,87.5,0,0,1-3.16,22.7l-.09.33-.11.33c-5.18,15.17-13.26,27.8-24,37.55a130.39,130.39,0,0,1-32.14,21.78l-1.11.52a193,193,0,0,1,27.3,12.52c26.47,14.55,40.46,39.1,41.57,72.95l0,.47,0,.46c-1.23,22.09-10.4,42.6-27.25,61C300.72,380.2,278.38,389.72,251.57,389.72Zm-37.9-104.06c0,18.9,7.4,24.56,13,27.17A33.16,33.16,0,0,0,241,316.29c3.18,0,9.05-1,19-5.93,7.34-3.63,10.22-15.63,11.33-25.28,0-12.32-3.17-20.82-9.66-26a49,49,0,0,0-26.46-10.41l-.15,0a112.55,112.55,0,0,0-12.52-.76,76.3,76.3,0,0,0-9.63.57q-4.09,11.4-8.6,22.29l9.39-8.25Z" transform="translate(0 0)"/><path class="cls-1" d="M393.29,389.19C355.39,386,342.42,367,338.21,351.7a51.44,51.44,0,0,1-2-14c0-16.57,8.36-31.74,24.84-45.11l11.47-9.3,5,13.9C382.07,310,387.9,310,390.38,310c1.73,0,8.93-.95,29.29-13.12,9.81-5.87,26.75-25.21,51.82-84,2.87-7.27,6.74-19.36,11.52-36a38.71,38.71,0,0,1-3.59,2.83l-.2.14c-9.31,6.2-20.26,9.35-32.55,9.35l-8.61-.08c-8.38-.09-17.06-4.78-26.52-14.37-7.84-7.73-11.82-18.94-11.82-33.32a97.14,97.14,0,0,1,.74-11.67l0-.38.08-.37c6.59-33.56,22.53-56.55,47.38-68.35,19.59-9.32,37.93-14.05,54.5-14.05a81.26,81.26,0,0,1,9.43.54c31.76,2.46,49.24,21.27,49.24,53,0,3.29-.18,6.85-.54,10.58-2.59,29.51-11.67,66.11-27,108.67s-34.85,81.1-58,114.44c-24.63,35.39-51.85,54-80.9,55.4l-.69,0ZM470,123.07c0,5.05,1.33,8.89,4.19,12.1s5.61,4.62,9,4.86l8.35.59.11.75c2.09-10.94,3.68-22.08,4.76-33.32v-2.47c0-5.15-.77-7.34-1.08-8a3.25,3.25,0,0,0-1.49-.34c-.05,0-1.52,0-5.57,1.56a23.44,23.44,0,0,0-7.59,4.88c-6.72,6.84-10.41,13.22-10.7,18.49Z" transform="translate(0 0)"/><path class="cls-1" d="M758.81,374.54c-8.19,0-17-2.31-26.25-6.86l-5.85-2.88v-6.51c0-34.89-19.4-58.34-59.25-71.51-29,44.11-61.3,66.47-96.16,66.47-17.19,0-30.54-5.06-39.67-15-8.89-9.72-13.39-20.73-13.39-32.74,0-29.61,16.17-49.76,46.78-58.29,25-7,48.43-10.82,69.78-11.5,22.33-25.56,44.59-53.45,66.21-83l.09-.12c5.86-7.78,11.57-15.26,17.08-22.37-9.75-1.76-19.28-3.59-28.49-5.47l-.22,0-.23,0c-23.6-5.93-44.06-8.93-60.83-8.93a98.39,98.39,0,0,0-25.15,2.87,21.67,21.67,0,0,0-8.6,6.63,24.81,24.81,0,0,0-4.35,9.65,49.47,49.47,0,0,0-.95,9.33c0,.41,0,1.57.15,4.66a31.63,31.63,0,0,0,.88,5.94l.05.23,2.85,14.77-10.24,2a92.2,92.2,0,0,1-17.53,1.85c-17,0-29.93-5.88-38.47-17.47a54.44,54.44,0,0,1-10.79-32.95c0-6.07,1.63-14.92,5-27.06C525.19,82,537.43,69.73,558.7,58.66l.37-.2.38-.16a116,116,0,0,1,45.35-9.58c6.5,0,16.15,1.16,29.5,3.55,13.18,2.36,29.65,7.39,49,14.95,7.44,2.7,14.89,5.25,22.14,7.6,18.09,5.87,34.78,9.15,49.71,9.78,19.22-24.8,42.65-37.36,69.71-37.36,16.8,0,28.88,4.42,35.9,13.15l.07.1a40.08,40.08,0,0,1,8.84,25.28v.37l-.21,2.91c-1.29,13.85-9,25.73-22.8,35.29-13,9-28.73,13.5-46.89,13.5-8.26,0-16.77-.16-25.35-.48-13.42,14.52-27.59,33-42.17,55-10.47,16.13-21.29,32.28-32.24,48.15,43.77,7.81,76,30.06,95.9,66.32l.41.75.29.8a72.48,72.48,0,0,1,4.56,23.79c0,13-5.07,24.15-14.66,32.14A42.09,42.09,0,0,1,758.81,374.54Z" transform="translate(0 0)"/><path class="cls-1" d="M247.38,385.54c-26.84,0-46.61-7.51-58.77-22.32-10.35-12.42-15.87-26.29-16.37-41.2q-5.24,8.66-10.81,16.79c-21.24,31-47.69,46.73-78.62,46.73-37.85,0-51.07-19.27-55.49-35.44a56.83,56.83,0,0,1-2.19-15.47c0-16.47,7.5-31.54,22.31-44.78l6.85-6.14,7,6c8.45,7.3,16.47,11,23.86,11,5.62,0,15.77-3.65,32.17-21,14.2-15,27.26-39.47,38.82-72.68l.07-.19c4-10.85,7.91-22.05,11.59-33.29,3.33-10.21,6.8-20.45,10.31-30.43l.15-.43.19-.43c9.78-21.52,23.42-33.65,40.53-36.07a38.19,38.19,0,0,1,5.65-.44c11.16,0,26.2,5,34.49,29l2.93,8.47-7.91,4.2c-5.18,2.76-10.11,8.34-14.64,16.59q-2.49,4.54-4.81,9.36a108.65,108.65,0,0,0,18-13c10.38-9.11,15.42-20.68,15.42-35.38,0-1.85-.07-3.78-.22-5.75-4.24-16.89-14.6-26.39-32.56-29.85A71.12,71.12,0,0,0,222,88.09c-14.49,0-28.08,4.75-41.56,14.51-15,10.8-22.25,28.54-22.25,54.25,0,3.1.1,6.39.31,9.76l.68,11.11H148c-38.16,0-48-22.91-50.41-36.63a56.11,56.11,0,0,1-1-10.48C96.6,112,106,93,124.65,74.28s48.77-28.95,92-31a36.83,36.83,0,0,1,5.18-.37,37.29,37.29,0,0,1,4.87.34h3.55l.33,0c33.71,2.13,60.68,13,80.17,32.4,14.66,14.66,22.08,31.81,22.08,51a87.53,87.53,0,0,1-3.17,22.7l-.09.34-.11.32c-5.18,15.17-13.26,27.8-24,37.55a130.35,130.35,0,0,1-32.15,21.78l-1.11.52a193.56,193.56,0,0,1,27.31,12.52c26.46,14.56,40.45,39.1,41.56,73l0,.46,0,.46c-1.23,22.09-10.4,42.6-27.25,61C296.54,376,274.2,385.54,247.38,385.54Zm-37.9-104.07c0,18.9,7.4,24.56,13,27.17a33,33,0,0,0,14.36,3.46c3.18,0,9.05-1,19-5.93,7.34-3.62,10.22-15.62,11.33-25.28,0-12.32-3.17-20.81-9.66-26A48.92,48.92,0,0,0,231,244.52l-.15,0a112.39,112.39,0,0,0-12.51-.75,76.46,76.46,0,0,0-9.64.57q-4.08,11.4-8.6,22.28l9.39-8.25Z" transform="translate(0 0)"/><path class="cls-1" d="M389.1,385c-37.89-3.24-50.87-22.16-55.08-37.49a51.44,51.44,0,0,1-2-14c0-16.56,8.36-31.74,24.84-45.11l11.47-9.3,5,13.9c4.61,12.87,10.44,12.87,12.93,12.87,1.72,0,8.92-.94,29.29-13.12,9.8-5.86,26.75-25.21,51.81-84,2.87-7.26,6.74-19.36,11.52-36a38.18,38.18,0,0,1-3.58,2.83l-.21.14c-9.3,6.21-20.26,9.35-32.55,9.35l-8.61-.08c-8.38-.08-17.06-4.78-26.52-14.37-7.84-7.73-11.82-18.94-11.82-33.32a97,97,0,0,1,.74-11.66l.05-.38.07-.38c6.59-33.55,22.53-56.55,47.38-68.35,19.59-9.32,37.93-14,54.51-14a81.51,81.51,0,0,1,9.43.54c31.75,2.46,49.23,21.28,49.23,53,0,3.29-.18,6.85-.54,10.58-2.59,29.51-11.67,66.11-27,108.67s-34.85,81.11-58,114.44c-24.63,35.39-51.84,54-80.89,55.4l-.7,0Zm76.73-266.11c0,5,1.33,8.88,4.19,12.09s5.61,4.62,9,4.86l8.34.6.11.74c2.09-10.94,3.68-22.08,4.76-33.32v-2.47c0-5.15-.77-7.33-1.08-8a3.38,3.38,0,0,0-1.49-.34c-.05,0-1.52,0-5.56,1.56a23.41,23.41,0,0,0-7.6,4.89c-6.72,6.83-10.41,13.22-10.7,18.49Z" transform="translate(0 0)"/><path class="cls-1" d="M754.62,370.35c-8.19,0-17-2.31-26.25-6.86l-5.84-2.87V354.1c0-34.89-19.41-58.34-59.26-71.51-29,44.11-61.3,66.47-96.16,66.47-17.19,0-30.54-5.06-39.67-15-8.88-9.72-13.39-20.73-13.39-32.74,0-29.61,16.18-49.76,46.78-58.28,25-7,48.43-10.82,69.78-11.51,22.33-25.56,44.59-53.45,66.21-83l.09-.12c5.86-7.78,11.58-15.26,17.08-22.36-9.75-1.76-19.28-3.6-28.48-5.48l-.23,0-.23-.05c-23.59-5.93-44.06-8.93-60.83-8.93a98.44,98.44,0,0,0-25.15,2.87,21.67,21.67,0,0,0-8.6,6.63,25.1,25.1,0,0,0-4.35,9.65,49.47,49.47,0,0,0-1,9.33c0,.42,0,1.57.16,4.66a30.78,30.78,0,0,0,.87,5.94l.06.23,2.84,14.77-10.24,2a91.39,91.39,0,0,1-17.53,1.85c-17,0-29.93-5.88-38.47-17.46a54.49,54.49,0,0,1-10.79-33c0-6.07,1.64-14.92,5-27.06,3.93-14.17,16.17-26.44,37.44-37.52l.37-.19.38-.17a116,116,0,0,1,45.35-9.57c6.5,0,16.15,1.16,29.5,3.54,13.18,2.36,29.66,7.39,49,15,7.44,2.7,14.89,5.25,22.14,7.6,18.1,5.87,34.78,9.15,49.71,9.78,19.22-24.8,42.65-37.36,69.72-37.36,16.8,0,28.87,4.43,35.89,13.15l.08.1a40.12,40.12,0,0,1,8.83,25.28V82l-.21,2.91c-1.29,13.85-9,25.73-22.8,35.29-13,9-28.72,13.5-46.88,13.5-8.27,0-16.78-.16-25.36-.48-13.42,14.52-27.59,33-42.17,55.05-10.47,16.12-21.28,32.27-32.24,48.15,43.77,7.8,76,30.05,95.9,66.31l.42.75.28.81A72.38,72.38,0,0,1,797,328c0,13-5.07,24.15-14.66,32.15A42.08,42.08,0,0,1,754.62,370.35Z" transform="translate(0 0)"/><path class="cls-1" d="M243.19,381.35c-26.83,0-46.61-7.51-58.77-22.31-10.35-12.43-15.87-26.3-16.37-41.21q-5.24,8.66-10.8,16.79c-21.24,31-47.7,46.73-78.63,46.73-37.85,0-51.07-19.27-55.49-35.44a56.83,56.83,0,0,1-2.19-15.47c0-16.47,7.51-31.54,22.31-44.78l6.85-6.14,7,6c8.45,7.29,16.48,11,23.86,11,5.62,0,15.77-3.64,32.17-21,14.2-15,27.26-39.47,38.82-72.67l.07-.19c4-10.85,7.91-22.06,11.59-33.3,3.33-10.21,6.8-20.45,10.31-30.43l.15-.43.19-.42c9.79-21.52,23.42-33.66,40.54-36.07a36.66,36.66,0,0,1,5.64-.44c11.16,0,26.2,5,34.49,29l2.93,8.46-7.91,4.21c-5.18,2.75-10.11,8.33-14.64,16.59q-2.49,4.53-4.8,9.35a109.49,109.49,0,0,0,18-13c10.37-9.11,15.42-20.68,15.42-35.38,0-1.85-.08-3.78-.23-5.75-4.24-16.89-14.6-26.39-32.55-29.85a71.31,71.31,0,0,0-13.37-1.3c-14.49,0-28.08,4.75-41.56,14.52C161.23,109.21,154,127,154,152.66c0,3.11.1,6.39.31,9.76l.68,11.11H143.82c-38.16,0-48-22.91-50.41-36.63a56.11,56.11,0,0,1-1-10.48c0-18.64,9.44-37.59,28.05-56.32s48.77-29,92-31a36.69,36.69,0,0,1,5.17-.36,37.24,37.24,0,0,1,4.87.33H226l.33,0c33.71,2.13,60.69,13,80.18,32.4,14.65,14.66,22.07,31.81,22.07,51a87.59,87.59,0,0,1-3.17,22.7l-.09.33-.11.32c-5.18,15.17-13.25,27.8-24,37.55a130.49,130.49,0,0,1-32.15,21.79l-1.11.51a193.56,193.56,0,0,1,27.31,12.52c26.46,14.56,40.45,39.1,41.57,73v.46l0,.47c-1.24,22.08-10.41,42.59-27.26,61C292.35,371.82,270,381.35,243.19,381.35ZM205.3,277.29c0,18.89,7.39,24.55,13,27.16a33,33,0,0,0,14.36,3.47c3.18,0,9-1,19-5.94,7.34-3.62,10.22-15.62,11.33-25.28,0-12.32-3.17-20.81-9.65-26a49.06,49.06,0,0,0-26.47-10.41h-.14a110.46,110.46,0,0,0-12.52-.76,76.46,76.46,0,0,0-9.64.57q-4.08,11.4-8.6,22.28l9.4-8.25Z" transform="translate(0 0)"/><path class="cls-1" d="M384.91,380.81C347,377.57,334,358.65,329.83,343.32a51.36,51.36,0,0,1-2-14c0-16.56,8.35-31.74,24.83-45.1l11.48-9.31,5,13.91c4.61,12.86,10.43,12.86,12.92,12.86,1.72,0,8.92-.94,29.29-13.12,9.8-5.86,26.75-25.21,51.81-84,2.88-7.26,6.75-19.35,11.53-36a39.71,39.71,0,0,1-3.59,2.83l-.21.14c-9.3,6.21-20.25,9.36-32.55,9.36l-8.6-.09c-8.39-.08-17.07-4.78-26.52-14.37-7.85-7.73-11.82-18.94-11.82-33.32a96.91,96.91,0,0,1,.73-11.66l.05-.38.07-.38c6.59-33.55,22.53-56.55,47.38-68.35,19.59-9.32,37.94-14,54.51-14a81.51,81.51,0,0,1,9.43.54c31.75,2.46,49.24,21.28,49.24,53,0,3.29-.19,6.85-.55,10.59-2.59,29.51-11.67,66.1-27,108.67s-34.85,81.1-58,114.43c-24.63,35.39-51.84,54-80.89,55.4l-.7,0ZM461.64,114.7c0,5,1.33,8.89,4.19,12.09s5.61,4.62,9,4.86l8.34.6.11.74c2.09-10.94,3.69-22.07,4.76-33.32V97.2c0-5.15-.77-7.33-1.08-8a3.35,3.35,0,0,0-1.49-.34c-.05,0-1.52.05-5.56,1.57a23.31,23.31,0,0,0-7.6,4.88c-6.72,6.83-10.41,13.22-10.7,18.49Z" transform="translate(0 0)"/><path class="cls-1" d="M750.43,366.16c-8.19,0-17-2.3-26.25-6.85l-5.84-2.88v-6.52c0-34.89-19.41-58.34-59.26-71.51-29,44.11-61.3,66.47-96.16,66.47-17.19,0-30.53-5.06-39.67-15-8.88-9.71-13.39-20.73-13.39-32.74,0-29.6,16.18-49.76,46.78-58.28,25-7,48.43-10.82,69.78-11.51,22.33-25.56,44.59-53.45,66.21-83l.09-.12c5.86-7.78,11.58-15.25,17.08-22.36-9.75-1.76-19.28-3.6-28.48-5.48l-.23,0-.22-.06c-23.6-5.93-44.07-8.93-60.84-8.93a98.75,98.75,0,0,0-25.14,2.87,21.64,21.64,0,0,0-8.61,6.63,25.17,25.17,0,0,0-4.35,9.65,49.58,49.58,0,0,0-.95,9.34c0,.41,0,1.56.16,4.66a31.48,31.48,0,0,0,.87,5.93l.06.23,2.84,14.77-10.24,2a91.39,91.39,0,0,1-17.53,1.85c-17,0-29.93-5.88-38.47-17.46a54.49,54.49,0,0,1-10.79-33c0-6.07,1.64-14.92,5-27.06,3.93-14.17,16.18-26.44,37.44-37.52l.37-.19.38-.16a115.84,115.84,0,0,1,45.36-9.58c6.5,0,16.14,1.16,29.49,3.54,13.18,2.37,29.66,7.4,49,15,7.44,2.69,14.89,5.25,22.15,7.59,18.09,5.88,34.78,9.16,49.7,9.78,19.22-24.8,42.65-37.36,69.72-37.36,16.8,0,28.87,4.43,35.89,13.16l.08.09a40.14,40.14,0,0,1,8.83,25.28v.38l-.21,2.9c-1.28,13.85-8.95,25.73-22.79,35.3-13,9-28.73,13.49-46.89,13.49-8.27,0-16.78-.16-25.36-.48-13.42,14.52-27.58,33-42.17,55.05-10.47,16.12-21.28,32.27-32.24,48.15,43.77,7.8,76,30.05,95.9,66.31l.42.75.28.81a72.12,72.12,0,0,1,4.56,23.78c0,13-5.07,24.15-14.66,32.15A42.08,42.08,0,0,1,750.43,366.16Z" transform="translate(0 0)"/><path class="cls-1" d="M239,377.16c-26.83,0-46.6-7.51-58.76-22.31-10.36-12.43-15.88-26.29-16.38-41.21q-5.24,8.66-10.8,16.79c-21.24,31-47.7,46.73-78.63,46.73-37.85,0-51.07-19.27-55.49-35.44a57.22,57.22,0,0,1-2.19-15.47c0-16.47,7.51-31.54,22.31-44.78l6.86-6.14,7,6c8.45,7.29,16.48,11,23.86,11,5.63,0,15.77-3.64,32.17-21,14.2-15,27.27-39.47,38.83-72.67l.06-.19c4-10.85,7.92-22.05,11.59-33.3,3.33-10.21,6.8-20.45,10.31-30.42l.15-.44.2-.42c9.78-21.52,23.41-33.66,40.53-36.07a38.06,38.06,0,0,1,5.64-.44c11.16,0,26.2,5,34.49,29l2.93,8.46-7.91,4.21c-5.18,2.75-10.1,8.33-14.64,16.59-1.66,3-3.26,6.15-4.8,9.35a109.49,109.49,0,0,0,18-13c10.37-9.11,15.42-20.68,15.42-35.37,0-1.86-.08-3.79-.23-5.75C255.26,94,244.9,84.48,227,81a71.31,71.31,0,0,0-13.37-1.3c-14.48,0-28.08,4.75-41.56,14.52-15,10.79-22.25,28.53-22.25,54.24,0,3.11.11,6.39.31,9.76l.68,11.11H139.63c-38.16,0-48-22.91-50.41-36.63a56.1,56.1,0,0,1-1-10.48c0-18.64,9.43-37.59,28.05-56.32s48.76-29,92-31a35.29,35.29,0,0,1,5.18-.37,37.1,37.1,0,0,1,4.86.33h3.56l.33,0c33.7,2.14,60.68,13,80.17,32.4,14.65,14.66,22.07,31.81,22.07,51a87.53,87.53,0,0,1-3.17,22.7l-.09.33-.11.32c-5.18,15.17-13.25,27.8-24,37.55A130.63,130.63,0,0,1,264.9,201l-1.12.51A194.7,194.7,0,0,1,291.09,214c26.47,14.56,40.45,39.1,41.57,73v.46l0,.47c-1.24,22.08-10.41,42.6-27.25,61C288.16,367.63,265.82,377.16,239,377.16ZM201.11,273.1c0,18.89,7.4,24.55,13,27.16a33,33,0,0,0,14.37,3.47c3.17,0,9-1,19-5.93,7.34-3.63,10.22-15.63,11.34-25.29,0-12.32-3.18-20.81-9.66-26a49.06,49.06,0,0,0-26.46-10.41h-.15a110.33,110.33,0,0,0-12.52-.76,76.46,76.46,0,0,0-9.64.57q-4.08,11.4-8.6,22.28l9.4-8.25Z" transform="translate(0 0)"/><path class="cls-1" d="M380.72,376.63c-37.89-3.24-50.87-22.17-55.08-37.49a51.49,51.49,0,0,1-2-14.05c0-16.56,8.35-31.74,24.84-45.1l11.47-9.31,5,13.91c4.61,12.87,10.43,12.87,12.92,12.87,1.72,0,8.92-.95,29.29-13.13,9.8-5.86,26.75-25.2,51.81-84,2.88-7.26,6.75-19.35,11.53-36a39.76,39.76,0,0,1-3.59,2.84l-.2.13c-9.31,6.21-20.26,9.36-32.55,9.36l-8.61-.09c-8.39-.08-17.07-4.78-26.52-14.36-7.85-7.74-11.82-18.95-11.82-33.33a99.14,99.14,0,0,1,.73-11.66l.05-.38.07-.38c6.59-33.55,22.53-56.55,47.38-68.35C455,38.74,473.33,34,489.9,34a83.8,83.8,0,0,1,9.43.54c31.75,2.46,49.24,21.28,49.24,53,0,3.28-.19,6.84-.55,10.58-2.59,29.51-11.67,66.1-27,108.67s-34.84,81.1-58,114.43c-24.62,35.4-51.84,54-80.89,55.4l-.69,0Zm76.73-266.12c0,5,1.33,8.89,4.19,12.09s5.62,4.62,9,4.87l8.34.59.12.74c2.09-10.94,3.68-22.07,4.76-33.31V93c0-5.15-.78-7.33-1.09-8a3.22,3.22,0,0,0-1.49-.34c-.05,0-1.52,0-5.56,1.56a23.31,23.31,0,0,0-7.6,4.88c-6.71,6.84-10.41,13.22-10.7,18.49Z" transform="translate(0 0)"/><path class="cls-1" d="M746.24,362c-8.19,0-17-2.3-26.25-6.85l-5.84-2.88v-6.51c0-34.89-19.4-58.35-59.26-71.52-29,44.11-61.3,66.47-96.16,66.47-17.19,0-30.53-5.06-39.66-15-8.89-9.71-13.4-20.73-13.4-32.73,0-29.61,16.18-49.77,46.79-58.29,25-7,48.42-10.82,69.78-11.51,22.32-25.55,44.58-53.45,66.2-83l.09-.12c5.87-7.77,11.58-15.25,17.08-22.36-9.75-1.76-19.27-3.59-28.48-5.48l-.23,0-.22-.06c-23.6-5.92-44.07-8.93-60.84-8.93A98.27,98.27,0,0,0,590.7,106a21.62,21.62,0,0,0-8.61,6.62,25,25,0,0,0-4.34,9.65,48.89,48.89,0,0,0-1,9.34c0,.41,0,1.56.16,4.66a31.48,31.48,0,0,0,.87,5.93l.06.23,2.84,14.78-10.23,2A91.57,91.57,0,0,1,553,161.09c-17,0-29.92-5.87-38.47-17.46a54.47,54.47,0,0,1-10.79-33c0-6.06,1.64-14.92,5-27.06,3.92-14.17,16.17-26.44,37.44-37.52l.36-.19.39-.16a115.79,115.79,0,0,1,45.35-9.58c6.5,0,16.14,1.16,29.49,3.55,13.18,2.36,29.66,7.39,49,14.95,7.45,2.69,14.9,5.25,22.15,7.59,18.09,5.88,34.78,9.16,49.7,9.78,19.22-24.79,42.65-37.36,69.72-37.36,16.8,0,28.88,4.43,35.89,13.16l.08.1a40.1,40.1,0,0,1,8.83,25.27v.38l-.21,2.9c-1.28,13.86-9,25.73-22.79,35.3-13,9-28.73,13.49-46.89,13.49-8.27,0-16.78-.16-25.36-.48-13.41,14.53-27.58,33-42.17,55.05C709.18,196,698.37,212.11,687.42,228c43.76,7.8,76,30.06,95.9,66.31l.41.75.28.81a72.13,72.13,0,0,1,4.56,23.79c0,13-5.07,24.14-14.66,32.14A42.06,42.06,0,0,1,746.24,362Z" transform="translate(0 0)"/><path class="cls-1" d="M234.81,373c-26.83,0-46.6-7.51-58.76-22.31-10.36-12.42-15.87-26.29-16.38-41.21q-5.22,8.66-10.8,16.79c-21.24,31-47.69,46.73-78.63,46.73-37.84,0-51.06-19.27-55.49-35.44a57.22,57.22,0,0,1-2.19-15.47c0-16.47,7.51-31.53,22.31-44.78l6.86-6.13,7,6c8.45,7.29,16.48,11,23.86,11,5.63,0,15.77-3.64,32.18-21,14.2-15,27.26-39.47,38.82-72.67l.07-.19c4-10.85,7.91-22.05,11.58-33.3,3.33-10.21,6.8-20.45,10.31-30.42l.16-.44.19-.42c9.78-21.52,23.42-33.65,40.53-36.07a38.17,38.17,0,0,1,5.64-.44c11.16,0,26.2,5,34.49,29l2.93,8.47-7.91,4.2c-5.18,2.75-10.1,8.33-14.63,16.59q-2.49,4.54-4.81,9.35a110,110,0,0,0,18-13c10.37-9.12,15.42-20.69,15.42-35.38,0-1.85-.08-3.78-.23-5.75-4.23-16.9-14.6-26.39-32.55-29.86a71.31,71.31,0,0,0-13.37-1.3c-14.48,0-28.08,4.75-41.56,14.52-15,10.79-22.25,28.53-22.25,54.25,0,3.1.11,6.38.31,9.75l.68,11.12H135.44c-38.15,0-48-22.91-50.4-36.63A55.46,55.46,0,0,1,84,118c0-18.64,9.43-37.58,28.05-56.32s48.76-28.95,92-31a35.29,35.29,0,0,1,5.18-.37,37.1,37.1,0,0,1,4.86.33h3.56l.33,0c33.71,2.14,60.68,13,80.17,32.4,14.65,14.66,22.07,31.81,22.07,51a87.1,87.1,0,0,1-3.17,22.7l-.09.33-.11.33c-5.18,15.16-13.25,27.8-24,37.55a130.86,130.86,0,0,1-32.14,21.78l-1.11.52a193.37,193.37,0,0,1,27.3,12.51c26.47,14.56,40.45,39.11,41.57,73v.47l0,.46c-1.24,22.09-10.4,42.6-27.25,61C284,363.44,261.63,373,234.81,373ZM196.92,268.91c0,18.89,7.4,24.55,13,27.17a33.13,33.13,0,0,0,14.37,3.46c3.18,0,9-1,19-5.93,7.35-3.63,10.22-15.63,11.34-25.29,0-12.32-3.18-20.81-9.66-26A49,49,0,0,0,218.43,232l-.15,0a112.55,112.55,0,0,0-12.52-.76,76.57,76.57,0,0,0-9.64.57Q192,243.15,187.53,254l9.39-8.24Z" transform="translate(0 0)"/><path class="cls-1" d="M376.54,372.44c-37.9-3.24-50.88-22.16-55.08-37.49a51.06,51.06,0,0,1-2-14c0-16.57,8.36-31.74,24.84-45.11l11.47-9.3,5,13.9c4.61,12.87,10.43,12.87,12.92,12.87,1.72,0,8.93-.95,29.29-13.13,9.81-5.86,26.75-25.2,51.81-84,2.88-7.27,6.75-19.36,11.53-36a40.08,40.08,0,0,1-3.59,2.83l-.2.14c-9.31,6.2-20.26,9.35-32.55,9.35l-8.61-.08c-8.39-.09-17.06-4.79-26.52-14.37C387,150.23,383,139,383,124.64a97.11,97.11,0,0,1,.74-11.66l0-.38.08-.37c6.58-33.56,22.53-56.55,47.38-68.35,19.59-9.33,37.93-14.06,54.5-14.06a81.5,81.5,0,0,1,9.43.55c31.76,2.45,49.24,21.27,49.24,53,0,3.29-.18,6.85-.54,10.58-2.6,29.51-11.68,66.1-27,108.67s-34.85,81.1-58,114.43c-24.63,35.4-51.85,54-80.9,55.4l-.69,0Zm76.72-266.12c0,5.05,1.34,8.89,4.19,12.09s5.62,4.62,9,4.87l8.34.59.12.74c2.09-10.94,3.68-22.07,4.76-33.31V88.82c0-5.15-.77-7.33-1.09-8a3.21,3.21,0,0,0-1.48-.34c-.06,0-1.53,0-5.57,1.56a23.42,23.42,0,0,0-7.6,4.88c-6.71,6.84-10.41,13.22-10.7,18.49Z" transform="translate(0 0)"/><path class="cls-1" d="M742.06,357.79c-8.19,0-17-2.31-26.26-6.86L710,348.05v-6.51c0-34.89-19.4-58.34-59.25-71.52-29,44.12-61.3,66.47-96.17,66.47-17.19,0-30.53-5.06-39.66-15-8.89-9.71-13.39-20.72-13.39-32.73,0-29.61,16.17-49.76,46.78-58.29,25-7,48.42-10.82,69.78-11.51,22.33-25.55,44.58-53.45,66.2-83l.09-.12c5.87-7.77,11.58-15.25,17.08-22.36-9.74-1.76-19.27-3.59-28.48-5.47l-.23,0-.22-.06C648.89,102,628.42,99,611.65,99a98.33,98.33,0,0,0-25.14,2.88,21.69,21.69,0,0,0-8.61,6.62,25,25,0,0,0-4.34,9.65,49.66,49.66,0,0,0-.95,9.34c0,.41,0,1.57.15,4.66a30.74,30.74,0,0,0,.88,5.93l.05.24,2.85,14.77-10.24,2a92.14,92.14,0,0,1-17.53,1.84c-17,0-29.93-5.87-38.47-17.46a54.4,54.4,0,0,1-10.8-32.95c0-6.07,1.64-14.92,5-27.07C508.43,65.26,520.68,53,542,41.9l.37-.19.38-.16A115.79,115.79,0,0,1,588.05,32c6.5,0,16.15,1.16,29.49,3.55s29.66,7.39,49,14.95c7.44,2.7,14.89,5.25,22.14,7.59,18.09,5.88,34.78,9.16,49.7,9.78C757.58,43.05,781,30.49,808.08,30.49c16.8,0,28.88,4.42,35.89,13.15l.08.1A40.11,40.11,0,0,1,852.89,69v.37l-.21,2.9c-1.29,13.86-9,25.73-22.8,35.3-13,9-28.73,13.49-46.89,13.49-8.26,0-16.77-.16-25.36-.47-13.41,14.52-27.58,33-42.17,55-10.46,16.12-21.28,32.27-32.23,48.15,43.77,7.81,76,30.06,95.9,66.31l.41.75.29.81a72.4,72.4,0,0,1,4.55,23.79c0,13-5.07,24.15-14.66,32.14A42,42,0,0,1,742.06,357.79Z" transform="translate(0 0)"/><path class="cls-1" d="M230.62,368.78c-26.83,0-46.6-7.5-58.76-22.31-10.36-12.42-15.87-26.29-16.37-41.21q-5.24,8.65-10.81,16.8c-21.24,31-47.69,46.72-78.63,46.72-37.84,0-51.06-19.27-55.49-35.43a57.28,57.28,0,0,1-2.18-15.48c0-16.47,7.5-31.53,22.3-44.77L37.54,267l7,6C53,280.26,61,284,68.37,284c5.62,0,15.77-3.64,32.17-21,14.2-15,27.26-39.46,38.82-72.67l.07-.19c4-10.85,7.91-22.05,11.58-33.29,3.34-10.21,6.8-20.45,10.31-30.43l.16-.44.19-.42c9.78-21.52,23.42-33.65,40.53-36.07a38.19,38.19,0,0,1,5.65-.44c11.15,0,26.19,5,34.48,29l2.93,8.47-7.91,4.2c-5.18,2.75-10.1,8.33-14.63,16.59q-2.49,4.54-4.81,9.36a109.65,109.65,0,0,0,18-13c10.38-9.11,15.42-20.69,15.42-35.38,0-1.85-.08-3.78-.23-5.75-4.23-16.89-14.59-26.39-32.55-29.86a71.28,71.28,0,0,0-13.37-1.29c-14.48,0-28.08,4.74-41.56,14.51-15,10.79-22.24,28.53-22.24,54.25,0,3.1.1,6.38.31,9.76l.68,11.11H131.26c-38.16,0-48-22.91-50.41-36.63a56.22,56.22,0,0,1-1-10.49c0-18.63,9.44-37.58,28.05-56.32s48.76-28.95,92-31a36.72,36.72,0,0,1,5.18-.37,37.1,37.1,0,0,1,4.86.33h3.56l.33,0c33.71,2.14,60.68,13,80.17,32.41C308.62,73.54,316,90.7,316,109.89a87.5,87.5,0,0,1-3.16,22.7l-.09.33-.11.33c-5.18,15.17-13.26,27.8-24,37.55a130.67,130.67,0,0,1-32.14,21.78l-1.11.52a192.85,192.85,0,0,1,27.3,12.51c26.47,14.56,40.46,39.11,41.57,73l0,.47,0,.46c-1.23,22.09-10.4,42.6-27.25,61C279.78,359.26,257.44,368.78,230.62,368.78ZM192.73,264.72c0,18.9,7.4,24.56,13,27.17a33.13,33.13,0,0,0,14.37,3.46c3.18,0,9.05-1,19-5.93,7.35-3.63,10.22-15.63,11.34-25.28,0-12.33-3.18-20.82-9.66-26a49,49,0,0,0-26.46-10.41l-.15,0a112.55,112.55,0,0,0-12.52-.76,76.57,76.57,0,0,0-9.64.57q-4.08,11.4-8.59,22.28l9.39-8.24Z" transform="translate(0 0)"/><path class="cls-1" d="M372.35,368.25c-37.9-3.24-50.87-22.16-55.08-37.49a51.44,51.44,0,0,1-2-14c0-16.57,8.36-31.74,24.84-45.11l11.47-9.3,5,13.9c4.61,12.87,10.44,12.87,12.92,12.87,1.73,0,8.93-.95,29.29-13.12,9.81-5.87,26.75-25.21,51.82-84,2.87-7.27,6.74-19.36,11.52-36a40.08,40.08,0,0,1-3.59,2.83l-.2.14c-9.31,6.2-20.26,9.35-32.55,9.35l-8.61-.08c-8.38-.09-17.06-4.79-26.52-14.37-7.84-7.73-11.82-18.94-11.82-33.33a97.11,97.11,0,0,1,.74-11.66l0-.38.08-.37c6.59-33.56,22.53-56.55,47.38-68.35,19.59-9.32,37.93-14,54.5-14a81.38,81.38,0,0,1,9.43.54c31.76,2.46,49.24,21.27,49.24,53,0,3.29-.18,6.85-.54,10.58-2.6,29.51-11.68,66.1-27,108.67s-34.85,81.1-58,114.44c-24.63,35.39-51.85,54-80.9,55.4l-.69,0Zm76.73-266.12c0,5.05,1.33,8.89,4.19,12.09s5.61,4.63,9,4.87l8.35.59.11.75c2.09-10.94,3.68-22.08,4.76-33.32V84.64c0-5.16-.77-7.34-1.08-8a3.25,3.25,0,0,0-1.49-.34c-.06,0-1.52,0-5.57,1.56a23.58,23.58,0,0,0-7.6,4.88c-6.71,6.84-10.4,13.22-10.69,18.49Z" transform="translate(0 0)"/><path class="cls-1" d="M737.87,353.6c-8.19,0-17-2.31-26.25-6.86l-5.85-2.88v-6.51c0-34.89-19.4-58.34-59.25-71.51-29,44.11-61.3,66.47-96.17,66.47-17.18,0-30.53-5.07-39.66-15.05-8.89-9.71-13.39-20.72-13.39-32.73,0-29.61,16.17-49.76,46.78-58.29,25-7,48.42-10.82,69.78-11.5,22.33-25.56,44.59-53.45,66.21-83l.08-.11c5.87-7.78,11.58-15.26,17.08-22.37-9.74-1.76-19.27-3.59-28.48-5.47l-.22,0-.23-.06c-23.6-5.92-44.06-8.92-60.83-8.92a98.39,98.39,0,0,0-25.15,2.87,21.67,21.67,0,0,0-8.6,6.63,24.83,24.83,0,0,0-4.35,9.64,49.66,49.66,0,0,0-1,9.34c0,.41,0,1.57.15,4.66a31.75,31.75,0,0,0,.88,5.94l0,.23,2.85,14.77-10.24,2a92.14,92.14,0,0,1-17.53,1.84c-17,0-29.93-5.87-38.47-17.46a54.44,54.44,0,0,1-10.79-32.95c0-6.07,1.63-14.92,5-27.06,3.92-14.17,16.17-26.45,37.44-37.52l.37-.2.38-.16a116,116,0,0,1,45.35-9.58c6.5,0,16.15,1.16,29.49,3.55,13.19,2.36,29.66,7.39,49,15,7.44,2.7,14.89,5.25,22.14,7.59,18.09,5.88,34.78,9.16,49.71,9.79,19.21-24.8,42.65-37.36,69.71-37.36,16.8,0,28.88,4.42,35.89,13.15l.08.1a40.13,40.13,0,0,1,8.84,25.28v.37l-.21,2.91c-1.29,13.85-9,25.72-22.8,35.29-13,8.95-28.73,13.49-46.89,13.49-8.26,0-16.77-.16-25.35-.47-13.42,14.52-27.59,33-42.18,55C700.81,187.59,690,203.74,679,219.61c43.77,7.81,76,30.06,95.9,66.32l.41.75.29.8a72.48,72.48,0,0,1,4.56,23.79c0,13-5.07,24.15-14.67,32.14A42,42,0,0,1,737.87,353.6Z" transform="translate(0 0)"/><path class="cls-1" d="M226.44,364.6c-26.84,0-46.61-7.51-58.77-22.32-10.35-12.42-15.87-26.29-16.37-41.2q-5.24,8.66-10.81,16.79c-21.24,31-47.69,46.73-78.62,46.73C24,364.6,10.8,345.32,6.38,329.16a56.85,56.85,0,0,1-2.19-15.48c0-16.46,7.5-31.53,22.3-44.77l6.86-6.14,7,6c8.45,7.3,16.47,11,23.86,11,5.62,0,15.77-3.64,32.17-21,14.2-15,27.26-39.47,38.82-72.68l.07-.19c4-10.85,7.91-22,11.59-33.29,3.33-10.21,6.8-20.45,10.31-30.43l.15-.44.19-.42C167.26,99.82,180.9,87.69,198,85.27a38.19,38.19,0,0,1,5.65-.44c11.15,0,26.19,5,34.49,29l2.93,8.47-7.92,4.2c-5.17,2.76-10.1,8.34-14.63,16.59q-2.49,4.54-4.81,9.36a109.65,109.65,0,0,0,18-13c10.38-9.11,15.42-20.69,15.42-35.38,0-1.85-.07-3.78-.23-5.75-4.23-16.89-14.59-26.39-32.55-29.86A72,72,0,0,0,201,67.15c-14.49,0-28.08,4.75-41.56,14.51-15,10.8-22.25,28.53-22.25,54.25,0,3.1.1,6.39.31,9.76l.68,11.11H127.07c-38.16,0-48-22.91-50.41-36.63a56.14,56.14,0,0,1-1-10.49c0-18.63,9.44-37.58,28.05-56.32s48.76-28.95,92-31a36.72,36.72,0,0,1,5.18-.37,37.36,37.36,0,0,1,4.87.33h3.55l.33,0c33.71,2.13,60.68,13,80.17,32.4,14.66,14.66,22.08,31.81,22.08,51a87.53,87.53,0,0,1-3.17,22.7l-.09.33-.11.33c-5.18,15.17-13.26,27.8-24,37.55a130.35,130.35,0,0,1-32.15,21.78l-1.11.52a193.56,193.56,0,0,1,27.31,12.52C305,216,319,240.53,320.09,274.38l0,.47,0,.46c-1.23,22.09-10.4,42.6-27.25,61C275.59,355.07,253.26,364.6,226.44,364.6Zm-37.9-104.07c0,18.9,7.4,24.56,13,27.17a33,33,0,0,0,14.37,3.46c3.18,0,9-1,19-5.93,7.34-3.62,10.22-15.63,11.33-25.28,0-12.32-3.17-20.82-9.66-26a49,49,0,0,0-26.46-10.41l-.15,0a112.43,112.43,0,0,0-12.52-.75,78.41,78.41,0,0,0-9.63.56q-4.08,11.4-8.6,22.29l9.39-8.25Z" transform="translate(0 0)"/><path class="cls-1" d="M368.16,364.06c-37.9-3.24-50.87-22.16-55.08-37.49a51.44,51.44,0,0,1-2-14c0-16.57,8.36-31.74,24.84-45.11l11.47-9.3,5,13.9c4.61,12.87,10.44,12.87,12.93,12.87,1.72,0,8.92-.95,29.29-13.12,9.8-5.87,26.74-25.21,51.81-84,2.87-7.27,6.74-19.36,11.52-36a38.18,38.18,0,0,1-3.58,2.83l-.21.14c-9.31,6.21-20.26,9.35-32.55,9.35l-8.61-.08c-8.38-.08-17.06-4.78-26.52-14.37-7.84-7.73-11.82-18.94-11.82-33.32a96.85,96.85,0,0,1,.74-11.66l.05-.38.07-.38C382,70.3,398,47.3,422.83,35.5c19.59-9.32,37.93-14,54.5-14a81.26,81.26,0,0,1,9.43.54C518.52,24.45,536,43.27,536,75c0,3.29-.18,6.85-.54,10.58-2.59,29.51-11.67,66.11-27,108.67s-34.85,81.11-58,114.44c-24.63,35.39-51.85,54-80.9,55.4l-.69,0ZM444.89,97.94c0,5,1.33,8.89,4.19,12.1s5.61,4.62,9,4.86l8.35.59.11.75c2.09-10.94,3.68-22.08,4.76-33.32V80.45c0-5.15-.77-7.34-1.08-8a3.25,3.25,0,0,0-1.49-.34c-.05,0-1.52.05-5.57,1.56a23.48,23.48,0,0,0-7.59,4.89c-6.72,6.83-10.41,13.22-10.7,18.48Z" transform="translate(0 0)"/><path class="cls-1" d="M733.68,349.41c-8.19,0-17-2.31-26.25-6.86l-5.84-2.88v-6.51c0-34.89-19.41-58.34-59.26-71.51-29,44.11-61.3,66.47-96.16,66.47-17.19,0-30.54-5.06-39.67-15-8.89-9.72-13.39-20.73-13.39-32.74,0-29.61,16.18-49.76,46.78-58.28,25-7,48.43-10.82,69.78-11.51,22.33-25.56,44.59-53.45,66.21-83l.09-.12c5.86-7.78,11.57-15.26,17.08-22.36-9.75-1.77-19.28-3.6-28.49-5.48l-.22-.05-.23,0c-23.59-5.93-44.06-8.93-60.83-8.93a98.44,98.44,0,0,0-25.15,2.87,21.67,21.67,0,0,0-8.6,6.63,25,25,0,0,0-4.35,9.65,49.47,49.47,0,0,0-.95,9.33c0,.42,0,1.57.15,4.66a31.63,31.63,0,0,0,.88,5.94l.06.23,2.84,14.77-10.24,2a92.2,92.2,0,0,1-17.53,1.85c-17,0-29.93-5.88-38.47-17.47a54.44,54.44,0,0,1-10.79-32.95c0-6.07,1.63-14.92,5-27.06,3.93-14.17,16.17-26.44,37.44-37.52l.37-.19.38-.17a116,116,0,0,1,45.35-9.58c6.5,0,16.15,1.16,29.5,3.55,13.18,2.36,29.66,7.39,49,15,7.44,2.7,14.89,5.25,22.14,7.6,18.1,5.87,34.78,9.15,49.71,9.78,19.22-24.8,42.65-37.36,69.72-37.36,16.79,0,28.87,4.42,35.89,13.15l.07.1a40.08,40.08,0,0,1,8.84,25.28V61l-.21,2.91c-1.29,13.85-9,25.73-22.8,35.29-13,9-28.73,13.5-46.88,13.5-8.27,0-16.78-.16-25.36-.48-13.42,14.52-27.59,33-42.17,55.05-10.47,16.12-21.28,32.27-32.24,48.15,43.77,7.8,76,30,95.9,66.31l.41.75.29.81A72.38,72.38,0,0,1,776,307.08c0,13-5.07,24.15-14.66,32.14A42,42,0,0,1,733.68,349.41Z" transform="translate(0 0)"/><path class="cls-1" d="M222.25,360.41c-26.83,0-46.61-7.51-58.77-22.31-10.35-12.43-15.87-26.3-16.37-41.21q-5.24,8.66-10.81,16.79c-21.23,31-47.69,46.73-78.62,46.73-37.85,0-51.07-19.27-55.49-35.44A56.83,56.83,0,0,1,0,309.5C0,293,7.5,278,22.31,264.72l6.85-6.14,7,6c8.45,7.29,16.47,11,23.86,11,5.62,0,15.77-3.64,32.17-21,14.2-15,27.26-39.47,38.82-72.68l.07-.19c4-10.84,7.91-22,11.59-33.29C146,138.23,149.44,128,153,118l.15-.43.19-.43c9.78-21.51,23.42-33.65,40.54-36.07a38,38,0,0,1,5.64-.44c11.16,0,26.2,5,34.49,29l2.93,8.46L229,122.32c-5.18,2.75-10.11,8.33-14.64,16.58q-2.49,4.54-4.8,9.36a109.49,109.49,0,0,0,18-13C237.93,126.13,243,114.56,243,99.86c0-1.85-.07-3.78-.22-5.75-4.24-16.89-14.6-26.39-32.56-29.85A71.12,71.12,0,0,0,196.83,63c-14.49,0-28.08,4.75-41.56,14.52C140.29,88.27,133,106,133,131.72c0,3.1.1,6.39.31,9.76l.68,11.11H122.88c-38.16,0-48-22.91-50.41-36.63a56.11,56.11,0,0,1-1-10.48c0-18.64,9.44-37.59,28.05-56.32s48.77-29,92-31a36.59,36.59,0,0,1,5.17-.36,37.24,37.24,0,0,1,4.87.33h3.55l.33,0c33.71,2.13,60.68,13,80.17,32.4,14.66,14.66,22.08,31.81,22.08,51a87.47,87.47,0,0,1-3.17,22.7l-.09.34-.11.32c-5.18,15.17-13.26,27.8-24,37.55a130.49,130.49,0,0,1-32.15,21.79l-1.11.51a193.56,193.56,0,0,1,27.31,12.52c26.46,14.56,40.45,39.1,41.57,73v.46l0,.46c-1.23,22.09-10.4,42.6-27.25,61C271.41,350.88,249.07,360.41,222.25,360.41Zm-37.9-104.06c0,18.89,7.4,24.55,13,27.16A33,33,0,0,0,211.68,287c3.18,0,9-1,19-5.94,7.34-3.62,10.22-15.62,11.33-25.28,0-12.32-3.17-20.81-9.65-26a49,49,0,0,0-26.47-10.41l-.14,0a112.71,112.71,0,0,0-12.52-.75,76.46,76.46,0,0,0-9.64.57q-4.08,11.4-8.6,22.28l9.39-8.25Z" transform="translate(0 0)"/><path class="cls-1" d="M364,359.87c-37.89-3.24-50.87-22.16-55.08-37.49a51.44,51.44,0,0,1-2-14c0-16.56,8.36-31.74,24.84-45.11l11.47-9.3,5,13.9c4.6,12.87,10.43,12.87,12.92,12.87,1.72,0,8.92-.94,29.29-13.12,9.8-5.86,26.75-25.21,51.81-84,2.87-7.26,6.75-19.35,11.52-36a38.18,38.18,0,0,1-3.58,2.83l-.21.14c-9.3,6.21-20.25,9.35-32.55,9.35l-8.61-.08c-8.38-.08-17.06-4.78-26.52-14.37-7.84-7.73-11.82-18.94-11.82-33.32a97,97,0,0,1,.74-11.66l.05-.38.07-.38c6.59-33.55,22.53-56.55,47.38-68.35,19.59-9.32,37.93-14,54.51-14a81.51,81.51,0,0,1,9.43.54c31.75,2.46,49.24,21.28,49.24,53,0,3.29-.19,6.85-.55,10.58-2.59,29.52-11.67,66.11-27,108.68s-34.85,81.1-58,114.43c-24.63,35.39-51.84,54-80.89,55.4l-.7,0ZM440.7,93.76c0,5,1.33,8.89,4.19,12.09s5.61,4.62,9,4.86l8.34.6.11.74c2.09-10.94,3.68-22.08,4.76-33.32V76.26c0-5.15-.77-7.33-1.08-8a3.35,3.35,0,0,0-1.49-.34c-.05,0-1.52,0-5.56,1.56a23.52,23.52,0,0,0-7.6,4.89c-6.72,6.83-10.41,13.22-10.7,18.49Z" transform="translate(0 0)"/><path class="cls-1" d="M729.49,345.22c-8.19,0-17-2.31-26.25-6.85l-5.84-2.88V329c0-34.89-19.41-58.34-59.26-71.51-29,44.11-61.3,66.47-96.16,66.47-17.19,0-30.54-5.06-39.67-15-8.88-9.71-13.39-20.73-13.39-32.74,0-29.61,16.18-49.76,46.78-58.28,25-7,48.43-10.82,69.78-11.51,22.33-25.56,44.59-53.45,66.21-83l.09-.12c5.86-7.78,11.58-15.26,17.08-22.36-9.75-1.76-19.28-3.6-28.48-5.48l-.23-.05-.22,0c-23.6-5.93-44.07-8.93-60.84-8.93A98.75,98.75,0,0,0,574,89.27a21.64,21.64,0,0,0-8.61,6.63,25.1,25.1,0,0,0-4.35,9.65,49.47,49.47,0,0,0-1,9.33c0,.42,0,1.57.16,4.66a31.58,31.58,0,0,0,.87,5.94l.06.23L564,140.48l-10.24,2a91.39,91.39,0,0,1-17.53,1.85c-17,0-29.93-5.88-38.47-17.46a54.49,54.49,0,0,1-10.79-33c0-6.07,1.64-14.92,5-27.06,3.93-14.17,16.18-26.44,37.44-37.52l.37-.19.38-.16a115.8,115.8,0,0,1,45.36-9.58c6.49,0,16.14,1.16,29.49,3.54,13.18,2.36,29.66,7.39,49,15,7.44,2.7,14.89,5.26,22.14,7.6,18.1,5.87,34.78,9.16,49.71,9.78,19.22-24.8,42.65-37.36,69.72-37.36,16.8,0,28.87,4.43,35.89,13.15l.08.1a40.12,40.12,0,0,1,8.83,25.28v.38l-.21,2.9c-1.28,13.85-9,25.73-22.79,35.29-13,9-28.73,13.5-46.89,13.5-8.27,0-16.78-.16-25.36-.48-13.42,14.52-27.59,33-42.17,55.05-10.47,16.12-21.28,32.27-32.24,48.15,43.77,7.8,76,30,95.9,66.31l.42.75.28.81a72.12,72.12,0,0,1,4.56,23.78c0,13-5.07,24.15-14.66,32.15A42.08,42.08,0,0,1,729.49,345.22Z" transform="translate(0 0)"/><path class="cls-1" d="M222.25,360.41c-26.83,0-46.61-7.51-58.77-22.31-10.35-12.43-15.87-26.3-16.37-41.21q-5.24,8.66-10.81,16.79c-21.23,31-47.69,46.73-78.62,46.73-37.85,0-51.07-19.27-55.49-35.44A56.83,56.83,0,0,1,0,309.5C0,293,7.5,278,22.31,264.72l6.85-6.14,7,6c8.45,7.29,16.47,11,23.86,11,5.62,0,15.77-3.64,32.17-21,14.2-15,27.26-39.47,38.82-72.68l.07-.19c4-10.84,7.91-22,11.59-33.29C146,138.23,149.44,128,153,118l.15-.43.19-.43c9.78-21.51,23.42-33.65,40.54-36.07a38,38,0,0,1,5.64-.44c11.16,0,26.2,5,34.49,29l2.93,8.46L229,122.32c-5.18,2.75-10.11,8.33-14.64,16.58q-2.49,4.54-4.8,9.36a109.49,109.49,0,0,0,18-13C237.93,126.13,243,114.56,243,99.86c0-1.85-.07-3.78-.22-5.75-4.24-16.89-14.6-26.39-32.56-29.85A71.12,71.12,0,0,0,196.83,63c-14.49,0-28.08,4.75-41.56,14.52C140.29,88.27,133,106,133,131.72c0,3.1.1,6.39.31,9.76l.68,11.11H122.88c-38.16,0-48-22.91-50.41-36.63a56.11,56.11,0,0,1-1-10.48c0-18.64,9.44-37.59,28.05-56.32s48.77-29,92-31a36.59,36.59,0,0,1,5.17-.36,37.24,37.24,0,0,1,4.87.33h3.55l.33,0c33.71,2.13,60.68,13,80.17,32.4,14.66,14.66,22.08,31.81,22.08,51a87.47,87.47,0,0,1-3.17,22.7l-.09.34-.11.32c-5.18,15.17-13.26,27.8-24,37.55a130.49,130.49,0,0,1-32.15,21.79l-1.11.51a193.56,193.56,0,0,1,27.31,12.52c26.46,14.56,40.45,39.1,41.57,73v.46l0,.46c-1.23,22.09-10.4,42.6-27.25,61C271.41,350.88,249.07,360.41,222.25,360.41Zm-37.9-104.06c0,18.89,7.4,24.55,13,27.16A33,33,0,0,0,211.68,287c3.18,0,9-1,19-5.94,7.34-3.62,10.22-15.62,11.33-25.28,0-12.32-3.17-20.81-9.65-26a49,49,0,0,0-26.47-10.41l-.14,0a112.71,112.71,0,0,0-12.52-.75,76.46,76.46,0,0,0-9.64.57q-4.08,11.4-8.6,22.28l9.39-8.25Z" transform="translate(0 0)"/><path class="cls-1" d="M364,359.87c-37.89-3.24-50.87-22.16-55.08-37.49a51.44,51.44,0,0,1-2-14c0-16.56,8.36-31.74,24.84-45.11l11.47-9.3,5,13.9c4.6,12.87,10.43,12.87,12.92,12.87,1.72,0,8.92-.94,29.29-13.12,9.8-5.86,26.75-25.21,51.81-84,2.87-7.26,6.75-19.35,11.52-36a38.18,38.18,0,0,1-3.58,2.83l-.21.14c-9.3,6.21-20.25,9.35-32.55,9.35l-8.61-.08c-8.38-.08-17.06-4.78-26.52-14.37-7.84-7.73-11.82-18.94-11.82-33.32a97,97,0,0,1,.74-11.66l.05-.38.07-.38c6.59-33.55,22.53-56.55,47.38-68.35,19.59-9.32,37.93-14,54.51-14a81.51,81.51,0,0,1,9.43.54c31.75,2.46,49.24,21.28,49.24,53,0,3.29-.19,6.85-.55,10.58-2.59,29.52-11.67,66.11-27,108.68s-34.85,81.1-58,114.43c-24.63,35.39-51.84,54-80.89,55.4l-.7,0ZM440.7,93.76c0,5,1.33,8.89,4.19,12.09s5.61,4.62,9,4.86l8.34.6.11.74c2.09-10.94,3.68-22.08,4.76-33.32V76.26c0-5.15-.77-7.33-1.08-8a3.35,3.35,0,0,0-1.49-.34c-.05,0-1.52,0-5.56,1.56a23.52,23.52,0,0,0-7.6,4.89c-6.72,6.83-10.41,13.22-10.7,18.49Z" transform="translate(0 0)"/><path class="cls-1" d="M729.49,345.22c-8.19,0-17-2.31-26.25-6.85l-5.84-2.88V329c0-34.89-19.41-58.34-59.26-71.51-29,44.11-61.3,66.47-96.16,66.47-17.19,0-30.54-5.06-39.67-15-8.88-9.71-13.39-20.73-13.39-32.74,0-29.61,16.18-49.76,46.78-58.28,25-7,48.43-10.82,69.78-11.51,22.33-25.56,44.59-53.45,66.21-83l.09-.12c5.86-7.78,11.58-15.26,17.08-22.36-9.75-1.76-19.28-3.6-28.48-5.48l-.23-.05-.22,0c-23.6-5.93-44.07-8.93-60.84-8.93A98.75,98.75,0,0,0,574,89.27a21.64,21.64,0,0,0-8.61,6.63,25.1,25.1,0,0,0-4.35,9.65,49.47,49.47,0,0,0-1,9.33c0,.42,0,1.57.16,4.66a31.58,31.58,0,0,0,.87,5.94l.06.23L564,140.48l-10.24,2a91.39,91.39,0,0,1-17.53,1.85c-17,0-29.93-5.88-38.47-17.46a54.49,54.49,0,0,1-10.79-33c0-6.07,1.64-14.92,5-27.06,3.93-14.17,16.18-26.44,37.44-37.52l.37-.19.38-.16a115.8,115.8,0,0,1,45.36-9.58c6.49,0,16.14,1.16,29.49,3.54,13.18,2.36,29.66,7.39,49,15,7.44,2.7,14.89,5.26,22.14,7.6,18.1,5.87,34.78,9.16,49.71,9.78,19.22-24.8,42.65-37.36,69.72-37.36,16.8,0,28.87,4.43,35.89,13.15l.08.1a40.12,40.12,0,0,1,8.83,25.28v.38l-.21,2.9c-1.28,13.85-9,25.73-22.79,35.29-13,9-28.73,13.5-46.89,13.5-8.27,0-16.78-.16-25.36-.48-13.42,14.52-27.59,33-42.17,55.05-10.47,16.12-21.28,32.27-32.24,48.15,43.77,7.8,76,30,95.9,66.31l.42.75.28.81a72.12,72.12,0,0,1,4.56,23.78c0,13-5.07,24.15-14.66,32.15A42.08,42.08,0,0,1,729.49,345.22Z" transform="translate(0 0)"/><text class="cls-2" transform="translate(9.98 309.66) scale(1.11)">BIZ</text></svg>