<svg id="TEXT" xmlns="http://www.w3.org/2000/svg" viewBox="0 0 955.99 425.21"><defs><style>.cls-1{fill:#070707;}.cls-2{font-size:304.94px;fill:#fff;font-family:RetrowMentho, Retrow Mentho;}</style></defs><path class="cls-1" d="M161,386.87c-15.42,0-27.6-5.41-36.21-16.07-8-9.95-12.44-23.83-13.52-42.44-.45-6.67-.68-13.61-.68-20.63,0-28,3.67-60.85,10.92-97.76q4.68-23.79,9.52-45.51a34.13,34.13,0,0,1-11.76,12.67,58.12,58.12,0,0,1-32.71,9.51L78,186.56c-8.44-.08-17-4.86-26.17-14.6l-.08-.09c-6.76-7.36-10.19-17.52-10.19-30.2A89.63,89.63,0,0,1,43,126.14l0-.23,0-.22c4.42-19.75,12.94-35.56,25.32-47A112.85,112.85,0,0,1,107,54.81c13.21-4.71,25-7.65,35.18-8.72l14.47-1.38h.5c19.75,0,36.39,5.33,49.47,15.84,10.72,8.69,16.13,20.7,16.13,35.73a80,80,0,0,1-1.88,16.54l0,.2,0,.2c-3.22,12.63-7.12,27.25-11.62,43.46-7,24.9-13.79,50.67-20.23,76.65-6.34,25.59-10.47,47.64-12.29,65.55-.29,3-.44,5.79-.44,8.19a31.09,31.09,0,0,0,.72,7.56c3.38-1,10.32-5.21,20.14-21.94,10.5-17.87,22-40.16,34.26-66.26a887.88,887.88,0,0,1,65.87-120.28c26.64-40.77,59.16-61.44,96.66-61.44,6,0,13.21,1.84,22,5.64A52.52,52.52,0,0,1,439.08,70.2c4.77,7.23,7.19,16.17,7.19,26.58a83.82,83.82,0,0,1-.75,10.78L444,118.77,433,116.43a71.57,71.57,0,0,0-14.84-1.59c-22.5,0-45.05,13.21-67,39.28-23.6,28-47.12,63.12-69.9,104.37-18.65,33.18-37.35,62.53-55.63,87.31C205.49,373.05,183.75,386.87,161,386.87ZM124.85,101.48c-7.23,7.2-11.28,13.8-11.72,19.1-.09,1-.13,1.82-.13,2.61a14.46,14.46,0,0,0,3.73,10.14c2.86,3.24,5.21,3.65,6.93,3.65h9.49l.93,9.45c.12,1.26.19,2.43.21,3.57q4.67-20,9.43-37.81.94-3.93,1.89-7.72a33.79,33.79,0,0,0,.59-5.71c0-4.17-.76-4.3-2.14-4.53l-.24,0-.24,0a11.2,11.2,0,0,0-2.42-.26C136.17,93.88,130.68,96.43,124.85,101.48Z" transform="translate(0.33 15.09)"/><path class="cls-1" d="M511.56,387.2c-26.83,0-46.6-7.51-58.76-22.31-10.36-12.43-15.87-26.3-16.38-41.21q-5.24,8.65-10.8,16.79c-21.24,31-47.69,46.73-78.63,46.73-37.85,0-51.06-19.27-55.49-35.44a57.22,57.22,0,0,1-2.19-15.47c0-16.47,7.51-31.54,22.31-44.78l6.86-6.14,7,6c8.45,7.29,16.48,11,23.86,11,5.63,0,15.77-3.65,32.18-21,14.19-15,27.26-39.47,38.82-72.68l.06-.19c4-10.84,7.92-22.05,11.59-33.29,3.33-10.21,6.8-20.45,10.31-30.43l.15-.43.2-.43c9.78-21.51,23.42-33.65,40.53-36.07a38.06,38.06,0,0,1,5.64-.44c11.16,0,26.2,5,34.49,29l2.93,8.47-7.91,4.2c-5.18,2.76-10.1,8.34-14.63,16.59q-2.51,4.55-4.81,9.36a109.49,109.49,0,0,0,18-13c10.37-9.11,15.42-20.68,15.42-35.38,0-1.86-.08-3.79-.23-5.75-4.23-16.89-14.6-26.39-32.55-29.85a71.31,71.31,0,0,0-13.37-1.3c-14.48,0-28.08,4.75-41.56,14.52-15,10.79-22.25,28.53-22.25,54.24,0,3.1.11,6.39.31,9.76l.68,11.11H412.19c-38.15,0-48-22.91-50.4-36.63a55.28,55.28,0,0,1-1-10.48c0-18.64,9.43-37.59,28-56.33s48.76-28.95,92-31a36.71,36.71,0,0,1,10,0h3.56l.33,0c33.7,2.13,60.68,13,80.17,32.4C589.55,92,597,109.11,597,128.3A87.1,87.1,0,0,1,593.8,151l-.09.33-.11.33c-5.18,15.17-13.25,27.8-24,37.55A130.3,130.3,0,0,1,537.46,211l-1.12.52A193,193,0,0,1,563.65,224c26.47,14.56,40.45,39.1,41.57,73v.46l0,.46c-1.24,22.09-10.4,42.6-27.25,61C560.72,377.67,538.38,387.2,511.56,387.2ZM473.67,283.14c0,18.89,7.4,24.55,13,27.16A33,33,0,0,0,501,313.77c3.17,0,9-1,19-5.94,7.34-3.62,10.22-15.62,11.34-25.28,0-12.32-3.18-20.81-9.66-26a49,49,0,0,0-26.46-10.41l-.15,0a112.57,112.57,0,0,0-12.52-.75,76.46,76.46,0,0,0-9.64.57q-4.08,11.4-8.59,22.28l9.39-8.25Z" transform="translate(0.33 15.09)"/><path class="cls-1" d="M653.45,386.83c-37.79-3.25-50.82-22.38-55.09-37.85a51.7,51.7,0,0,1-2-14.18c0-16.69,8.43-31.93,25-45.3l8.66-7,6.44,9.07c7.76,10.94,14.5,10.94,16.72,10.94,2.55,0,10.48-1.45,29-14.92,14.07-10.22,29.88-32.72,47-66.86,16-32,26.12-67.15,30.12-104.75-16.2-3.74-30.65-5.63-43-5.63a88.58,88.58,0,0,0-24,3c-4.62,2.21-8,4.78-10,7.64a21.7,21.7,0,0,0-4,9.8,47.4,47.4,0,0,0-.41,6.08,51.25,51.25,0,0,0,.63,7,40.67,40.67,0,0,0,1.77,7.43L685.67,167l-11.81,2.32a91.57,91.57,0,0,1-17.54,1.85c-17,0-29.92-5.88-38.47-17.46a54.49,54.49,0,0,1-10.79-33c0-6.06,1.61-14.9,4.91-27,3.86-14.19,16.15-26.49,37.56-37.57l.33-.17.34-.15A112.82,112.82,0,0,1,695,46.2c6.38,0,15.91,1.13,29.13,3.46,13.07,2.3,29.59,7.3,49.11,14.85,7.58,2.66,15.27,5.26,22.87,7.73,21.77,6.27,41,9.44,57,9.44,29.28,0,48.57-10.19,58.95-31.15l2.89-5.82h6.5c15.51,0,26.83,8.46,31.88,23.82a43,43,0,0,1,2.36,13.89c0,9.8-3.91,20-11.93,31.32-8.6,12.09-25.74,19.13-52.41,21.53l-.47,0h-.47a395.87,395.87,0,0,1-68.59-5.88c-7.9,50.9-25.65,104.33-52.84,159-30.37,61.07-68.6,94.17-113.64,98.36l-.93.09Z" transform="translate(0.33 15.09)"/><path class="cls-1" d="M156.78,382.68c-15.43,0-27.61-5.41-36.21-16.07-8-9.94-12.45-23.82-13.53-42.44-.45-6.67-.68-13.61-.68-20.63,0-28,3.68-60.84,10.93-97.75Q122,182,126.8,160.27A34,34,0,0,1,115,172.94a58.12,58.12,0,0,1-32.71,9.52l-8.53-.09c-8.44-.08-17-4.86-26.16-14.6l-.09-.09c-6.76-7.36-10.19-17.52-10.19-30.19A88.74,88.74,0,0,1,38.85,122l0-.23,0-.22c4.41-19.75,12.93-35.56,25.31-47a112.85,112.85,0,0,1,38.58-23.88C116,45.91,127.88,43,138,41.9l14.47-1.38h.5c19.75,0,36.4,5.33,49.48,15.85,10.71,8.68,16.12,20.69,16.12,35.72a80,80,0,0,1-1.88,16.54l0,.2,0,.21c-3.21,12.62-7.12,27.24-11.61,43.46-7,24.89-13.79,50.66-20.23,76.64-6.35,25.59-10.48,47.64-12.29,65.55-.3,3-.45,5.79-.45,8.19a31.09,31.09,0,0,0,.72,7.56c3.38-1,10.32-5.21,20.14-21.94,10.5-17.87,22-40.16,34.26-66.26A888.48,888.48,0,0,1,293,102c26.64-40.77,59.17-61.44,96.66-61.44,6,0,13.21,1.85,22,5.64A52.53,52.53,0,0,1,434.89,66c4.77,7.23,7.19,16.17,7.19,26.58a82.06,82.06,0,0,1-.75,10.78l-1.49,11.21-11.06-2.34A72.24,72.24,0,0,0,414,110.65c-22.51,0-45.06,13.22-67,39.28-23.6,28-47.12,63.13-69.9,104.37-18.64,33.18-37.35,62.54-55.62,87.31C201.3,368.86,179.56,382.68,156.78,382.68ZM120.66,97.29c-7.23,7.2-11.28,13.8-11.72,19.1-.09,1-.13,1.82-.13,2.61a14.46,14.46,0,0,0,3.73,10.14c2.86,3.24,5.21,3.65,6.93,3.65H129l.92,9.45c.13,1.26.19,2.43.21,3.57q4.67-20,9.43-37.81.94-3.93,1.89-7.72a33.59,33.59,0,0,0,.59-5.71c0-4.17-.76-4.3-2.14-4.53l-.24,0-.23,0a11.29,11.29,0,0,0-2.43-.26C132,89.69,126.49,92.25,120.66,97.29Z" transform="translate(0.33 15.09)"/><path class="cls-1" d="M507.37,383c-26.83,0-46.6-7.51-58.76-22.31-10.36-12.43-15.87-26.3-16.37-41.21q-5.24,8.65-10.81,16.79c-21.24,31-47.69,46.73-78.63,46.73-37.84,0-51.06-19.27-55.49-35.44a57.21,57.21,0,0,1-2.18-15.47c0-16.47,7.5-31.54,22.3-44.78l6.86-6.14,7,6c8.44,7.29,16.47,11,23.86,11,5.62,0,15.76-3.64,32.17-21,14.2-15,27.26-39.47,38.82-72.67l.07-.19c4-10.85,7.91-22.05,11.58-33.3,3.33-10.21,6.8-20.45,10.31-30.43l.16-.43.19-.42c9.78-21.52,23.42-33.66,40.53-36.07a36.86,36.86,0,0,1,5.64-.44c11.16,0,26.2,5,34.49,29l2.93,8.46-7.91,4.21c-5.18,2.75-10.1,8.33-14.63,16.59-1.66,3-3.27,6.15-4.81,9.35a109.49,109.49,0,0,0,18-13c10.38-9.11,15.42-20.68,15.42-35.37,0-1.86-.08-3.79-.23-5.75-4.23-16.9-14.59-26.4-32.55-29.86A71.31,71.31,0,0,0,482,85.56c-14.48,0-28.08,4.75-41.56,14.52-15,10.79-22.25,28.53-22.25,54.24,0,3.11.11,6.39.32,9.76l.68,11.11H408c-38.15,0-48-22.91-50.4-36.63a55.28,55.28,0,0,1-1-10.48c0-18.64,9.44-37.59,28-56.32s48.76-29,92-31a36.71,36.71,0,0,1,10,0h3.56l.33,0c33.71,2.13,60.68,13,80.17,32.4,14.66,14.66,22.07,31.81,22.07,51a87.49,87.49,0,0,1-3.16,22.69l-.09.34-.12.32c-5.17,15.17-13.25,27.8-24,37.55a130.44,130.44,0,0,1-32.14,21.79l-1.11.51a193.47,193.47,0,0,1,27.3,12.52c26.47,14.56,40.45,39.1,41.57,73l0,.46,0,.47c-1.23,22.08-10.4,42.59-27.25,61C556.53,373.48,534.19,383,507.37,383ZM469.48,279c0,18.89,7.4,24.55,13,27.16a33,33,0,0,0,14.37,3.47c3.18,0,9.05-1,19-5.93C523.12,300,526,288,527.11,278.36c0-12.32-3.18-20.81-9.66-26A49,49,0,0,0,491,242h-.15a110.19,110.19,0,0,0-12.52-.76,76.57,76.57,0,0,0-9.64.57q-4.08,11.4-8.59,22.28l9.39-8.25Z" transform="translate(0.33 15.09)"/><path class="cls-1" d="M649.26,382.64c-37.79-3.25-50.81-22.37-55.09-37.85a52.08,52.08,0,0,1-2-14.18c0-16.69,8.43-31.93,25-45.29l8.66-7,6.44,9.07c7.76,10.94,14.5,10.94,16.72,10.94,2.55,0,10.48-1.45,29-14.91,14.07-10.23,29.88-32.73,47-66.87,16-31.95,26.12-67.15,30.13-104.75-16.21-3.73-30.66-5.62-43.05-5.62a88.48,88.48,0,0,0-24,3c-4.63,2.21-8,4.78-10,7.64a21.92,21.92,0,0,0-4,9.81,47.13,47.13,0,0,0-.41,6.07,51.25,51.25,0,0,0,.63,7,41.51,41.51,0,0,0,1.77,7.43l5.42,15.67-11.81,2.32a91.49,91.49,0,0,1-17.54,1.85c-17,0-29.92-5.88-38.47-17.46a54.49,54.49,0,0,1-10.79-33c0-6.06,1.61-14.89,4.91-27,3.87-14.2,16.15-26.5,37.56-37.58l.33-.17.34-.15A112.82,112.82,0,0,1,690.76,42c6.39,0,15.92,1.13,29.13,3.46s29.59,7.3,49.11,14.85c7.58,2.67,15.27,5.27,22.87,7.73,21.77,6.27,41,9.45,57,9.45,29.29,0,48.57-10.19,59-31.16l2.88-5.82h6.5c15.51,0,26.83,8.46,31.88,23.82a43,43,0,0,1,2.36,13.89c0,9.8-3.9,20-11.93,31.32-8.6,12.09-25.74,19.13-52.41,21.53l-.46,0h-.47a395.9,395.9,0,0,1-68.6-5.87c-7.9,50.89-25.65,104.32-52.84,159-30.37,61.08-68.6,94.17-113.64,98.36l-.93.09Z" transform="translate(0.33 15.09)"/><path class="cls-1" d="M152.59,378.49c-15.43,0-27.61-5.41-36.21-16.07-8-9.94-12.45-23.82-13.53-42.43-.45-6.67-.68-13.61-.68-20.64,0-28,3.68-60.84,10.93-97.75q4.66-23.81,9.52-45.52a34.06,34.06,0,0,1-11.76,12.67,58.18,58.18,0,0,1-32.72,9.52l-8.52-.09c-8.45-.08-17-4.86-26.17-14.6l-.09-.09C36.6,156.13,33.18,146,33.18,133.3a88.77,88.77,0,0,1,1.48-15.54l0-.22,0-.23c4.41-19.75,12.93-35.56,25.31-47A113.1,113.1,0,0,1,98.64,46.43c13.21-4.71,25-7.64,35.18-8.72l14.47-1.38h.5c19.75,0,36.4,5.33,49.48,15.85,10.71,8.68,16.12,20.7,16.12,35.72a80,80,0,0,1-1.88,16.54l0,.21-.05.2c-3.21,12.62-7.12,27.24-11.61,43.46C193.82,173.2,187,199,180.58,225c-6.35,25.59-10.48,47.64-12.29,65.55-.29,3-.44,5.79-.44,8.19a31.26,31.26,0,0,0,.71,7.56c3.38-1,10.32-5.21,20.15-21.94,10.49-17.87,22-40.16,34.26-66.25A886.84,886.84,0,0,1,288.83,97.77C315.48,57,348,36.33,385.49,36.33c6,0,13.22,1.85,22.05,5.64A52.56,52.56,0,0,1,430.7,61.82c4.78,7.24,7.19,16.17,7.19,26.58a82.33,82.33,0,0,1-.75,10.79l-1.49,11.2-11.06-2.34a72.16,72.16,0,0,0-14.83-1.59c-22.51,0-45.06,13.22-67,39.28-23.6,28-47.12,63.13-69.9,104.37-18.64,33.18-37.34,62.54-55.62,87.32C197.12,364.67,175.37,378.49,152.59,378.49ZM116.47,93.1c-7.23,7.2-11.28,13.8-11.71,19.1-.09,1-.13,1.83-.13,2.61A14.45,14.45,0,0,0,108.35,125c2.86,3.24,5.21,3.66,6.93,3.66h9.5l.92,9.44c.13,1.26.2,2.43.21,3.57,3.12-13.32,6.26-25.95,9.43-37.8q.94-3.94,1.89-7.72a32.92,32.92,0,0,0,.6-5.72c0-4.17-.77-4.3-2.15-4.53l-.24,0-.23,0a12,12,0,0,0-2.43-.26C127.79,85.5,122.31,88.06,116.47,93.1Z" transform="translate(0.33 15.09)"/><path class="cls-1" d="M503.18,378.82c-26.83,0-46.6-7.51-58.76-22.31-10.35-12.42-15.87-26.29-16.37-41.21q-5.24,8.65-10.81,16.79c-21.24,31-47.69,46.73-78.62,46.73-37.85,0-51.07-19.27-55.5-35.44a57.21,57.21,0,0,1-2.18-15.47c0-16.47,7.5-31.53,22.3-44.78L310.1,277l7,6c8.44,7.29,16.47,11,23.86,11,5.62,0,15.77-3.64,32.17-21,14.2-15,27.26-39.47,38.82-72.67l.07-.19c4-10.85,7.91-22.05,11.59-33.3,3.33-10.21,6.8-20.45,10.3-30.42L434,136l.19-.42c9.78-21.52,23.42-33.66,40.53-36.07a38.19,38.19,0,0,1,5.65-.44c11.15,0,26.19,5,34.49,29l2.93,8.46-7.92,4.21c-5.18,2.75-10.1,8.33-14.63,16.59-1.66,3-3.27,6.15-4.81,9.35a109.57,109.57,0,0,0,18-13c10.38-9.12,15.42-20.69,15.42-35.38,0-1.86-.07-3.79-.23-5.75-4.23-16.9-14.59-26.39-32.55-29.86a71.2,71.2,0,0,0-13.36-1.3c-14.49,0-28.08,4.75-41.57,14.52-15,10.79-22.24,28.53-22.24,54.24,0,3.11.1,6.39.31,9.76L415,171H403.82c-38.16,0-48-22.9-50.41-36.62a56.3,56.3,0,0,1-1-10.49c0-18.64,9.44-37.59,28-56.32s48.76-29,92-31a35.29,35.29,0,0,1,5.18-.37,37.36,37.36,0,0,1,4.87.33H486l.33,0c33.71,2.14,60.68,13,80.17,32.4,14.66,14.66,22.07,31.81,22.07,51a87.56,87.56,0,0,1-3.16,22.7l-.09.33-.11.32c-5.18,15.17-13.26,27.81-24,37.55a130.44,130.44,0,0,1-32.14,21.79l-1.11.51a194.08,194.08,0,0,1,27.3,12.52c26.47,14.56,40.46,39.1,41.57,73l0,.46,0,.47c-1.23,22.08-10.4,42.6-27.25,61C552.34,369.29,530,378.82,503.18,378.82ZM465.29,274.76c0,18.89,7.4,24.55,13,27.16a33,33,0,0,0,14.37,3.47c3.18,0,9.05-1,19-5.93,7.34-3.63,10.22-15.63,11.33-25.29,0-12.32-3.17-20.81-9.66-26A49,49,0,0,0,486.8,237.8h-.15a112.55,112.55,0,0,0-12.52-.76,76.3,76.3,0,0,0-9.63.57q-4.08,11.4-8.6,22.28l9.39-8.25Z" transform="translate(0.33 15.09)"/><path class="cls-1" d="M645.07,378.45c-37.79-3.24-50.81-22.37-55.09-37.85a52.07,52.07,0,0,1-2-14.18c0-16.69,8.42-31.93,25-45.29l8.67-7,6.43,9.07c7.77,10.94,14.51,10.94,16.72,10.94,2.55,0,10.48-1.45,29-14.91,14.07-10.23,29.88-32.73,47-66.87,16-31.95,26.11-67.15,30.12-104.74-16.21-3.74-30.66-5.63-43-5.63a88.12,88.12,0,0,0-24,3c-4.62,2.21-8,4.77-10,7.64a21.88,21.88,0,0,0-4,9.8,47.08,47.08,0,0,0-.4,6.07,49.68,49.68,0,0,0,.63,7,40.68,40.68,0,0,0,1.76,7.43l5.43,15.68-11.82,2.31A91.39,91.39,0,0,1,648,162.75c-17,0-29.93-5.87-38.47-17.46a54.47,54.47,0,0,1-10.79-33c0-6,1.6-14.89,4.9-27,3.87-14.2,16.15-26.49,37.56-37.58l.33-.17.34-.15a112.82,112.82,0,0,1,44.75-9.6c6.39,0,15.92,1.13,29.14,3.46,13.06,2.3,29.58,7.3,49.1,14.85,7.58,2.67,15.27,5.27,22.87,7.73,21.77,6.27,41,9.45,57,9.45,29.29,0,48.57-10.19,59-31.15l2.88-5.83H913c15.52,0,26.84,8.46,31.88,23.82A42.76,42.76,0,0,1,947.28,74c0,9.81-3.9,20-11.93,31.33-8.6,12.08-25.74,19.12-52.4,21.52l-.47,0H882a395.7,395.7,0,0,1-68.59-5.87c-7.91,50.89-25.66,104.33-52.85,159-30.37,61.08-68.6,94.17-113.63,98.37l-.94.08Z" transform="translate(0.33 15.09)"/><path class="cls-1" d="M148.4,374.3c-15.43,0-27.61-5.41-36.21-16.07-8-9.94-12.45-23.82-13.52-42.43-.46-6.67-.69-13.61-.69-20.64,0-28,3.68-60.84,10.93-97.75q4.66-23.81,9.52-45.52a34.06,34.06,0,0,1-11.76,12.67A58.17,58.17,0,0,1,74,174.08L65.43,174c-8.44-.09-17-4.86-26.17-14.61l-.09-.09C32.41,151.94,29,141.79,29,129.11a89.74,89.74,0,0,1,1.48-15.54l0-.22,0-.23c4.42-19.75,12.93-35.56,25.31-47A113,113,0,0,1,94.45,42.25c13.21-4.72,25-7.65,35.19-8.73l14.47-1.37h.49c19.75,0,36.4,5.33,49.48,15.84,10.71,8.69,16.13,20.7,16.13,35.73a80.65,80.65,0,0,1-1.88,16.53l-.05.21-.05.2c-3.21,12.62-7.12,27.24-11.61,43.46-7,24.89-13.79,50.67-20.23,76.64-6.34,25.59-10.48,47.64-12.29,65.55-.29,3-.44,5.79-.44,8.19a31.43,31.43,0,0,0,.71,7.57c3.38-1,10.32-5.22,20.15-21.95,10.49-17.87,22-40.16,34.26-66.25A886.72,886.72,0,0,1,284.64,93.59c26.65-40.77,59.17-61.44,96.67-61.44,6,0,13.21,1.84,22,5.63a52.6,52.6,0,0,1,23.17,19.86c4.77,7.23,7.18,16.16,7.18,26.57A82.33,82.33,0,0,1,433,95l-1.48,11.2-11.06-2.33a71.57,71.57,0,0,0-14.84-1.59c-22.51,0-45.05,13.21-67,39.27-23.61,28-47.13,63.13-69.91,104.37C250,279.11,231.31,308.46,213,333.24,192.93,360.49,171.18,374.3,148.4,374.3ZM112.28,88.92C105.05,96.11,101,102.71,100.57,108c-.09,1-.13,1.83-.13,2.61a14.48,14.48,0,0,0,3.72,10.15c2.86,3.23,5.21,3.65,6.94,3.65h9.49l.93,9.45c.12,1.25.19,2.43.21,3.56,3.11-13.32,6.25-25.95,9.42-37.8.63-2.62,1.26-5.2,1.89-7.72a32.92,32.92,0,0,0,.6-5.72c0-4.17-.76-4.29-2.15-4.53l-.24,0-.23,0a11.31,11.31,0,0,0-2.43-.27C123.6,81.31,118.12,83.87,112.28,88.92Z" transform="translate(0.33 15.09)"/><path class="cls-1" d="M499,374.63c-26.84,0-46.61-7.5-58.77-22.31-10.35-12.42-15.87-26.29-16.37-41.21q-5.24,8.65-10.81,16.79c-21.24,31-47.69,46.73-78.62,46.73-37.85,0-51.07-19.27-55.49-35.44a56.78,56.78,0,0,1-2.19-15.47c0-16.47,7.5-31.53,22.3-44.78l6.86-6.13,7,6c8.45,7.29,16.47,11,23.86,11,5.62,0,15.77-3.64,32.17-21,14.2-15,27.26-39.47,38.82-72.67l.07-.19c4-10.85,7.91-22.05,11.59-33.29,3.33-10.22,6.8-20.45,10.31-30.43l.15-.44.19-.42c9.78-21.52,23.42-33.65,40.53-36.07a38.19,38.19,0,0,1,5.65-.44c11.15,0,26.19,5,34.49,29l2.93,8.47-7.91,4.2c-5.18,2.75-10.11,8.33-14.64,16.59q-2.49,4.55-4.81,9.35a108.57,108.57,0,0,0,18-13c10.38-9.12,15.42-20.69,15.42-35.38,0-1.86-.07-3.79-.22-5.75-4.24-16.9-14.6-26.39-32.56-29.86a71.1,71.1,0,0,0-13.36-1.29c-14.49,0-28.08,4.74-41.56,14.51-15,10.79-22.25,28.53-22.25,54.25,0,3.1.1,6.38.31,9.76l.68,11.11H399.63c-38.16,0-48-22.91-50.41-36.63a56.22,56.22,0,0,1-1-10.49c0-18.63,9.44-37.58,28-56.32s48.77-28.95,92-31a35.39,35.39,0,0,1,5.18-.37,37.24,37.24,0,0,1,4.87.33h3.55l.33,0c33.71,2.14,60.68,13,80.17,32.4,14.66,14.66,22.08,31.81,22.08,51a87.59,87.59,0,0,1-3.17,22.7l-.09.33-.11.33c-5.18,15.16-13.26,27.8-24,37.55a130.72,130.72,0,0,1-32.15,21.78l-1.11.52a193.46,193.46,0,0,1,27.31,12.51c26.46,14.56,40.45,39.11,41.56,73l0,.47,0,.46c-1.23,22.09-10.4,42.6-27.25,61C548.16,365.1,525.82,374.63,499,374.63ZM461.1,270.57c0,18.9,7.4,24.55,13,27.17a33.12,33.12,0,0,0,14.36,3.46c3.18,0,9.05-1,19-5.93,7.34-3.63,10.22-15.63,11.33-25.29,0-12.32-3.17-20.81-9.66-26a48.91,48.91,0,0,0-26.46-10.4l-.15,0a112.52,112.52,0,0,0-12.51-.76,76.46,76.46,0,0,0-9.64.57q-4.08,11.4-8.6,22.28l9.39-8.24Z" transform="translate(0.33 15.09)"/><path class="cls-1" d="M640.88,374.26c-37.78-3.24-50.81-22.37-55.08-37.85a51.68,51.68,0,0,1-2-14.17c0-16.69,8.42-31.93,25-45.3l8.67-7,6.44,9.07C631.67,290,638.41,290,640.62,290c2.55,0,10.48-1.46,29-14.92,14.08-10.23,29.88-32.73,47-66.87,16-31.95,26.11-67.15,30.12-104.74-16.21-3.74-30.66-5.63-43-5.63a88.19,88.19,0,0,0-24,3c-4.62,2.21-8,4.78-10,7.64a21.75,21.75,0,0,0-4,9.8,47.25,47.25,0,0,0-.41,6.07,49.8,49.8,0,0,0,.63,7,41.62,41.62,0,0,0,1.76,7.42l5.43,15.68-11.82,2.32a92.14,92.14,0,0,1-17.53,1.84c-17,0-29.93-5.87-38.47-17.46a54.46,54.46,0,0,1-10.79-32.95c0-6.06,1.6-14.9,4.9-27,3.87-14.2,16.16-26.49,37.56-37.58l.33-.17.34-.15a112.86,112.86,0,0,1,44.75-9.6c6.39,0,15.92,1.13,29.14,3.46s29.59,7.3,49.1,14.85c7.58,2.67,15.27,5.27,22.87,7.73,21.78,6.27,41,9.45,57,9.45,29.28,0,48.56-10.19,59-31.15l2.88-5.82h6.5c15.52,0,26.84,8.45,31.88,23.81a42.76,42.76,0,0,1,2.36,13.89c0,9.81-3.9,20.05-11.93,31.33-8.6,12.08-25.74,19.12-52.4,21.52l-.47,0h-.47a395.7,395.7,0,0,1-68.59-5.87c-7.91,50.89-25.66,104.33-52.85,159C726,337,687.78,370.06,642.75,374.26l-.94.08Z" transform="translate(0.33 15.09)"/><path class="cls-1" d="M144.21,370.11c-15.42,0-27.61-5.4-36.21-16.07-8-9.94-12.44-23.82-13.52-42.43C94,304.94,93.8,298,93.8,291c0-28,3.67-60.85,10.92-97.76q4.68-23.81,9.52-45.51a34.11,34.11,0,0,1-11.76,12.66,58.15,58.15,0,0,1-32.71,9.52l-8.53-.08c-8.44-.09-17-4.86-26.17-14.6l-.08-.1c-6.76-7.35-10.19-17.51-10.19-30.19a89.63,89.63,0,0,1,1.48-15.53l0-.23.05-.22c4.42-19.75,12.93-35.57,25.32-47A112.82,112.82,0,0,1,90.27,38.06c13.2-4.72,25-7.65,35.18-8.72L139.92,28h.5c19.74,0,36.39,5.33,49.47,15.84C200.6,52.49,206,64.5,206,79.53a80.05,80.05,0,0,1-1.88,16.54l0,.2-.05.2c-3.21,12.62-7.12,27.25-11.61,43.46-7,24.89-13.79,50.67-20.23,76.65-6.34,25.58-10.48,47.64-12.29,65.55-.29,3-.44,5.78-.44,8.19a31.94,31.94,0,0,0,.71,7.56c3.39-1,10.32-5.22,20.15-21.94,10.5-17.87,22-40.17,34.26-66.26A887.88,887.88,0,0,1,280.46,89.4C307.1,48.63,339.62,28,377.12,28c6,0,13.21,1.84,22,5.63a52.54,52.54,0,0,1,23.17,19.86c4.77,7.23,7.18,16.17,7.18,26.57a82.33,82.33,0,0,1-.75,10.79L427.28,102l-11.06-2.33a71.57,71.57,0,0,0-14.84-1.59c-22.51,0-45.05,13.21-67,39.27-23.61,28-47.13,63.13-69.9,104.37-18.65,33.19-37.35,62.54-55.63,87.32C188.74,356.3,167,370.11,144.21,370.11ZM108.1,84.73c-7.24,7.2-11.28,13.8-11.72,19.1-.09,1-.13,1.82-.13,2.6A14.48,14.48,0,0,0,100,116.58c2.87,3.23,5.21,3.65,6.94,3.65h9.49l.93,9.45c.12,1.25.19,2.43.21,3.57,3.11-13.33,6.26-26,9.42-37.81.63-2.62,1.26-5.2,1.89-7.72a32.92,32.92,0,0,0,.6-5.72c0-4.16-.76-4.29-2.15-4.52l-.23,0-.24,0a11.24,11.24,0,0,0-2.43-.27C119.42,77.12,113.93,79.68,108.1,84.73Z" transform="translate(0.33 15.09)"/><path class="cls-1" d="M494.81,370.44c-26.83,0-46.61-7.5-58.77-22.31-10.35-12.42-15.87-26.29-16.37-41.21q-5.24,8.65-10.8,16.8c-21.24,31-47.7,46.72-78.63,46.72-37.85,0-51.07-19.27-55.49-35.43a56.9,56.9,0,0,1-2.19-15.48c0-16.47,7.51-31.53,22.31-44.77l6.85-6.14,7,6c8.45,7.3,16.48,11,23.86,11,5.62,0,15.77-3.64,32.17-21,14.2-15,27.26-39.46,38.82-72.67l.07-.19c4-10.85,7.91-22.05,11.59-33.29,3.33-10.21,6.8-20.45,10.31-30.43l.15-.44.19-.42c9.79-21.52,23.42-33.65,40.54-36.07a38,38,0,0,1,5.64-.44c11.16,0,26.2,5,34.49,29l2.93,8.47-7.91,4.2c-5.18,2.75-10.11,8.34-14.64,16.59q-2.49,4.55-4.8,9.36a110.08,110.08,0,0,0,18-13c10.37-9.11,15.42-20.69,15.42-35.38,0-1.86-.08-3.79-.23-5.75-4.24-16.89-14.6-26.39-32.55-29.86A71.28,71.28,0,0,0,469.39,73c-14.49,0-28.08,4.75-41.56,14.51-15,10.79-22.25,28.53-22.25,54.25,0,3.1.1,6.38.31,9.76l.68,11.11H395.44c-38.16,0-48-22.91-50.41-36.63a56.14,56.14,0,0,1-1-10.49c0-18.63,9.44-37.58,28.05-56.32s48.77-28.95,92-31a36.69,36.69,0,0,1,5.17-.37,37.24,37.24,0,0,1,4.87.33h3.55l.33,0c33.71,2.14,60.69,13,80.18,32.41,14.65,14.65,22.07,31.81,22.07,51a87.53,87.53,0,0,1-3.17,22.7l-.09.33-.11.33c-5.18,15.17-13.25,27.8-24,37.55a130.72,130.72,0,0,1-32.15,21.78l-1.11.52a193.56,193.56,0,0,1,27.31,12.52c26.46,14.55,40.45,39.1,41.57,73v.47l0,.46c-1.23,22.09-10.4,42.6-27.25,61C544,360.92,521.63,370.44,494.81,370.44ZM456.92,266.38c0,18.9,7.39,24.56,13,27.17A33.12,33.12,0,0,0,484.24,297c3.18,0,9.05-1,19-5.93,7.34-3.63,10.22-15.63,11.33-25.28,0-12.32-3.17-20.82-9.65-26a49,49,0,0,0-26.47-10.41l-.14,0a112.83,112.83,0,0,0-12.52-.76,76.46,76.46,0,0,0-9.64.57q-4.08,11.4-8.6,22.28l9.4-8.24Z" transform="translate(0.33 15.09)"/><path class="cls-1" d="M636.69,370.07c-37.78-3.24-50.81-22.37-55.08-37.85a51.68,51.68,0,0,1-2-14.17c0-16.69,8.42-31.93,25-45.3l8.66-7,6.44,9.07c7.76,10.94,14.5,10.94,16.71,10.94,2.55,0,10.49-1.46,29-14.92,14.07-10.23,29.87-32.73,47-66.87,16-31.95,26.12-67.15,30.12-104.74-16.21-3.74-30.65-5.63-43-5.63a88.58,88.58,0,0,0-24,3c-4.62,2.21-8,4.78-10,7.64a21.7,21.7,0,0,0-4,9.8,47.25,47.25,0,0,0-.41,6.07,49.8,49.8,0,0,0,.63,7,41.94,41.94,0,0,0,1.76,7.43l5.43,15.67-11.82,2.32a92.14,92.14,0,0,1-17.53,1.84c-17,0-29.93-5.87-38.47-17.46A54.44,54.44,0,0,1,590.31,104c0-6.06,1.6-14.9,4.91-27,3.86-14.2,16.15-26.49,37.55-37.58l.33-.17.35-.14a112.63,112.63,0,0,1,44.75-9.61c6.38,0,15.91,1.13,29.13,3.46,13.07,2.31,29.59,7.3,49.1,14.85,7.58,2.67,15.28,5.27,22.88,7.73,21.77,6.27,41,9.45,57,9.45,29.28,0,48.57-10.19,58.95-31.15L898.17,28h6.49c15.52,0,26.84,8.45,31.88,23.81a42.81,42.81,0,0,1,2.36,13.89C938.9,75.47,935,85.72,927,97c-8.61,12.08-25.75,19.12-52.41,21.52l-.47,0h-.47A395.79,395.79,0,0,1,805,112.68c-7.9,50.89-25.66,104.33-52.85,159-30.36,61.08-68.6,94.18-113.63,98.37l-.93.08Z" transform="translate(0.33 15.09)"/><path class="cls-1" d="M140,365.93c-15.42,0-27.6-5.41-36.21-16.07-8-9.95-12.44-23.83-13.52-42.44-.45-6.67-.68-13.61-.68-20.63,0-28,3.67-60.85,10.92-97.76q4.68-23.79,9.52-45.51a34.13,34.13,0,0,1-11.76,12.67,58.12,58.12,0,0,1-32.71,9.51l-8.53-.08c-8.44-.08-17-4.86-26.17-14.6l-.08-.09c-6.76-7.36-10.19-17.52-10.19-30.2a89.63,89.63,0,0,1,1.48-15.53l0-.23.05-.22C26.6,85,35.12,69.18,47.5,57.75A112.7,112.7,0,0,1,86.08,33.87c13.21-4.71,25-7.65,35.18-8.72l14.47-1.38h.5c19.75,0,36.39,5.33,49.47,15.84,10.72,8.69,16.13,20.7,16.13,35.73A80.05,80.05,0,0,1,200,91.88l0,.2,0,.2c-3.22,12.63-7.12,27.25-11.62,43.46-7,24.9-13.79,50.67-20.23,76.65C161.67,238,157.53,260,155.72,277.94c-.29,3-.44,5.79-.44,8.19a31.16,31.16,0,0,0,.72,7.56c3.38-1,10.32-5.22,20.14-21.94,10.5-17.87,22-40.16,34.26-66.26A887.88,887.88,0,0,1,276.27,85.21c26.64-40.77,59.16-61.44,96.66-61.44,6,0,13.21,1.84,22,5.64a52.46,52.46,0,0,1,23.17,19.85c4.77,7.23,7.19,16.17,7.19,26.58a83.82,83.82,0,0,1-.75,10.78l-1.49,11.21L412,95.49a71.57,71.57,0,0,0-14.84-1.59c-22.5,0-45.05,13.21-67,39.27-23.61,28-47.12,63.13-69.9,104.37-18.65,33.19-37.35,62.54-55.63,87.32C184.55,352.11,162.81,365.93,140,365.93ZM103.91,80.54c-7.23,7.2-11.28,13.8-11.72,19.1-.09,1-.13,1.82-.13,2.61a14.42,14.42,0,0,0,3.73,10.14c2.86,3.24,5.2,3.65,6.93,3.65h9.49l.93,9.45c.12,1.26.19,2.43.21,3.57q4.66-20,9.43-37.81.94-3.93,1.89-7.72a33.79,33.79,0,0,0,.59-5.71c0-4.17-.76-4.3-2.15-4.53l-.23,0-.24,0a11.2,11.2,0,0,0-2.42-.26C115.23,72.94,109.74,75.49,103.91,80.54Z" transform="translate(0.33 15.09)"/><path class="cls-1" d="M490.62,366.26c-26.83,0-46.6-7.51-58.76-22.32-10.36-12.42-15.88-26.29-16.38-41.2q-5.24,8.65-10.8,16.79c-21.24,31-47.7,46.73-78.63,46.73-37.85,0-51.07-19.27-55.49-35.44a57.24,57.24,0,0,1-2.19-15.48c0-16.46,7.51-31.53,22.31-44.77l6.86-6.14,7,6c8.45,7.3,16.48,11,23.86,11,5.63,0,15.77-3.64,32.17-21,14.2-15,27.27-39.47,38.83-72.68l.06-.19c4-10.85,7.92-22.05,11.59-33.29,3.33-10.21,6.8-20.45,10.31-30.43l.15-.44.2-.42c9.78-21.52,23.41-33.65,40.53-36.07a38.06,38.06,0,0,1,5.64-.44c11.16,0,26.2,5,34.49,29l2.93,8.47-7.91,4.2c-5.18,2.76-10.1,8.34-14.64,16.59q-2.49,4.55-4.8,9.36a110.08,110.08,0,0,0,18-13c10.37-9.11,15.42-20.68,15.42-35.38,0-1.86-.08-3.79-.23-5.75-4.24-16.89-14.6-26.39-32.55-29.85a71.31,71.31,0,0,0-13.37-1.3c-14.48,0-28.08,4.75-41.56,14.51-15,10.8-22.25,28.54-22.25,54.25,0,3.1.11,6.39.31,9.76l.68,11.11H391.25c-38.15,0-48-22.91-50.4-36.63a55.31,55.31,0,0,1-1-10.49c0-18.63,9.43-37.58,28-56.32s48.76-28.95,92-31A36.72,36.72,0,0,1,465,23.6a38.91,38.91,0,0,1,4.86.33h3.56l.33,0c33.7,2.13,60.68,13,80.17,32.4C568.61,71,576,88.17,576,107.36a87.53,87.53,0,0,1-3.17,22.7l-.09.33-.11.33c-5.18,15.17-13.25,27.8-24,37.55a130.3,130.3,0,0,1-32.14,21.78l-1.12.52a193.56,193.56,0,0,1,27.31,12.52c26.47,14.55,40.45,39.1,41.57,73v.47l0,.46c-1.24,22.09-10.41,42.6-27.25,61C539.78,356.73,517.44,366.26,490.62,366.26ZM452.73,262.19c0,18.9,7.4,24.56,13,27.17a33,33,0,0,0,14.37,3.46c3.17,0,9-1,19-5.93,7.34-3.63,10.22-15.63,11.34-25.28,0-12.32-3.18-20.82-9.66-26a49,49,0,0,0-26.46-10.41l-.15,0a112.57,112.57,0,0,0-12.52-.75,76.46,76.46,0,0,0-9.64.57q-4.08,11.39-8.6,22.28l9.4-8.25Z" transform="translate(0.33 15.09)"/><path class="cls-1" d="M632.5,365.89c-37.78-3.25-50.81-22.38-55.08-37.85a51.75,51.75,0,0,1-2-14.18c0-16.69,8.42-31.93,25-45.3l8.66-7,6.44,9.07c7.76,10.94,14.5,10.94,16.72,10.94,2.55,0,10.48-1.45,29-14.92,14.07-10.23,29.87-32.72,47-66.86,16-32,26.12-67.16,30.12-104.75-16.21-3.74-30.65-5.63-43-5.63a88.58,88.58,0,0,0-24,3c-4.62,2.21-8,4.78-10,7.64a21.7,21.7,0,0,0-4,9.8,47.4,47.4,0,0,0-.41,6.08,49.68,49.68,0,0,0,.63,7,40.87,40.87,0,0,0,1.77,7.43L664.73,146l-11.82,2.32a91.39,91.39,0,0,1-17.53,1.85c-17,0-29.92-5.88-38.47-17.47a54.44,54.44,0,0,1-10.79-32.95c0-6.06,1.61-14.9,4.91-27,3.86-14.2,16.15-26.49,37.56-37.57l.33-.18.34-.14A112.8,112.8,0,0,1,674,25.25c6.38,0,15.91,1.14,29.13,3.46S732.73,36,752.25,43.56c7.58,2.67,15.27,5.27,22.87,7.74,21.77,6.27,41,9.44,57,9.44,29.28,0,48.57-10.19,59-31.15L894,23.77h6.49c15.52,0,26.84,8.46,31.89,23.81a43.07,43.07,0,0,1,2.35,13.9c0,9.8-3.9,20.05-11.92,31.32-8.6,12.09-25.75,19.13-52.41,21.52l-.47.05h-.47a395.87,395.87,0,0,1-68.59-5.88c-7.9,50.9-25.65,104.33-52.84,159-30.37,61.07-68.6,94.17-113.64,98.36l-.93.09Z" transform="translate(0.33 15.09)"/><path class="cls-1" d="M135.84,361.74c-15.43,0-27.61-5.41-36.22-16.07-8-9.94-12.44-23.83-13.52-42.44-.45-6.67-.68-13.61-.68-20.63,0-28,3.68-60.85,10.93-97.76Q101,161,105.86,139.33A34,34,0,0,1,94.1,152a58.12,58.12,0,0,1-32.71,9.51l-8.53-.08c-8.44-.08-17-4.86-26.17-14.6l-.08-.09c-6.76-7.36-10.19-17.52-10.19-30.19A88.74,88.74,0,0,1,17.91,101l0-.23,0-.22c4.42-19.75,12.94-35.56,25.32-47A112.85,112.85,0,0,1,81.89,29.68C95.1,25,106.94,22,117.07,21l14.47-1.38h.5c19.75,0,36.39,5.33,49.48,15.85,10.71,8.68,16.12,20.69,16.12,35.72a80,80,0,0,1-1.88,16.54l0,.2-.05.21c-3.22,12.62-7.12,27.24-11.61,43.45-7,24.9-13.8,50.67-20.23,76.65-6.35,25.59-10.48,47.64-12.29,65.55-.3,3-.45,5.79-.45,8.19a31.09,31.09,0,0,0,.72,7.56c3.38-1,10.32-5.21,20.14-21.94,10.5-17.87,22-40.16,34.26-66.26A887.88,887.88,0,0,1,272.08,81c26.64-40.77,59.16-61.44,96.66-61.44,6,0,13.21,1.84,22,5.64A52.53,52.53,0,0,1,414,45.07c4.77,7.23,7.19,16.17,7.19,26.58a82.06,82.06,0,0,1-.75,10.78L418.9,93.64,407.84,91.3A72.24,72.24,0,0,0,393,89.71c-22.51,0-45.06,13.21-67,39.28-23.6,28-47.12,63.12-69.9,104.37-18.65,33.18-37.35,62.54-55.62,87.31C180.36,347.92,158.62,361.74,135.84,361.74ZM99.72,76.35c-7.23,7.2-11.28,13.8-11.72,19.1-.09,1-.13,1.82-.13,2.61A14.46,14.46,0,0,0,91.6,108.2c2.86,3.24,5.21,3.65,6.93,3.65H108l.92,9.45c.12,1.26.19,2.43.21,3.57q4.66-20,9.43-37.81.94-3.93,1.89-7.72a33.69,33.69,0,0,0,.59-5.71c0-4.17-.76-4.3-2.14-4.53l-.24,0-.23,0a11.29,11.29,0,0,0-2.43-.26C111,68.75,105.55,71.31,99.72,76.35Z" transform="translate(0.33 15.09)"/><path class="cls-1" d="M486.43,362.07c-26.83,0-46.6-7.51-58.76-22.31-10.36-12.43-15.87-26.3-16.38-41.21q-5.22,8.65-10.8,16.79c-21.24,31-47.69,46.73-78.63,46.73-37.84,0-51.06-19.27-55.49-35.44a57.22,57.22,0,0,1-2.19-15.47c0-16.47,7.51-31.54,22.31-44.78l6.86-6.14,7,6c8.45,7.29,16.48,11,23.86,11,5.63,0,15.77-3.64,32.18-21,14.2-15,27.26-39.47,38.82-72.67l.07-.2c4-10.84,7.91-22,11.58-33.29,3.33-10.21,6.8-20.45,10.31-30.43l.16-.43.19-.42C427.26,97.3,440.9,85.16,458,82.75a36.86,36.86,0,0,1,5.64-.44c11.16,0,26.2,5,34.49,29l2.93,8.46L493.16,124c-5.18,2.75-10.1,8.33-14.63,16.58q-2.49,4.55-4.81,9.36a109.49,109.49,0,0,0,18-13c10.37-9.11,15.42-20.68,15.42-35.38,0-1.86-.08-3.79-.23-5.75-4.23-16.89-14.6-26.39-32.55-29.85A71.31,71.31,0,0,0,461,64.62c-14.48,0-28.08,4.75-41.56,14.52-15,10.79-22.25,28.53-22.25,54.24,0,3.1.11,6.39.31,9.76l.68,11.11H387.06c-38.15,0-48-22.91-50.4-36.63a55.28,55.28,0,0,1-1-10.48c0-18.64,9.43-37.59,28-56.32s48.76-29,92-31a36.71,36.71,0,0,1,10,0h3.56l.33,0c33.71,2.13,60.68,13,80.17,32.4,14.65,14.66,22.07,31.81,22.07,51a87.5,87.5,0,0,1-3.16,22.7l-.09.34-.12.32c-5.17,15.17-13.25,27.8-24,37.55a130.63,130.63,0,0,1-32.14,21.79l-1.11.51a193.47,193.47,0,0,1,27.3,12.52c26.47,14.56,40.45,39.1,41.57,73v.46l0,.47c-1.24,22.08-10.4,42.59-27.25,61C535.59,352.54,513.25,362.07,486.43,362.07ZM448.54,258c0,18.89,7.4,24.55,13,27.16a33,33,0,0,0,14.37,3.47c3.18,0,9-1,19-5.93,7.34-3.63,10.22-15.63,11.34-25.29,0-12.32-3.18-20.81-9.66-26a49,49,0,0,0-26.46-10.41h-.15a110.19,110.19,0,0,0-12.52-.76,76.57,76.57,0,0,0-9.64.57q-4.08,11.4-8.59,22.28l9.39-8.25Z" transform="translate(0.33 15.09)"/><path class="cls-1" d="M628.32,361.7c-37.79-3.25-50.81-22.38-55.09-37.85a51.7,51.7,0,0,1-2-14.18c0-16.69,8.43-31.93,25-45.3l8.66-7,6.44,9.07c7.76,10.94,14.5,10.94,16.72,10.94,2.55,0,10.48-1.45,29-14.92,14.07-10.22,29.88-32.72,47-66.86,16-32,26.12-67.15,30.12-104.75-16.2-3.73-30.65-5.63-43-5.63a88.58,88.58,0,0,0-24,3c-4.62,2.21-8,4.78-10,7.64a21.81,21.81,0,0,0-4,9.8,47.4,47.4,0,0,0-.41,6.08,51.25,51.25,0,0,0,.63,7,41.51,41.51,0,0,0,1.77,7.43l5.42,15.67-11.81,2.32A91.49,91.49,0,0,1,631.19,146c-17,0-29.92-5.88-38.47-17.46a54.49,54.49,0,0,1-10.79-33c0-6.06,1.61-14.89,4.91-27C590.71,54.37,603,42.07,624.4,31l.33-.17.34-.15a112.82,112.82,0,0,1,44.75-9.6c6.39,0,15.91,1.13,29.13,3.46,13.07,2.3,29.59,7.3,49.11,14.85,7.58,2.67,15.27,5.27,22.87,7.73,21.77,6.27,41,9.45,57,9.45,29.28,0,48.57-10.19,58.95-31.16l2.89-5.82h6.5c15.51,0,26.83,8.46,31.88,23.82a43,43,0,0,1,2.36,13.89c0,9.8-3.9,20.05-11.93,31.32-8.6,12.09-25.74,19.13-52.41,21.53l-.47,0h-.46a395.9,395.9,0,0,1-68.6-5.88c-7.9,50.9-25.65,104.33-52.84,159-30.37,61.07-68.6,94.17-113.64,98.36l-.93.09Z" transform="translate(0.33 15.09)"/><path class="cls-1" d="M131.65,357.55c-15.43,0-27.61-5.41-36.21-16.07-8-9.94-12.45-23.82-13.53-42.43-.45-6.67-.68-13.62-.68-20.64,0-28,3.68-60.84,10.93-97.75q4.66-23.81,9.51-45.52a34.09,34.09,0,0,1-11.75,12.67,58.18,58.18,0,0,1-32.72,9.52l-8.53-.09c-8.44-.08-17-4.86-26.16-14.6l-.09-.09c-6.76-7.36-10.19-17.52-10.19-30.19a88.74,88.74,0,0,1,1.49-15.54l0-.23.05-.22c4.41-19.75,12.93-35.56,25.31-47A112.85,112.85,0,0,1,77.7,25.49c13.21-4.71,25-7.65,35.18-8.72l14.47-1.38h.5c19.75,0,36.4,5.33,49.48,15.85C188,39.92,193.45,51.93,193.45,67a80,80,0,0,1-1.88,16.54l0,.21-.05.2c-3.21,12.62-7.12,27.24-11.61,43.46-7,24.89-13.79,50.66-20.23,76.64-6.35,25.59-10.48,47.64-12.29,65.55-.3,3-.45,5.79-.45,8.19a31.09,31.09,0,0,0,.72,7.56c3.38-1,10.32-5.21,20.14-21.94,10.5-17.87,22-40.16,34.27-66.25A886.84,886.84,0,0,1,267.89,76.83c26.65-40.77,59.17-61.44,96.66-61.44,6,0,13.21,1.85,22,5.64a52.53,52.53,0,0,1,23.17,19.85c4.77,7.23,7.19,16.17,7.19,26.58a82.33,82.33,0,0,1-.75,10.79l-1.49,11.2-11.06-2.34a72.16,72.16,0,0,0-14.83-1.59c-22.51,0-45.06,13.22-67,39.28-23.6,28-47.12,63.13-69.9,104.37-18.64,33.18-37.35,62.54-55.62,87.31C176.17,343.73,154.43,357.55,131.65,357.55ZM95.53,72.16C88.3,79.36,84.25,86,83.81,91.26c-.08,1-.13,1.82-.13,2.61A14.46,14.46,0,0,0,87.41,104c2.86,3.24,5.21,3.65,6.93,3.65h9.5l.92,9.45c.13,1.26.2,2.43.21,3.57q4.66-20,9.43-37.8c.63-2.63,1.26-5.2,1.89-7.73a32.72,32.72,0,0,0,.6-5.71c0-4.17-.77-4.3-2.15-4.53l-.24,0-.23-.05a12,12,0,0,0-2.43-.26C106.85,64.56,101.36,67.12,95.53,72.16Z" transform="translate(0.33 15.09)"/><path class="cls-1" d="M482.24,357.88c-26.83,0-46.6-7.51-58.76-22.31-10.36-12.43-15.87-26.3-16.37-41.21q-5.24,8.65-10.81,16.79c-21.24,31-47.69,46.73-78.63,46.73-37.84,0-51.06-19.27-55.49-35.44A57.21,57.21,0,0,1,260,307c0-16.47,7.5-31.54,22.3-44.78l6.86-6.14,7,6c8.44,7.29,16.47,11,23.86,11,5.62,0,15.77-3.64,32.17-21,14.2-15,27.26-39.47,38.82-72.67l.07-.19c4-10.85,7.91-22.05,11.58-33.3,3.33-10.21,6.8-20.45,10.31-30.43l.16-.43.19-.42c9.78-21.52,23.42-33.66,40.53-36.07a38.19,38.19,0,0,1,5.65-.44c11.15,0,26.19,5,34.49,29l2.92,8.46L489,119.79c-5.18,2.75-10.1,8.33-14.63,16.59-1.66,3-3.27,6.15-4.81,9.35a109.49,109.49,0,0,0,18-13C497.93,123.6,503,112,503,97.34c0-1.86-.08-3.79-.23-5.75-4.23-16.9-14.59-26.39-32.55-29.86a71.31,71.31,0,0,0-13.37-1.3c-14.48,0-28.08,4.75-41.56,14.52-15,10.79-22.24,28.53-22.24,54.24,0,3.11.1,6.39.31,9.76l.68,11.11H382.88c-38.16,0-48-22.9-50.41-36.62a56.3,56.3,0,0,1-1-10.49c0-18.64,9.44-37.59,28-56.32s48.76-29,92-31a35.29,35.29,0,0,1,5.18-.37,37.1,37.1,0,0,1,4.86.33h3.56l.33,0c33.71,2.13,60.68,13,80.17,32.4,14.66,14.66,22.07,31.81,22.07,51a87.62,87.62,0,0,1-3.16,22.7l-.09.33-.11.32c-5.18,15.17-13.26,27.8-24,37.55a130.44,130.44,0,0,1-32.14,21.79l-1.11.51a193.47,193.47,0,0,1,27.3,12.52c26.47,14.56,40.45,39.1,41.57,73l0,.46,0,.47c-1.23,22.08-10.4,42.59-27.25,61C531.4,348.35,509.06,357.88,482.24,357.88ZM444.35,253.82c0,18.89,7.4,24.55,13,27.16a33,33,0,0,0,14.37,3.47c3.18,0,9.05-1,19-5.93,7.35-3.63,10.22-15.63,11.34-25.29,0-12.32-3.18-20.81-9.66-26a49,49,0,0,0-26.46-10.41h-.15a110.19,110.19,0,0,0-12.52-.76,76.57,76.57,0,0,0-9.64.57q-4.08,11.4-8.59,22.28l9.39-8.25Z" transform="translate(0.33 15.09)"/><path class="cls-1" d="M624.13,357.51c-37.79-3.24-50.81-22.37-55.09-37.85a52.07,52.07,0,0,1-2-14.18c0-16.69,8.42-31.93,25-45.29l8.67-7,6.43,9.07c7.77,10.94,14.5,10.94,16.72,10.94,2.55,0,10.48-1.45,29-14.91,14.07-10.23,29.88-32.73,47-66.87C715.84,159.49,726,124.29,730,86.7c-16.21-3.74-30.66-5.63-43.05-5.63a88.48,88.48,0,0,0-24,3c-4.63,2.22-8,4.78-10,7.65a21.88,21.88,0,0,0-4,9.8,47.08,47.08,0,0,0-.4,6.07,49.68,49.68,0,0,0,.63,7,40.68,40.68,0,0,0,1.76,7.43l5.42,15.67L644.54,140A91.39,91.39,0,0,1,627,141.81c-17,0-29.93-5.87-38.47-17.46a54.41,54.41,0,0,1-10.8-33c0-6.06,1.61-14.89,4.91-27,3.87-14.2,16.15-26.49,37.56-37.58l.33-.17.34-.15a112.82,112.82,0,0,1,44.75-9.6c6.39,0,15.92,1.13,29.14,3.46,13.06,2.3,29.58,7.3,49.1,14.85,7.58,2.67,15.27,5.27,22.87,7.73,21.77,6.27,41,9.45,57,9.45,29.29,0,48.57-10.19,59-31.16l2.88-5.82h6.5c15.51,0,26.83,8.46,31.88,23.82a43,43,0,0,1,2.36,13.89c0,9.8-3.9,20.05-11.93,31.33-8.6,12.08-25.74,19.12-52.4,21.52l-.47,0h-.47a395.9,395.9,0,0,1-68.6-5.87c-7.9,50.89-25.65,104.33-52.84,159C709.26,320.22,671,353.31,626,357.5l-.93.09Z" transform="translate(0.33 15.09)"/><path class="cls-1" d="M127.46,353.36c-15.43,0-27.61-5.41-36.21-16.07-8-9.94-12.45-23.82-13.53-42.43-.45-6.67-.68-13.61-.68-20.64,0-28,3.68-60.84,10.93-97.75q4.66-23.81,9.52-45.52a34.06,34.06,0,0,1-11.76,12.67A58.17,58.17,0,0,1,53,153.14l-8.53-.09c-8.45-.08-17-4.86-26.17-14.6l-.09-.09C11.47,131,8.05,120.84,8.05,108.17A88.77,88.77,0,0,1,9.53,92.63l0-.22,0-.23c4.42-19.75,12.93-35.56,25.31-47A113.19,113.19,0,0,1,73.51,21.3c13.21-4.71,25-7.64,35.19-8.72l14.46-1.38h.5c19.75,0,36.4,5.34,49.48,15.85,10.71,8.69,16.12,20.7,16.12,35.73a80.6,80.6,0,0,1-1.87,16.53l0,.21-.05.2c-3.21,12.62-7.12,27.24-11.61,43.46-7,24.89-13.79,50.67-20.23,76.64-6.35,25.59-10.48,47.64-12.29,65.55-.29,3-.44,5.79-.44,8.19a31.26,31.26,0,0,0,.71,7.56c3.38-1,10.32-5.21,20.15-21.94,10.49-17.87,22-40.16,34.26-66.25A886.12,886.12,0,0,1,263.7,72.65c26.65-40.77,59.17-61.45,96.67-61.45,6,0,13.21,1.85,22,5.64a52.64,52.64,0,0,1,23.17,19.85c4.77,7.24,7.18,16.17,7.18,26.58A82.33,82.33,0,0,1,412,74.06l-1.49,11.2-11-2.34a72.26,72.26,0,0,0-14.84-1.59c-22.51,0-45.06,13.22-67,39.28-23.6,28-47.12,63.13-69.9,104.37-18.64,33.18-37.34,62.54-55.62,87.32C172,339.54,150.24,353.36,127.46,353.36ZM91.34,68c-7.23,7.2-11.28,13.8-11.71,19.1-.09,1-.13,1.83-.13,2.61a14.45,14.45,0,0,0,3.72,10.14c2.86,3.24,5.21,3.66,6.93,3.66h9.5l.93,9.44c.12,1.26.19,2.44.21,3.57,3.11-13.32,6.25-25.95,9.42-37.8.63-2.62,1.26-5.2,1.89-7.72a32.92,32.92,0,0,0,.6-5.72c0-4.17-.77-4.3-2.15-4.53l-.24,0-.23,0a12,12,0,0,0-2.43-.26C102.66,60.37,97.18,62.93,91.34,68Z" transform="translate(0.33 15.09)"/><path class="cls-1" d="M478.06,353.69c-26.84,0-46.61-7.51-58.77-22.31-10.35-12.42-15.87-26.29-16.37-41.21q-5.24,8.65-10.81,16.79c-21.24,31-47.69,46.73-78.62,46.73-37.85,0-51.07-19.27-55.49-35.44a56.83,56.83,0,0,1-2.19-15.47c0-16.47,7.5-31.53,22.3-44.78l6.86-6.13,7,6c8.45,7.29,16.47,11,23.86,11,5.62,0,15.77-3.64,32.17-21,14.2-15,27.26-39.47,38.82-72.67l.07-.19c4-10.85,7.91-22.05,11.59-33.3,3.33-10.21,6.8-20.45,10.31-30.42l.15-.44.19-.42c9.78-21.52,23.42-33.66,40.53-36.07a38.19,38.19,0,0,1,5.65-.44c11.15,0,26.19,5,34.49,29l2.93,8.47-7.92,4.2c-5.17,2.75-10.1,8.33-14.63,16.59q-2.49,4.55-4.81,9.35a109.15,109.15,0,0,0,18-13c10.38-9.12,15.42-20.69,15.42-35.38,0-1.86-.07-3.79-.23-5.75C494.32,70.5,484,61,466,57.54a71.2,71.2,0,0,0-13.36-1.3c-14.49,0-28.08,4.75-41.56,14.52-15,10.79-22.25,28.53-22.25,54.25,0,3.1.1,6.38.31,9.75l.68,11.11H378.69c-38.16,0-48-22.9-50.41-36.62a56.3,56.3,0,0,1-1-10.49c0-18.64,9.44-37.58,28.05-56.32s48.76-28.95,92-31a35.29,35.29,0,0,1,5.18-.37,37.36,37.36,0,0,1,4.87.33h3.55l.33,0c33.71,2.14,60.68,13,80.17,32.4,14.66,14.66,22.08,31.81,22.08,51a87.59,87.59,0,0,1-3.17,22.7l-.09.33-.11.33c-5.18,15.16-13.26,27.8-24,37.54A130.44,130.44,0,0,1,504,177.49l-1.11.52a193.46,193.46,0,0,1,27.31,12.51c26.46,14.56,40.45,39.11,41.56,73l0,.47,0,.46c-1.23,22.08-10.4,42.6-27.25,61C527.21,344.16,504.88,353.69,478.06,353.69Zm-37.9-104.06c0,18.89,7.4,24.55,13,27.17a33.2,33.2,0,0,0,14.37,3.46c3.18,0,9.05-1,19-5.93,7.34-3.63,10.22-15.63,11.33-25.29,0-12.32-3.17-20.81-9.66-26a49,49,0,0,0-26.46-10.41h-.15A112.55,112.55,0,0,0,449,211.9a76.41,76.41,0,0,0-9.63.57q-4.08,11.4-8.6,22.28l9.39-8.24Z" transform="translate(0.33 15.09)"/><path class="cls-1" d="M619.94,353.32c-37.79-3.24-50.81-22.37-55.08-37.85a51.7,51.7,0,0,1-2-14.18c0-16.69,8.42-31.93,25-45.29l8.67-7L603,258.1C610.73,269,617.47,269,619.68,269c2.55,0,10.48-1.45,29-14.91,14.07-10.23,29.88-32.73,47-66.87,16-31.95,26.11-67.15,30.12-104.74-16.21-3.74-30.66-5.63-43-5.63a88.19,88.19,0,0,0-24,3c-4.62,2.21-8,4.78-10,7.64a21.88,21.88,0,0,0-4,9.8,47.08,47.08,0,0,0-.4,6.07,49.56,49.56,0,0,0,.63,7,40.68,40.68,0,0,0,1.76,7.43l5.43,15.68-11.82,2.32a92.14,92.14,0,0,1-17.53,1.84c-17,0-29.93-5.87-38.47-17.46a54.46,54.46,0,0,1-10.79-32.95c0-6.06,1.6-14.9,4.9-27C582.33,46,594.61,33.7,616,22.61l.33-.17.34-.15a112.82,112.82,0,0,1,44.75-9.6c6.39,0,15.92,1.13,29.14,3.46,13.07,2.31,29.58,7.3,49.1,14.85,7.58,2.67,15.27,5.27,22.87,7.73,21.78,6.27,41,9.45,57,9.45,29.29,0,48.57-10.19,59-31.15l2.88-5.83h6.5c15.52,0,26.84,8.46,31.88,23.82a42.76,42.76,0,0,1,2.36,13.89c0,9.81-3.9,20-11.93,31.33-8.6,12.08-25.74,19.12-52.4,21.52l-.47,0h-.47a395.7,395.7,0,0,1-68.59-5.87c-7.91,50.89-25.66,104.33-52.85,159-30.37,61.08-68.6,94.17-113.63,98.37l-.94.08Z" transform="translate(0.33 15.09)"/><path class="cls-1" d="M123.27,349.17c-15.42,0-27.61-5.4-36.21-16.07-8-9.94-12.44-23.82-13.52-42.43-.46-6.67-.68-13.61-.68-20.63,0-28,3.67-60.85,10.92-97.76q4.68-23.81,9.52-45.52a34.06,34.06,0,0,1-11.76,12.67A58.15,58.15,0,0,1,48.83,149l-8.53-.08c-8.44-.09-17-4.86-26.17-14.61l-.08-.09C7.29,126.81,3.86,116.66,3.86,104A89.83,89.83,0,0,1,5.34,88.44l0-.22,0-.23C9.85,68.25,18.36,52.43,30.74,41A113,113,0,0,1,69.32,17.12C82.53,12.4,94.37,9.47,104.51,8.4L119,7h.49c19.75,0,36.4,5.33,49.48,15.84,10.71,8.69,16.13,20.7,16.13,35.73a80.58,80.58,0,0,1-1.88,16.53l0,.21-.05.2C179.89,88.15,176,102.77,171.49,119c-7,24.89-13.79,50.67-20.23,76.64-6.34,25.59-10.48,47.65-12.29,65.56-.29,3-.44,5.78-.44,8.19a31.39,31.39,0,0,0,.71,7.56c3.39-1,10.32-5.22,20.15-21.95,10.49-17.86,22-40.16,34.26-66.25A886.78,886.78,0,0,1,259.52,68.46C286.16,27.69,318.68,7,356.18,7c6,0,13.21,1.84,22,5.63a52.54,52.54,0,0,1,23.17,19.86c4.77,7.23,7.18,16.17,7.18,26.57a82.33,82.33,0,0,1-.75,10.79l-1.48,11.2-11.06-2.33a71.57,71.57,0,0,0-14.84-1.59c-22.51,0-45.05,13.21-67,39.27-23.61,28-47.13,63.13-69.91,104.37-18.64,33.19-37.34,62.54-55.62,87.32C167.8,335.36,146.05,349.17,123.27,349.17ZM87.15,63.79C79.92,71,75.87,77.58,75.44,82.88c-.09,1-.13,1.83-.13,2.61A14.48,14.48,0,0,0,79,95.64c2.87,3.23,5.21,3.65,6.94,3.65h9.49l.93,9.45c.12,1.25.19,2.43.21,3.56C99.71,99,102.86,86.35,106,74.5c.63-2.62,1.26-5.2,1.89-7.72a32.92,32.92,0,0,0,.6-5.72c0-4.17-.76-4.29-2.15-4.52l-.23,0-.24,0a11.31,11.31,0,0,0-2.43-.27C98.47,56.18,93,58.74,87.15,63.79Z" transform="translate(0.33 15.09)"/><path class="cls-1" d="M473.87,349.5c-26.83,0-46.61-7.5-58.77-22.31-10.35-12.42-15.87-26.29-16.37-41.21q-5.24,8.65-10.81,16.79c-21.23,31-47.69,46.73-78.62,46.73-37.85,0-51.07-19.27-55.49-35.43a56.9,56.9,0,0,1-2.19-15.48c0-16.47,7.5-31.53,22.31-44.78l6.85-6.13,7,6c8.45,7.29,16.47,11,23.86,11,5.62,0,15.77-3.64,32.17-21C358,228.68,371,204.23,382.6,171l.07-.19c4-10.85,7.91-22.05,11.59-33.29,3.33-10.21,6.8-20.45,10.31-30.43l.15-.44.19-.42c9.78-21.52,23.42-33.65,40.54-36.07a38,38,0,0,1,5.64-.44c11.16,0,26.19,5,34.49,29l2.93,8.47-7.91,4.2c-5.18,2.75-10.11,8.33-14.64,16.59q-2.49,4.55-4.8,9.36a110.08,110.08,0,0,0,18-13c10.37-9.11,15.41-20.69,15.41-35.38,0-1.86-.07-3.79-.22-5.75-4.24-16.89-14.6-26.39-32.56-29.86a71.1,71.1,0,0,0-13.36-1.29c-14.49,0-28.08,4.74-41.56,14.51-15,10.79-22.25,28.53-22.25,54.25,0,3.1.1,6.38.31,9.76l.68,11.11H374.5c-38.16,0-48-22.91-50.41-36.63a56.22,56.22,0,0,1-1-10.49c0-18.63,9.44-37.58,28.05-56.32s48.77-28.95,92-31a36.58,36.58,0,0,1,5.17-.37,37.24,37.24,0,0,1,4.87.33h3.55l.33,0c33.71,2.14,60.68,13,80.17,32.41,14.66,14.65,22.08,31.81,22.08,51a87.53,87.53,0,0,1-3.17,22.7l-.09.33-.11.33c-5.18,15.16-13.26,27.8-24,37.55a130.72,130.72,0,0,1-32.15,21.78l-1.11.52A193.46,193.46,0,0,1,526,186.33c26.46,14.56,40.45,39.11,41.56,73l0,.47,0,.46c-1.23,22.09-10.4,42.6-27.25,61C523,340,500.69,349.5,473.87,349.5ZM436,245.44c0,18.9,7.4,24.56,13,27.17a33.12,33.12,0,0,0,14.36,3.46c3.18,0,9.05-1,19-5.93,7.34-3.63,10.22-15.63,11.33-25.29,0-12.32-3.17-20.81-9.65-26a49,49,0,0,0-26.47-10.4l-.14,0a112.83,112.83,0,0,0-12.52-.76,76.46,76.46,0,0,0-9.64.57q-4.08,11.4-8.6,22.28l9.39-8.24Z" transform="translate(0.33 15.09)"/><path class="cls-1" d="M615.75,349.13c-37.78-3.24-50.81-22.37-55.08-37.85a51.68,51.68,0,0,1-2-14.17c0-16.69,8.42-31.93,25-45.3l8.67-7,6.44,9.07c7.76,10.94,14.5,10.94,16.71,10.94,2.55,0,10.49-1.46,29-14.92,14.08-10.23,29.88-32.73,47-66.87,16-31.95,26.12-67.15,30.12-104.74-16.21-3.74-30.65-5.63-43-5.63a88.19,88.19,0,0,0-24,3c-4.62,2.21-8,4.78-10,7.64a21.75,21.75,0,0,0-4,9.8,47.25,47.25,0,0,0-.41,6.07,49.8,49.8,0,0,0,.63,7,41.94,41.94,0,0,0,1.76,7.43L648,129.27l-11.82,2.32a92.14,92.14,0,0,1-17.53,1.84c-17,0-29.93-5.87-38.47-17.46A54.46,54.46,0,0,1,569.37,83c0-6.06,1.6-14.9,4.91-27,3.86-14.2,16.15-26.49,37.55-37.58l.33-.17.35-.15a112.78,112.78,0,0,1,44.74-9.6c6.39,0,15.92,1.13,29.14,3.46s29.59,7.3,49.1,14.85c7.58,2.67,15.27,5.27,22.88,7.73,21.77,6.27,41,9.45,57,9.45,29.28,0,48.56-10.19,59-31.15L877.22,7h6.5c15.52,0,26.84,8.45,31.88,23.81A42.76,42.76,0,0,1,918,44.72c0,9.81-3.9,20-11.92,31.33-8.61,12.08-25.75,19.12-52.41,21.52l-.47,0h-.47a395.79,395.79,0,0,1-68.59-5.87c-7.9,50.89-25.66,104.33-52.85,159-30.37,61.08-68.6,94.17-113.63,98.37l-.93.08Z" transform="translate(0.33 15.09)"/><path class="cls-1" d="M119.08,345c-15.42,0-27.61-5.4-36.21-16.07-8-9.94-12.44-23.82-13.52-42.43-.45-6.67-.68-13.61-.68-20.63,0-28,3.67-60.85,10.92-97.76q4.68-23.81,9.52-45.51a34.13,34.13,0,0,1-11.76,12.67,58.14,58.14,0,0,1-32.71,9.51l-8.53-.08c-8.44-.09-17-4.86-26.17-14.6l-.08-.1C3.1,122.63-.33,112.47-.33,99.79A89.63,89.63,0,0,1,1.15,84.26l0-.23.05-.22c4.42-19.75,12.94-35.57,25.32-47A112.82,112.82,0,0,1,65.14,12.93c13.21-4.72,25-7.65,35.18-8.72l14.47-1.38h.5c19.75,0,36.39,5.33,49.47,15.84,10.71,8.69,16.13,20.7,16.13,35.73A80.05,80.05,0,0,1,179,70.94l0,.2-.06.2C175.7,84,171.79,98.59,167.3,114.8c-7,24.89-13.79,50.67-20.23,76.65C140.73,217,136.59,239.09,134.78,257c-.29,3-.44,5.78-.44,8.19a31.16,31.16,0,0,0,.72,7.56c3.38-1,10.32-5.22,20.14-21.94,10.5-17.87,22-40.17,34.26-66.26A887.88,887.88,0,0,1,255.33,64.27C282,23.5,314.49,2.83,352,2.83c6,0,13.21,1.84,22,5.63A52.54,52.54,0,0,1,397.2,28.32c4.77,7.23,7.19,16.17,7.19,26.57a82.28,82.28,0,0,1-.76,10.79l-1.48,11.21-11.06-2.34A71.57,71.57,0,0,0,376.25,73c-22.5,0-45.05,13.21-67,39.27-23.61,28-47.12,63.13-69.9,104.37-18.65,33.19-37.35,62.54-55.63,87.32C163.61,331.17,141.87,345,119.08,345ZM83,59.6c-7.23,7.2-11.28,13.8-11.72,19.1-.09,1-.13,1.82-.13,2.6a14.46,14.46,0,0,0,3.72,10.15c2.87,3.23,5.21,3.65,6.94,3.65h9.49l.93,9.45c.12,1.26.19,2.43.21,3.57,3.11-13.33,6.26-26,9.43-37.81.63-2.62,1.26-5.2,1.89-7.72a33.79,33.79,0,0,0,.59-5.71c0-4.17-.76-4.3-2.15-4.53l-.23,0-.24-.05A11.24,11.24,0,0,0,99.27,52C94.29,52,88.8,54.55,83,59.6Z" transform="translate(0.33 15.09)"/><path class="cls-1" d="M469.68,345.31c-26.83,0-46.6-7.5-58.77-22.31-10.35-12.42-15.87-26.29-16.37-41.2q-5.24,8.65-10.8,16.79c-21.24,31-47.7,46.72-78.63,46.72-37.85,0-51.07-19.27-55.49-35.43a57.3,57.3,0,0,1-2.19-15.48c0-16.47,7.51-31.53,22.31-44.77l6.86-6.14,7,6c8.45,7.3,16.48,11,23.86,11,5.62,0,15.77-3.64,32.17-21,14.2-15,27.26-39.47,38.82-72.68l.07-.19c4-10.85,7.91-22,11.59-33.29,3.33-10.21,6.8-20.45,10.31-30.43l.15-.44.19-.42c9.79-21.52,23.42-33.65,40.54-36.07a38,38,0,0,1,5.64-.44c11.16,0,26.2,5,34.49,29l2.93,8.47-7.91,4.2c-5.18,2.75-10.1,8.34-14.64,16.59q-2.49,4.55-4.8,9.36a110.08,110.08,0,0,0,18-13c10.37-9.11,15.42-20.69,15.42-35.38,0-1.86-.08-3.79-.23-5.75-4.24-16.89-14.6-26.39-32.55-29.86a71.28,71.28,0,0,0-13.37-1.29c-14.49,0-28.08,4.75-41.56,14.51-15,10.8-22.25,28.53-22.25,54.25,0,3.1.11,6.38.31,9.76l.68,11.11H370.31c-38.15,0-48-22.91-50.41-36.63a56.14,56.14,0,0,1-1-10.49c0-18.63,9.44-37.58,28.05-56.32s48.77-28.95,92-31a36.69,36.69,0,0,1,5.17-.37A37.13,37.13,0,0,1,449,3h3.55l.34,0c33.7,2.14,60.68,13,80.17,32.41,14.65,14.66,22.07,31.81,22.07,51a87.53,87.53,0,0,1-3.17,22.7l-.09.33-.11.33c-5.18,15.17-13.25,27.8-24,37.55a130.44,130.44,0,0,1-32.15,21.78l-1.11.52a193.56,193.56,0,0,1,27.31,12.52c26.46,14.55,40.45,39.1,41.57,72.95v.47l0,.46c-1.24,22.09-10.41,42.6-27.25,61C518.84,335.79,496.5,345.31,469.68,345.31ZM431.79,241.25c0,18.9,7.39,24.56,13,27.17a33,33,0,0,0,14.37,3.46c3.17,0,9-1,19-5.93,7.34-3.63,10.22-15.63,11.34-25.28,0-12.32-3.18-20.82-9.66-26a49,49,0,0,0-26.47-10.41l-.14,0a112.83,112.83,0,0,0-12.52-.76,78.38,78.38,0,0,0-9.64.57q-4.08,11.4-8.6,22.29l9.4-8.25Z" transform="translate(0.33 15.09)"/><path class="cls-1" d="M611.56,345c-37.78-3.25-50.81-22.38-55.08-37.85a51.81,51.81,0,0,1-2-14.18c0-16.69,8.42-31.93,25-45.3l8.66-7,6.44,9.07c7.76,10.94,14.5,10.94,16.71,10.94,2.55,0,10.49-1.45,29-14.92,14.07-10.23,29.87-32.73,47-66.87,16-32,26.12-67.15,30.12-104.74-16.21-3.74-30.65-5.63-43-5.63a88.58,88.58,0,0,0-24,3c-4.62,2.21-8,4.78-10,7.64a21.7,21.7,0,0,0-4,9.8A47.28,47.28,0,0,0,636,95a49.81,49.81,0,0,0,.63,7,41.07,41.07,0,0,0,1.77,7.43l5.42,15.67L632,127.4a92.2,92.2,0,0,1-17.53,1.85c-17,0-29.93-5.88-38.47-17.47a54.44,54.44,0,0,1-10.79-32.95c0-6.06,1.61-14.9,4.91-27,3.86-14.2,16.15-26.49,37.55-37.57l.34-.18.34-.14a112.63,112.63,0,0,1,44.75-9.61c6.38,0,15.91,1.14,29.13,3.46,13.07,2.31,29.59,7.3,49.11,14.85,7.57,2.67,15.27,5.27,22.87,7.74,21.77,6.26,41,9.44,57,9.44,29.28,0,48.57-10.19,58.95-31.15L873,2.83h6.49c15.52,0,26.84,8.45,31.89,23.81a43.06,43.06,0,0,1,2.35,13.89c0,9.81-3.9,20.06-11.92,31.33C893.24,83.94,876.1,91,849.44,93.38l-.47.05h-.47a395.87,395.87,0,0,1-68.59-5.88c-7.9,50.9-25.66,104.33-52.85,159-30.36,61.08-68.59,94.18-113.63,98.37l-.93.09Z" transform="translate(0.33 15.09)"/><path class="cls-1" d="M119.08,345c-15.42,0-27.61-5.4-36.21-16.07-8-9.94-12.44-23.82-13.52-42.43-.45-6.67-.68-13.61-.68-20.63,0-28,3.67-60.85,10.92-97.76q4.68-23.81,9.52-45.51a34.13,34.13,0,0,1-11.76,12.67,58.14,58.14,0,0,1-32.71,9.51l-8.53-.08c-8.44-.09-17-4.86-26.17-14.6l-.08-.1C3.1,122.63-.33,112.47-.33,99.79A89.63,89.63,0,0,1,1.15,84.26l0-.23.05-.22c4.42-19.75,12.94-35.57,25.32-47A112.82,112.82,0,0,1,65.14,12.93c13.21-4.72,25-7.65,35.18-8.72l14.47-1.38h.5c19.75,0,36.39,5.33,49.47,15.84,10.71,8.69,16.13,20.7,16.13,35.73A80.05,80.05,0,0,1,179,70.94l0,.2-.06.2C175.7,84,171.79,98.59,167.3,114.8c-7,24.89-13.79,50.67-20.23,76.65C140.73,217,136.59,239.09,134.78,257c-.29,3-.44,5.78-.44,8.19a31.16,31.16,0,0,0,.72,7.56c3.38-1,10.32-5.22,20.14-21.94,10.5-17.87,22-40.17,34.26-66.26A887.88,887.88,0,0,1,255.33,64.27C282,23.5,314.49,2.83,352,2.83c6,0,13.21,1.84,22,5.63A52.54,52.54,0,0,1,397.2,28.32c4.77,7.23,7.19,16.17,7.19,26.57a82.28,82.28,0,0,1-.76,10.79l-1.48,11.21-11.06-2.34A71.57,71.57,0,0,0,376.25,73c-22.5,0-45.05,13.21-67,39.27-23.61,28-47.12,63.13-69.9,104.37-18.65,33.19-37.35,62.54-55.63,87.32C163.61,331.17,141.87,345,119.08,345ZM83,59.6c-7.23,7.2-11.28,13.8-11.72,19.1-.09,1-.13,1.82-.13,2.6a14.46,14.46,0,0,0,3.72,10.15c2.87,3.23,5.21,3.65,6.94,3.65h9.49l.93,9.45c.12,1.26.19,2.43.21,3.57,3.11-13.33,6.26-26,9.43-37.81.63-2.62,1.26-5.2,1.89-7.72a33.79,33.79,0,0,0,.59-5.71c0-4.17-.76-4.3-2.15-4.53l-.23,0-.24-.05A11.24,11.24,0,0,0,99.27,52C94.29,52,88.8,54.55,83,59.6Z" transform="translate(0.33 15.09)"/><path class="cls-1" d="M469.68,345.31c-26.83,0-46.6-7.5-58.77-22.31-10.35-12.42-15.87-26.29-16.37-41.2q-5.24,8.65-10.8,16.79c-21.24,31-47.7,46.72-78.63,46.72-37.85,0-51.07-19.27-55.49-35.43a57.3,57.3,0,0,1-2.19-15.48c0-16.47,7.51-31.53,22.31-44.77l6.86-6.14,7,6c8.45,7.3,16.48,11,23.86,11,5.62,0,15.77-3.64,32.17-21,14.2-15,27.26-39.47,38.82-72.68l.07-.19c4-10.85,7.91-22,11.59-33.29,3.33-10.21,6.8-20.45,10.31-30.43l.15-.44.19-.42c9.79-21.52,23.42-33.65,40.54-36.07a38,38,0,0,1,5.64-.44c11.16,0,26.2,5,34.49,29l2.93,8.47-7.91,4.2c-5.18,2.75-10.1,8.34-14.64,16.59q-2.49,4.55-4.8,9.36a110.08,110.08,0,0,0,18-13c10.37-9.11,15.42-20.69,15.42-35.38,0-1.86-.08-3.79-.23-5.75-4.24-16.89-14.6-26.39-32.55-29.86a71.28,71.28,0,0,0-13.37-1.29c-14.49,0-28.08,4.75-41.56,14.51-15,10.8-22.25,28.53-22.25,54.25,0,3.1.11,6.38.31,9.76l.68,11.11H370.31c-38.15,0-48-22.91-50.41-36.63a56.14,56.14,0,0,1-1-10.49c0-18.63,9.44-37.58,28.05-56.32s48.77-28.95,92-31a36.69,36.69,0,0,1,5.17-.37A37.13,37.13,0,0,1,449,3h3.55l.34,0c33.7,2.14,60.68,13,80.17,32.41,14.65,14.66,22.07,31.81,22.07,51a87.53,87.53,0,0,1-3.17,22.7l-.09.33-.11.33c-5.18,15.17-13.25,27.8-24,37.55a130.44,130.44,0,0,1-32.15,21.78l-1.11.52a193.56,193.56,0,0,1,27.31,12.52c26.46,14.55,40.45,39.1,41.57,72.95v.47l0,.46c-1.24,22.09-10.41,42.6-27.25,61C518.84,335.79,496.5,345.31,469.68,345.31ZM431.79,241.25c0,18.9,7.39,24.56,13,27.17a33,33,0,0,0,14.37,3.46c3.17,0,9-1,19-5.93,7.34-3.63,10.22-15.63,11.34-25.28,0-12.32-3.18-20.82-9.66-26a49,49,0,0,0-26.47-10.41l-.14,0a112.83,112.83,0,0,0-12.52-.76,78.38,78.38,0,0,0-9.64.57q-4.08,11.4-8.6,22.29l9.4-8.25Z" transform="translate(0.33 15.09)"/><path class="cls-1" d="M611.56,345c-37.78-3.25-50.81-22.38-55.08-37.85a51.81,51.81,0,0,1-2-14.18c0-16.69,8.42-31.93,25-45.3l8.66-7,6.44,9.07c7.76,10.94,14.5,10.94,16.71,10.94,2.55,0,10.49-1.45,29-14.92,14.07-10.23,29.87-32.73,47-66.87,16-32,26.12-67.15,30.12-104.74-16.21-3.74-30.65-5.63-43-5.63a88.58,88.58,0,0,0-24,3c-4.62,2.21-8,4.78-10,7.64a21.7,21.7,0,0,0-4,9.8A47.28,47.28,0,0,0,636,95a49.81,49.81,0,0,0,.63,7,41.07,41.07,0,0,0,1.77,7.43l5.42,15.67L632,127.4a92.2,92.2,0,0,1-17.53,1.85c-17,0-29.93-5.88-38.47-17.47a54.44,54.44,0,0,1-10.79-32.95c0-6.06,1.61-14.9,4.91-27,3.86-14.2,16.15-26.49,37.55-37.57l.34-.18.34-.14a112.63,112.63,0,0,1,44.75-9.61c6.38,0,15.91,1.14,29.13,3.46,13.07,2.31,29.59,7.3,49.11,14.85,7.57,2.67,15.27,5.27,22.87,7.74,21.77,6.26,41,9.44,57,9.44,29.28,0,48.57-10.19,58.95-31.15L873,2.83h6.49c15.52,0,26.84,8.45,31.89,23.81a43.06,43.06,0,0,1,2.35,13.89c0,9.81-3.9,20.06-11.92,31.33C893.24,83.94,876.1,91,849.44,93.38l-.47.05h-.47a395.87,395.87,0,0,1-68.59-5.88c-7.9,50.9-25.66,104.33-52.85,159-30.36,61.08-68.59,94.18-113.63,98.37l-.93.09Z" transform="translate(0.33 15.09)"/><text class="cls-2" transform="translate(10.31 309.66) scale(1.11)">VBT</text></svg>